<svg width="176" height="148" viewBox="0 0 176 148" fill="none" xmlns="http://www.w3.org/2000/svg">
<path d="M68.3 36.785V25.355H82.745V22.115H68.3V12.305H84.41V9.02H68.3V0.379999H64.88V9.02H55.745C56.735 6.725 57.545 4.295 58.265 1.82L54.89 1.1C53.135 7.49 50.255 13.7 46.565 17.66C47.465 18.11 48.95 19.1 49.625 19.64C51.29 17.615 52.865 15.14 54.305 12.305H64.88V22.115H51.515V25.355H64.88V36.785H46.655V40.025H86.525V36.785H68.3ZM100.475 34.715V22.16H122.795V34.715H100.475ZM122.795 6.725V18.875H100.475V6.725H122.795ZM97.1 3.44V40.925H100.475V38H122.795V40.745H126.305V3.44H97.1ZM48.05 74.395C49.22 71.11 50.03 65.98 50.3 62.335L47.735 62.02C47.42 65.62 46.61 70.525 45.44 73.45L48.05 74.395ZM51.785 94.42H55.07V53.335H51.785V94.42ZM61.01 68.725C60.47 66.655 58.94 63.19 57.545 60.535L55.205 61.615C56.51 64.27 57.995 67.78 58.49 69.94L61.01 68.725ZM73.43 63.64H80.135V73.9H73.205C73.385 71.965 73.43 70.075 73.43 68.275V63.64ZM87.29 77.095V73.9H83.42V60.49H73.43V53.335H70.1V60.49H61.325V63.64H70.1V68.275C70.1 70.075 70.055 71.965 69.875 73.9H58.895V77.095H69.425C68.3 82.585 65.33 88.12 57.455 92.035C58.22 92.665 59.3 93.925 59.795 94.645C67.31 90.505 70.775 84.925 72.26 79.3C74.825 86.32 79.01 91.855 85.265 94.6C85.805 93.61 86.84 92.215 87.65 91.495C81.395 89.2 77.075 83.755 74.69 77.095H87.29ZM107.945 67.735H114.92V72.64H107.945V67.735ZM107.945 60.4H114.92V65.26H107.945V60.4ZM117.935 72.82V61.885C119.78 63.55 121.76 65.665 123.02 67.42C121.895 69.355 120.68 71.2 119.6 72.685L117.935 72.82ZM131.345 81.865V78.895H113.075V75.295H117.935V73.45L118.25 75.745C121.22 75.34 124.865 74.845 128.645 74.35C128.96 75.34 129.23 76.285 129.41 77.05L131.885 76.06C131.39 73.81 129.86 70.12 128.195 67.465L125.9 68.275C126.53 69.4 127.16 70.705 127.7 71.965L122.705 72.415C125.045 69.04 127.7 64.585 129.725 60.895L127.07 59.77C126.395 61.3 125.495 63.055 124.505 64.855C123.92 64.09 123.155 63.28 122.39 62.515C123.695 60.31 125.225 57.205 126.485 54.46L123.785 53.515C123.065 55.63 121.805 58.51 120.59 60.76C120.14 60.355 119.69 59.995 119.285 59.635L117.935 61.3V57.745H112.175C112.625 56.575 113.12 55.18 113.615 53.875L110.33 53.335C110.105 54.55 109.655 56.305 109.205 57.745H105.065V74.395C104.48 72.37 103.445 69.85 102.32 67.87L100.115 68.59C100.655 69.58 101.15 70.705 101.6 71.83L97.055 72.325C99.395 68.995 101.915 64.585 103.85 60.895L101.285 59.815C100.61 61.3 99.755 63.01 98.81 64.765C98.18 64.045 97.37 63.235 96.515 62.425C97.775 60.22 99.26 57.25 100.475 54.595L97.775 53.65C97.055 55.765 95.795 58.6 94.625 60.805C94.22 60.49 93.86 60.175 93.455 59.905L92.015 62.02C93.905 63.55 96.02 65.62 97.37 67.33C96.245 69.265 95.03 71.155 93.905 72.64L91.61 72.865L91.97 75.745C95.03 75.25 98.63 74.755 102.41 74.17C102.725 75.115 102.95 75.97 103.085 76.69L105.425 75.835L105.29 75.295H109.745V78.895H91.7V81.865H106.55C102.635 85.825 96.47 89.335 90.8 91.045C91.565 91.72 92.555 92.98 93.05 93.835C98.99 91.675 105.605 87.58 109.745 82.72V94.33H113.075V82.9C117.305 87.58 123.83 91.495 129.995 93.52C130.445 92.62 131.435 91.36 132.2 90.685C126.305 89.065 120.05 85.78 116.18 81.865H131.345ZM8.225 128.97H16.73V133.56H8.225V128.97ZM16.73 115.29V119.385H8.225V115.29H16.73ZM8.225 122.085H16.73V126.315H8.225V122.085ZM23.075 133.56H19.88V115.29H22.805V112.275H19.88V106.83H16.73V112.275H8.225V106.83H5.165V112.275H1.565V115.29H5.165V133.56H0.89V136.53H23.075V133.56ZM7.19 137.475C5.84 140.355 3.545 143.19 1.115 145.125C1.925 145.575 3.23 146.565 3.86 147.105C6.245 144.945 8.855 141.615 10.385 138.33L7.19 137.475ZM42.065 121.275H27.71V113.985C32.48 112.86 37.79 111.24 41.48 109.395L38.645 107.01C35.945 108.54 31.4 110.115 27.08 111.285L24.695 110.565V125.865C24.695 131.175 24.335 137.7 21.23 142.965C20.15 141.3 18.305 139.05 16.775 137.385L14.21 138.78C15.965 140.76 18.08 143.505 18.935 145.215L20.285 144.45C20.105 144.675 19.925 144.9 19.745 145.125C20.465 145.575 21.635 146.655 22.085 147.33C27.035 141.12 27.71 132.3 27.71 125.955V124.38H34.55V147.42H37.7V124.38H42.065V121.275ZM86.435 115.065H75.32V106.875H71.99V115.065H62.18V118.17H86.435V115.065ZM71.45 139.68C71.27 135 69.785 126.99 67.985 120.645L65.06 121.23C66.77 127.53 68.075 135.72 68.21 140.445L71.45 139.68ZM61.775 128.745L61.37 125.685L55.88 127.26V118.485H60.965V115.425H55.88V106.38H52.64V115.425H46.295V118.485H52.64V128.16C49.985 128.88 47.555 129.51 45.575 129.96L46.565 133.245L52.64 131.445V143.55C52.64 144.225 52.37 144.45 51.785 144.45C51.2 144.45 49.265 144.45 47.15 144.405C47.6 145.26 48.005 146.655 48.14 147.42C51.245 147.465 53.09 147.375 54.26 146.88C55.43 146.34 55.88 145.44 55.88 143.55V130.5L61.775 128.745ZM78.245 142.38C79.775 136.485 81.44 127.755 82.61 120.825L79.1 120.285C78.335 126.99 76.625 136.485 75.005 142.38H59.885V145.53H87.2V142.38H78.245ZM123.605 143.91C122.345 143.91 122.12 143.64 122.12 142.02V119.34H104.165C104.39 116.955 104.615 114.66 104.795 112.5H130.49V109.305H92.285V112.5H101.375C100.61 122.04 99.17 134.55 97.91 142.425C95.435 142.695 93.14 142.92 91.205 143.1L91.88 146.475C98.045 145.71 107.045 144.675 115.505 143.595L115.46 140.49C110.735 141.03 105.92 141.57 101.555 142.065C102.275 136.845 103.13 129.6 103.85 122.535H118.79V142.02C118.79 146.025 119.78 147.06 123.11 147.06H127.655C130.985 147.06 131.795 144.855 132.11 137.25C131.165 137.025 129.815 136.44 129.05 135.81C128.87 142.56 128.645 143.91 127.34 143.91H123.605ZM105.065 128.295C108.26 130.815 111.815 134.46 113.21 137.16L116 135.09C114.47 132.39 110.87 128.835 107.63 126.45L105.065 128.295ZM169.235 111.645V118.125H145.115V111.645H169.235ZM172.565 121.23V108.585H141.83V120.825C141.83 128.205 141.38 138.465 136.745 145.755C137.6 146.115 139.04 146.925 139.715 147.465C144.35 139.995 145.07 128.97 145.115 121.23H172.565ZM156.995 142.425C153.755 142.425 153.125 142.02 153.125 140.175V135.945C159.74 133.74 166.985 131.04 172.34 128.79L170.135 125.955C165.86 128.025 159.29 130.77 153.125 132.975V123.345H149.84V140.175C149.84 144.495 151.415 145.575 156.905 145.575H168.605C173.645 145.575 174.77 143.865 175.31 137.295C174.32 137.115 172.925 136.62 172.115 136.035C171.8 141.39 171.35 142.425 168.515 142.425H156.995Z" fill="black"/>
</svg>
