<svg width="367" height="141" viewBox="0 0 367 141" fill="none" xmlns="http://www.w3.org/2000/svg">
<path d="M10.5806 28.4849L16.4692 10.2256H20.6221L12.0967 34H8.99854L0.385254 10.2256H4.53809L10.5806 28.4849ZM38.376 27.6938C38.376 26.5952 37.9585 25.7456 37.1235 25.145C36.3032 24.5298 34.8604 24.0024 32.7949 23.563C30.7441 23.1235 29.1108 22.5962 27.895 21.981C26.6938 21.3657 25.8003 20.6333 25.2144 19.7837C24.6431 18.9341 24.3574 17.9233 24.3574 16.7515C24.3574 14.8032 25.1777 13.1553 26.8184 11.8076C28.4736 10.46 30.583 9.78613 33.1465 9.78613C35.8418 9.78613 38.0244 10.4819 39.6943 11.8735C41.3789 13.2651 42.2212 15.0449 42.2212 17.2129H38.1343C38.1343 16.0996 37.6582 15.1401 36.7061 14.3345C35.7686 13.5288 34.582 13.126 33.1465 13.126C31.667 13.126 30.5098 13.4482 29.6748 14.0928C28.8398 14.7373 28.4224 15.5796 28.4224 16.6196C28.4224 17.6011 28.8105 18.3408 29.5869 18.8389C30.3633 19.3369 31.7622 19.813 33.7837 20.2671C35.8198 20.7212 37.4678 21.2632 38.7275 21.8931C39.9873 22.5229 40.9175 23.2847 41.5181 24.1782C42.1333 25.0571 42.4409 26.1338 42.4409 27.4082C42.4409 29.5322 41.5913 31.2388 39.8921 32.5278C38.1929 33.8022 35.9883 34.4395 33.2783 34.4395C31.374 34.4395 29.6895 34.1025 28.2246 33.4287C26.7598 32.7549 25.6099 31.8174 24.7749 30.6162C23.9546 29.4004 23.5444 28.0894 23.5444 26.6831H27.6094C27.6826 28.0454 28.2246 29.1294 29.2354 29.9351C30.2607 30.7261 31.6084 31.1216 33.2783 31.1216C34.8164 31.1216 36.0469 30.814 36.9697 30.1987C37.9072 29.5688 38.376 28.7339 38.376 27.6938ZM33.7837 3.98535L37.0796 0.25H40.5952V0.469727L35.0142 6.49023H32.5312L27.0161 0.469727V0.25H30.4658L33.7837 3.98535ZM57.6021 34.4395C54.3794 34.4395 51.7573 33.3848 49.7358 31.2754C47.7144 29.1514 46.7036 26.3169 46.7036 22.772V22.0249C46.7036 19.6665 47.1504 17.5645 48.0439 15.7188C48.9521 13.8584 50.2119 12.4082 51.8232 11.3682C53.4492 10.3135 55.207 9.78613 57.0967 9.78613C60.1875 9.78613 62.5898 10.8042 64.3037 12.8403C66.0176 14.8765 66.8745 17.7915 66.8745 21.5854V23.2773H50.7686C50.8271 25.6211 51.5083 27.5181 52.812 28.9683C54.1304 30.4038 55.8003 31.1216 57.8218 31.1216C59.2573 31.1216 60.4731 30.8286 61.4692 30.2427C62.4653 29.6567 63.3369 28.8804 64.084 27.9136L66.5669 29.8472C64.5747 32.9087 61.5864 34.4395 57.6021 34.4395ZM57.0967 13.126C55.4561 13.126 54.0791 13.7266 52.9658 14.9277C51.8525 16.1143 51.1641 17.7842 50.9004 19.9375H62.8096V19.6299C62.6924 17.5645 62.1357 15.9678 61.1396 14.8398C60.1436 13.6973 58.7959 13.126 57.0967 13.126ZM81.1348 31.1216C82.585 31.1216 83.8521 30.6821 84.936 29.8032C86.02 28.9243 86.6206 27.8257 86.7378 26.5073H90.583C90.5098 27.8696 90.041 29.166 89.1768 30.3965C88.3125 31.627 87.1553 32.6084 85.7051 33.3408C84.2695 34.0732 82.7461 34.4395 81.1348 34.4395C77.8975 34.4395 75.3193 33.3628 73.4004 31.2095C71.4961 29.0415 70.5439 26.0825 70.5439 22.3325V21.6514C70.5439 19.3369 70.9688 17.2788 71.8184 15.4771C72.668 13.6753 73.8838 12.2764 75.4658 11.2803C77.0625 10.2842 78.9448 9.78613 81.1128 9.78613C83.7788 9.78613 85.9907 10.5845 87.7485 12.1812C89.521 13.7778 90.4658 15.8506 90.583 18.3994H86.7378C86.6206 16.8613 86.0347 15.6016 84.98 14.6201C83.9399 13.624 82.6509 13.126 81.1128 13.126C79.0474 13.126 77.4434 13.873 76.3008 15.3672C75.1729 16.8467 74.6089 18.9927 74.6089 21.8052V22.5742C74.6089 25.3135 75.1729 27.4229 76.3008 28.9023C77.4287 30.3818 79.04 31.1216 81.1348 31.1216ZM99.2183 13.104C101.02 10.8921 103.364 9.78613 106.25 9.78613C111.274 9.78613 113.808 12.6206 113.852 18.2896V34H109.787V18.2676C109.772 16.5537 109.377 15.2866 108.601 14.4663C107.839 13.646 106.645 13.2358 105.019 13.2358C103.701 13.2358 102.543 13.5874 101.547 14.2905C100.551 14.9937 99.7749 15.9165 99.2183 17.0591V34H95.1533V0.25H99.2183V13.104ZM123.784 10.2256L123.916 13.2139C125.732 10.9287 128.105 9.78613 131.035 9.78613C136.059 9.78613 138.593 12.6206 138.637 18.2896V34H134.572V18.2676C134.558 16.5537 134.162 15.2866 133.386 14.4663C132.624 13.646 131.43 13.2358 129.804 13.2358C128.486 13.2358 127.329 13.5874 126.333 14.2905C125.336 14.9937 124.56 15.9165 124.003 17.0591V34H119.938V10.2256H123.784ZM143.691 21.8931C143.691 19.564 144.145 17.4692 145.053 15.6089C145.976 13.7485 147.25 12.313 148.876 11.3022C150.517 10.2915 152.385 9.78613 154.479 9.78613C157.717 9.78613 160.332 10.9067 162.324 13.1479C164.331 15.3892 165.334 18.3701 165.334 22.0908V22.3765C165.334 24.6909 164.887 26.771 163.994 28.6167C163.115 30.4478 161.848 31.876 160.192 32.9014C158.552 33.9268 156.662 34.4395 154.523 34.4395C151.301 34.4395 148.686 33.3188 146.679 31.0776C144.687 28.8364 143.691 25.8701 143.691 22.1787V21.8931ZM147.778 22.3765C147.778 25.0132 148.386 27.1299 149.602 28.7266C150.832 30.3232 152.473 31.1216 154.523 31.1216C156.589 31.1216 158.229 30.3159 159.445 28.7046C160.661 27.0786 161.269 24.8081 161.269 21.8931C161.269 19.2856 160.646 17.1763 159.401 15.5649C158.171 13.939 156.53 13.126 154.479 13.126C152.473 13.126 150.854 13.9243 149.624 15.521C148.393 17.1177 147.778 19.4028 147.778 22.3765ZM185.439 10.2256L185.571 13.2139C187.387 10.9287 189.76 9.78613 192.69 9.78613C197.714 9.78613 200.249 12.6206 200.292 18.2896V34H196.228V18.2676C196.213 16.5537 195.817 15.2866 195.041 14.4663C194.279 13.646 193.085 13.2358 191.459 13.2358C190.141 13.2358 188.984 13.5874 187.988 14.2905C186.992 14.9937 186.215 15.9165 185.659 17.0591V34H181.594V10.2256H185.439ZM216.289 34.4395C213.066 34.4395 210.444 33.3848 208.422 31.2754C206.401 29.1514 205.39 26.3169 205.39 22.772V22.0249C205.39 19.6665 205.837 17.5645 206.73 15.7188C207.639 13.8584 208.898 12.4082 210.51 11.3682C212.136 10.3135 213.894 9.78613 215.783 9.78613C218.874 9.78613 221.276 10.8042 222.99 12.8403C224.704 14.8765 225.561 17.7915 225.561 21.5854V23.2773H209.455C209.514 25.6211 210.195 27.5181 211.499 28.9683C212.817 30.4038 214.487 31.1216 216.508 31.1216C217.944 31.1216 219.16 30.8286 220.156 30.2427C221.152 29.6567 222.023 28.8804 222.771 27.9136L225.253 29.8472C223.261 32.9087 220.273 34.4395 216.289 34.4395ZM215.783 13.126C214.143 13.126 212.766 13.7266 211.652 14.9277C210.539 16.1143 209.851 17.7842 209.587 19.9375H221.496V19.6299C221.379 17.5645 220.822 15.9678 219.826 14.8398C218.83 13.6973 217.482 13.126 215.783 13.126ZM234.482 10.2256V36.7466C234.482 41.3169 232.409 43.6021 228.264 43.6021C227.37 43.6021 226.542 43.4702 225.781 43.2065V39.9546C226.25 40.0718 226.865 40.1304 227.626 40.1304C228.535 40.1304 229.223 39.8813 229.692 39.3833C230.175 38.8999 230.417 38.0503 230.417 36.8345V10.2256H234.482ZM230 3.91943C230 3.2749 230.197 2.72559 230.593 2.27148C231.003 1.80273 231.596 1.56836 232.373 1.56836C233.164 1.56836 233.764 1.79541 234.174 2.24951C234.584 2.70361 234.79 3.26025 234.79 3.91943C234.79 4.57861 234.584 5.12793 234.174 5.56738C233.764 6.00684 233.164 6.22656 232.373 6.22656C231.582 6.22656 230.988 6.00684 230.593 5.56738C230.197 5.12793 230 4.57861 230 3.91943ZM245.468 34H241.403V0.25H245.468V34ZM261.86 34.4395C258.637 34.4395 256.015 33.3848 253.994 31.2754C251.972 29.1514 250.961 26.3169 250.961 22.772V22.0249C250.961 19.6665 251.408 17.5645 252.302 15.7188C253.21 13.8584 254.47 12.4082 256.081 11.3682C257.707 10.3135 259.465 9.78613 261.354 9.78613C264.445 9.78613 266.848 10.8042 268.562 12.8403C270.275 14.8765 271.132 17.7915 271.132 21.5854V23.2773H255.026C255.085 25.6211 255.766 27.5181 257.07 28.9683C258.388 30.4038 260.058 31.1216 262.08 31.1216C263.515 31.1216 264.731 30.8286 265.727 30.2427C266.723 29.6567 267.595 28.8804 268.342 27.9136L270.825 29.8472C268.833 32.9087 265.844 34.4395 261.86 34.4395ZM261.354 13.126C259.714 13.126 258.337 13.7266 257.224 14.9277C256.11 16.1143 255.422 17.7842 255.158 19.9375H267.067V19.6299C266.95 17.5645 266.394 15.9678 265.397 14.8398C264.401 13.6973 263.054 13.126 261.354 13.126ZM295.939 22.3765C295.939 25.9946 295.112 28.9097 293.457 31.1216C291.801 33.3335 289.56 34.4395 286.733 34.4395C283.847 34.4395 281.577 33.5239 279.921 31.6929V43.1406H275.856V10.2256H279.57L279.768 12.8623C281.423 10.8115 283.723 9.78613 286.667 9.78613C289.523 9.78613 291.779 10.8628 293.435 13.0161C295.104 15.1694 295.939 18.165 295.939 22.0029V22.3765ZM291.875 21.915C291.875 19.2344 291.303 17.1177 290.161 15.5649C289.018 14.0122 287.451 13.2358 285.458 13.2358C282.998 13.2358 281.152 14.3271 279.921 16.5098V27.8696C281.137 30.0376 282.998 31.1216 285.502 31.1216C287.451 31.1216 288.996 30.3525 290.139 28.8145C291.296 27.2617 291.875 24.9619 291.875 21.915ZM314.968 27.6938C314.968 26.5952 314.55 25.7456 313.715 25.145C312.895 24.5298 311.452 24.0024 309.387 23.563C307.336 23.1235 305.703 22.5962 304.487 21.981C303.286 21.3657 302.392 20.6333 301.806 19.7837C301.235 18.9341 300.949 17.9233 300.949 16.7515C300.949 14.8032 301.77 13.1553 303.41 11.8076C305.065 10.46 307.175 9.78613 309.738 9.78613C312.434 9.78613 314.616 10.4819 316.286 11.8735C317.971 13.2651 318.813 15.0449 318.813 17.2129H314.726C314.726 16.0996 314.25 15.1401 313.298 14.3345C312.36 13.5288 311.174 13.126 309.738 13.126C308.259 13.126 307.102 13.4482 306.267 14.0928C305.432 14.7373 305.014 15.5796 305.014 16.6196C305.014 17.6011 305.402 18.3408 306.179 18.8389C306.955 19.3369 308.354 19.813 310.375 20.2671C312.412 20.7212 314.06 21.2632 315.319 21.8931C316.579 22.5229 317.509 23.2847 318.11 24.1782C318.725 25.0571 319.033 26.1338 319.033 27.4082C319.033 29.5322 318.183 31.2388 316.484 32.5278C314.785 33.8022 312.58 34.4395 309.87 34.4395C307.966 34.4395 306.281 34.1025 304.816 33.4287C303.352 32.7549 302.202 31.8174 301.367 30.6162C300.546 29.4004 300.136 28.0894 300.136 26.6831H304.201C304.274 28.0454 304.816 29.1294 305.827 29.9351C306.853 30.7261 308.2 31.1216 309.87 31.1216C311.408 31.1216 312.639 30.814 313.562 30.1987C314.499 29.5688 314.968 28.7339 314.968 27.6938ZM310.375 3.98535L313.671 0.25H317.187V0.469727L311.606 6.49023H309.123L303.608 0.469727V0.25H307.058L310.375 3.98535ZM328.745 34H324.658V10.2256H328.745V34ZM328.789 0.271973H333.71L327.822 6.73193H324.548L328.789 0.271973ZM353.244 22.9917L350.695 25.6504V34H346.63V0.25H350.695V20.6626L352.871 18.0479L360.275 10.2256H365.219L355.969 20.1572L366.296 34H361.528L353.244 22.9917ZM55.6025 63.2256L55.7344 66.2139C57.5508 63.9287 59.9238 62.7861 62.8535 62.7861C67.8779 62.7861 70.4121 65.6206 70.4561 71.2896V87H66.3911V71.2676C66.3765 69.5537 65.981 68.2866 65.2046 67.4663C64.4429 66.646 63.249 66.2358 61.623 66.2358C60.3047 66.2358 59.1475 66.5874 58.1514 67.2905C57.1553 67.9937 56.3789 68.9165 55.8223 70.0591V87H51.7573V63.2256H55.6025ZM91.2642 87C91.0298 86.5312 90.8394 85.6963 90.6929 84.4951C88.8032 86.458 86.5474 87.4395 83.9253 87.4395C81.5815 87.4395 79.6553 86.7803 78.1465 85.4619C76.6523 84.1289 75.9053 82.4443 75.9053 80.4082C75.9053 77.9326 76.8428 76.0137 78.7178 74.6514C80.6074 73.2744 83.2588 72.5859 86.6719 72.5859H90.627V70.7183C90.627 69.2974 90.2021 68.1694 89.3525 67.3345C88.5029 66.4849 87.2505 66.0601 85.5952 66.0601C84.145 66.0601 82.9292 66.4263 81.9478 67.1587C80.9663 67.8911 80.4756 68.7773 80.4756 69.8174H76.3887C76.3887 68.6309 76.8062 67.4883 77.6411 66.3896C78.4907 65.2764 79.6333 64.3975 81.0688 63.7529C82.519 63.1084 84.1084 62.7861 85.8369 62.7861C88.5762 62.7861 90.7222 63.4746 92.2749 64.8516C93.8276 66.2139 94.6333 68.0962 94.6919 70.4985V81.4409C94.6919 83.6235 94.9702 85.3594 95.5269 86.6484V87H91.2642ZM84.5186 83.9019C85.793 83.9019 87.0015 83.5723 88.144 82.9131C89.2866 82.2539 90.1143 81.397 90.627 80.3423V75.4644H87.4409C82.4604 75.4644 79.9702 76.9219 79.9702 79.8369C79.9702 81.1113 80.395 82.1074 81.2446 82.8252C82.0942 83.543 83.1855 83.9019 84.5186 83.9019ZM112.556 66.873C111.94 66.7705 111.274 66.7192 110.556 66.7192C107.89 66.7192 106.081 67.8545 105.129 70.125V87H101.064V63.2256H105.019L105.085 65.9722C106.418 63.8481 108.308 62.7861 110.754 62.7861C111.545 62.7861 112.146 62.8887 112.556 63.0938V66.873ZM114.797 74.8931C114.797 72.564 115.251 70.4692 116.159 68.6089C117.082 66.7485 118.356 65.313 119.982 64.3022C121.623 63.2915 123.491 62.7861 125.585 62.7861C128.823 62.7861 131.438 63.9067 133.43 66.1479C135.437 68.3892 136.44 71.3701 136.44 75.0908V75.3765C136.44 77.6909 135.993 79.771 135.1 81.6167C134.221 83.4478 132.954 84.876 131.298 85.9014C129.658 86.9268 127.768 87.4395 125.629 87.4395C122.407 87.4395 119.792 86.3188 117.785 84.0776C115.793 81.8364 114.797 78.8701 114.797 75.1787V74.8931ZM118.884 75.3765C118.884 78.0132 119.492 80.1299 120.708 81.7266C121.938 83.3232 123.579 84.1216 125.629 84.1216C127.695 84.1216 129.335 83.3159 130.551 81.7046C131.767 80.0786 132.375 77.8081 132.375 74.8931C132.375 72.2856 131.752 70.1763 130.507 68.5649C129.277 66.939 127.636 66.126 125.585 66.126C123.579 66.126 121.96 66.9243 120.729 68.521C119.499 70.1177 118.884 72.4028 118.884 75.3765ZM145.009 83.6821H158.918V87H140.043V84.0117L153.161 66.5874H140.241V63.2256H158.259V66.104L145.009 83.6821ZM173.024 87.4395C169.802 87.4395 167.18 86.3848 165.158 84.2754C163.137 82.1514 162.126 79.3169 162.126 75.772V75.0249C162.126 72.6665 162.573 70.5645 163.466 68.7188C164.375 66.8584 165.634 65.4082 167.246 64.3682C168.872 63.3135 170.629 62.7861 172.519 62.7861C175.61 62.7861 178.012 63.8042 179.726 65.8403C181.44 67.8765 182.297 70.7915 182.297 74.5854V76.2773H166.191C166.25 78.6211 166.931 80.5181 168.234 81.9683C169.553 83.4038 171.223 84.1216 173.244 84.1216C174.68 84.1216 175.896 83.8286 176.892 83.2427C177.888 82.6567 178.759 81.8804 179.506 80.9136L181.989 82.8472C179.997 85.9087 177.009 87.4395 173.024 87.4395ZM172.519 66.126C170.878 66.126 169.501 66.7266 168.388 67.9277C167.275 69.1143 166.586 70.7842 166.323 72.9375H178.232V72.6299C178.115 70.5645 177.558 68.9678 176.562 67.8398C175.566 66.6973 174.218 66.126 172.519 66.126ZM190.866 63.2256L190.998 66.2139C192.814 63.9287 195.188 62.7861 198.117 62.7861C203.142 62.7861 205.676 65.6206 205.72 71.2896V87H201.655V71.2676C201.64 69.5537 201.245 68.2866 200.468 67.4663C199.707 66.646 198.513 66.2358 196.887 66.2358C195.568 66.2358 194.411 66.5874 193.415 67.2905C192.419 67.9937 191.643 68.9165 191.086 70.0591V87H187.021V63.2256H190.866ZM216.267 87H212.202V63.2256H216.267V87ZM211.872 56.9194C211.872 56.2603 212.07 55.7036 212.465 55.2495C212.875 54.7954 213.476 54.5684 214.267 54.5684C215.058 54.5684 215.659 54.7954 216.069 55.2495C216.479 55.7036 216.684 56.2603 216.684 56.9194C216.684 57.5786 216.479 58.1279 216.069 58.5674C215.659 59.0068 215.058 59.2266 214.267 59.2266C213.476 59.2266 212.875 59.0068 212.465 58.5674C212.07 58.1279 211.872 57.5786 211.872 56.9194ZM226.638 63.2256L226.77 66.2139C228.586 63.9287 230.959 62.7861 233.889 62.7861C238.913 62.7861 241.447 65.6206 241.491 71.2896V87H237.426V71.2676C237.412 69.5537 237.016 68.2866 236.24 67.4663C235.478 66.646 234.284 66.2358 232.658 66.2358C231.34 66.2358 230.183 66.5874 229.187 67.2905C228.19 67.9937 227.414 68.9165 226.857 70.0591V87H222.792V63.2256H226.638ZM262.299 87C262.065 86.5312 261.875 85.6963 261.728 84.4951C259.838 86.458 257.583 87.4395 254.96 87.4395C252.617 87.4395 250.69 86.7803 249.182 85.4619C247.688 84.1289 246.94 82.4443 246.94 80.4082C246.94 77.9326 247.878 76.0137 249.753 74.6514C251.643 73.2744 254.294 72.5859 257.707 72.5859H261.662V70.7183C261.662 69.2974 261.237 68.1694 260.388 67.3345C259.538 66.4849 258.286 66.0601 256.63 66.0601C255.18 66.0601 253.964 66.4263 252.983 67.1587C252.001 67.8911 251.511 68.7773 251.511 69.8174H247.424C247.424 68.6309 247.841 67.4883 248.676 66.3896C249.526 65.2764 250.668 64.3975 252.104 63.7529C253.554 63.1084 255.144 62.7861 256.872 62.7861C259.611 62.7861 261.757 63.4746 263.31 64.8516C264.863 66.2139 265.668 68.0962 265.727 70.4985V81.4409C265.727 83.6235 266.005 85.3594 266.562 86.6484V87H262.299ZM255.554 83.9019C256.828 83.9019 258.037 83.5723 259.179 82.9131C260.322 82.2539 261.149 81.397 261.662 80.3423V75.4644H258.476C253.496 75.4644 251.005 76.9219 251.005 79.8369C251.005 81.1113 251.43 82.1074 252.28 82.8252C253.129 83.543 254.221 83.9019 255.554 83.9019ZM259.311 53.25H264.233L258.344 59.71H255.07L259.311 53.25ZM275.922 63.2256L276.032 65.8623C277.775 63.8115 280.126 62.7861 283.085 62.7861C286.411 62.7861 288.674 64.0605 289.875 66.6094C290.666 65.4668 291.691 64.5439 292.951 63.8408C294.226 63.1377 295.727 62.7861 297.456 62.7861C302.67 62.7861 305.322 65.5474 305.41 71.0698V87H301.345V71.3115C301.345 69.6123 300.957 68.3452 300.18 67.5103C299.404 66.6606 298.1 66.2358 296.269 66.2358C294.76 66.2358 293.508 66.6899 292.512 67.5981C291.516 68.4917 290.937 69.7002 290.776 71.2236V87H286.689V71.4214C286.689 67.9644 284.997 66.2358 281.613 66.2358C278.947 66.2358 277.124 67.3711 276.142 69.6416V87H272.077V63.2256H275.922ZM311.43 93.3721L309.123 91.79C310.5 89.8711 311.218 87.8936 311.276 85.8574V82.188H315.253V85.374C315.253 86.8535 314.887 88.333 314.155 89.8125C313.437 91.292 312.529 92.4785 311.43 93.3721ZM128.222 133.694C128.222 132.595 127.805 131.746 126.97 131.145C126.149 130.53 124.707 130.002 122.641 129.563C120.59 129.124 118.957 128.596 117.741 127.981C116.54 127.366 115.646 126.633 115.061 125.784C114.489 124.934 114.204 123.923 114.204 122.751C114.204 120.803 115.024 119.155 116.665 117.808C118.32 116.46 120.429 115.786 122.993 115.786C125.688 115.786 127.871 116.482 129.541 117.874C131.225 119.265 132.067 121.045 132.067 123.213H127.98C127.98 122.1 127.504 121.14 126.552 120.334C125.615 119.529 124.428 119.126 122.993 119.126C121.513 119.126 120.356 119.448 119.521 120.093C118.686 120.737 118.269 121.58 118.269 122.62C118.269 123.601 118.657 124.341 119.433 124.839C120.209 125.337 121.608 125.813 123.63 126.267C125.666 126.721 127.314 127.263 128.574 127.893C129.833 128.523 130.764 129.285 131.364 130.178C131.979 131.057 132.287 132.134 132.287 133.408C132.287 135.532 131.438 137.239 129.738 138.528C128.039 139.802 125.834 140.439 123.125 140.439C121.22 140.439 119.536 140.103 118.071 139.429C116.606 138.755 115.456 137.817 114.621 136.616C113.801 135.4 113.391 134.089 113.391 132.683H117.456C117.529 134.045 118.071 135.129 119.082 135.935C120.107 136.726 121.455 137.122 123.125 137.122C124.663 137.122 125.893 136.814 126.816 136.199C127.753 135.569 128.222 134.734 128.222 133.694ZM149.074 119.873C148.459 119.771 147.792 119.719 147.075 119.719C144.409 119.719 142.6 120.854 141.647 123.125V140H137.583V116.226H141.538L141.604 118.972C142.937 116.848 144.826 115.786 147.272 115.786C148.063 115.786 148.664 115.889 149.074 116.094V119.873ZM166.63 140C166.396 139.531 166.206 138.696 166.059 137.495C164.169 139.458 161.914 140.439 159.292 140.439C156.948 140.439 155.021 139.78 153.513 138.462C152.019 137.129 151.271 135.444 151.271 133.408C151.271 130.933 152.209 129.014 154.084 127.651C155.974 126.274 158.625 125.586 162.038 125.586H165.993V123.718C165.993 122.297 165.568 121.169 164.719 120.334C163.869 119.485 162.617 119.06 160.961 119.06C159.511 119.06 158.295 119.426 157.314 120.159C156.333 120.891 155.842 121.777 155.842 122.817H151.755C151.755 121.631 152.172 120.488 153.007 119.39C153.857 118.276 155 117.397 156.435 116.753C157.885 116.108 159.475 115.786 161.203 115.786C163.942 115.786 166.088 116.475 167.641 117.852C169.194 119.214 170 121.096 170.058 123.499V134.441C170.058 136.624 170.336 138.359 170.893 139.648V140H166.63ZM159.885 136.902C161.159 136.902 162.368 136.572 163.51 135.913C164.653 135.254 165.48 134.397 165.993 133.342V128.464H162.807C157.827 128.464 155.336 129.922 155.336 132.837C155.336 134.111 155.761 135.107 156.611 135.825C157.46 136.543 158.552 136.902 159.885 136.902ZM183.923 134.485L189.812 116.226H193.964L185.439 140H182.341L173.728 116.226H177.88L183.923 134.485ZM212.202 140C211.967 139.531 211.777 138.696 211.63 137.495C209.741 139.458 207.485 140.439 204.863 140.439C202.519 140.439 200.593 139.78 199.084 138.462C197.59 137.129 196.843 135.444 196.843 133.408C196.843 130.933 197.78 129.014 199.655 127.651C201.545 126.274 204.196 125.586 207.609 125.586H211.564V123.718C211.564 122.297 211.14 121.169 210.29 120.334C209.44 119.485 208.188 119.06 206.533 119.06C205.083 119.06 203.867 119.426 202.885 120.159C201.904 120.891 201.413 121.777 201.413 122.817H197.326C197.326 121.631 197.744 120.488 198.579 119.39C199.428 118.276 200.571 117.397 202.006 116.753C203.457 116.108 205.046 115.786 206.774 115.786C209.514 115.786 211.66 116.475 213.212 117.852C214.765 119.214 215.571 121.096 215.629 123.499V134.441C215.629 136.624 215.908 138.359 216.464 139.648V140H212.202ZM205.456 136.902C206.73 136.902 207.939 136.572 209.082 135.913C210.224 135.254 211.052 134.397 211.564 133.342V128.464H208.378C203.398 128.464 200.908 129.922 200.908 132.837C200.908 134.111 201.333 135.107 202.182 135.825C203.032 136.543 204.123 136.902 205.456 136.902ZM225.847 116.226L225.979 119.214C227.795 116.929 230.168 115.786 233.098 115.786C238.122 115.786 240.656 118.621 240.7 124.29V140H236.635V124.268C236.621 122.554 236.225 121.287 235.449 120.466C234.687 119.646 233.493 119.236 231.867 119.236C230.549 119.236 229.392 119.587 228.396 120.291C227.399 120.994 226.623 121.917 226.066 123.059V140H222.001V116.226H225.847ZM251.247 140H247.182V116.226H251.247V140ZM246.853 109.919C246.853 109.26 247.05 108.704 247.446 108.25C247.856 107.795 248.457 107.568 249.248 107.568C250.039 107.568 250.639 107.795 251.049 108.25C251.459 108.704 251.665 109.26 251.665 109.919C251.665 110.579 251.459 111.128 251.049 111.567C250.639 112.007 250.039 112.227 249.248 112.227C248.457 112.227 247.856 112.007 247.446 111.567C247.05 111.128 246.853 110.579 246.853 109.919Z" fill="black"/>
</svg>
