<svg width="217" height="141" viewBox="0 0 217 141" fill="none" xmlns="http://www.w3.org/2000/svg">
<path d="M15.814 21.915C15.814 18.209 16.6709 15.2646 18.3848 13.082C20.0986 10.8848 22.3691 9.78613 25.1963 9.78613C28.0967 9.78613 30.3599 10.8115 31.9858 12.8623L32.1836 10.2256H35.897V33.4287C35.897 36.5049 34.9814 38.9292 33.1504 40.7017C31.334 42.4741 28.8877 43.3604 25.8115 43.3604C24.0977 43.3604 22.4204 42.9941 20.7798 42.2617C19.1392 41.5293 17.8867 40.5259 17.0225 39.2515L19.1318 36.8125C20.875 38.9658 23.0063 40.0425 25.5259 40.0425C27.5034 40.0425 29.0415 39.4858 30.1401 38.3726C31.2534 37.2593 31.8101 35.6919 31.8101 33.6704V31.627C30.1841 33.502 27.9648 34.4395 25.1523 34.4395C22.3691 34.4395 20.1133 33.3188 18.3848 31.0776C16.6709 28.8364 15.814 25.7822 15.814 21.915ZM19.9009 22.3765C19.9009 25.0571 20.4502 27.1665 21.5488 28.7046C22.6475 30.228 24.1855 30.9897 26.1631 30.9897C28.7266 30.9897 30.6089 29.8252 31.8101 27.4961V16.6416C30.5649 14.3711 28.6973 13.2358 26.207 13.2358C24.2295 13.2358 22.6841 14.0049 21.5708 15.543C20.4575 17.0811 19.9009 19.3589 19.9009 22.3765ZM51.915 34.4395C48.6924 34.4395 46.0703 33.3848 44.0488 31.2754C42.0273 29.1514 41.0166 26.3169 41.0166 22.772V22.0249C41.0166 19.6665 41.4634 17.5645 42.3569 15.7188C43.2651 13.8584 44.5249 12.4082 46.1362 11.3682C47.7622 10.3135 49.52 9.78613 51.4097 9.78613C54.5005 9.78613 56.9028 10.8042 58.6167 12.8403C60.3306 14.8765 61.1875 17.7915 61.1875 21.5854V23.2773H45.0815C45.1401 25.6211 45.8213 27.5181 47.125 28.9683C48.4434 30.4038 50.1133 31.1216 52.1348 31.1216C53.5703 31.1216 54.7861 30.8286 55.7822 30.2427C56.7783 29.6567 57.6499 28.8804 58.397 27.9136L60.8799 29.8472C58.8877 32.9087 55.8994 34.4395 51.915 34.4395ZM51.4097 13.126C49.769 13.126 48.3921 13.7266 47.2788 14.9277C46.1655 16.1143 45.4771 17.7842 45.2134 19.9375H57.1226V19.6299C57.0054 17.5645 56.4487 15.9678 55.4526 14.8398C54.4565 13.6973 53.1089 13.126 51.4097 13.126ZM70.3281 34H66.2632V0.25H70.3281V34ZM91.5317 31.6489C89.9497 33.5093 87.6279 34.4395 84.5664 34.4395C82.0322 34.4395 80.0986 33.707 78.7656 32.2422C77.4473 30.7627 76.7808 28.5801 76.7661 25.6943V10.2256H80.8311V25.5845C80.8311 29.188 82.2959 30.9897 85.2256 30.9897C88.3311 30.9897 90.3965 29.8325 91.4219 27.5181V10.2256H95.4868V34H91.6196L91.5317 31.6489ZM108.319 22.9917L105.77 25.6504V34H101.705V0.25H105.77V20.6626L107.945 18.0479L115.35 10.2256H120.294L111.043 20.1572L121.371 34H116.603L108.319 22.9917ZM131.126 22.9917L128.578 25.6504V34H124.513V0.25H128.578V20.6626L130.753 18.0479L138.158 10.2256H143.102L133.851 20.1572L144.178 34H139.41L131.126 22.9917ZM151.715 34H147.65V10.2256H151.715V34ZM147.32 3.91943C147.32 3.26025 147.518 2.70361 147.914 2.24951C148.324 1.79541 148.924 1.56836 149.715 1.56836C150.506 1.56836 151.107 1.79541 151.517 2.24951C151.927 2.70361 152.132 3.26025 152.132 3.91943C152.132 4.57861 151.927 5.12793 151.517 5.56738C151.107 6.00684 150.506 6.22656 149.715 6.22656C148.924 6.22656 148.324 6.00684 147.914 5.56738C147.518 5.12793 147.32 4.57861 147.32 3.91943ZM157.274 21.915C157.274 18.209 158.131 15.2646 159.845 13.082C161.559 10.8848 163.829 9.78613 166.656 9.78613C169.557 9.78613 171.82 10.8115 173.446 12.8623L173.644 10.2256H177.357V33.4287C177.357 36.5049 176.441 38.9292 174.61 40.7017C172.794 42.4741 170.348 43.3604 167.271 43.3604C165.558 43.3604 163.88 42.9941 162.24 42.2617C160.599 41.5293 159.347 40.5259 158.482 39.2515L160.592 36.8125C162.335 38.9658 164.466 40.0425 166.986 40.0425C168.963 40.0425 170.501 39.4858 171.6 38.3726C172.713 37.2593 173.27 35.6919 173.27 33.6704V31.627C171.644 33.502 169.425 34.4395 166.612 34.4395C163.829 34.4395 161.573 33.3188 159.845 31.0776C158.131 28.8364 157.274 25.7822 157.274 21.915ZM161.361 22.3765C161.361 25.0571 161.91 27.1665 163.009 28.7046C164.107 30.228 165.646 30.9897 167.623 30.9897C170.187 30.9897 172.069 29.8252 173.27 27.4961V16.6416C172.025 14.3711 170.157 13.2358 167.667 13.2358C165.689 13.2358 164.144 14.0049 163.031 15.543C161.917 17.0811 161.361 19.3589 161.361 22.3765ZM193.375 34.4395C190.152 34.4395 187.53 33.3848 185.509 31.2754C183.487 29.1514 182.477 26.3169 182.477 22.772V22.0249C182.477 19.6665 182.923 17.5645 183.817 15.7188C184.725 13.8584 185.985 12.4082 187.596 11.3682C189.222 10.3135 190.98 9.78613 192.87 9.78613C195.96 9.78613 198.363 10.8042 200.077 12.8403C201.791 14.8765 202.647 17.7915 202.647 21.5854V23.2773H186.542C186.6 25.6211 187.281 27.5181 188.585 28.9683C189.903 30.4038 191.573 31.1216 193.595 31.1216C195.03 31.1216 196.246 30.8286 197.242 30.2427C198.238 29.6567 199.11 28.8804 199.857 27.9136L202.34 29.8472C200.348 32.9087 197.359 34.4395 193.375 34.4395ZM192.87 13.126C191.229 13.126 189.852 13.7266 188.739 14.9277C187.625 16.1143 186.937 17.7842 186.673 19.9375H198.583V19.6299C198.465 17.5645 197.909 15.9678 196.913 14.8398C195.917 13.6973 194.569 13.126 192.87 13.126ZM10.3647 81.4849L16.2534 63.2256H20.4062L11.8809 87H8.78271L0.169434 63.2256H4.32227L10.3647 81.4849ZM33.8755 87.4395C30.6528 87.4395 28.0308 86.3848 26.0093 84.2754C23.9878 82.1514 22.9771 79.3169 22.9771 75.772V75.0249C22.9771 72.6665 23.4238 70.5645 24.3174 68.7188C25.2256 66.8584 26.4854 65.4082 28.0967 64.3682C29.7227 63.3135 31.4805 62.7861 33.3701 62.7861C36.4609 62.7861 38.8633 63.8042 40.5771 65.8403C42.291 67.8765 43.1479 70.7915 43.1479 74.5854V76.2773H27.042C27.1006 78.6211 27.7817 80.5181 29.0854 81.9683C30.4038 83.4038 32.0737 84.1216 34.0952 84.1216C35.5308 84.1216 36.7466 83.8286 37.7427 83.2427C38.7388 82.6567 39.6104 81.8804 40.3574 80.9136L42.8403 82.8472C40.8481 85.9087 37.8599 87.4395 33.8755 87.4395ZM33.3701 66.126C31.7295 66.126 30.3525 66.7266 29.2393 67.9277C28.126 69.1143 27.4375 70.7842 27.1738 72.9375H39.083V72.6299C38.9658 70.5645 38.4092 68.9678 37.4131 67.8398C36.417 66.6973 35.0693 66.126 33.3701 66.126ZM59.3638 66.873C58.7485 66.7705 58.082 66.7192 57.3643 66.7192C54.6982 66.7192 52.8892 67.8545 51.937 70.125V87H47.8721V63.2256H51.8271L51.8931 65.9722C53.2261 63.8481 55.1157 62.7861 57.562 62.7861C58.353 62.7861 58.9536 62.8887 59.3638 63.0938V66.873ZM67.3179 63.2256V89.7466C67.3179 94.3169 65.2451 96.6021 61.0996 96.6021C60.2061 96.6021 59.3784 96.4702 58.6167 96.2065V92.9546C59.0854 93.0718 59.7007 93.1304 60.4624 93.1304C61.3706 93.1304 62.0591 92.8813 62.5278 92.3833C63.0112 91.8999 63.2529 91.0503 63.2529 89.8345V63.2256H67.3179ZM62.8354 56.9194C62.8354 56.2749 63.0332 55.7256 63.4287 55.2715C63.8389 54.8027 64.4321 54.5684 65.2085 54.5684C65.9995 54.5684 66.6001 54.7954 67.0103 55.2495C67.4204 55.7036 67.6255 56.2603 67.6255 56.9194C67.6255 57.5786 67.4204 58.1279 67.0103 58.5674C66.6001 59.0068 65.9995 59.2266 65.2085 59.2266C64.4175 59.2266 63.8242 59.0068 63.4287 58.5674C63.0332 58.1279 62.8354 57.5786 62.8354 56.9194ZM88.5654 87C88.3311 86.5312 88.1406 85.6963 87.9941 84.4951C86.1045 86.458 83.8486 87.4395 81.2266 87.4395C78.8828 87.4395 76.9565 86.7803 75.4478 85.4619C73.9536 84.1289 73.2065 82.4443 73.2065 80.4082C73.2065 77.9326 74.144 76.0137 76.019 74.6514C77.9087 73.2744 80.5601 72.5859 83.9731 72.5859H87.9282V70.7183C87.9282 69.2974 87.5034 68.1694 86.6538 67.3345C85.8042 66.4849 84.5518 66.0601 82.8965 66.0601C81.4463 66.0601 80.2305 66.4263 79.249 67.1587C78.2676 67.8911 77.7769 68.7773 77.7769 69.8174H73.6899C73.6899 68.6309 74.1074 67.4883 74.9424 66.3896C75.792 65.2764 76.9346 64.3975 78.3701 63.7529C79.8203 63.1084 81.4097 62.7861 83.1382 62.7861C85.8774 62.7861 88.0234 63.4746 89.5762 64.8516C91.1289 66.2139 91.9346 68.0962 91.9932 70.4985V81.4409C91.9932 83.6235 92.2715 85.3594 92.8281 86.6484V87H88.5654ZM81.8198 83.9019C83.0942 83.9019 84.3027 83.5723 85.4453 82.9131C86.5879 82.2539 87.4155 81.397 87.9282 80.3423V75.4644H84.7422C79.7617 75.4644 77.2715 76.9219 77.2715 79.8369C77.2715 81.1113 77.6963 82.1074 78.5459 82.8252C79.3955 83.543 80.4868 83.9019 81.8198 83.9019ZM113.043 87C112.809 86.5312 112.618 85.6963 112.472 84.4951C110.582 86.458 108.326 87.4395 105.704 87.4395C103.36 87.4395 101.434 86.7803 99.9253 85.4619C98.4312 84.1289 97.6841 82.4443 97.6841 80.4082C97.6841 77.9326 98.6216 76.0137 100.497 74.6514C102.386 73.2744 105.038 72.5859 108.451 72.5859H112.406V70.7183C112.406 69.2974 111.981 68.1694 111.131 67.3345C110.282 66.4849 109.029 66.0601 107.374 66.0601C105.924 66.0601 104.708 66.4263 103.727 67.1587C102.745 67.8911 102.254 68.7773 102.254 69.8174H98.1675C98.1675 68.6309 98.585 67.4883 99.4199 66.3896C100.27 65.2764 101.412 64.3975 102.848 63.7529C104.298 63.1084 105.887 62.7861 107.616 62.7861C110.355 62.7861 112.501 63.4746 114.054 64.8516C115.606 66.2139 116.412 68.0962 116.471 70.4985V81.4409C116.471 83.6235 116.749 85.3594 117.306 86.6484V87H113.043ZM106.297 83.9019C107.572 83.9019 108.78 83.5723 109.923 82.9131C111.065 82.2539 111.893 81.397 112.406 80.3423V75.4644H109.22C104.239 75.4644 101.749 76.9219 101.749 79.8369C101.749 81.1113 102.174 82.1074 103.023 82.8252C103.873 83.543 104.964 83.9019 106.297 83.9019ZM134.334 66.873C133.719 66.7705 133.053 66.7192 132.335 66.7192C129.669 66.7192 127.86 67.8545 126.908 70.125V87H122.843V63.2256H126.798L126.864 65.9722C128.197 63.8481 130.086 62.7861 132.533 62.7861C133.324 62.7861 133.924 62.8887 134.334 63.0938V66.873ZM136.664 74.915C136.664 71.2676 137.528 68.3379 139.256 66.126C140.985 63.8994 143.248 62.7861 146.046 62.7861C148.829 62.7861 151.034 63.7383 152.66 65.6426V53.25H156.725V87H152.989L152.792 84.4512C151.166 86.4434 148.902 87.4395 146.002 87.4395C143.248 87.4395 141 86.3115 139.256 84.0557C137.528 81.7998 136.664 78.8555 136.664 75.2227V74.915ZM140.729 75.3765C140.729 78.0718 141.285 80.1812 142.398 81.7046C143.512 83.228 145.05 83.9897 147.013 83.9897C149.591 83.9897 151.473 82.8325 152.66 80.5181V69.5977C151.444 67.3564 149.576 66.2358 147.057 66.2358C145.064 66.2358 143.512 67.0049 142.398 68.543C141.285 70.0811 140.729 72.3589 140.729 75.3765ZM177.73 87C177.496 86.5312 177.306 85.6963 177.159 84.4951C175.27 86.458 173.014 87.4395 170.392 87.4395C168.048 87.4395 166.122 86.7803 164.613 85.4619C163.119 84.1289 162.372 82.4443 162.372 80.4082C162.372 77.9326 163.309 76.0137 165.184 74.6514C167.074 73.2744 169.725 72.5859 173.138 72.5859H177.093V70.7183C177.093 69.2974 176.668 68.1694 175.819 67.3345C174.969 66.4849 173.717 66.0601 172.062 66.0601C170.611 66.0601 169.396 66.4263 168.414 67.1587C167.433 67.8911 166.942 68.7773 166.942 69.8174H162.855C162.855 68.6309 163.272 67.4883 164.107 66.3896C164.957 65.2764 166.1 64.3975 167.535 63.7529C168.985 63.1084 170.575 62.7861 172.303 62.7861C175.042 62.7861 177.188 63.4746 178.741 64.8516C180.294 66.2139 181.1 68.0962 181.158 70.4985V81.4409C181.158 83.6235 181.437 85.3594 181.993 86.6484V87H177.73ZM170.985 83.9019C172.259 83.9019 173.468 83.5723 174.61 82.9131C175.753 82.2539 176.581 81.397 177.093 80.3423V75.4644H173.907C168.927 75.4644 166.437 76.9219 166.437 79.8369C166.437 81.1113 166.861 82.1074 167.711 82.8252C168.561 83.543 169.652 83.9019 170.985 83.9019ZM186.563 74.915C186.563 71.209 187.42 68.2646 189.134 66.082C190.848 63.8848 193.119 62.7861 195.946 62.7861C198.846 62.7861 201.109 63.8115 202.735 65.8623L202.933 63.2256H206.646V86.4287C206.646 89.5049 205.731 91.9292 203.9 93.7017C202.083 95.4741 199.637 96.3604 196.561 96.3604C194.847 96.3604 193.17 95.9941 191.529 95.2617C189.889 94.5293 188.636 93.5259 187.772 92.2515L189.881 89.8125C191.625 91.9658 193.756 93.0425 196.275 93.0425C198.253 93.0425 199.791 92.4858 200.89 91.3726C202.003 90.2593 202.56 88.6919 202.56 86.6704V84.627C200.934 86.502 198.714 87.4395 195.902 87.4395C193.119 87.4395 190.863 86.3188 189.134 84.0776C187.42 81.8364 186.563 78.7822 186.563 74.915ZM190.65 75.3765C190.65 78.0571 191.2 80.1665 192.298 81.7046C193.397 83.228 194.935 83.9897 196.913 83.9897C199.476 83.9897 201.358 82.8252 202.56 80.4961V69.6416C201.314 67.3711 199.447 66.2358 196.957 66.2358C194.979 66.2358 193.434 67.0049 192.32 68.543C191.207 70.0811 190.65 72.3589 190.65 75.3765ZM212.667 93.3721L210.36 91.79C211.737 89.8711 212.455 87.8936 212.513 85.8574V82.188H216.49V85.374C216.49 86.8535 216.124 88.333 215.392 89.8125C214.674 91.292 213.766 92.4785 212.667 93.3721ZM54.2222 133.694C54.2222 132.595 53.8047 131.746 52.9697 131.145C52.1494 130.53 50.7065 130.002 48.6411 129.563C46.5903 129.124 44.957 128.596 43.7412 127.981C42.54 127.366 41.6465 126.633 41.0605 125.784C40.4893 124.934 40.2036 123.923 40.2036 122.751C40.2036 120.803 41.0239 119.155 42.6646 117.808C44.3198 116.46 46.4292 115.786 48.9927 115.786C51.688 115.786 53.8706 116.482 55.5405 117.874C57.2251 119.265 58.0674 121.045 58.0674 123.213H53.9805C53.9805 122.1 53.5044 121.14 52.5522 120.334C51.6147 119.529 50.4282 119.126 48.9927 119.126C47.5132 119.126 46.356 119.448 45.521 120.093C44.686 120.737 44.2686 121.58 44.2686 122.62C44.2686 123.601 44.6567 124.341 45.4331 124.839C46.2095 125.337 47.6084 125.813 49.6299 126.267C51.666 126.721 53.314 127.263 54.5737 127.893C55.8335 128.523 56.7637 129.285 57.3643 130.178C57.9795 131.057 58.2871 132.134 58.2871 133.408C58.2871 135.532 57.4375 137.239 55.7383 138.528C54.0391 139.802 51.8345 140.439 49.1245 140.439C47.2202 140.439 45.5356 140.103 44.0708 139.429C42.606 138.755 41.4561 137.817 40.6211 136.616C39.8008 135.4 39.3906 134.089 39.3906 132.683H43.4556C43.5288 134.045 44.0708 135.129 45.0815 135.935C46.1069 136.726 47.4546 137.122 49.1245 137.122C50.6626 137.122 51.8931 136.814 52.8159 136.199C53.7534 135.569 54.2222 134.734 54.2222 133.694ZM75.0742 119.873C74.459 119.771 73.7925 119.719 73.0747 119.719C70.4087 119.719 68.5996 120.854 67.6475 123.125V140H63.5825V116.226H67.5376L67.6035 118.972C68.9365 116.848 70.8262 115.786 73.2725 115.786C74.0635 115.786 74.6641 115.889 75.0742 116.094V119.873ZM92.6304 140C92.396 139.531 92.2056 138.696 92.0591 137.495C90.1694 139.458 87.9136 140.439 85.2915 140.439C82.9478 140.439 81.0215 139.78 79.5127 138.462C78.0186 137.129 77.2715 135.444 77.2715 133.408C77.2715 130.933 78.209 129.014 80.084 127.651C81.9736 126.274 84.625 125.586 88.0381 125.586H91.9932V123.718C91.9932 122.297 91.5684 121.169 90.7188 120.334C89.8691 119.485 88.6167 119.06 86.9614 119.06C85.5112 119.06 84.2954 119.426 83.314 120.159C82.3325 120.891 81.8418 121.777 81.8418 122.817H77.7549C77.7549 121.631 78.1724 120.488 79.0073 119.39C79.8569 118.276 80.9995 117.397 82.4351 116.753C83.8853 116.108 85.4746 115.786 87.2031 115.786C89.9424 115.786 92.0884 116.475 93.6411 117.852C95.1938 119.214 95.9995 121.096 96.0581 123.499V134.441C96.0581 136.624 96.3364 138.359 96.8931 139.648V140H92.6304ZM85.8848 136.902C87.1592 136.902 88.3677 136.572 89.5103 135.913C90.6528 135.254 91.4805 134.397 91.9932 133.342V128.464H88.8071C83.8267 128.464 81.3364 129.922 81.3364 132.837C81.3364 134.111 81.7612 135.107 82.6108 135.825C83.4604 136.543 84.5518 136.902 85.8848 136.902ZM109.923 134.485L115.812 116.226H119.964L111.439 140H108.341L99.7275 116.226H103.88L109.923 134.485ZM138.202 140C137.967 139.531 137.777 138.696 137.63 137.495C135.741 139.458 133.485 140.439 130.863 140.439C128.519 140.439 126.593 139.78 125.084 138.462C123.59 137.129 122.843 135.444 122.843 133.408C122.843 130.933 123.78 129.014 125.655 127.651C127.545 126.274 130.196 125.586 133.609 125.586H137.564V123.718C137.564 122.297 137.14 121.169 136.29 120.334C135.44 119.485 134.188 119.06 132.533 119.06C131.083 119.06 129.867 119.426 128.885 120.159C127.904 120.891 127.413 121.777 127.413 122.817H123.326C123.326 121.631 123.744 120.488 124.579 119.39C125.428 118.276 126.571 117.397 128.006 116.753C129.457 116.108 131.046 115.786 132.774 115.786C135.514 115.786 137.66 116.475 139.212 117.852C140.765 119.214 141.571 121.096 141.629 123.499V134.441C141.629 136.624 141.908 138.359 142.464 139.648V140H138.202ZM131.456 136.902C132.73 136.902 133.939 136.572 135.082 135.913C136.224 135.254 137.052 134.397 137.564 133.342V128.464H134.378C129.398 128.464 126.908 129.922 126.908 132.837C126.908 134.111 127.333 135.107 128.182 135.825C129.032 136.543 130.123 136.902 131.456 136.902ZM151.847 116.226L151.979 119.214C153.795 116.929 156.168 115.786 159.098 115.786C164.122 115.786 166.656 118.621 166.7 124.29V140H162.635V124.268C162.621 122.554 162.225 121.287 161.449 120.466C160.687 119.646 159.493 119.236 157.867 119.236C156.549 119.236 155.392 119.587 154.396 120.291C153.399 120.994 152.623 121.917 152.066 123.059V140H148.001V116.226H151.847ZM177.247 140H173.182V116.226H177.247V140ZM172.853 109.919C172.853 109.26 173.05 108.704 173.446 108.25C173.856 107.795 174.457 107.568 175.248 107.568C176.039 107.568 176.639 107.795 177.049 108.25C177.459 108.704 177.665 109.26 177.665 109.919C177.665 110.579 177.459 111.128 177.049 111.567C176.639 112.007 176.039 112.227 175.248 112.227C174.457 112.227 173.856 112.007 173.446 111.567C173.05 111.128 172.853 110.579 172.853 109.919Z" fill="black"/>
</svg>
