<svg width="168" height="139" viewBox="0 0 168 139" fill="none" xmlns="http://www.w3.org/2000/svg">
<path d="M47.2285 32H42.9878V17.2124H26.8599V32H22.6411V0.0078125H26.8599V13.7627H42.9878V0.0078125H47.2285V32ZM68.7617 32C68.5273 31.5312 68.3369 30.6963 68.1904 29.4951C66.3008 31.458 64.0449 32.4395 61.4229 32.4395C59.0791 32.4395 57.1528 31.7803 55.644 30.4619C54.1499 29.1289 53.4028 27.4443 53.4028 25.4082C53.4028 22.9326 54.3403 21.0137 56.2153 19.6514C58.105 18.2744 60.7563 17.5859 64.1694 17.5859H68.1245V15.7183C68.1245 14.2974 67.6997 13.1694 66.8501 12.3345C66.0005 11.4849 64.748 11.0601 63.0928 11.0601C61.6426 11.0601 60.4268 11.4263 59.4453 12.1587C58.4639 12.8911 57.9731 13.7773 57.9731 14.8174H53.8862C53.8862 13.6309 54.3037 12.4883 55.1387 11.3896C55.9883 10.2764 57.1309 9.39746 58.5664 8.75293C60.0166 8.1084 61.606 7.78613 63.3345 7.78613C66.0737 7.78613 68.2197 8.47461 69.7725 9.85156C71.3252 11.2139 72.1309 13.0962 72.1895 15.4985V26.4409C72.1895 28.6235 72.4678 30.3594 73.0244 31.6484V32H68.7617ZM62.0161 28.9019C63.2905 28.9019 64.499 28.5723 65.6416 27.9131C66.7842 27.2539 67.6118 26.397 68.1245 25.3423V20.4644H64.9385C59.958 20.4644 57.4678 21.9219 57.4678 24.8369C57.4678 26.1113 57.8926 27.1074 58.7422 27.8252C59.5918 28.543 60.6831 28.9019 62.0161 28.9019ZM98.6445 20.3765C98.6445 23.9946 97.8169 26.9097 96.1616 29.1216C94.5063 31.3335 92.2651 32.4395 89.438 32.4395C86.5522 32.4395 84.2817 31.5239 82.6265 29.6929V41.1406H78.5615V8.22559H82.2749L82.4727 10.8623C84.1279 8.81152 86.4277 7.78613 89.3721 7.78613C92.2285 7.78613 94.4844 8.86279 96.1396 11.0161C97.8096 13.1694 98.6445 16.165 98.6445 20.0029V20.3765ZM94.5796 19.915C94.5796 17.2344 94.0083 15.1177 92.8657 13.5649C91.7231 12.0122 90.1558 11.2358 88.1636 11.2358C85.7026 11.2358 83.8569 12.3271 82.6265 14.5098V25.8696C83.8423 28.0376 85.7026 29.1216 88.2075 29.1216C90.1558 29.1216 91.7012 28.3525 92.8438 26.8145C94.001 25.2617 94.5796 22.9619 94.5796 19.915ZM123.913 20.3765C123.913 23.9946 123.085 26.9097 121.43 29.1216C119.775 31.3335 117.534 32.4395 114.707 32.4395C111.821 32.4395 109.55 31.5239 107.895 29.6929V41.1406H103.83V8.22559H107.543L107.741 10.8623C109.396 8.81152 111.696 7.78613 114.641 7.78613C117.497 7.78613 119.753 8.86279 121.408 11.0161C123.078 13.1694 123.913 16.165 123.913 20.0029V20.3765ZM119.848 19.915C119.848 17.2344 119.277 15.1177 118.134 13.5649C116.992 12.0122 115.424 11.2358 113.432 11.2358C110.971 11.2358 109.125 12.3271 107.895 14.5098V25.8696C109.111 28.0376 110.971 29.1216 113.476 29.1216C115.424 29.1216 116.97 28.3525 118.112 26.8145C119.27 25.2617 119.848 22.9619 119.848 19.915ZM136.613 26.0454L142.15 8.22559H146.501L136.943 35.6694C135.463 39.6245 133.112 41.6021 129.89 41.6021L129.121 41.5361L127.604 41.2505V37.9546L128.703 38.0425C130.08 38.0425 131.149 37.7642 131.911 37.2075C132.688 36.6509 133.325 35.6328 133.823 34.1533L134.724 31.7363L126.242 8.22559H130.681L136.613 26.0454ZM0.646484 85V53.0078H11.1055C14.5771 53.0078 17.1846 53.7256 18.9277 55.1611C20.6855 56.5967 21.5645 58.7207 21.5645 61.5332C21.5645 63.0273 21.1396 64.353 20.29 65.5103C19.4404 66.6528 18.2832 67.5391 16.8184 68.1689C18.5469 68.6523 19.9092 69.5752 20.9053 70.9375C21.916 72.2852 22.4214 73.8965 22.4214 75.7715C22.4214 78.6426 21.4912 80.8984 19.6309 82.5391C17.7705 84.1797 15.1411 85 11.7427 85H0.646484ZM4.86523 70.0366V81.5503H11.8306C13.7935 81.5503 15.3389 81.0449 16.4668 80.0342C17.6094 79.0088 18.1807 77.6025 18.1807 75.8154C18.1807 71.9629 16.0859 70.0366 11.8965 70.0366H4.86523ZM4.86523 66.6528H11.2373C13.083 66.6528 14.5552 66.1914 15.6538 65.2686C16.7671 64.3457 17.3237 63.0933 17.3237 61.5112C17.3237 59.7534 16.811 58.479 15.7856 57.688C14.7603 56.8823 13.2002 56.4795 11.1055 56.4795H4.86523V66.6528ZM32.4629 85H28.3979V61.2256H32.4629V85ZM28.0684 54.9194C28.0684 54.2603 28.2661 53.7036 28.6616 53.2495C29.0718 52.7954 29.6724 52.5684 30.4634 52.5684C31.2544 52.5684 31.855 52.7954 32.2651 53.2495C32.6753 53.7036 32.8804 54.2603 32.8804 54.9194C32.8804 55.5786 32.6753 56.1279 32.2651 56.5674C31.855 57.0068 31.2544 57.2266 30.4634 57.2266C29.6724 57.2266 29.0718 57.0068 28.6616 56.5674C28.2661 56.1279 28.0684 55.5786 28.0684 54.9194ZM50.4805 64.873C49.8652 64.7705 49.1987 64.7192 48.481 64.7192C45.8149 64.7192 44.0059 65.8545 43.0537 68.125V85H38.9888V61.2256H42.9438L43.0098 63.9722C44.3428 61.8481 46.2324 60.7861 48.6787 60.7861C49.4697 60.7861 50.0703 60.8887 50.4805 61.0938V64.873ZM60.8516 55.4688V61.2256H65.29V64.3677H60.8516V79.1113C60.8516 80.0635 61.0493 80.7812 61.4448 81.2646C61.8403 81.7334 62.5142 81.9678 63.4663 81.9678C63.9351 81.9678 64.5796 81.8799 65.3999 81.7041V85C64.3306 85.293 63.2905 85.4395 62.2798 85.4395C60.4634 85.4395 59.0938 84.8901 58.1709 83.7915C57.248 82.6929 56.7866 81.1328 56.7866 79.1113V64.3677H52.458V61.2256H56.7866V55.4688H60.8516ZM74.123 64.104C75.9248 61.8921 78.2686 60.7861 81.1543 60.7861C86.1787 60.7861 88.7129 63.6206 88.7568 69.2896V85H84.6919V69.2676C84.6772 67.5537 84.2817 66.2866 83.5054 65.4663C82.7437 64.646 81.5498 64.2358 79.9238 64.2358C78.6055 64.2358 77.4482 64.5874 76.4521 65.2905C75.4561 65.9937 74.6797 66.9165 74.123 68.0591V85H70.0581V51.25H74.123V64.104ZM93.8545 72.915C93.8545 69.2676 94.7188 66.3379 96.4473 64.126C98.1758 61.8994 100.439 60.7861 103.237 60.7861C106.02 60.7861 108.225 61.7383 109.851 63.6426V51.25H113.916V85H110.18L109.982 82.4512C108.356 84.4434 106.093 85.4395 103.193 85.4395C100.439 85.4395 98.1904 84.3115 96.4473 82.0557C94.7188 79.7998 93.8545 76.8555 93.8545 73.2227V72.915ZM97.9194 73.3765C97.9194 76.0718 98.4761 78.1812 99.5894 79.7046C100.703 81.228 102.241 81.9897 104.204 81.9897C106.782 81.9897 108.664 80.8325 109.851 78.5181V67.5977C108.635 65.3564 106.767 64.2358 104.248 64.2358C102.255 64.2358 100.703 65.0049 99.5894 66.543C98.4761 68.0811 97.9194 70.3589 97.9194 73.3765ZM134.921 85C134.687 84.5312 134.497 83.6963 134.35 82.4951C132.46 84.458 130.205 85.4395 127.583 85.4395C125.239 85.4395 123.312 84.7803 121.804 83.4619C120.31 82.1289 119.562 80.4443 119.562 78.4082C119.562 75.9326 120.5 74.0137 122.375 72.6514C124.265 71.2744 126.916 70.5859 130.329 70.5859H134.284V68.7183C134.284 67.2974 133.859 66.1694 133.01 65.3345C132.16 64.4849 130.908 64.0601 129.252 64.0601C127.802 64.0601 126.586 64.4263 125.605 65.1587C124.624 65.8911 124.133 66.7773 124.133 67.8174H120.046C120.046 66.6309 120.463 65.4883 121.298 64.3896C122.148 63.2764 123.291 62.3975 124.726 61.7529C126.176 61.1084 127.766 60.7861 129.494 60.7861C132.233 60.7861 134.379 61.4746 135.932 62.8516C137.485 64.2139 138.291 66.0962 138.349 68.4985V79.4409C138.349 81.6235 138.627 83.3594 139.184 84.6484V85H134.921ZM128.176 81.9019C129.45 81.9019 130.659 81.5723 131.801 80.9131C132.944 80.2539 133.771 79.397 134.284 78.3423V73.4644H131.098C126.118 73.4644 123.627 74.9219 123.627 77.8369C123.627 79.1113 124.052 80.1074 124.902 80.8252C125.751 81.543 126.843 81.9019 128.176 81.9019ZM152.148 79.0454L157.685 61.2256H162.036L152.478 88.6694C150.998 92.6245 148.647 94.6021 145.424 94.6021L144.655 94.5361L143.139 94.2505V90.9546L144.238 91.0425C145.615 91.0425 146.684 90.7642 147.446 90.2075C148.222 89.6509 148.859 88.6328 149.357 87.1533L150.258 84.7363L141.777 61.2256H146.215L152.148 79.0454ZM163.178 91.3721L160.871 89.79C162.248 87.8711 162.966 85.8936 163.024 83.8574V80.188H167.001V83.374C167.001 84.8535 166.635 86.333 165.903 87.8125C165.185 89.292 164.277 90.4785 163.178 91.3721ZM22.6851 123.74C19.0669 122.7 16.4302 121.425 14.7749 119.917C13.1343 118.393 12.314 116.518 12.314 114.292C12.314 111.772 13.3174 109.692 15.3242 108.051C17.3457 106.396 19.9678 105.568 23.1904 105.568C25.3877 105.568 27.3433 105.993 29.0571 106.843C30.7856 107.692 32.1187 108.864 33.0562 110.358C34.0083 111.853 34.4844 113.486 34.4844 115.258H30.2437C30.2437 113.325 29.6284 111.809 28.3979 110.71C27.1675 109.597 25.4316 109.04 23.1904 109.04C21.1104 109.04 19.4844 109.501 18.3125 110.424C17.1553 111.333 16.5767 112.6 16.5767 114.226C16.5767 115.529 17.126 116.635 18.2246 117.543C19.3379 118.437 21.2202 119.257 23.8716 120.004C26.5376 120.751 28.6177 121.579 30.1118 122.487C31.6206 123.381 32.7339 124.428 33.4517 125.629C34.1841 126.831 34.5503 128.244 34.5503 129.87C34.5503 132.463 33.5396 134.543 31.5181 136.11C29.4966 137.663 26.7939 138.439 23.4102 138.439C21.2129 138.439 19.1621 138.022 17.2578 137.187C15.3535 136.337 13.8813 135.18 12.8413 133.715C11.8159 132.25 11.3032 130.588 11.3032 128.728H15.5439C15.5439 130.661 16.2544 132.192 17.6753 133.32C19.1108 134.433 21.0225 134.99 23.4102 134.99C25.6367 134.99 27.3433 134.536 28.5298 133.627C29.7163 132.719 30.3096 131.481 30.3096 129.914C30.3096 128.347 29.7603 127.138 28.6616 126.289C27.563 125.424 25.5708 124.575 22.6851 123.74ZM50.832 117.873C50.2168 117.771 49.5503 117.719 48.8325 117.719C46.1665 117.719 44.3574 118.854 43.4053 121.125V138H39.3403V114.226H43.2954L43.3613 116.972C44.6943 114.848 46.584 113.786 49.0303 113.786C49.8213 113.786 50.4219 113.889 50.832 114.094V117.873ZM68.3882 138C68.1538 137.531 67.9634 136.696 67.8169 135.495C65.9272 137.458 63.6714 138.439 61.0493 138.439C58.7056 138.439 56.7793 137.78 55.2705 136.462C53.7764 135.129 53.0293 133.444 53.0293 131.408C53.0293 128.933 53.9668 127.014 55.8418 125.651C57.7314 124.274 60.3828 123.586 63.7959 123.586H67.751V121.718C67.751 120.297 67.3262 119.169 66.4766 118.334C65.627 117.485 64.3745 117.06 62.7192 117.06C61.269 117.06 60.0532 117.426 59.0718 118.159C58.0903 118.891 57.5996 119.777 57.5996 120.817H53.5127C53.5127 119.631 53.9302 118.488 54.7651 117.39C55.6147 116.276 56.7573 115.397 58.1929 114.753C59.6431 114.108 61.2324 113.786 62.9609 113.786C65.7002 113.786 67.8462 114.475 69.3989 115.852C70.9517 117.214 71.7573 119.096 71.8159 121.499V132.441C71.8159 134.624 72.0942 136.359 72.6509 137.648V138H68.3882ZM61.6426 134.902C62.917 134.902 64.1255 134.572 65.2681 133.913C66.4106 133.254 67.2383 132.397 67.751 131.342V126.464H64.5649C59.5845 126.464 57.0942 127.922 57.0942 130.837C57.0942 132.111 57.519 133.107 58.3687 133.825C59.2183 134.543 60.3096 134.902 61.6426 134.902ZM85.6807 132.485L91.5693 114.226H95.7222L87.1968 138H84.0986L75.4854 114.226H79.6382L85.6807 132.485ZM113.959 138C113.725 137.531 113.535 136.696 113.388 135.495C111.499 137.458 109.243 138.439 106.621 138.439C104.277 138.439 102.351 137.78 100.842 136.462C99.3477 135.129 98.6006 133.444 98.6006 131.408C98.6006 128.933 99.5381 127.014 101.413 125.651C103.303 124.274 105.954 123.586 109.367 123.586H113.322V121.718C113.322 120.297 112.897 119.169 112.048 118.334C111.198 117.485 109.946 117.06 108.291 117.06C106.84 117.06 105.625 117.426 104.643 118.159C103.662 118.891 103.171 119.777 103.171 120.817H99.084C99.084 119.631 99.5015 118.488 100.336 117.39C101.186 116.276 102.329 115.397 103.764 114.753C105.214 114.108 106.804 113.786 108.532 113.786C111.271 113.786 113.417 114.475 114.97 115.852C116.523 117.214 117.329 119.096 117.387 121.499V132.441C117.387 134.624 117.666 136.359 118.222 137.648V138H113.959ZM107.214 134.902C108.488 134.902 109.697 134.572 110.839 133.913C111.982 133.254 112.81 132.397 113.322 131.342V126.464H110.136C105.156 126.464 102.666 127.922 102.666 130.837C102.666 132.111 103.09 133.107 103.94 133.825C104.79 134.543 105.881 134.902 107.214 134.902ZM127.604 114.226L127.736 117.214C129.553 114.929 131.926 113.786 134.855 113.786C139.88 113.786 142.414 116.621 142.458 122.29V138H138.393V122.268C138.378 120.554 137.983 119.287 137.207 118.466C136.445 117.646 135.251 117.236 133.625 117.236C132.307 117.236 131.149 117.587 130.153 118.291C129.157 118.994 128.381 119.917 127.824 121.059V138H123.759V114.226H127.604ZM153.005 138H148.94V114.226H153.005V138ZM148.61 107.919C148.61 107.26 148.808 106.704 149.204 106.25C149.614 105.795 150.214 105.568 151.005 105.568C151.796 105.568 152.397 105.795 152.807 106.25C153.217 106.704 153.422 107.26 153.422 107.919C153.422 108.579 153.217 109.128 152.807 109.567C152.397 110.007 151.796 110.227 151.005 110.227C150.214 110.227 149.614 110.007 149.204 109.567C148.808 109.128 148.61 108.579 148.61 107.919Z" fill="black"/>
</svg>
