<svg width="248" height="141" viewBox="0 0 248 141" fill="none" xmlns="http://www.w3.org/2000/svg">
<path d="M109.322 22.3765C109.322 26.0093 108.487 28.9316 106.817 31.1436C105.147 33.3408 102.906 34.4395 100.094 34.4395C97.0908 34.4395 94.769 33.3774 93.1284 31.2534L92.9307 34H89.1953V0.25H93.2603V12.8403C94.9009 10.8042 97.1641 9.78613 100.05 9.78613C102.936 9.78613 105.199 10.8774 106.839 13.0601C108.495 15.2427 109.322 18.231 109.322 22.0249V22.3765ZM105.257 21.915C105.257 19.1465 104.723 17.0078 103.653 15.499C102.584 13.9902 101.046 13.2358 99.0391 13.2358C96.3584 13.2358 94.4321 14.481 93.2603 16.9712V27.2544C94.5054 29.7446 96.4463 30.9897 99.083 30.9897C101.031 30.9897 102.547 30.2354 103.631 28.7266C104.715 27.2178 105.257 24.9473 105.257 21.915ZM113.387 21.8931C113.387 19.564 113.841 17.4692 114.75 15.6089C115.672 13.7485 116.947 12.313 118.573 11.3022C120.213 10.2915 122.081 9.78613 124.176 9.78613C127.413 9.78613 130.028 10.9067 132.02 13.1479C134.027 15.3892 135.03 18.3701 135.03 22.0908V22.3765C135.03 24.6909 134.583 26.771 133.69 28.6167C132.811 30.4478 131.544 31.876 129.889 32.9014C128.248 33.9268 126.358 34.4395 124.22 34.4395C120.997 34.4395 118.382 33.3188 116.375 31.0776C114.383 28.8364 113.387 25.8701 113.387 22.1787V21.8931ZM117.474 22.3765C117.474 25.0132 118.082 27.1299 119.298 28.7266C120.528 30.3232 122.169 31.1216 124.22 31.1216C126.285 31.1216 127.926 30.3159 129.142 28.7046C130.357 27.0786 130.965 24.8081 130.965 21.8931C130.965 19.2856 130.343 17.1763 129.098 15.5649C127.867 13.939 126.227 13.126 124.176 13.126C122.169 13.126 120.55 13.9243 119.32 15.521C118.089 17.1177 117.474 19.4028 117.474 22.3765ZM143.973 10.2256L144.105 13.2139C145.921 10.9287 148.294 9.78613 151.224 9.78613C156.249 9.78613 158.783 12.6206 158.827 18.2896V34H154.762V18.2676C154.747 16.5537 154.352 15.2866 153.575 14.4663C152.813 13.646 151.62 13.2358 149.994 13.2358C148.675 13.2358 147.518 13.5874 146.522 14.2905C145.526 14.9937 144.75 15.9165 144.193 17.0591V34H140.128V10.2256H143.973ZM15.8506 87C15.6162 86.5312 15.4258 85.6963 15.2793 84.4951C13.3896 86.458 11.1338 87.4395 8.51172 87.4395C6.16797 87.4395 4.2417 86.7803 2.73291 85.4619C1.23877 84.1289 0.491699 82.4443 0.491699 80.4082C0.491699 77.9326 1.4292 76.0137 3.3042 74.6514C5.19385 73.2744 7.84521 72.5859 11.2583 72.5859H15.2134V70.7183C15.2134 69.2974 14.7886 68.1694 13.939 67.3345C13.0894 66.4849 11.8369 66.0601 10.1816 66.0601C8.73145 66.0601 7.51562 66.4263 6.53418 67.1587C5.55273 67.8911 5.06201 68.7773 5.06201 69.8174H0.975098C0.975098 68.6309 1.39258 67.4883 2.22754 66.3896C3.07715 65.2764 4.21973 64.3975 5.65527 63.7529C7.10547 63.1084 8.69482 62.7861 10.4233 62.7861C13.1626 62.7861 15.3086 63.4746 16.8613 64.8516C18.4141 66.2139 19.2197 68.0962 19.2783 70.4985V81.4409C19.2783 83.6235 19.5566 85.3594 20.1133 86.6484V87H15.8506ZM9.10498 83.9019C10.3794 83.9019 11.5879 83.5723 12.7305 82.9131C13.873 82.2539 14.7007 81.397 15.2134 80.3423V75.4644H12.0273C7.04688 75.4644 4.55664 76.9219 4.55664 79.8369C4.55664 81.1113 4.98145 82.1074 5.83105 82.8252C6.68066 83.543 7.77197 83.9019 9.10498 83.9019ZM29.4956 63.2256L29.6274 66.2139C31.4438 63.9287 33.8169 62.7861 36.7466 62.7861C41.771 62.7861 44.3052 65.6206 44.3491 71.2896V87H40.2842V71.2676C40.2695 69.5537 39.874 68.2866 39.0977 67.4663C38.3359 66.646 37.1421 66.2358 35.5161 66.2358C34.1978 66.2358 33.0405 66.5874 32.0444 67.2905C31.0483 67.9937 30.272 68.9165 29.7153 70.0591V87H25.6504V63.2256H29.4956ZM54.3247 63.2256L54.4565 66.2139C56.2729 63.9287 58.646 62.7861 61.5757 62.7861C66.6001 62.7861 69.1343 65.6206 69.1782 71.2896V87H65.1133V71.2676C65.0986 69.5537 64.7031 68.2866 63.9268 67.4663C63.165 66.646 61.9712 66.2358 60.3452 66.2358C59.0269 66.2358 57.8696 66.5874 56.8735 67.2905C55.8774 67.9937 55.1011 68.9165 54.5444 70.0591V87H50.4795V63.2256H54.3247ZM79.7251 87H75.6602V63.2256H79.7251V87ZM75.3306 56.9194C75.3306 56.2603 75.5283 55.7036 75.9238 55.2495C76.334 54.7954 76.9346 54.5684 77.7256 54.5684C78.5166 54.5684 79.1172 54.7954 79.5273 55.2495C79.9375 55.7036 80.1426 56.2603 80.1426 56.9194C80.1426 57.5786 79.9375 58.1279 79.5273 58.5674C79.1172 59.0068 78.5166 59.2266 77.7256 59.2266C76.9346 59.2266 76.334 59.0068 75.9238 58.5674C75.5283 58.1279 75.3306 57.5786 75.3306 56.9194ZM94.0952 81.4849L99.9839 63.2256H104.137L95.6113 87H92.5132L83.8999 63.2256H88.0527L94.0952 81.4849ZM117.606 87.4395C114.383 87.4395 111.761 86.3848 109.74 84.2754C107.718 82.1514 106.708 79.3169 106.708 75.772V75.0249C106.708 72.6665 107.154 70.5645 108.048 68.7188C108.956 66.8584 110.216 65.4082 111.827 64.3682C113.453 63.3135 115.211 62.7861 117.101 62.7861C120.191 62.7861 122.594 63.8042 124.308 65.8403C126.021 67.8765 126.878 70.7915 126.878 74.5854V76.2773H110.772C110.831 78.6211 111.512 80.5181 112.816 81.9683C114.134 83.4038 115.804 84.1216 117.826 84.1216C119.261 84.1216 120.477 83.8286 121.473 83.2427C122.469 82.6567 123.341 81.8804 124.088 80.9136L126.571 82.8472C124.579 85.9087 121.59 87.4395 117.606 87.4395ZM117.101 66.126C115.46 66.126 114.083 66.7266 112.97 67.9277C111.856 69.1143 111.168 70.7842 110.904 72.9375H122.813V72.6299C122.696 70.5645 122.14 68.9678 121.144 67.8398C120.147 66.6973 118.8 66.126 117.101 66.126ZM143.094 66.873C142.479 66.7705 141.812 66.7192 141.095 66.7192C138.429 66.7192 136.62 67.8545 135.667 70.125V87H131.603V63.2256H135.558L135.624 65.9722C136.957 63.8481 138.846 62.7861 141.292 62.7861C142.083 62.7861 142.684 62.8887 143.094 63.0938V66.873ZM160.694 80.6938C160.694 79.5952 160.277 78.7456 159.442 78.145C158.622 77.5298 157.179 77.0024 155.113 76.563C153.062 76.1235 151.429 75.5962 150.213 74.981C149.012 74.3657 148.119 73.6333 147.533 72.7837C146.961 71.9341 146.676 70.9233 146.676 69.7515C146.676 67.8032 147.496 66.1553 149.137 64.8076C150.792 63.46 152.901 62.7861 155.465 62.7861C158.16 62.7861 160.343 63.4819 162.013 64.8735C163.697 66.2651 164.54 68.0449 164.54 70.2129H160.453C160.453 69.0996 159.977 68.1401 159.024 67.3345C158.087 66.5288 156.9 66.126 155.465 66.126C153.985 66.126 152.828 66.4482 151.993 67.0928C151.158 67.7373 150.741 68.5796 150.741 69.6196C150.741 70.6011 151.129 71.3408 151.905 71.8389C152.682 72.3369 154.081 72.813 156.102 73.2671C158.138 73.7212 159.786 74.2632 161.046 74.8931C162.306 75.5229 163.236 76.2847 163.836 77.1782C164.452 78.0571 164.759 79.1338 164.759 80.4082C164.759 82.5322 163.91 84.2388 162.21 85.5278C160.511 86.8022 158.307 87.4395 155.597 87.4395C153.692 87.4395 152.008 87.1025 150.543 86.4287C149.078 85.7549 147.928 84.8174 147.093 83.6162C146.273 82.4004 145.863 81.0894 145.863 79.6831H149.928C150.001 81.0454 150.543 82.1294 151.554 82.9351C152.579 83.7261 153.927 84.1216 155.597 84.1216C157.135 84.1216 158.365 83.814 159.288 83.1987C160.226 82.5688 160.694 81.7339 160.694 80.6938ZM184.732 87C184.498 86.5312 184.308 85.6963 184.161 84.4951C182.271 86.458 180.016 87.4395 177.394 87.4395C175.05 87.4395 173.124 86.7803 171.615 85.4619C170.121 84.1289 169.374 82.4443 169.374 80.4082C169.374 77.9326 170.311 76.0137 172.186 74.6514C174.076 73.2744 176.727 72.5859 180.14 72.5859H184.095V70.7183C184.095 69.2974 183.67 68.1694 182.821 67.3345C181.971 66.4849 180.719 66.0601 179.063 66.0601C177.613 66.0601 176.397 66.4263 175.416 67.1587C174.435 67.8911 173.944 68.7773 173.944 69.8174H169.857C169.857 68.6309 170.274 67.4883 171.109 66.3896C171.959 65.2764 173.102 64.3975 174.537 63.7529C175.987 63.1084 177.577 62.7861 179.305 62.7861C182.044 62.7861 184.19 63.4746 185.743 64.8516C187.296 66.2139 188.102 68.0962 188.16 70.4985V81.4409C188.16 83.6235 188.438 85.3594 188.995 86.6484V87H184.732ZM177.987 83.9019C179.261 83.9019 180.47 83.5723 181.612 82.9131C182.755 82.2539 183.583 81.397 184.095 80.3423V75.4644H180.909C175.929 75.4644 173.438 76.9219 173.438 79.8369C173.438 81.1113 173.863 82.1074 174.713 82.8252C175.562 83.543 176.654 83.9019 177.987 83.9019ZM198.949 87H194.884V63.2256H198.949V87ZM194.554 56.9194C194.554 56.2603 194.752 55.7036 195.147 55.2495C195.558 54.7954 196.158 54.5684 196.949 54.5684C197.74 54.5684 198.341 54.7954 198.751 55.2495C199.161 55.7036 199.366 56.2603 199.366 56.9194C199.366 57.5786 199.161 58.1279 198.751 58.5674C198.341 59.0068 197.74 59.2266 196.949 59.2266C196.158 59.2266 195.558 59.0068 195.147 58.5674C194.752 58.1279 194.554 57.5786 194.554 56.9194ZM216.966 66.873C216.351 66.7705 215.685 66.7192 214.967 66.7192C212.301 66.7192 210.492 67.8545 209.54 70.125V87H205.475V63.2256H209.43L209.496 65.9722C210.829 63.8481 212.718 62.7861 215.165 62.7861C215.956 62.7861 216.556 62.8887 216.966 63.0938V66.873ZM230.15 87.4395C226.927 87.4395 224.305 86.3848 222.284 84.2754C220.262 82.1514 219.251 79.3169 219.251 75.772V75.0249C219.251 72.6665 219.698 70.5645 220.592 68.7188C221.5 66.8584 222.76 65.4082 224.371 64.3682C225.997 63.3135 227.755 62.7861 229.645 62.7861C232.735 62.7861 235.138 63.8042 236.852 65.8403C238.565 67.8765 239.422 70.7915 239.422 74.5854V76.2773H223.316C223.375 78.6211 224.056 80.5181 225.36 81.9683C226.678 83.4038 228.348 84.1216 230.37 84.1216C231.805 84.1216 233.021 83.8286 234.017 83.2427C235.013 82.6567 235.885 81.8804 236.632 80.9136L239.115 82.8472C237.123 85.9087 234.134 87.4395 230.15 87.4395ZM229.645 66.126C228.004 66.126 226.627 66.7266 225.514 67.9277C224.4 69.1143 223.712 70.7842 223.448 72.9375H235.357V72.6299C235.24 70.5645 234.684 68.9678 233.688 67.8398C232.691 66.6973 231.344 66.126 229.645 66.126ZM244.015 93.3721L241.708 91.79C243.084 89.8711 243.802 87.8936 243.861 85.8574V82.188H247.838V85.374C247.838 86.8535 247.472 88.333 246.739 89.8125C246.021 91.292 245.113 92.4785 244.015 93.3721ZM69.2222 133.694C69.2222 132.595 68.8047 131.746 67.9697 131.145C67.1494 130.53 65.7065 130.002 63.6411 129.563C61.5903 129.124 59.957 128.596 58.7412 127.981C57.54 127.366 56.6465 126.633 56.0605 125.784C55.4893 124.934 55.2036 123.923 55.2036 122.751C55.2036 120.803 56.0239 119.155 57.6646 117.808C59.3198 116.46 61.4292 115.786 63.9927 115.786C66.688 115.786 68.8706 116.482 70.5405 117.874C72.2251 119.265 73.0674 121.045 73.0674 123.213H68.9805C68.9805 122.1 68.5044 121.14 67.5522 120.334C66.6147 119.529 65.4282 119.126 63.9927 119.126C62.5132 119.126 61.356 119.448 60.521 120.093C59.686 120.737 59.2686 121.58 59.2686 122.62C59.2686 123.601 59.6567 124.341 60.4331 124.839C61.2095 125.337 62.6084 125.813 64.6299 126.267C66.666 126.721 68.314 127.263 69.5737 127.893C70.8335 128.523 71.7637 129.285 72.3643 130.178C72.9795 131.057 73.2871 132.134 73.2871 133.408C73.2871 135.532 72.4375 137.239 70.7383 138.528C69.0391 139.802 66.8345 140.439 64.1245 140.439C62.2202 140.439 60.5356 140.103 59.0708 139.429C57.606 138.755 56.4561 137.817 55.6211 136.616C54.8008 135.4 54.3906 134.089 54.3906 132.683H58.4556C58.5288 134.045 59.0708 135.129 60.0815 135.935C61.1069 136.726 62.4546 137.122 64.1245 137.122C65.6626 137.122 66.8931 136.814 67.8159 136.199C68.7534 135.569 69.2222 134.734 69.2222 133.694ZM90.0742 119.873C89.459 119.771 88.7925 119.719 88.0747 119.719C85.4087 119.719 83.5996 120.854 82.6475 123.125V140H78.5825V116.226H82.5376L82.6035 118.972C83.9365 116.848 85.8262 115.786 88.2725 115.786C89.0635 115.786 89.6641 115.889 90.0742 116.094V119.873ZM107.63 140C107.396 139.531 107.206 138.696 107.059 137.495C105.169 139.458 102.914 140.439 100.292 140.439C97.9478 140.439 96.0215 139.78 94.5127 138.462C93.0186 137.129 92.2715 135.444 92.2715 133.408C92.2715 130.933 93.209 129.014 95.084 127.651C96.9736 126.274 99.625 125.586 103.038 125.586H106.993V123.718C106.993 122.297 106.568 121.169 105.719 120.334C104.869 119.485 103.617 119.06 101.961 119.06C100.511 119.06 99.2954 119.426 98.314 120.159C97.3325 120.891 96.8418 121.777 96.8418 122.817H92.7549C92.7549 121.631 93.1724 120.488 94.0073 119.39C94.8569 118.276 95.9995 117.397 97.4351 116.753C98.8853 116.108 100.475 115.786 102.203 115.786C104.942 115.786 107.088 116.475 108.641 117.852C110.194 119.214 111 121.096 111.058 123.499V134.441C111.058 136.624 111.336 138.359 111.893 139.648V140H107.63ZM100.885 136.902C102.159 136.902 103.368 136.572 104.51 135.913C105.653 135.254 106.48 134.397 106.993 133.342V128.464H103.807C98.8267 128.464 96.3364 129.922 96.3364 132.837C96.3364 134.111 96.7612 135.107 97.6108 135.825C98.4604 136.543 99.5518 136.902 100.885 136.902ZM124.923 134.485L130.812 116.226H134.964L126.439 140H123.341L114.728 116.226H118.88L124.923 134.485ZM153.202 140C152.967 139.531 152.777 138.696 152.63 137.495C150.741 139.458 148.485 140.439 145.863 140.439C143.519 140.439 141.593 139.78 140.084 138.462C138.59 137.129 137.843 135.444 137.843 133.408C137.843 130.933 138.78 129.014 140.655 127.651C142.545 126.274 145.196 125.586 148.609 125.586H152.564V123.718C152.564 122.297 152.14 121.169 151.29 120.334C150.44 119.485 149.188 119.06 147.533 119.06C146.083 119.06 144.867 119.426 143.885 120.159C142.904 120.891 142.413 121.777 142.413 122.817H138.326C138.326 121.631 138.744 120.488 139.579 119.39C140.428 118.276 141.571 117.397 143.006 116.753C144.457 116.108 146.046 115.786 147.774 115.786C150.514 115.786 152.66 116.475 154.212 117.852C155.765 119.214 156.571 121.096 156.629 123.499V134.441C156.629 136.624 156.908 138.359 157.464 139.648V140H153.202ZM146.456 136.902C147.73 136.902 148.939 136.572 150.082 135.913C151.224 135.254 152.052 134.397 152.564 133.342V128.464H149.378C144.398 128.464 141.908 129.922 141.908 132.837C141.908 134.111 142.333 135.107 143.182 135.825C144.032 136.543 145.123 136.902 146.456 136.902ZM166.847 116.226L166.979 119.214C168.795 116.929 171.168 115.786 174.098 115.786C179.122 115.786 181.656 118.621 181.7 124.29V140H177.635V124.268C177.621 122.554 177.225 121.287 176.449 120.466C175.687 119.646 174.493 119.236 172.867 119.236C171.549 119.236 170.392 119.587 169.396 120.291C168.399 120.994 167.623 121.917 167.066 123.059V140H163.001V116.226H166.847ZM192.247 140H188.182V116.226H192.247V140ZM187.853 109.919C187.853 109.26 188.05 108.704 188.446 108.25C188.856 107.795 189.457 107.568 190.248 107.568C191.039 107.568 191.639 107.795 192.049 108.25C192.459 108.704 192.665 109.26 192.665 109.919C192.665 110.579 192.459 111.128 192.049 111.567C191.639 112.007 191.039 112.227 190.248 112.227C189.457 112.227 188.856 112.007 188.446 111.567C188.05 111.128 187.853 110.579 187.853 109.919Z" fill="black"/>
</svg>
