<svg width="287" height="141" viewBox="0 0 287 141" fill="none" xmlns="http://www.w3.org/2000/svg">
<path d="M16.229 34C15.9946 33.5312 15.8042 32.6963 15.6577 31.4951C13.7681 33.458 11.5122 34.4395 8.89014 34.4395C6.54639 34.4395 4.62012 33.7803 3.11133 32.4619C1.61719 31.1289 0.870117 29.4443 0.870117 27.4082C0.870117 24.9326 1.80762 23.0137 3.68262 21.6514C5.57227 20.2744 8.22363 19.5859 11.6367 19.5859H15.5918V17.7183C15.5918 16.2974 15.167 15.1694 14.3174 14.3345C13.4678 13.4849 12.2153 13.0601 10.5601 13.0601C9.10986 13.0601 7.89404 13.4263 6.9126 14.1587C5.93115 14.8911 5.44043 15.7773 5.44043 16.8174H1.35352C1.35352 15.6309 1.771 14.4883 2.60596 13.3896C3.45557 12.2764 4.59814 11.3975 6.03369 10.7529C7.48389 10.1084 9.07324 9.78613 10.8018 9.78613C13.541 9.78613 15.687 10.4746 17.2397 11.8516C18.7925 13.2139 19.5981 15.0962 19.6567 17.4985V28.4409C19.6567 30.6235 19.9351 32.3594 20.4917 33.6484V34H16.229ZM9.4834 30.9019C10.7578 30.9019 11.9663 30.5723 13.1089 29.9131C14.2515 29.2539 15.0791 28.397 15.5918 27.3423V22.4644H12.4058C7.42529 22.4644 4.93506 23.9219 4.93506 26.8369C4.93506 28.1113 5.35986 29.1074 6.20947 29.8252C7.05908 30.543 8.15039 30.9019 9.4834 30.9019ZM30.4453 34H26.3804V0.25H30.4453V34ZM41.3877 34H37.3228V0.25H41.3877V34ZM57.7793 34.4395C54.5566 34.4395 51.9346 33.3848 49.9131 31.2754C47.8916 29.1514 46.8809 26.3169 46.8809 22.772V22.0249C46.8809 19.6665 47.3276 17.5645 48.2212 15.7188C49.1294 13.8584 50.3892 12.4082 52.0005 11.3682C53.6265 10.3135 55.3843 9.78613 57.2739 9.78613C60.3647 9.78613 62.7671 10.8042 64.481 12.8403C66.1948 14.8765 67.0518 17.7915 67.0518 21.5854V23.2773H50.9458C51.0044 25.6211 51.6855 27.5181 52.9893 28.9683C54.3076 30.4038 55.9775 31.1216 57.999 31.1216C59.4346 31.1216 60.6504 30.8286 61.6465 30.2427C62.6426 29.6567 63.5142 28.8804 64.2612 27.9136L66.7441 29.8472C64.752 32.9087 61.7637 34.4395 57.7793 34.4395ZM57.2739 13.126C55.6333 13.126 54.2563 13.7266 53.1431 14.9277C52.0298 16.1143 51.3413 17.7842 51.0776 19.9375H62.9868V19.6299C62.8696 17.5645 62.313 15.9678 61.3169 14.8398C60.3208 13.6973 58.9731 13.126 57.2739 13.126ZM85.6187 27.6938C85.6187 26.5952 85.2012 25.7456 84.3662 25.145C83.5459 24.5298 82.103 24.0024 80.0376 23.563C77.9868 23.1235 76.3535 22.5962 75.1377 21.981C73.9365 21.3657 73.043 20.6333 72.457 19.7837C71.8857 18.9341 71.6001 17.9233 71.6001 16.7515C71.6001 14.8032 72.4204 13.1553 74.061 11.8076C75.7163 10.46 77.8257 9.78613 80.3892 9.78613C83.0845 9.78613 85.2671 10.4819 86.937 11.8735C88.6216 13.2651 89.4639 15.0449 89.4639 17.2129H85.377C85.377 16.0996 84.9009 15.1401 83.9487 14.3345C83.0112 13.5288 81.8247 13.126 80.3892 13.126C78.9097 13.126 77.7524 13.4482 76.9175 14.0928C76.0825 14.7373 75.665 15.5796 75.665 16.6196C75.665 17.6011 76.0532 18.3408 76.8296 18.8389C77.606 19.3369 79.0049 19.813 81.0264 20.2671C83.0625 20.7212 84.7104 21.2632 85.9702 21.8931C87.23 22.5229 88.1602 23.2847 88.7607 24.1782C89.376 25.0571 89.6836 26.1338 89.6836 27.4082C89.6836 29.5322 88.834 31.2388 87.1348 32.5278C85.4355 33.8022 83.231 34.4395 80.521 34.4395C78.6167 34.4395 76.9321 34.1025 75.4673 33.4287C74.0024 32.7549 72.8525 31.8174 72.0176 30.6162C71.1973 29.4004 70.7871 28.0894 70.7871 26.6831H74.8521C74.9253 28.0454 75.4673 29.1294 76.478 29.9351C77.5034 30.7261 78.8511 31.1216 80.521 31.1216C82.0591 31.1216 83.2896 30.814 84.2124 30.1987C85.1499 29.5688 85.6187 28.7339 85.6187 27.6938ZM105.174 21.915C105.174 18.209 106.031 15.2646 107.745 13.082C109.459 10.8848 111.729 9.78613 114.557 9.78613C117.457 9.78613 119.72 10.8115 121.346 12.8623L121.544 10.2256H125.257V33.4287C125.257 36.5049 124.342 38.9292 122.511 40.7017C120.694 42.4741 118.248 43.3604 115.172 43.3604C113.458 43.3604 111.781 42.9941 110.14 42.2617C108.5 41.5293 107.247 40.5259 106.383 39.2515L108.492 36.8125C110.235 38.9658 112.367 40.0425 114.886 40.0425C116.864 40.0425 118.402 39.4858 119.5 38.3726C120.614 37.2593 121.17 35.6919 121.17 33.6704V31.627C119.544 33.502 117.325 34.4395 114.513 34.4395C111.729 34.4395 109.474 33.3188 107.745 31.0776C106.031 28.8364 105.174 25.7822 105.174 21.915ZM109.261 22.3765C109.261 25.0571 109.811 27.1665 110.909 28.7046C112.008 30.228 113.546 30.9897 115.523 30.9897C118.087 30.9897 119.969 29.8252 121.17 27.4961V16.6416C119.925 14.3711 118.058 13.2358 115.567 13.2358C113.59 13.2358 112.044 14.0049 110.931 15.543C109.818 17.0811 109.261 19.3589 109.261 22.3765ZM146.087 31.6489C144.505 33.5093 142.184 34.4395 139.122 34.4395C136.588 34.4395 134.654 33.707 133.321 32.2422C132.003 30.7627 131.336 28.5801 131.322 25.6943V10.2256H135.387V25.5845C135.387 29.188 136.852 30.9897 139.781 30.9897C142.887 30.9897 144.952 29.8325 145.978 27.5181V10.2256H150.042V34H146.175L146.087 31.6489ZM161.754 4.46875V10.2256H166.192V13.3677H161.754V28.1113C161.754 29.0635 161.952 29.7812 162.347 30.2646C162.743 30.7334 163.417 30.9678 164.369 30.9678C164.837 30.9678 165.482 30.8799 166.302 30.7041V34C165.233 34.293 164.193 34.4395 163.182 34.4395C161.366 34.4395 159.996 33.8901 159.073 32.7915C158.15 31.6929 157.689 30.1328 157.689 28.1113V13.3677H153.36V10.2256H157.689V4.46875H161.754ZM180.826 34.4395C177.604 34.4395 174.981 33.3848 172.96 31.2754C170.938 29.1514 169.928 26.3169 169.928 22.772V22.0249C169.928 19.6665 170.375 17.5645 171.268 15.7188C172.176 13.8584 173.436 12.4082 175.047 11.3682C176.673 10.3135 178.431 9.78613 180.321 9.78613C183.412 9.78613 185.814 10.8042 187.528 12.8403C189.242 14.8765 190.099 17.7915 190.099 21.5854V23.2773H173.993C174.051 25.6211 174.732 27.5181 176.036 28.9683C177.354 30.4038 179.024 31.1216 181.046 31.1216C182.481 31.1216 183.697 30.8286 184.693 30.2427C185.689 29.6567 186.561 28.8804 187.308 27.9136L189.791 29.8472C187.799 32.9087 184.811 34.4395 180.826 34.4395ZM180.321 13.126C178.68 13.126 177.303 13.7266 176.19 14.9277C175.077 16.1143 174.388 17.7842 174.125 19.9375H186.034V19.6299C185.917 17.5645 185.36 15.9678 184.364 14.8398C183.368 13.6973 182.02 13.126 180.321 13.126ZM209.808 30.6821H223.717V34H204.842V31.0117L217.96 13.5874H205.04V10.2256H223.058V13.104L209.808 30.6821ZM242.987 31.6489C241.405 33.5093 239.083 34.4395 236.021 34.4395C233.487 34.4395 231.554 33.707 230.221 32.2422C228.902 30.7627 228.236 28.5801 228.221 25.6943V10.2256H232.286V25.5845C232.286 29.188 233.751 30.9897 236.681 30.9897C239.786 30.9897 241.852 29.8325 242.877 27.5181V10.2256H246.942V34H243.075L242.987 31.6489ZM256.961 10.2256L257.071 12.8623C258.814 10.8115 261.166 9.78613 264.125 9.78613C267.45 9.78613 269.713 11.0605 270.914 13.6094C271.705 12.4668 272.73 11.5439 273.99 10.8408C275.265 10.1377 276.766 9.78613 278.495 9.78613C283.709 9.78613 286.361 12.5474 286.449 18.0698V34H282.384V18.3115C282.384 16.6123 281.996 15.3452 281.219 14.5103C280.443 13.6606 279.139 13.2358 277.308 13.2358C275.799 13.2358 274.547 13.6899 273.551 14.5981C272.555 15.4917 271.976 16.7002 271.815 18.2236V34H267.728V18.4214C267.728 14.9644 266.036 13.2358 262.652 13.2358C259.986 13.2358 258.163 14.3711 257.181 16.6416V34H253.116V10.2256H256.961ZM32.7085 74.915C32.7085 71.209 33.5654 68.2646 35.2793 66.082C36.9932 63.8848 39.2637 62.7861 42.0908 62.7861C44.9912 62.7861 47.2544 63.8115 48.8804 65.8623L49.0781 63.2256H52.7915V86.4287C52.7915 89.5049 51.876 91.9292 50.0449 93.7017C48.2285 95.4741 45.7822 96.3604 42.7061 96.3604C40.9922 96.3604 39.3149 95.9941 37.6743 95.2617C36.0337 94.5293 34.7812 93.5259 33.917 92.2515L36.0264 89.8125C37.7695 91.9658 39.9009 93.0425 42.4204 93.0425C44.3979 93.0425 45.936 92.4858 47.0347 91.3726C48.1479 90.2593 48.7046 88.6919 48.7046 86.6704V84.627C47.0786 86.502 44.8594 87.4395 42.0469 87.4395C39.2637 87.4395 37.0078 86.3188 35.2793 84.0776C33.5654 81.8364 32.7085 78.7822 32.7085 74.915ZM36.7954 75.3765C36.7954 78.0571 37.3447 80.1665 38.4434 81.7046C39.542 83.228 41.0801 83.9897 43.0576 83.9897C45.6211 83.9897 47.5034 82.8252 48.7046 80.4961V69.6416C47.4595 67.3711 45.5918 66.2358 43.1016 66.2358C41.124 66.2358 39.5786 67.0049 38.4653 68.543C37.3521 70.0811 36.7954 72.3589 36.7954 75.3765ZM68.8096 87.4395C65.5869 87.4395 62.9648 86.3848 60.9434 84.2754C58.9219 82.1514 57.9111 79.3169 57.9111 75.772V75.0249C57.9111 72.6665 58.3579 70.5645 59.2515 68.7188C60.1597 66.8584 61.4194 65.4082 63.0308 64.3682C64.6567 63.3135 66.4146 62.7861 68.3042 62.7861C71.395 62.7861 73.7974 63.8042 75.5112 65.8403C77.2251 67.8765 78.082 70.7915 78.082 74.5854V76.2773H61.9761C62.0347 78.6211 62.7158 80.5181 64.0195 81.9683C65.3379 83.4038 67.0078 84.1216 69.0293 84.1216C70.4648 84.1216 71.6807 83.8286 72.6768 83.2427C73.6729 82.6567 74.5444 81.8804 75.2915 80.9136L77.7744 82.8472C75.7822 85.9087 72.7939 87.4395 68.8096 87.4395ZM68.3042 66.126C66.6636 66.126 65.2866 66.7266 64.1733 67.9277C63.0601 69.1143 62.3716 70.7842 62.1079 72.9375H74.0171V72.6299C73.8999 70.5645 73.3433 68.9678 72.3472 67.8398C71.3511 66.6973 70.0034 66.126 68.3042 66.126ZM102.933 75.3765C102.933 79.0093 102.098 81.9316 100.428 84.1436C98.7583 86.3408 96.5171 87.4395 93.7046 87.4395C90.7017 87.4395 88.3799 86.3774 86.7393 84.2534L86.5415 87H82.8062V53.25H86.8711V65.8403C88.5117 63.8042 90.7749 62.7861 93.6606 62.7861C96.5464 62.7861 98.8096 63.8774 100.45 66.0601C102.105 68.2427 102.933 71.231 102.933 75.0249V75.3765ZM98.8682 74.915C98.8682 72.1465 98.3335 70.0078 97.2642 68.499C96.1948 66.9902 94.6567 66.2358 92.6499 66.2358C89.9692 66.2358 88.043 67.481 86.8711 69.9712V80.2544C88.1162 82.7446 90.0571 83.9897 92.6938 83.9897C94.6421 83.9897 96.1582 83.2354 97.2422 81.7266C98.3262 80.2178 98.8682 77.9473 98.8682 74.915ZM122.752 84.6489C121.17 86.5093 118.849 87.4395 115.787 87.4395C113.253 87.4395 111.319 86.707 109.986 85.2422C108.668 83.7627 108.001 81.5801 107.987 78.6943V63.2256H112.052V78.5845C112.052 82.188 113.517 83.9897 116.446 83.9897C119.552 83.9897 121.617 82.8325 122.643 80.5181V63.2256H126.708V87H122.84L122.752 84.6489ZM144.396 66.873C143.78 66.7705 143.114 66.7192 142.396 66.7192C139.73 66.7192 137.921 67.8545 136.969 70.125V87H132.904V63.2256H136.859L136.925 65.9722C138.258 63.8481 140.147 62.7861 142.594 62.7861C143.385 62.7861 143.985 62.8887 144.396 63.0938V66.873ZM154.767 57.4688V63.2256H159.205V66.3677H154.767V81.1113C154.767 82.0635 154.964 82.7812 155.36 83.2646C155.755 83.7334 156.429 83.9678 157.381 83.9678C157.85 83.9678 158.495 83.8799 159.315 83.7041V87C158.246 87.293 157.206 87.4395 156.195 87.4395C154.378 87.4395 153.009 86.8901 152.086 85.7915C151.163 84.6929 150.702 83.1328 150.702 81.1113V66.3677H146.373V63.2256H150.702V57.4688H154.767ZM177.816 80.6938C177.816 79.5952 177.398 78.7456 176.563 78.145C175.743 77.5298 174.3 77.0024 172.235 76.563C170.184 76.1235 168.551 75.5962 167.335 74.981C166.134 74.3657 165.24 73.6333 164.654 72.7837C164.083 71.9341 163.797 70.9233 163.797 69.7515C163.797 67.8032 164.618 66.1553 166.258 64.8076C167.914 63.46 170.023 62.7861 172.586 62.7861C175.282 62.7861 177.464 63.4819 179.134 64.8735C180.819 66.2651 181.661 68.0449 181.661 70.2129H177.574C177.574 69.0996 177.098 68.1401 176.146 67.3345C175.208 66.5288 174.022 66.126 172.586 66.126C171.107 66.126 169.95 66.4482 169.115 67.0928C168.28 67.7373 167.862 68.5796 167.862 69.6196C167.862 70.6011 168.25 71.3408 169.027 71.8389C169.803 72.3369 171.202 72.813 173.224 73.2671C175.26 73.7212 176.908 74.2632 178.167 74.8931C179.427 75.5229 180.357 76.2847 180.958 77.1782C181.573 78.0571 181.881 79.1338 181.881 80.4082C181.881 82.5322 181.031 84.2388 179.332 85.5278C177.633 86.8022 175.428 87.4395 172.718 87.4395C170.814 87.4395 169.129 87.1025 167.665 86.4287C166.2 85.7549 165.05 84.8174 164.215 83.6162C163.395 82.4004 162.984 81.0894 162.984 79.6831H167.049C167.123 81.0454 167.665 82.1294 168.675 82.9351C169.701 83.7261 171.048 84.1216 172.718 84.1216C174.256 84.1216 175.487 83.814 176.41 83.1987C177.347 82.5688 177.816 81.7339 177.816 80.6938ZM192.691 57.4688V63.2256H197.13V66.3677H192.691V81.1113C192.691 82.0635 192.889 82.7812 193.285 83.2646C193.68 83.7334 194.354 83.9678 195.306 83.9678C195.775 83.9678 196.419 83.8799 197.24 83.7041V87C196.17 87.293 195.13 87.4395 194.12 87.4395C192.303 87.4395 190.934 86.8901 190.011 85.7915C189.088 84.6929 188.626 83.1328 188.626 81.1113V66.3677H184.298V63.2256H188.626V57.4688H192.691ZM216.576 87C216.341 86.5312 216.151 85.6963 216.004 84.4951C214.115 86.458 211.859 87.4395 209.237 87.4395C206.893 87.4395 204.967 86.7803 203.458 85.4619C201.964 84.1289 201.217 82.4443 201.217 80.4082C201.217 77.9326 202.154 76.0137 204.029 74.6514C205.919 73.2744 208.57 72.5859 211.983 72.5859H215.938V70.7183C215.938 69.2974 215.514 68.1694 214.664 67.3345C213.814 66.4849 212.562 66.0601 210.907 66.0601C209.457 66.0601 208.241 66.4263 207.259 67.1587C206.278 67.8911 205.787 68.7773 205.787 69.8174H201.7C201.7 68.6309 202.118 67.4883 202.953 66.3896C203.802 65.2764 204.945 64.3975 206.38 63.7529C207.831 63.1084 209.42 62.7861 211.148 62.7861C213.888 62.7861 216.034 63.4746 217.586 64.8516C219.139 66.2139 219.945 68.0962 220.003 70.4985V81.4409C220.003 83.6235 220.282 85.3594 220.838 86.6484V87H216.576ZM209.83 83.9019C211.104 83.9019 212.313 83.5723 213.456 82.9131C214.598 82.2539 215.426 81.397 215.938 80.3423V75.4644H212.752C207.772 75.4644 205.282 76.9219 205.282 79.8369C205.282 81.1113 205.707 82.1074 206.556 82.8252C207.406 83.543 208.497 83.9019 209.83 83.9019ZM225.409 74.915C225.409 71.209 226.266 68.2646 227.979 66.082C229.693 63.8848 231.964 62.7861 234.791 62.7861C237.691 62.7861 239.955 63.8115 241.581 65.8623L241.778 63.2256H245.492V86.4287C245.492 89.5049 244.576 91.9292 242.745 93.7017C240.929 95.4741 238.482 96.3604 235.406 96.3604C233.692 96.3604 232.015 95.9941 230.375 95.2617C228.734 94.5293 227.481 93.5259 226.617 92.2515L228.727 89.8125C230.47 91.9658 232.601 93.0425 235.121 93.0425C237.098 93.0425 238.636 92.4858 239.735 91.3726C240.848 90.2593 241.405 88.6919 241.405 86.6704V84.627C239.779 86.502 237.56 87.4395 234.747 87.4395C231.964 87.4395 229.708 86.3188 227.979 84.0776C226.266 81.8364 225.409 78.7822 225.409 74.915ZM229.496 75.3765C229.496 78.0571 230.045 80.1665 231.144 81.7046C232.242 83.228 233.78 83.9897 235.758 83.9897C238.321 83.9897 240.204 82.8252 241.405 80.4961V69.6416C240.16 67.3711 238.292 66.2358 235.802 66.2358C233.824 66.2358 232.279 67.0049 231.166 68.543C230.052 70.0811 229.496 72.3589 229.496 75.3765ZM251.512 93.3721L249.205 91.79C250.582 89.8711 251.3 87.8936 251.358 85.8574V82.188H255.335V85.374C255.335 86.8535 254.969 88.333 254.237 89.8125C253.519 91.292 252.611 92.4785 251.512 93.3721ZM94.8032 133.694C94.8032 132.595 94.3857 131.746 93.5508 131.145C92.7305 130.53 91.2876 130.002 89.2222 129.563C87.1714 129.124 85.5381 128.596 84.3223 127.981C83.1211 127.366 82.2275 126.633 81.6416 125.784C81.0703 124.934 80.7847 123.923 80.7847 122.751C80.7847 120.803 81.605 119.155 83.2456 117.808C84.9009 116.46 87.0103 115.786 89.5737 115.786C92.269 115.786 94.4517 116.482 96.1216 117.874C97.8062 119.265 98.6484 121.045 98.6484 123.213H94.5615C94.5615 122.1 94.0854 121.14 93.1333 120.334C92.1958 119.529 91.0093 119.126 89.5737 119.126C88.0942 119.126 86.937 119.448 86.1021 120.093C85.2671 120.737 84.8496 121.58 84.8496 122.62C84.8496 123.601 85.2378 124.341 86.0142 124.839C86.7905 125.337 88.1895 125.813 90.2109 126.267C92.2471 126.721 93.895 127.263 95.1548 127.893C96.4146 128.523 97.3447 129.285 97.9453 130.178C98.5605 131.057 98.8682 132.134 98.8682 133.408C98.8682 135.532 98.0186 137.239 96.3193 138.528C94.6201 139.802 92.4155 140.439 89.7056 140.439C87.8013 140.439 86.1167 140.103 84.6519 139.429C83.187 138.755 82.0371 137.817 81.2021 136.616C80.3818 135.4 79.9717 134.089 79.9717 132.683H84.0366C84.1099 134.045 84.6519 135.129 85.6626 135.935C86.688 136.726 88.0356 137.122 89.7056 137.122C91.2437 137.122 92.4741 136.814 93.397 136.199C94.3345 135.569 94.8032 134.734 94.8032 133.694ZM115.655 119.873C115.04 119.771 114.374 119.719 113.656 119.719C110.99 119.719 109.181 120.854 108.229 123.125V140H104.164V116.226H108.119L108.185 118.972C109.518 116.848 111.407 115.786 113.854 115.786C114.645 115.786 115.245 115.889 115.655 116.094V119.873ZM133.211 140C132.977 139.531 132.787 138.696 132.64 137.495C130.75 139.458 128.495 140.439 125.873 140.439C123.529 140.439 121.603 139.78 120.094 138.462C118.6 137.129 117.853 135.444 117.853 133.408C117.853 130.933 118.79 129.014 120.665 127.651C122.555 126.274 125.206 125.586 128.619 125.586H132.574V123.718C132.574 122.297 132.149 121.169 131.3 120.334C130.45 119.485 129.198 119.06 127.542 119.06C126.092 119.06 124.876 119.426 123.895 120.159C122.914 120.891 122.423 121.777 122.423 122.817H118.336C118.336 121.631 118.753 120.488 119.588 119.39C120.438 118.276 121.581 117.397 123.016 116.753C124.466 116.108 126.056 115.786 127.784 115.786C130.523 115.786 132.669 116.475 134.222 117.852C135.775 119.214 136.581 121.096 136.639 123.499V134.441C136.639 136.624 136.917 138.359 137.474 139.648V140H133.211ZM126.466 136.902C127.74 136.902 128.949 136.572 130.091 135.913C131.234 135.254 132.062 134.397 132.574 133.342V128.464H129.388C124.408 128.464 121.917 129.922 121.917 132.837C121.917 134.111 122.342 135.107 123.192 135.825C124.042 136.543 125.133 136.902 126.466 136.902ZM150.504 134.485L156.393 116.226H160.545L152.02 140H148.922L140.309 116.226H144.461L150.504 134.485ZM178.783 140C178.548 139.531 178.358 138.696 178.211 137.495C176.322 139.458 174.066 140.439 171.444 140.439C169.1 140.439 167.174 139.78 165.665 138.462C164.171 137.129 163.424 135.444 163.424 133.408C163.424 130.933 164.361 129.014 166.236 127.651C168.126 126.274 170.777 125.586 174.19 125.586H178.146V123.718C178.146 122.297 177.721 121.169 176.871 120.334C176.021 119.485 174.769 119.06 173.114 119.06C171.664 119.06 170.448 119.426 169.466 120.159C168.485 120.891 167.994 121.777 167.994 122.817H163.907C163.907 121.631 164.325 120.488 165.16 119.39C166.009 118.276 167.152 117.397 168.587 116.753C170.038 116.108 171.627 115.786 173.355 115.786C176.095 115.786 178.241 116.475 179.793 117.852C181.346 119.214 182.152 121.096 182.21 123.499V134.441C182.21 136.624 182.489 138.359 183.045 139.648V140H178.783ZM172.037 136.902C173.312 136.902 174.52 136.572 175.663 135.913C176.805 135.254 177.633 134.397 178.146 133.342V128.464H174.959C169.979 128.464 167.489 129.922 167.489 132.837C167.489 134.111 167.914 135.107 168.763 135.825C169.613 136.543 170.704 136.902 172.037 136.902ZM192.428 116.226L192.56 119.214C194.376 116.929 196.749 115.786 199.679 115.786C204.703 115.786 207.237 118.621 207.281 124.29V140H203.216V124.268C203.202 122.554 202.806 121.287 202.03 120.466C201.268 119.646 200.074 119.236 198.448 119.236C197.13 119.236 195.973 119.587 194.977 120.291C193.98 120.994 193.204 121.917 192.647 123.059V140H188.583V116.226H192.428ZM217.828 140H213.763V116.226H217.828V140ZM213.434 109.919C213.434 109.26 213.631 108.704 214.027 108.25C214.437 107.795 215.038 107.568 215.829 107.568C216.62 107.568 217.22 107.795 217.63 108.25C218.041 108.704 218.246 109.26 218.246 109.919C218.246 110.579 218.041 111.128 217.63 111.567C217.22 112.007 216.62 112.227 215.829 112.227C215.038 112.227 214.437 112.007 214.027 111.567C213.631 111.128 213.434 110.579 213.434 109.919Z" fill="black"/>
</svg>
