<svg width="139" height="143" viewBox="0 0 139 143" fill="none" xmlns="http://www.w3.org/2000/svg">
<path d="M5.88379 11.896C8.43262 11.896 10.3516 13.3022 11.6406 16.1147L14.9146 23.5635L20.5176 12.2256H24.6265L16.8921 28.0679L21.6821 39.0103C22.5757 40.8853 23.5205 41.8447 24.5166 41.8887H25.0879L26.6699 41.7788L25.6372 45.2505C25.2856 45.4702 24.8389 45.5801 24.2969 45.5801C22.9639 45.5801 21.8579 45.2358 20.979 44.5474C20.1001 43.8589 19.2065 42.5332 18.2983 40.5703L14.7388 32.4404L8.56445 45.1187H4.25781L12.7612 27.8921L9.06982 19.3887C8.00049 16.708 6.68213 15.3677 5.11475 15.3677L3.62061 15.4775L3.59863 12.2256C4.59473 12.0059 5.35645 11.896 5.88379 11.896ZM38.0298 11.7861C41.062 11.7861 43.4717 12.8188 45.2588 14.8843C47.0459 16.9497 48.02 19.8428 48.1812 23.5635L48.2031 25.0137C48.2031 28.5293 47.3828 31.3125 45.7422 33.3633C44.1016 35.4141 41.8823 36.4395 39.0845 36.4395C36.228 36.4395 33.9648 35.5312 32.2949 33.7148V45.1406H28.208V23.2559C28.208 20.9414 28.6182 18.9199 29.4385 17.1914C30.2734 15.4629 31.438 14.1299 32.9321 13.1924C34.4409 12.2549 36.1401 11.7861 38.0298 11.7861ZM32.2949 29.8916C33.5107 32.0449 35.3711 33.1216 37.876 33.1216C39.8535 33.1216 41.3916 32.4111 42.4902 30.9902C43.5889 29.5547 44.1382 27.4087 44.1382 24.5522C44.1382 21.5493 43.6035 19.2275 42.5342 17.5869C41.4795 15.9463 39.978 15.126 38.0298 15.126C36.3159 15.126 34.9316 15.917 33.877 17.499C32.8223 19.0811 32.2949 21.1099 32.2949 23.5854V29.8916ZM52.5098 23.8931C52.5098 21.564 52.9639 19.4692 53.8721 17.6089C54.7949 15.7485 56.0693 14.313 57.6953 13.3022C59.3359 12.2915 61.2036 11.7861 63.2983 11.7861C66.5356 11.7861 69.1504 12.9067 71.1426 15.1479C73.1494 17.3892 74.1528 20.3701 74.1528 24.0908V24.3765C74.1528 26.6909 73.7061 28.771 72.8125 30.6167C71.9336 32.4478 70.6665 33.876 69.0112 34.9014C67.3706 35.9268 65.481 36.4395 63.3423 36.4395C60.1196 36.4395 57.5049 35.3188 55.498 33.0776C53.5059 30.8364 52.5098 27.8701 52.5098 24.1787V23.8931ZM56.5967 24.3765C56.5967 27.0132 57.2046 29.1299 58.4204 30.7266C59.6509 32.3232 61.2915 33.1216 63.3423 33.1216C65.4077 33.1216 67.0483 32.3159 68.2642 30.7046C69.48 29.0786 70.0879 26.8081 70.0879 23.8931C70.0879 21.2856 69.4653 19.1763 68.2202 17.5649C66.9897 15.939 65.3491 15.126 63.2983 15.126C61.2915 15.126 59.6729 15.9243 58.4424 17.521C57.2119 19.1177 56.5967 21.4028 56.5967 24.3765ZM62.8149 0.975586H66.6382L64.0894 8.38037H61.6284L62.8149 0.975586ZM86.7432 30.4849L92.6318 12.2256H96.7847L88.2593 36H85.1611L76.5479 12.2256H80.7007L86.7432 30.4849ZM105.969 12.2256V30.0015C105.969 30.9243 106.167 31.6201 106.562 32.0889C106.973 32.5576 107.646 32.792 108.584 32.792C109.287 32.792 109.924 32.7041 110.496 32.5283L110.518 35.8462C109.492 36.1245 108.445 36.2637 107.375 36.2637C103.728 36.2637 101.904 34.1104 101.904 29.8037V12.2256H105.969ZM133.962 12.2256V29.7378C133.992 31.7886 134.578 32.814 135.72 32.814C135.999 32.814 136.248 32.7773 136.467 32.7041L136.973 35.7144C136.27 36.2124 135.376 36.4614 134.292 36.4614C132.139 36.4614 130.784 35.2529 130.227 32.8359C128.66 35.2529 126.345 36.4614 123.284 36.4614C120.471 36.4614 118.23 35.4287 116.56 33.3633C114.89 31.2832 114.055 28.4561 114.055 24.8818V24.5522C114.055 20.6851 114.883 17.5942 116.538 15.2798C118.193 12.9507 120.457 11.7861 123.328 11.7861C126.301 11.7861 128.572 12.9653 130.139 15.3237L130.513 12.2256H133.962ZM118.12 25.0137C118.12 27.5771 118.655 29.5767 119.724 31.0122C120.793 32.4331 122.317 33.1436 124.294 33.1436C126.829 33.1436 128.696 31.7812 129.897 29.0566V19.2568C128.652 16.5029 126.799 15.126 124.338 15.126C122.375 15.126 120.845 15.9609 119.746 17.6309C118.662 19.2861 118.12 21.7471 118.12 25.0137ZM26.5161 68.5874H23.0884V82.9575C23.0884 83.895 23.2861 84.6055 23.6816 85.0889C24.0771 85.5576 24.751 85.792 25.7031 85.792C26.4062 85.792 27.0435 85.7041 27.6147 85.5283L27.6367 88.8462C26.6113 89.1245 25.564 89.2637 24.4946 89.2637C20.8472 89.2637 19.0234 87.1104 19.0234 82.8037V68.5874H10.2124V89H6.14746V68.5874H2.43408V65.2256H26.5161V68.5874ZM30.3394 76.8931C30.3394 74.564 30.7935 72.4692 31.7017 70.6089C32.6245 68.7485 33.8989 67.313 35.5249 66.3022C37.1655 65.2915 39.0332 64.7861 41.1279 64.7861C44.3652 64.7861 46.98 65.9067 48.9722 68.1479C50.979 70.3892 51.9824 73.3701 51.9824 77.0908V77.3765C51.9824 79.6909 51.5356 81.771 50.6421 83.6167C49.7632 85.4478 48.4961 86.876 46.8408 87.9014C45.2002 88.9268 43.3105 89.4395 41.1719 89.4395C37.9492 89.4395 35.3345 88.3188 33.3276 86.0776C31.3354 83.8364 30.3394 80.8701 30.3394 77.1787V76.8931ZM34.4263 77.3765C34.4263 80.0132 35.0342 82.1299 36.25 83.7266C37.4805 85.3232 39.1211 86.1216 41.1719 86.1216C43.2373 86.1216 44.8779 85.3159 46.0938 83.7046C47.3096 82.0786 47.9175 79.8081 47.9175 76.8931C47.9175 74.2856 47.2949 72.1763 46.0498 70.5649C44.8193 68.939 43.1787 68.126 41.1279 68.126C39.1211 68.126 37.5024 68.9243 36.272 70.521C35.0415 72.1177 34.4263 74.4028 34.4263 77.3765ZM59.7388 55.6455C61.1743 55.6455 62.3315 55.9385 63.2104 56.5244C64.0894 57.1104 64.7705 58.0991 65.2539 59.4907L74.6362 83.8584C74.9292 84.6055 75.2368 85.1255 75.5591 85.4185C75.896 85.6968 76.3208 85.8359 76.8335 85.8359L77.6685 85.77L77.8003 89.1099C77.2729 89.2856 76.7017 89.3735 76.0864 89.3735C74.9585 89.3735 74.1089 89.2417 73.5376 88.978C72.9663 88.6997 72.4536 88.2456 71.9995 87.6157C71.5454 86.9858 71.106 86.085 70.6812 84.9131L65.6274 71.8833L59.3433 89H54.8169L63.4741 66.3901L61.3647 61.2266C61.0278 60.4062 60.6616 59.8276 60.2661 59.4907C59.8853 59.1538 59.3652 58.9854 58.7061 58.9854L57.6733 59.0293L57.6514 55.9092C58.2666 55.7334 58.9624 55.6455 59.7388 55.6455ZM85.0073 55.6455C86.4429 55.6455 87.6001 55.9385 88.479 56.5244C89.3579 57.1104 90.0391 58.0991 90.5225 59.4907L99.9048 83.8584C100.198 84.6055 100.505 85.1255 100.828 85.4185C101.165 85.6968 101.589 85.8359 102.102 85.8359L102.937 85.77L103.069 89.1099C102.542 89.2856 101.97 89.3735 101.355 89.3735C100.227 89.3735 99.3774 89.2417 98.8062 88.978C98.2349 88.6997 97.7222 88.2456 97.2681 87.6157C96.814 86.9858 96.3745 86.085 95.9497 84.9131L90.896 71.8833L84.6118 89H80.0854L88.7427 66.3901L86.6333 61.2266C86.2964 60.4062 85.9302 59.8276 85.5347 59.4907C85.1538 59.1538 84.6338 58.9854 83.9746 58.9854L82.9419 59.0293L82.9199 55.9092C83.5352 55.7334 84.231 55.6455 85.0073 55.6455ZM126.294 65.2256V82.7378C126.323 84.7886 126.909 85.814 128.052 85.814C128.33 85.814 128.579 85.7773 128.799 85.7041L129.304 88.7144C128.601 89.2124 127.708 89.4614 126.624 89.4614C124.47 89.4614 123.115 88.2529 122.559 85.8359C120.991 88.2529 118.677 89.4614 115.615 89.4614C112.803 89.4614 110.562 88.4287 108.892 86.3633C107.222 84.2832 106.387 81.4561 106.387 77.8818V77.5522C106.387 73.6851 107.214 70.5942 108.87 68.2798C110.525 65.9507 112.788 64.7861 115.659 64.7861C118.633 64.7861 120.903 65.9653 122.471 68.3237L122.844 65.2256H126.294ZM110.452 78.0137C110.452 80.5771 110.986 82.5767 112.056 84.0122C113.125 85.4331 114.648 86.1436 116.626 86.1436C119.16 86.1436 121.028 84.7812 122.229 82.0566V72.2568C120.984 69.5029 119.131 68.126 116.67 68.126C114.707 68.126 113.176 68.9609 112.078 70.6309C110.994 72.2861 110.452 74.7471 110.452 78.0137ZM117.593 53.9756H121.416L118.867 61.3804H116.406L117.593 53.9756ZM132.578 95.3721L130.271 93.79C131.648 91.8711 132.366 89.8936 132.424 87.8574V84.188H136.401V87.374C136.401 88.8535 136.035 90.333 135.303 91.8125C134.585 93.292 133.677 94.4785 132.578 95.3721ZM15.2222 135.694C15.2222 134.595 14.8047 133.746 13.9697 133.145C13.1494 132.53 11.7065 132.002 9.64111 131.563C7.59033 131.124 5.95703 130.596 4.74121 129.981C3.54004 129.366 2.64648 128.633 2.06055 127.784C1.48926 126.934 1.20361 125.923 1.20361 124.751C1.20361 122.803 2.02393 121.155 3.66455 119.808C5.31982 118.46 7.4292 117.786 9.99268 117.786C12.688 117.786 14.8706 118.482 16.5405 119.874C18.2251 121.265 19.0674 123.045 19.0674 125.213H14.9805C14.9805 124.1 14.5044 123.14 13.5522 122.334C12.6147 121.529 11.4282 121.126 9.99268 121.126C8.51318 121.126 7.35596 121.448 6.521 122.093C5.68604 122.737 5.26855 123.58 5.26855 124.62C5.26855 125.601 5.65674 126.341 6.43311 126.839C7.20947 127.337 8.6084 127.813 10.6299 128.267C12.666 128.721 14.314 129.263 15.5737 129.893C16.8335 130.523 17.7637 131.285 18.3643 132.178C18.9795 133.057 19.2871 134.134 19.2871 135.408C19.2871 137.532 18.4375 139.239 16.7383 140.528C15.0391 141.802 12.8345 142.439 10.1245 142.439C8.22021 142.439 6.53564 142.103 5.0708 141.429C3.60596 140.755 2.45605 139.817 1.62109 138.616C0.800781 137.4 0.390625 136.089 0.390625 134.683H4.45557C4.52881 136.045 5.0708 137.129 6.08154 137.935C7.10693 138.726 8.45459 139.122 10.1245 139.122C11.6626 139.122 12.8931 138.814 13.8159 138.199C14.7534 137.569 15.2222 136.734 15.2222 135.694ZM36.0742 121.873C35.459 121.771 34.7925 121.719 34.0747 121.719C31.4087 121.719 29.5996 122.854 28.6475 125.125V142H24.5825V118.226H28.5376L28.6035 120.972C29.9365 118.848 31.8262 117.786 34.2725 117.786C35.0635 117.786 35.6641 117.889 36.0742 118.094V121.873ZM53.6304 142C53.396 141.531 53.2056 140.696 53.0591 139.495C51.1694 141.458 48.9136 142.439 46.2915 142.439C43.9478 142.439 42.0215 141.78 40.5127 140.462C39.0186 139.129 38.2715 137.444 38.2715 135.408C38.2715 132.933 39.209 131.014 41.084 129.651C42.9736 128.274 45.625 127.586 49.0381 127.586H52.9932V125.718C52.9932 124.297 52.5684 123.169 51.7188 122.334C50.8691 121.485 49.6167 121.06 47.9614 121.06C46.5112 121.06 45.2954 121.426 44.314 122.159C43.3325 122.891 42.8418 123.777 42.8418 124.817H38.7549C38.7549 123.631 39.1724 122.488 40.0073 121.39C40.8569 120.276 41.9995 119.397 43.4351 118.753C44.8853 118.108 46.4746 117.786 48.2031 117.786C50.9424 117.786 53.0884 118.475 54.6411 119.852C56.1938 121.214 56.9995 123.096 57.0581 125.499V136.441C57.0581 138.624 57.3364 140.359 57.8931 141.648V142H53.6304ZM46.8848 138.902C48.1592 138.902 49.3677 138.572 50.5103 137.913C51.6528 137.254 52.4805 136.397 52.9932 135.342V130.464H49.8071C44.8267 130.464 42.3364 131.922 42.3364 134.837C42.3364 136.111 42.7612 137.107 43.6108 137.825C44.4604 138.543 45.5518 138.902 46.8848 138.902ZM70.9229 136.485L76.8115 118.226H80.9644L72.439 142H69.3408L60.7275 118.226H64.8804L70.9229 136.485ZM99.2017 142C98.9673 141.531 98.7769 140.696 98.6304 139.495C96.7407 141.458 94.4849 142.439 91.8628 142.439C89.519 142.439 87.5928 141.78 86.084 140.462C84.5898 139.129 83.8428 137.444 83.8428 135.408C83.8428 132.933 84.7803 131.014 86.6553 129.651C88.5449 128.274 91.1963 127.586 94.6094 127.586H98.5645V125.718C98.5645 124.297 98.1396 123.169 97.29 122.334C96.4404 121.485 95.188 121.06 93.5327 121.06C92.0825 121.06 90.8667 121.426 89.8853 122.159C88.9038 122.891 88.4131 123.777 88.4131 124.817H84.3262C84.3262 123.631 84.7437 122.488 85.5786 121.39C86.4282 120.276 87.5708 119.397 89.0063 118.753C90.4565 118.108 92.0459 117.786 93.7744 117.786C96.5137 117.786 98.6597 118.475 100.212 119.852C101.765 121.214 102.571 123.096 102.629 125.499V136.441C102.629 138.624 102.908 140.359 103.464 141.648V142H99.2017ZM92.4561 138.902C93.7305 138.902 94.939 138.572 96.0815 137.913C97.2241 137.254 98.0518 136.397 98.5645 135.342V130.464H95.3784C90.3979 130.464 87.9077 131.922 87.9077 134.837C87.9077 136.111 88.3325 137.107 89.1821 137.825C90.0317 138.543 91.123 138.902 92.4561 138.902ZM112.847 118.226L112.979 121.214C114.795 118.929 117.168 117.786 120.098 117.786C125.122 117.786 127.656 120.621 127.7 126.29V142H123.635V126.268C123.621 124.554 123.225 123.287 122.449 122.466C121.687 121.646 120.493 121.236 118.867 121.236C117.549 121.236 116.392 121.587 115.396 122.291C114.399 122.994 113.623 123.917 113.066 125.059V142H109.001V118.226H112.847ZM138.247 142H134.182V118.226H138.247V142ZM133.853 111.919C133.853 111.26 134.05 110.704 134.446 110.25C134.856 109.795 135.457 109.568 136.248 109.568C137.039 109.568 137.639 109.795 138.049 110.25C138.459 110.704 138.665 111.26 138.665 111.919C138.665 112.579 138.459 113.128 138.049 113.567C137.639 114.007 137.039 114.227 136.248 114.227C135.457 114.227 134.856 114.007 134.446 113.567C134.05 113.128 133.853 112.579 133.853 111.919Z" fill="black"/>
</svg>
