<svg width="288" height="141" viewBox="0 0 288 141" fill="none" xmlns="http://www.w3.org/2000/svg">
<path d="M98.0991 22.3765C98.0991 26.0093 97.2642 28.9316 95.5942 31.1436C93.9243 33.3408 91.6831 34.4395 88.8706 34.4395C85.8677 34.4395 83.5459 33.3774 81.9053 31.2534L81.7075 34H77.9722V0.25H82.0371V12.8403C83.6777 10.8042 85.9409 9.78613 88.8267 9.78613C91.7124 9.78613 93.9756 10.8774 95.6162 13.0601C97.2715 15.2427 98.0991 18.231 98.0991 22.0249V22.3765ZM94.0342 21.915C94.0342 19.1465 93.4995 17.0078 92.4302 15.499C91.3608 13.9902 89.8228 13.2358 87.8159 13.2358C85.1353 13.2358 83.209 14.481 82.0371 16.9712V27.2544C83.2822 29.7446 85.2231 30.9897 87.8599 30.9897C89.8081 30.9897 91.3242 30.2354 92.4082 28.7266C93.4922 27.2178 94.0342 24.9473 94.0342 21.915ZM102.164 21.8931C102.164 19.564 102.618 17.4692 103.526 15.6089C104.449 13.7485 105.724 12.313 107.35 11.3022C108.99 10.2915 110.858 9.78613 112.953 9.78613C116.19 9.78613 118.805 10.9067 120.797 13.1479C122.804 15.3892 123.807 18.3701 123.807 22.0908V22.3765C123.807 24.6909 123.36 26.771 122.467 28.6167C121.588 30.4478 120.321 31.876 118.666 32.9014C117.025 33.9268 115.135 34.4395 112.997 34.4395C109.774 34.4395 107.159 33.3188 105.152 31.0776C103.16 28.8364 102.164 25.8701 102.164 22.1787V21.8931ZM106.251 22.3765C106.251 25.0132 106.859 27.1299 108.075 28.7266C109.305 30.3232 110.946 31.1216 112.997 31.1216C115.062 31.1216 116.703 30.3159 117.918 28.7046C119.134 27.0786 119.742 24.8081 119.742 21.8931C119.742 19.2856 119.12 17.1763 117.875 15.5649C116.644 13.939 115.003 13.126 112.953 13.126C110.946 13.126 109.327 13.9243 108.097 15.521C106.866 17.1177 106.251 19.4028 106.251 22.3765ZM133.321 34H129.256V0.25H133.321V34ZM138.858 21.915C138.858 18.2676 139.723 15.3379 141.451 13.126C143.18 10.8994 145.443 9.78613 148.241 9.78613C151.024 9.78613 153.229 10.7383 154.854 12.6426V0.25H158.919V34H155.184L154.986 31.4512C153.36 33.4434 151.097 34.4395 148.197 34.4395C145.443 34.4395 143.194 33.3115 141.451 31.0557C139.723 28.7998 138.858 25.8555 138.858 22.2227V21.915ZM142.923 22.3765C142.923 25.0718 143.48 27.1812 144.593 28.7046C145.707 30.228 147.245 30.9897 149.208 30.9897C151.786 30.9897 153.668 29.8325 154.854 27.5181V16.5977C153.639 14.3564 151.771 13.2358 149.251 13.2358C147.259 13.2358 145.707 14.0049 144.593 15.543C143.48 17.0811 142.923 19.3589 142.923 22.3765ZM164.171 21.8931C164.171 19.564 164.625 17.4692 165.533 15.6089C166.456 13.7485 167.73 12.313 169.356 11.3022C170.997 10.2915 172.865 9.78613 174.959 9.78613C178.197 9.78613 180.812 10.9067 182.804 13.1479C184.811 15.3892 185.814 18.3701 185.814 22.0908V22.3765C185.814 24.6909 185.367 26.771 184.474 28.6167C183.595 30.4478 182.328 31.876 180.672 32.9014C179.032 33.9268 177.142 34.4395 175.003 34.4395C171.781 34.4395 169.166 33.3188 167.159 31.0776C165.167 28.8364 164.171 25.8701 164.171 22.1787V21.8931ZM168.258 22.3765C168.258 25.0132 168.866 27.1299 170.082 28.7266C171.312 30.3232 172.953 31.1216 175.003 31.1216C177.069 31.1216 178.709 30.3159 179.925 28.7046C181.141 27.0786 181.749 24.8081 181.749 21.8931C181.749 19.2856 181.126 17.1763 179.881 15.5649C178.651 13.939 177.01 13.126 174.959 13.126C172.953 13.126 171.334 13.9243 170.104 15.521C168.873 17.1177 168.258 19.4028 168.258 22.3765ZM189.945 21.915C189.945 18.209 190.802 15.2646 192.516 13.082C194.229 10.8848 196.5 9.78613 199.327 9.78613C202.228 9.78613 204.491 10.8115 206.117 12.8623L206.314 10.2256H210.028V33.4287C210.028 36.5049 209.112 38.9292 207.281 40.7017C205.465 42.4741 203.019 43.3604 199.942 43.3604C198.229 43.3604 196.551 42.9941 194.911 42.2617C193.27 41.5293 192.018 40.5259 191.153 39.2515L193.263 36.8125C195.006 38.9658 197.137 40.0425 199.657 40.0425C201.634 40.0425 203.172 39.4858 204.271 38.3726C205.384 37.2593 205.941 35.6919 205.941 33.6704V31.627C204.315 33.502 202.096 34.4395 199.283 34.4395C196.5 34.4395 194.244 33.3188 192.516 31.0776C190.802 28.8364 189.945 25.7822 189.945 21.915ZM194.032 22.3765C194.032 25.0571 194.581 27.1665 195.68 28.7046C196.778 30.228 198.316 30.9897 200.294 30.9897C202.857 30.9897 204.74 29.8252 205.941 27.4961V16.6416C204.696 14.3711 202.828 13.2358 200.338 13.2358C198.36 13.2358 196.815 14.0049 195.702 15.543C194.588 17.0811 194.032 19.3589 194.032 22.3765ZM15.5479 80.6938C15.5479 79.5952 15.1304 78.7456 14.2954 78.145C13.4751 77.5298 12.0322 77.0024 9.9668 76.563C7.91602 76.1235 6.28271 75.5962 5.06689 74.981C3.86572 74.3657 2.97217 73.6333 2.38623 72.7837C1.81494 71.9341 1.5293 70.9233 1.5293 69.7515C1.5293 67.8032 2.34961 66.1553 3.99023 64.8076C5.64551 63.46 7.75488 62.7861 10.3184 62.7861C13.0137 62.7861 15.1963 63.4819 16.8662 64.8735C18.5508 66.2651 19.3931 68.0449 19.3931 70.2129H15.3062C15.3062 69.0996 14.8301 68.1401 13.8779 67.3345C12.9404 66.5288 11.7539 66.126 10.3184 66.126C8.83887 66.126 7.68164 66.4482 6.84668 67.0928C6.01172 67.7373 5.59424 68.5796 5.59424 69.6196C5.59424 70.6011 5.98242 71.3408 6.75879 71.8389C7.53516 72.3369 8.93408 72.813 10.9556 73.2671C12.9917 73.7212 14.6396 74.2632 15.8994 74.8931C17.1592 75.5229 18.0894 76.2847 18.6899 77.1782C19.3052 78.0571 19.6128 79.1338 19.6128 80.4082C19.6128 82.5322 18.7632 84.2388 17.064 85.5278C15.3647 86.8022 13.1602 87.4395 10.4502 87.4395C8.5459 87.4395 6.86133 87.1025 5.39648 86.4287C3.93164 85.7549 2.78174 84.8174 1.94678 83.6162C1.12646 82.4004 0.716309 81.0894 0.716309 79.6831H4.78125C4.85449 81.0454 5.39648 82.1294 6.40723 82.9351C7.43262 83.7261 8.78027 84.1216 10.4502 84.1216C11.9883 84.1216 13.2188 83.814 14.1416 83.1987C15.0791 82.5688 15.5479 81.7339 15.5479 80.6938ZM28.7314 83.6821H42.6401V87H23.7656V84.0117L36.8833 66.5874H23.9634V63.2256H41.981V66.104L28.7314 83.6821ZM61.9102 84.6489C60.3281 86.5093 58.0063 87.4395 54.9448 87.4395C52.4106 87.4395 50.4771 86.707 49.144 85.2422C47.8257 83.7627 47.1592 81.5801 47.1445 78.6943V63.2256H51.2095V78.5845C51.2095 82.188 52.6743 83.9897 55.604 83.9897C58.7095 83.9897 60.7749 82.8325 61.8003 80.5181V63.2256H65.8652V87H61.998L61.9102 84.6489ZM49.5396 56.8755C49.5396 56.2163 49.7373 55.667 50.1328 55.2275C50.543 54.7734 51.1436 54.5464 51.9346 54.5464C52.7256 54.5464 53.3262 54.7734 53.7363 55.2275C54.1465 55.667 54.3516 56.2163 54.3516 56.8755C54.3516 57.5347 54.1465 58.084 53.7363 58.5234C53.3262 58.9629 52.7256 59.1826 51.9346 59.1826C51.1436 59.1826 50.543 58.9629 50.1328 58.5234C49.7373 58.084 49.5396 57.5347 49.5396 56.8755ZM58.9878 56.9194C58.9878 56.2603 59.1855 55.7036 59.5811 55.2495C59.9912 54.7954 60.5918 54.5684 61.3828 54.5684C62.1738 54.5684 62.7744 54.7954 63.1846 55.2495C63.5947 55.7036 63.7998 56.2603 63.7998 56.9194C63.7998 57.5786 63.5947 58.1279 63.1846 58.5674C62.7744 59.0068 62.1738 59.2266 61.3828 59.2266C60.5918 59.2266 59.9912 59.0068 59.5811 58.5674C59.1855 58.1279 58.9878 57.5786 58.9878 56.9194ZM76.478 87H72.4131V53.25H76.478V87ZM92.8696 87.4395C89.647 87.4395 87.0249 86.3848 85.0034 84.2754C82.9819 82.1514 81.9712 79.3169 81.9712 75.772V75.0249C81.9712 72.6665 82.418 70.5645 83.3115 68.7188C84.2197 66.8584 85.4795 65.4082 87.0908 64.3682C88.7168 63.3135 90.4746 62.7861 92.3643 62.7861C95.4551 62.7861 97.8574 63.8042 99.5713 65.8403C101.285 67.8765 102.142 70.7915 102.142 74.5854V76.2773H86.0361C86.0947 78.6211 86.7759 80.5181 88.0796 81.9683C89.3979 83.4038 91.0679 84.1216 93.0894 84.1216C94.5249 84.1216 95.7407 83.8286 96.7368 83.2427C97.7329 82.6567 98.6045 81.8804 99.3516 80.9136L101.834 82.8472C99.8423 85.9087 96.854 87.4395 92.8696 87.4395ZM92.3643 66.126C90.7236 66.126 89.3467 66.7266 88.2334 67.9277C87.1201 69.1143 86.4316 70.7842 86.168 72.9375H98.0771V72.6299C97.96 70.5645 97.4033 68.9678 96.4072 67.8398C95.4111 66.6973 94.0635 66.126 92.3643 66.126ZM112.381 57.4688V63.2256H116.82V66.3677H112.381V81.1113C112.381 82.0635 112.579 82.7812 112.975 83.2646C113.37 83.7334 114.044 83.9678 114.996 83.9678C115.465 83.9678 116.109 83.8799 116.93 83.7041V87C115.86 87.293 114.82 87.4395 113.81 87.4395C111.993 87.4395 110.624 86.8901 109.701 85.7915C108.778 84.6929 108.316 83.1328 108.316 81.1113V66.3677H103.988V63.2256H108.316V57.4688H112.381ZM131.454 87.4395C128.231 87.4395 125.609 86.3848 123.587 84.2754C121.566 82.1514 120.555 79.3169 120.555 75.772V75.0249C120.555 72.6665 121.002 70.5645 121.896 68.7188C122.804 66.8584 124.063 65.4082 125.675 64.3682C127.301 63.3135 129.059 62.7861 130.948 62.7861C134.039 62.7861 136.441 63.8042 138.155 65.8403C139.869 67.8765 140.726 70.7915 140.726 74.5854V76.2773H124.62C124.679 78.6211 125.36 80.5181 126.664 81.9683C127.982 83.4038 129.652 84.1216 131.673 84.1216C133.109 84.1216 134.325 83.8286 135.321 83.2427C136.317 82.6567 137.188 81.8804 137.936 80.9136L140.418 82.8472C138.426 85.9087 135.438 87.4395 131.454 87.4395ZM130.948 66.126C129.308 66.126 127.931 66.7266 126.817 67.9277C125.704 69.1143 125.016 70.7842 124.752 72.9375H136.661V72.6299C136.544 70.5645 135.987 68.9678 134.991 67.8398C133.995 66.6973 132.647 66.126 130.948 66.126ZM132.926 53.25H137.848L131.959 59.71H128.685L132.926 53.25ZM159.293 80.6938C159.293 79.5952 158.875 78.7456 158.041 78.145C157.22 77.5298 155.777 77.0024 153.712 76.563C151.661 76.1235 150.028 75.5962 148.812 74.981C147.611 74.3657 146.717 73.6333 146.131 72.7837C145.56 71.9341 145.274 70.9233 145.274 69.7515C145.274 67.8032 146.095 66.1553 147.735 64.8076C149.391 63.46 151.5 62.7861 154.063 62.7861C156.759 62.7861 158.941 63.4819 160.611 64.8735C162.296 66.2651 163.138 68.0449 163.138 70.2129H159.051C159.051 69.0996 158.575 68.1401 157.623 67.3345C156.686 66.5288 155.499 66.126 154.063 66.126C152.584 66.126 151.427 66.4482 150.592 67.0928C149.757 67.7373 149.339 68.5796 149.339 69.6196C149.339 70.6011 149.728 71.3408 150.504 71.8389C151.28 72.3369 152.679 72.813 154.701 73.2671C156.737 73.7212 158.385 74.2632 159.645 74.8931C160.904 75.5229 161.834 76.2847 162.435 77.1782C163.05 78.0571 163.358 79.1338 163.358 80.4082C163.358 82.5322 162.508 84.2388 160.809 85.5278C159.11 86.8022 156.905 87.4395 154.195 87.4395C152.291 87.4395 150.606 87.1025 149.142 86.4287C147.677 85.7549 146.527 84.8174 145.692 83.6162C144.872 82.4004 144.461 81.0894 144.461 79.6831H148.526C148.6 81.0454 149.142 82.1294 150.152 82.9351C151.178 83.7261 152.525 84.1216 154.195 84.1216C155.733 84.1216 156.964 83.814 157.887 83.1987C158.824 82.5688 159.293 81.7339 159.293 80.6938ZM172.499 63.2256L172.63 66.2139C174.447 63.9287 176.82 62.7861 179.75 62.7861C184.774 62.7861 187.308 65.6206 187.352 71.2896V87H183.287V71.2676C183.272 69.5537 182.877 68.2866 182.101 67.4663C181.339 66.646 180.145 66.2358 178.519 66.2358C177.201 66.2358 176.043 66.5874 175.047 67.2905C174.051 67.9937 173.275 68.9165 172.718 70.0591V87H168.653V63.2256H172.499ZM208.16 87C207.926 86.5312 207.735 85.6963 207.589 84.4951C205.699 86.458 203.443 87.4395 200.821 87.4395C198.478 87.4395 196.551 86.7803 195.042 85.4619C193.548 84.1289 192.801 82.4443 192.801 80.4082C192.801 77.9326 193.739 76.0137 195.614 74.6514C197.503 73.2744 200.155 72.5859 203.568 72.5859H207.523V70.7183C207.523 69.2974 207.098 68.1694 206.249 67.3345C205.399 66.4849 204.146 66.0601 202.491 66.0601C201.041 66.0601 199.825 66.4263 198.844 67.1587C197.862 67.8911 197.372 68.7773 197.372 69.8174H193.285C193.285 68.6309 193.702 67.4883 194.537 66.3896C195.387 65.2764 196.529 64.3975 197.965 63.7529C199.415 63.1084 201.004 62.7861 202.733 62.7861C205.472 62.7861 207.618 63.4746 209.171 64.8516C210.724 66.2139 211.529 68.0962 211.588 70.4985V81.4409C211.588 83.6235 211.866 85.3594 212.423 86.6484V87H208.16ZM201.415 83.9019C202.689 83.9019 203.897 83.5723 205.04 82.9131C206.183 82.2539 207.01 81.397 207.523 80.3423V75.4644H204.337C199.356 75.4644 196.866 76.9219 196.866 79.8369C196.866 81.1113 197.291 82.1074 198.141 82.8252C198.99 83.543 200.082 83.9019 201.415 83.9019ZM238.043 75.3765C238.043 78.9946 237.215 81.9097 235.56 84.1216C233.905 86.3335 231.664 87.4395 228.836 87.4395C225.951 87.4395 223.68 86.5239 222.025 84.6929V96.1406H217.96V63.2256H221.673L221.871 65.8623C223.526 63.8115 225.826 62.7861 228.771 62.7861C231.627 62.7861 233.883 63.8628 235.538 66.0161C237.208 68.1694 238.043 71.165 238.043 75.0029V75.3765ZM233.978 74.915C233.978 72.2344 233.407 70.1177 232.264 68.5649C231.122 67.0122 229.554 66.2358 227.562 66.2358C225.101 66.2358 223.255 67.3271 222.025 69.5098V80.8696C223.241 83.0376 225.101 84.1216 227.606 84.1216C229.554 84.1216 231.1 83.3525 232.242 81.8145C233.399 80.2617 233.978 77.9619 233.978 74.915ZM242.152 74.8931C242.152 72.564 242.606 70.4692 243.514 68.6089C244.437 66.7485 245.711 65.313 247.337 64.3022C248.978 63.2915 250.846 62.7861 252.94 62.7861C256.178 62.7861 258.792 63.9067 260.785 66.1479C262.792 68.3892 263.795 71.3701 263.795 75.0908V75.3765C263.795 77.6909 263.348 79.771 262.455 81.6167C261.576 83.4478 260.309 84.876 258.653 85.9014C257.013 86.9268 255.123 87.4395 252.984 87.4395C249.762 87.4395 247.147 86.3188 245.14 84.0776C243.148 81.8364 242.152 78.8701 242.152 75.1787V74.8931ZM246.239 75.3765C246.239 78.0132 246.847 80.1299 248.062 81.7266C249.293 83.3232 250.934 84.1216 252.984 84.1216C255.05 84.1216 256.69 83.3159 257.906 81.7046C259.122 80.0786 259.73 77.8081 259.73 74.8931C259.73 72.2856 259.107 70.1763 257.862 68.5649C256.632 66.939 254.991 66.126 252.94 66.126C250.934 66.126 249.315 66.9243 248.084 68.521C246.854 70.1177 246.239 72.4028 246.239 75.3765ZM274.408 57.4688V63.2256H278.846V66.3677H274.408V81.1113C274.408 82.0635 274.605 82.7812 275.001 83.2646C275.396 83.7334 276.07 83.9678 277.022 83.9678C277.491 83.9678 278.136 83.8799 278.956 83.7041V87C277.887 87.293 276.847 87.4395 275.836 87.4395C274.02 87.4395 272.65 86.8901 271.727 85.7915C270.804 84.6929 270.343 83.1328 270.343 81.1113V66.3677H266.014V63.2256H270.343V57.4688H274.408ZM283.482 93.3721L281.175 91.79C282.552 89.8711 283.27 87.8936 283.329 85.8574V82.188H287.306V85.374C287.306 86.8535 286.939 88.333 286.207 89.8125C285.489 91.292 284.581 92.4785 283.482 93.3721ZM89.2222 133.694C89.2222 132.595 88.8047 131.746 87.9697 131.145C87.1494 130.53 85.7065 130.002 83.6411 129.563C81.5903 129.124 79.957 128.596 78.7412 127.981C77.54 127.366 76.6465 126.633 76.0605 125.784C75.4893 124.934 75.2036 123.923 75.2036 122.751C75.2036 120.803 76.0239 119.155 77.6646 117.808C79.3198 116.46 81.4292 115.786 83.9927 115.786C86.688 115.786 88.8706 116.482 90.5405 117.874C92.2251 119.265 93.0674 121.045 93.0674 123.213H88.9805C88.9805 122.1 88.5044 121.14 87.5522 120.334C86.6147 119.529 85.4282 119.126 83.9927 119.126C82.5132 119.126 81.356 119.448 80.521 120.093C79.686 120.737 79.2686 121.58 79.2686 122.62C79.2686 123.601 79.6567 124.341 80.4331 124.839C81.2095 125.337 82.6084 125.813 84.6299 126.267C86.666 126.721 88.314 127.263 89.5737 127.893C90.8335 128.523 91.7637 129.285 92.3643 130.178C92.9795 131.057 93.2871 132.134 93.2871 133.408C93.2871 135.532 92.4375 137.239 90.7383 138.528C89.0391 139.802 86.8345 140.439 84.1245 140.439C82.2202 140.439 80.5356 140.103 79.0708 139.429C77.606 138.755 76.4561 137.817 75.6211 136.616C74.8008 135.4 74.3906 134.089 74.3906 132.683H78.4556C78.5288 134.045 79.0708 135.129 80.0815 135.935C81.1069 136.726 82.4546 137.122 84.1245 137.122C85.6626 137.122 86.8931 136.814 87.8159 136.199C88.7534 135.569 89.2222 134.734 89.2222 133.694ZM110.074 119.873C109.459 119.771 108.792 119.719 108.075 119.719C105.409 119.719 103.6 120.854 102.647 123.125V140H98.5825V116.226H102.538L102.604 118.972C103.937 116.848 105.826 115.786 108.272 115.786C109.063 115.786 109.664 115.889 110.074 116.094V119.873ZM127.63 140C127.396 139.531 127.206 138.696 127.059 137.495C125.169 139.458 122.914 140.439 120.292 140.439C117.948 140.439 116.021 139.78 114.513 138.462C113.019 137.129 112.271 135.444 112.271 133.408C112.271 130.933 113.209 129.014 115.084 127.651C116.974 126.274 119.625 125.586 123.038 125.586H126.993V123.718C126.993 122.297 126.568 121.169 125.719 120.334C124.869 119.485 123.617 119.06 121.961 119.06C120.511 119.06 119.295 119.426 118.314 120.159C117.333 120.891 116.842 121.777 116.842 122.817H112.755C112.755 121.631 113.172 120.488 114.007 119.39C114.857 118.276 116 117.397 117.435 116.753C118.885 116.108 120.475 115.786 122.203 115.786C124.942 115.786 127.088 116.475 128.641 117.852C130.194 119.214 131 121.096 131.058 123.499V134.441C131.058 136.624 131.336 138.359 131.893 139.648V140H127.63ZM120.885 136.902C122.159 136.902 123.368 136.572 124.51 135.913C125.653 135.254 126.48 134.397 126.993 133.342V128.464H123.807C118.827 128.464 116.336 129.922 116.336 132.837C116.336 134.111 116.761 135.107 117.611 135.825C118.46 136.543 119.552 136.902 120.885 136.902ZM144.923 134.485L150.812 116.226H154.964L146.439 140H143.341L134.728 116.226H138.88L144.923 134.485ZM173.202 140C172.967 139.531 172.777 138.696 172.63 137.495C170.741 139.458 168.485 140.439 165.863 140.439C163.519 140.439 161.593 139.78 160.084 138.462C158.59 137.129 157.843 135.444 157.843 133.408C157.843 130.933 158.78 129.014 160.655 127.651C162.545 126.274 165.196 125.586 168.609 125.586H172.564V123.718C172.564 122.297 172.14 121.169 171.29 120.334C170.44 119.485 169.188 119.06 167.533 119.06C166.083 119.06 164.867 119.426 163.885 120.159C162.904 120.891 162.413 121.777 162.413 122.817H158.326C158.326 121.631 158.744 120.488 159.579 119.39C160.428 118.276 161.571 117.397 163.006 116.753C164.457 116.108 166.046 115.786 167.774 115.786C170.514 115.786 172.66 116.475 174.212 117.852C175.765 119.214 176.571 121.096 176.629 123.499V134.441C176.629 136.624 176.908 138.359 177.464 139.648V140H173.202ZM166.456 136.902C167.73 136.902 168.939 136.572 170.082 135.913C171.224 135.254 172.052 134.397 172.564 133.342V128.464H169.378C164.398 128.464 161.908 129.922 161.908 132.837C161.908 134.111 162.333 135.107 163.182 135.825C164.032 136.543 165.123 136.902 166.456 136.902ZM186.847 116.226L186.979 119.214C188.795 116.929 191.168 115.786 194.098 115.786C199.122 115.786 201.656 118.621 201.7 124.29V140H197.635V124.268C197.621 122.554 197.225 121.287 196.449 120.466C195.687 119.646 194.493 119.236 192.867 119.236C191.549 119.236 190.392 119.587 189.396 120.291C188.399 120.994 187.623 121.917 187.066 123.059V140H183.001V116.226H186.847ZM212.247 140H208.182V116.226H212.247V140ZM207.853 109.919C207.853 109.26 208.05 108.704 208.446 108.25C208.856 107.795 209.457 107.568 210.248 107.568C211.039 107.568 211.639 107.795 212.049 108.25C212.459 108.704 212.665 109.26 212.665 109.919C212.665 110.579 212.459 111.128 212.049 111.567C211.639 112.007 211.039 112.227 210.248 112.227C209.457 112.227 208.856 112.007 208.446 111.567C208.05 111.128 207.853 110.579 207.853 109.919Z" fill="black"/>
</svg>
