<svg width="271" height="141" viewBox="0 0 271 141" fill="none" xmlns="http://www.w3.org/2000/svg">
<path d="M27.0264 4.46875V10.2256H31.4648V13.3677H27.0264V28.1113C27.0264 29.0635 27.2241 29.7812 27.6196 30.2646C28.0151 30.7334 28.689 30.9678 29.6411 30.9678C30.1099 30.9678 30.7544 30.8799 31.5747 30.7041V34C30.5054 34.293 29.4653 34.4395 28.4546 34.4395C26.6382 34.4395 25.2686 33.8901 24.3457 32.7915C23.4229 31.6929 22.9614 30.1328 22.9614 28.1113V13.3677H18.6328V10.2256H22.9614V4.46875H27.0264ZM40.6494 34H36.5845V10.2256H40.6494V34ZM36.2549 3.91943C36.2549 3.26025 36.4526 2.70361 36.8481 2.24951C37.2583 1.79541 37.8589 1.56836 38.6499 1.56836C39.4409 1.56836 40.0415 1.79541 40.4517 2.24951C40.8618 2.70361 41.0669 3.26025 41.0669 3.91943C41.0669 4.57861 40.8618 5.12793 40.4517 5.56738C40.0415 6.00684 39.4409 6.22656 38.6499 6.22656C37.8589 6.22656 37.2583 6.00684 36.8481 5.56738C36.4526 5.12793 36.2549 4.57861 36.2549 3.91943ZM51.5918 34H47.5269V0.25H51.5918V34ZM73.3447 13.104C75.1465 10.8921 77.4902 9.78613 80.376 9.78613C85.4004 9.78613 87.9346 12.6206 87.9785 18.2896V34H83.9136V18.2676C83.8989 16.5537 83.5034 15.2866 82.7271 14.4663C81.9653 13.646 80.7715 13.2358 79.1455 13.2358C77.8271 13.2358 76.6699 13.5874 75.6738 14.2905C74.6777 14.9937 73.9014 15.9165 73.3447 17.0591V34H69.2798V0.25H73.3447V13.104ZM108.743 34C108.508 33.5312 108.318 32.6963 108.171 31.4951C106.282 33.458 104.026 34.4395 101.404 34.4395C99.0601 34.4395 97.1338 33.7803 95.625 32.4619C94.1309 31.1289 93.3838 29.4443 93.3838 27.4082C93.3838 24.9326 94.3213 23.0137 96.1963 21.6514C98.0859 20.2744 100.737 19.5859 104.15 19.5859H108.105V17.7183C108.105 16.2974 107.681 15.1694 106.831 14.3345C105.981 13.4849 104.729 13.0601 103.074 13.0601C101.624 13.0601 100.408 13.4263 99.4263 14.1587C98.4448 14.8911 97.9541 15.7773 97.9541 16.8174H93.8672C93.8672 15.6309 94.2847 14.4883 95.1196 13.3896C95.9692 12.2764 97.1118 11.3975 98.5474 10.7529C99.9976 10.1084 101.587 9.78613 103.315 9.78613C106.055 9.78613 108.201 10.4746 109.753 11.8516C111.306 13.2139 112.112 15.0962 112.17 17.4985V28.4409C112.17 30.6235 112.449 32.3594 113.005 33.6484V34H108.743ZM101.997 30.9019C103.271 30.9019 104.48 30.5723 105.623 29.9131C106.765 29.2539 107.593 28.397 108.105 27.3423V22.4644H104.919C99.939 22.4644 97.4487 23.9219 97.4487 26.8369C97.4487 28.1113 97.8735 29.1074 98.7231 29.8252C99.5728 30.543 100.664 30.9019 101.997 30.9019ZM122.366 10.2256L122.476 12.8623C124.219 10.8115 126.57 9.78613 129.529 9.78613C132.854 9.78613 135.117 11.0605 136.318 13.6094C137.109 12.4668 138.135 11.5439 139.395 10.8408C140.669 10.1377 142.17 9.78613 143.899 9.78613C149.114 9.78613 151.765 12.5474 151.853 18.0698V34H147.788V18.3115C147.788 16.6123 147.4 15.3452 146.624 14.5103C145.847 13.6606 144.543 13.2358 142.712 13.2358C141.204 13.2358 139.951 13.6899 138.955 14.5981C137.959 15.4917 137.38 16.7002 137.219 18.2236V34H133.132V18.4214C133.132 14.9644 131.44 13.2358 128.057 13.2358C125.391 13.2358 123.567 14.3711 122.585 16.6416V34H118.521V10.2256H122.366ZM162.422 34H158.357V10.2256H162.422V34ZM158.027 3.91943C158.027 3.26025 158.225 2.70361 158.621 2.24951C159.031 1.79541 159.631 1.56836 160.422 1.56836C161.213 1.56836 161.814 1.79541 162.224 2.24951C162.634 2.70361 162.839 3.26025 162.839 3.91943C162.839 4.57861 162.634 5.12793 162.224 5.56738C161.814 6.00684 161.213 6.22656 160.422 6.22656C159.631 6.22656 159.031 6.00684 158.621 5.56738C158.225 5.12793 158.027 4.57861 158.027 3.91943ZM172.793 10.2256L172.925 13.2139C174.741 10.9287 177.114 9.78613 180.044 9.78613C185.068 9.78613 187.603 12.6206 187.646 18.2896V34H183.582V18.2676C183.567 16.5537 183.171 15.2866 182.395 14.4663C181.633 13.646 180.439 13.2358 178.813 13.2358C177.495 13.2358 176.338 13.5874 175.342 14.2905C174.346 14.9937 173.569 15.9165 173.013 17.0591V34H168.948V10.2256H172.793ZM192.81 21.915C192.81 18.209 193.667 15.2646 195.381 13.082C197.095 10.8848 199.365 9.78613 202.192 9.78613C205.093 9.78613 207.356 10.8115 208.982 12.8623L209.18 10.2256H212.893V33.4287C212.893 36.5049 211.978 38.9292 210.146 40.7017C208.33 42.4741 205.884 43.3604 202.808 43.3604C201.094 43.3604 199.417 42.9941 197.776 42.2617C196.135 41.5293 194.883 40.5259 194.019 39.2515L196.128 36.8125C197.871 38.9658 200.002 40.0425 202.522 40.0425C204.5 40.0425 206.038 39.4858 207.136 38.3726C208.25 37.2593 208.806 35.6919 208.806 33.6704V31.627C207.18 33.502 204.961 34.4395 202.148 34.4395C199.365 34.4395 197.109 33.3188 195.381 31.0776C193.667 28.8364 192.81 25.7822 192.81 21.915ZM196.897 22.3765C196.897 25.0571 197.446 27.1665 198.545 28.7046C199.644 30.228 201.182 30.9897 203.159 30.9897C205.723 30.9897 207.605 29.8252 208.806 27.4961V16.6416C207.561 14.3711 205.693 13.2358 203.203 13.2358C201.226 13.2358 199.68 14.0049 198.567 15.543C197.454 17.0811 196.897 19.3589 196.897 22.3765ZM223.242 10.2256V36.7466C223.242 41.3169 221.169 43.6021 217.024 43.6021C216.13 43.6021 215.303 43.4702 214.541 43.2065V39.9546C215.01 40.0718 215.625 40.1304 216.387 40.1304C217.295 40.1304 217.983 39.8813 218.452 39.3833C218.936 38.8999 219.177 38.0503 219.177 36.8345V10.2256H223.242ZM218.76 3.91943C218.76 3.2749 218.958 2.72559 219.353 2.27148C219.763 1.80273 220.356 1.56836 221.133 1.56836C221.924 1.56836 222.524 1.79541 222.935 2.24951C223.345 2.70361 223.55 3.26025 223.55 3.91943C223.55 4.57861 223.345 5.12793 222.935 5.56738C222.524 6.00684 221.924 6.22656 221.133 6.22656C220.342 6.22656 219.749 6.00684 219.353 5.56738C218.958 5.12793 218.76 4.57861 218.76 3.91943ZM244.49 31.6489C242.908 33.5093 240.586 34.4395 237.524 34.4395C234.99 34.4395 233.057 33.707 231.724 32.2422C230.405 30.7627 229.739 28.5801 229.724 25.6943V10.2256H233.789V25.5845C233.789 29.188 235.254 30.9897 238.184 30.9897C241.289 30.9897 243.354 29.8325 244.38 27.5181V10.2256H248.445V34H244.578L244.49 31.6489ZM4.13086 63.2256L4.24072 65.8623C5.98389 63.8115 8.33496 62.7861 11.2939 62.7861C14.6191 62.7861 16.8823 64.0605 18.0835 66.6094C18.8745 65.4668 19.8999 64.5439 21.1597 63.8408C22.4341 63.1377 23.9355 62.7861 25.6641 62.7861C30.8789 62.7861 33.5303 65.5474 33.6182 71.0698V87H29.5532V71.3115C29.5532 69.6123 29.165 68.3452 28.3887 67.5103C27.6123 66.6606 26.3086 66.2358 24.4775 66.2358C22.9688 66.2358 21.7163 66.6899 20.7202 67.5981C19.7241 68.4917 19.1455 69.7002 18.9844 71.2236V87H14.8975V71.4214C14.8975 67.9644 13.2056 66.2358 9.82178 66.2358C7.15576 66.2358 5.33203 67.3711 4.35059 69.6416V87H0.285645V63.2256H4.13086ZM49.6362 87.4395C46.4136 87.4395 43.7915 86.3848 41.77 84.2754C39.7485 82.1514 38.7378 79.3169 38.7378 75.772V75.0249C38.7378 72.6665 39.1846 70.5645 40.0781 68.7188C40.9863 66.8584 42.2461 65.4082 43.8574 64.3682C45.4834 63.3135 47.2412 62.7861 49.1309 62.7861C52.2217 62.7861 54.624 63.8042 56.3379 65.8403C58.0518 67.8765 58.9087 70.7915 58.9087 74.5854V76.2773H42.8027C42.8613 78.6211 43.5425 80.5181 44.8462 81.9683C46.1646 83.4038 47.8345 84.1216 49.856 84.1216C51.2915 84.1216 52.5073 83.8286 53.5034 83.2427C54.4995 82.6567 55.3711 81.8804 56.1182 80.9136L58.6011 82.8472C56.6089 85.9087 53.6206 87.4395 49.6362 87.4395ZM49.1309 66.126C47.4902 66.126 46.1133 66.7266 45 67.9277C43.8867 69.1143 43.1982 70.7842 42.9346 72.9375H54.8438V72.6299C54.7266 70.5645 54.1699 68.9678 53.1738 67.8398C52.1777 66.6973 50.8301 66.126 49.1309 66.126ZM78.5742 58.4136C82.2217 62.2808 84.0454 67.21 84.0454 73.2012V75.2446C84.0454 77.5591 83.6133 79.6465 82.749 81.5068C81.8994 83.3525 80.6836 84.8027 79.1016 85.8574C77.5195 86.9121 75.7471 87.4395 73.7842 87.4395C71.8066 87.4395 70.0122 86.9707 68.4009 86.0332C66.7896 85.0811 65.5371 83.7847 64.6436 82.144C63.7646 80.5034 63.3252 78.7017 63.3252 76.7388C63.3252 74.5854 63.7354 72.6592 64.5557 70.96C65.376 69.2461 66.5405 67.9131 68.0493 66.9609C69.5728 66.0088 71.2793 65.5327 73.1689 65.5327C75.5566 65.5327 77.6367 66.3677 79.4092 68.0376C78.7061 65.1812 77.3218 62.7202 75.2563 60.6548L70.4663 63.9067L68.8623 61.7314L73.0811 58.853C71.1475 57.52 68.8403 56.4946 66.1597 55.7769L67.4121 52.2832C70.9131 53.0742 73.9453 54.4878 76.5088 56.5239L80.6616 53.6895L82.2656 55.8867L78.5742 58.4136ZM79.9805 73.0474L79.9365 71.8169C79.4531 70.9233 78.6987 70.2129 77.6733 69.6855C76.6626 69.1436 75.4834 68.8726 74.1357 68.8726C72.0117 68.8726 70.3564 69.5757 69.1699 70.9819C67.9834 72.3735 67.3901 74.2925 67.3901 76.7388C67.3901 78.7896 67.998 80.5327 69.2139 81.9683C70.4443 83.4038 71.9971 84.1216 73.8721 84.1216C75.7031 84.1216 77.1753 83.2939 78.2886 81.6387C79.4165 79.9834 79.9805 77.8081 79.9805 75.1128V73.0474ZM115.84 87C115.605 86.5312 115.415 85.6963 115.269 84.4951C113.379 86.458 111.123 87.4395 108.501 87.4395C106.157 87.4395 104.231 86.7803 102.722 85.4619C101.228 84.1289 100.481 82.4443 100.481 80.4082C100.481 77.9326 101.418 76.0137 103.293 74.6514C105.183 73.2744 107.834 72.5859 111.248 72.5859H115.203V70.7183C115.203 69.2974 114.778 68.1694 113.928 67.3345C113.079 66.4849 111.826 66.0601 110.171 66.0601C108.721 66.0601 107.505 66.4263 106.523 67.1587C105.542 67.8911 105.051 68.7773 105.051 69.8174H100.964C100.964 68.6309 101.382 67.4883 102.217 66.3896C103.066 65.2764 104.209 64.3975 105.645 63.7529C107.095 63.1084 108.684 62.7861 110.413 62.7861C113.152 62.7861 115.298 63.4746 116.851 64.8516C118.403 66.2139 119.209 68.0962 119.268 70.4985V81.4409C119.268 83.6235 119.546 85.3594 120.103 86.6484V87H115.84ZM109.094 83.9019C110.369 83.9019 111.577 83.5723 112.72 82.9131C113.862 82.2539 114.69 81.397 115.203 80.3423V75.4644H112.017C107.036 75.4644 104.546 76.9219 104.546 79.8369C104.546 81.1113 104.971 82.1074 105.82 82.8252C106.67 83.543 107.761 83.9019 109.094 83.9019ZM127.639 87V66.3677H123.882V63.2256H127.639V60.7866C127.639 58.2378 128.32 56.2676 129.683 54.876C131.045 53.4844 132.971 52.7886 135.461 52.7886C136.399 52.7886 137.329 52.9131 138.252 53.1621L138.032 56.458C137.344 56.3262 136.611 56.2603 135.835 56.2603C134.517 56.2603 133.499 56.6484 132.781 57.4248C132.063 58.1865 131.704 59.2852 131.704 60.7207V63.2256H136.78V66.3677H131.704V87H127.639ZM145.107 63.2256L145.217 65.8623C146.96 63.8115 149.312 62.7861 152.271 62.7861C155.596 62.7861 157.859 64.0605 159.06 66.6094C159.851 65.4668 160.876 64.5439 162.136 63.8408C163.411 63.1377 164.912 62.7861 166.641 62.7861C171.855 62.7861 174.507 65.5474 174.595 71.0698V87H170.53V71.3115C170.53 69.6123 170.142 68.3452 169.365 67.5103C168.589 66.6606 167.285 66.2358 165.454 66.2358C163.945 66.2358 162.693 66.6899 161.697 67.5981C160.701 68.4917 160.122 69.7002 159.961 71.2236V87H155.874V71.4214C155.874 67.9644 154.182 66.2358 150.798 66.2358C148.132 66.2358 146.309 67.3711 145.327 69.6416V87H141.262V63.2256H145.107ZM205.4 87.4395C201.577 87.4395 198.669 86.1211 196.677 83.4844C195.725 84.7441 194.421 85.7183 192.766 86.4067C191.111 87.0952 189.25 87.4395 187.185 87.4395C184.739 87.4395 182.827 86.8096 181.45 85.5498C180.073 84.2754 179.385 82.5322 179.385 80.3203C179.385 78.0205 180.212 76.2334 181.868 74.959C183.538 73.6846 185.991 73.0474 189.229 73.0474H194.128V71.1797C194.128 69.6123 193.726 68.3818 192.92 67.4883C192.114 66.5801 190.95 66.126 189.426 66.126C187.888 66.126 186.606 66.5288 185.581 67.3345C184.556 68.1401 184.043 69.1362 184.043 70.3228L180 69.9053C180 67.8105 180.886 66.104 182.659 64.7856C184.431 63.4526 186.687 62.7861 189.426 62.7861C191.111 62.7861 192.598 63.0938 193.887 63.709C195.176 64.3096 196.187 65.2178 196.919 66.4336C197.842 65.2764 198.94 64.3828 200.215 63.7529C201.489 63.1084 202.896 62.7861 204.434 62.7861C207.51 62.7861 209.897 63.731 211.597 65.6206C213.296 67.4956 214.146 70.1396 214.146 73.5527V76.0796H198.149C198.252 78.6577 198.94 80.6499 200.215 82.0562C201.489 83.4478 203.218 84.1436 205.4 84.1436C207.568 84.1436 209.539 83.5869 211.311 82.4736L212.344 81.7925L213.75 84.7808C211.436 86.5532 208.652 87.4395 205.4 87.4395ZM187.976 84.1436C189.031 84.1436 190.137 83.8726 191.294 83.3306C192.451 82.7886 193.396 82.1221 194.128 81.3311V76.1235H189.119C187.405 76.1528 186.035 76.5703 185.01 77.376C183.984 78.1816 183.472 79.1924 183.472 80.4082C183.472 81.5361 183.86 82.4443 184.636 83.1328C185.413 83.8066 186.526 84.1436 187.976 84.1436ZM204.434 66.126C202.749 66.126 201.357 66.7559 200.259 68.0156C199.175 69.2607 198.508 70.9014 198.259 72.9375H210.081V72.2563C210.081 70.3228 209.59 68.8213 208.608 67.752C207.627 66.668 206.235 66.126 204.434 66.126ZM223.176 87H219.111V53.25H223.176V87ZM234.119 87H230.054V63.2256H234.119V87ZM229.724 56.9194C229.724 56.2603 229.922 55.7036 230.317 55.2495C230.728 54.7954 231.328 54.5684 232.119 54.5684C232.91 54.5684 233.511 54.7954 233.921 55.2495C234.331 55.7036 234.536 56.2603 234.536 56.9194C234.536 57.5786 234.331 58.1279 233.921 58.5674C233.511 59.0068 232.91 59.2266 232.119 59.2266C231.328 59.2266 230.728 59.0068 230.317 58.5674C229.922 58.1279 229.724 57.5786 229.724 56.9194ZM255.586 58.4136C259.233 62.2808 261.057 67.21 261.057 73.2012V75.2446C261.057 77.5591 260.625 79.6465 259.761 81.5068C258.911 83.3525 257.695 84.8027 256.113 85.8574C254.531 86.9121 252.759 87.4395 250.796 87.4395C248.818 87.4395 247.024 86.9707 245.413 86.0332C243.801 85.0811 242.549 83.7847 241.655 82.144C240.776 80.5034 240.337 78.7017 240.337 76.7388C240.337 74.5854 240.747 72.6592 241.567 70.96C242.388 69.2461 243.552 67.9131 245.061 66.9609C246.584 66.0088 248.291 65.5327 250.181 65.5327C252.568 65.5327 254.648 66.3677 256.421 68.0376C255.718 65.1812 254.333 62.7202 252.268 60.6548L247.478 63.9067L245.874 61.7314L250.093 58.853C248.159 57.52 245.852 56.4946 243.171 55.7769L244.424 52.2832C247.925 53.0742 250.957 54.4878 253.521 56.5239L257.673 53.6895L259.277 55.8867L255.586 58.4136ZM256.992 73.0474L256.948 71.8169C256.465 70.9233 255.71 70.2129 254.685 69.6855C253.674 69.1436 252.495 68.8726 251.147 68.8726C249.023 68.8726 247.368 69.5757 246.182 70.9819C244.995 72.3735 244.402 74.2925 244.402 76.7388C244.402 78.7896 245.01 80.5327 246.226 81.9683C247.456 83.4038 249.009 84.1216 250.884 84.1216C252.715 84.1216 254.187 83.2939 255.3 81.6387C256.428 79.9834 256.992 77.8081 256.992 75.1128V73.0474ZM266.88 93.3721L264.573 91.79C265.95 89.8711 266.667 87.8936 266.726 85.8574V82.188H270.703V85.374C270.703 86.8535 270.337 88.333 269.604 89.8125C268.887 91.292 267.979 92.4785 266.88 93.3721ZM80.2222 133.694C80.2222 132.595 79.8047 131.746 78.9697 131.145C78.1494 130.53 76.7065 130.002 74.6411 129.563C72.5903 129.124 70.957 128.596 69.7412 127.981C68.54 127.366 67.6465 126.633 67.0605 125.784C66.4893 124.934 66.2036 123.923 66.2036 122.751C66.2036 120.803 67.0239 119.155 68.6646 117.808C70.3198 116.46 72.4292 115.786 74.9927 115.786C77.688 115.786 79.8706 116.482 81.5405 117.874C83.2251 119.265 84.0674 121.045 84.0674 123.213H79.9805C79.9805 122.1 79.5044 121.14 78.5522 120.334C77.6147 119.529 76.4282 119.126 74.9927 119.126C73.5132 119.126 72.356 119.448 71.521 120.093C70.686 120.737 70.2686 121.58 70.2686 122.62C70.2686 123.601 70.6567 124.341 71.4331 124.839C72.2095 125.337 73.6084 125.813 75.6299 126.267C77.666 126.721 79.314 127.263 80.5737 127.893C81.8335 128.523 82.7637 129.285 83.3643 130.178C83.9795 131.057 84.2871 132.134 84.2871 133.408C84.2871 135.532 83.4375 137.239 81.7383 138.528C80.0391 139.802 77.8345 140.439 75.1245 140.439C73.2202 140.439 71.5356 140.103 70.0708 139.429C68.606 138.755 67.4561 137.817 66.6211 136.616C65.8008 135.4 65.3906 134.089 65.3906 132.683H69.4556C69.5288 134.045 70.0708 135.129 71.0815 135.935C72.1069 136.726 73.4546 137.122 75.1245 137.122C76.6626 137.122 77.8931 136.814 78.8159 136.199C79.7534 135.569 80.2222 134.734 80.2222 133.694ZM101.074 119.873C100.459 119.771 99.7925 119.719 99.0747 119.719C96.4087 119.719 94.5996 120.854 93.6475 123.125V140H89.5825V116.226H93.5376L93.6035 118.972C94.9365 116.848 96.8262 115.786 99.2725 115.786C100.063 115.786 100.664 115.889 101.074 116.094V119.873ZM118.63 140C118.396 139.531 118.206 138.696 118.059 137.495C116.169 139.458 113.914 140.439 111.292 140.439C108.948 140.439 107.021 139.78 105.513 138.462C104.019 137.129 103.271 135.444 103.271 133.408C103.271 130.933 104.209 129.014 106.084 127.651C107.974 126.274 110.625 125.586 114.038 125.586H117.993V123.718C117.993 122.297 117.568 121.169 116.719 120.334C115.869 119.485 114.617 119.06 112.961 119.06C111.511 119.06 110.295 119.426 109.314 120.159C108.333 120.891 107.842 121.777 107.842 122.817H103.755C103.755 121.631 104.172 120.488 105.007 119.39C105.857 118.276 107 117.397 108.435 116.753C109.885 116.108 111.475 115.786 113.203 115.786C115.942 115.786 118.088 116.475 119.641 117.852C121.194 119.214 122 121.096 122.058 123.499V134.441C122.058 136.624 122.336 138.359 122.893 139.648V140H118.63ZM111.885 136.902C113.159 136.902 114.368 136.572 115.51 135.913C116.653 135.254 117.48 134.397 117.993 133.342V128.464H114.807C109.827 128.464 107.336 129.922 107.336 132.837C107.336 134.111 107.761 135.107 108.611 135.825C109.46 136.543 110.552 136.902 111.885 136.902ZM135.923 134.485L141.812 116.226H145.964L137.439 140H134.341L125.728 116.226H129.88L135.923 134.485ZM164.202 140C163.967 139.531 163.777 138.696 163.63 137.495C161.741 139.458 159.485 140.439 156.863 140.439C154.519 140.439 152.593 139.78 151.084 138.462C149.59 137.129 148.843 135.444 148.843 133.408C148.843 130.933 149.78 129.014 151.655 127.651C153.545 126.274 156.196 125.586 159.609 125.586H163.564V123.718C163.564 122.297 163.14 121.169 162.29 120.334C161.44 119.485 160.188 119.06 158.533 119.06C157.083 119.06 155.867 119.426 154.885 120.159C153.904 120.891 153.413 121.777 153.413 122.817H149.326C149.326 121.631 149.744 120.488 150.579 119.39C151.428 118.276 152.571 117.397 154.006 116.753C155.457 116.108 157.046 115.786 158.774 115.786C161.514 115.786 163.66 116.475 165.212 117.852C166.765 119.214 167.571 121.096 167.629 123.499V134.441C167.629 136.624 167.908 138.359 168.464 139.648V140H164.202ZM157.456 136.902C158.73 136.902 159.939 136.572 161.082 135.913C162.224 135.254 163.052 134.397 163.564 133.342V128.464H160.378C155.398 128.464 152.908 129.922 152.908 132.837C152.908 134.111 153.333 135.107 154.182 135.825C155.032 136.543 156.123 136.902 157.456 136.902ZM177.847 116.226L177.979 119.214C179.795 116.929 182.168 115.786 185.098 115.786C190.122 115.786 192.656 118.621 192.7 124.29V140H188.635V124.268C188.621 122.554 188.225 121.287 187.449 120.466C186.687 119.646 185.493 119.236 183.867 119.236C182.549 119.236 181.392 119.587 180.396 120.291C179.399 120.994 178.623 121.917 178.066 123.059V140H174.001V116.226H177.847ZM203.247 140H199.182V116.226H203.247V140ZM198.853 109.919C198.853 109.26 199.05 108.704 199.446 108.25C199.856 107.795 200.457 107.568 201.248 107.568C202.039 107.568 202.639 107.795 203.049 108.25C203.459 108.704 203.665 109.26 203.665 109.919C203.665 110.579 203.459 111.128 203.049 111.567C202.639 112.007 202.039 112.227 201.248 112.227C200.457 112.227 199.856 112.007 199.446 111.567C199.05 111.128 198.853 110.579 198.853 109.919Z" fill="black"/>
</svg>
