<svg width="279" height="141" viewBox="0 0 279 141" fill="none" xmlns="http://www.w3.org/2000/svg">
<path d="M15.5908 27.6938C15.5908 26.5952 15.1733 25.7456 14.3384 25.145C13.5181 24.5298 12.0752 24.0024 10.0098 23.563C7.95898 23.1235 6.32568 22.5962 5.10986 21.981C3.90869 21.3657 3.01514 20.6333 2.4292 19.7837C1.85791 18.9341 1.57227 17.9233 1.57227 16.7515C1.57227 14.8032 2.39258 13.1553 4.0332 11.8076C5.68848 10.46 7.79785 9.78613 10.3613 9.78613C13.0566 9.78613 15.2393 10.4819 16.9092 11.8735C18.5938 13.2651 19.436 15.0449 19.436 17.2129H15.3491C15.3491 16.0996 14.873 15.1401 13.9209 14.3345C12.9834 13.5288 11.7969 13.126 10.3613 13.126C8.88184 13.126 7.72461 13.4482 6.88965 14.0928C6.05469 14.7373 5.63721 15.5796 5.63721 16.6196C5.63721 17.6011 6.02539 18.3408 6.80176 18.8389C7.57812 19.3369 8.97705 19.813 10.9985 20.2671C13.0347 20.7212 14.6826 21.2632 15.9424 21.8931C17.2021 22.5229 18.1323 23.2847 18.7329 24.1782C19.3481 25.0571 19.6558 26.1338 19.6558 27.4082C19.6558 29.5322 18.8062 31.2388 17.1069 32.5278C15.4077 33.8022 13.2031 34.4395 10.4932 34.4395C8.58887 34.4395 6.9043 34.1025 5.43945 33.4287C3.97461 32.7549 2.82471 31.8174 1.98975 30.6162C1.16943 29.4004 0.759277 28.0894 0.759277 26.6831H4.82422C4.89746 28.0454 5.43945 29.1294 6.4502 29.9351C7.47559 30.7261 8.82324 31.1216 10.4932 31.1216C12.0312 31.1216 13.2617 30.814 14.1846 30.1987C15.1221 29.5688 15.5908 28.7339 15.5908 27.6938ZM34.8169 34.4395C31.5942 34.4395 28.9722 33.3848 26.9507 31.2754C24.9292 29.1514 23.9185 26.3169 23.9185 22.772V22.0249C23.9185 19.6665 24.3652 17.5645 25.2588 15.7188C26.167 13.8584 27.4268 12.4082 29.0381 11.3682C30.6641 10.3135 32.4219 9.78613 34.3115 9.78613C37.4023 9.78613 39.8047 10.8042 41.5186 12.8403C43.2324 14.8765 44.0894 17.7915 44.0894 21.5854V23.2773H27.9834C28.042 25.6211 28.7231 27.5181 30.0269 28.9683C31.3452 30.4038 33.0151 31.1216 35.0366 31.1216C36.4722 31.1216 37.688 30.8286 38.6841 30.2427C39.6802 29.6567 40.5518 28.8804 41.2988 27.9136L43.7817 29.8472C41.7896 32.9087 38.8013 34.4395 34.8169 34.4395ZM34.3115 13.126C32.6709 13.126 31.2939 13.7266 30.1807 14.9277C29.0674 16.1143 28.3789 17.7842 28.1152 19.9375H40.0244V19.6299C39.9072 17.5645 39.3506 15.9678 38.3545 14.8398C37.3584 13.6973 36.0107 13.126 34.3115 13.126ZM53.23 34H49.165V0.25H53.23V34ZM74.4336 34C74.1992 33.5312 74.0088 32.6963 73.8623 31.4951C71.9727 33.458 69.7168 34.4395 67.0947 34.4395C64.751 34.4395 62.8247 33.7803 61.3159 32.4619C59.8218 31.1289 59.0747 29.4443 59.0747 27.4082C59.0747 24.9326 60.0122 23.0137 61.8872 21.6514C63.7769 20.2744 66.4282 19.5859 69.8413 19.5859H73.7964V17.7183C73.7964 16.2974 73.3716 15.1694 72.522 14.3345C71.6724 13.4849 70.4199 13.0601 68.7646 13.0601C67.3145 13.0601 66.0986 13.4263 65.1172 14.1587C64.1357 14.8911 63.645 15.7773 63.645 16.8174H59.5581C59.5581 15.6309 59.9756 14.4883 60.8105 13.3896C61.6602 12.2764 62.8027 11.3975 64.2383 10.7529C65.6885 10.1084 67.2778 9.78613 69.0063 9.78613C71.7456 9.78613 73.8916 10.4746 75.4443 11.8516C76.9971 13.2139 77.8027 15.0962 77.8613 17.4985V28.4409C77.8613 30.6235 78.1396 32.3594 78.6963 33.6484V34H74.4336ZM67.688 30.9019C68.9624 30.9019 70.1709 30.5723 71.3135 29.9131C72.4561 29.2539 73.2837 28.397 73.7964 27.3423V22.4644H70.6104C65.6299 22.4644 63.1396 23.9219 63.1396 26.8369C63.1396 28.1113 63.5645 29.1074 64.4141 29.8252C65.2637 30.543 66.355 30.9019 67.688 30.9019ZM88.0566 10.2256L88.1665 12.8623C89.9097 10.8115 92.2607 9.78613 95.2197 9.78613C98.5449 9.78613 100.808 11.0605 102.009 13.6094C102.8 12.4668 103.826 11.5439 105.085 10.8408C106.36 10.1377 107.861 9.78613 109.59 9.78613C114.805 9.78613 117.456 12.5474 117.544 18.0698V34H113.479V18.3115C113.479 16.6123 113.091 15.3452 112.314 14.5103C111.538 13.6606 110.234 13.2358 108.403 13.2358C106.895 13.2358 105.642 13.6899 104.646 14.5981C103.65 15.4917 103.071 16.7002 102.91 18.2236V34H98.8232V18.4214C98.8232 14.9644 97.1313 13.2358 93.7476 13.2358C91.0815 13.2358 89.2578 14.3711 88.2764 16.6416V34H84.2114V10.2256H88.0566ZM138.374 34C138.14 33.5312 137.949 32.6963 137.803 31.4951C135.913 33.458 133.657 34.4395 131.035 34.4395C128.691 34.4395 126.765 33.7803 125.256 32.4619C123.762 31.1289 123.015 29.4443 123.015 27.4082C123.015 24.9326 123.953 23.0137 125.828 21.6514C127.717 20.2744 130.369 19.5859 133.782 19.5859H137.737V17.7183C137.737 16.2974 137.312 15.1694 136.462 14.3345C135.613 13.4849 134.36 13.0601 132.705 13.0601C131.255 13.0601 130.039 13.4263 129.058 14.1587C128.076 14.8911 127.585 15.7773 127.585 16.8174H123.499C123.499 15.6309 123.916 14.4883 124.751 13.3896C125.601 12.2764 126.743 11.3975 128.179 10.7529C129.629 10.1084 131.218 9.78613 132.947 9.78613C135.686 9.78613 137.832 10.4746 139.385 11.8516C140.938 13.2139 141.743 15.0962 141.802 17.4985V28.4409C141.802 30.6235 142.08 32.3594 142.637 33.6484V34H138.374ZM131.628 30.9019C132.903 30.9019 134.111 30.5723 135.254 29.9131C136.396 29.2539 137.224 28.397 137.737 27.3423V22.4644H134.551C129.57 22.4644 127.08 23.9219 127.08 26.8369C127.08 28.1113 127.505 29.1074 128.354 29.8252C129.204 30.543 130.295 30.9019 131.628 30.9019ZM153.689 4.46875V10.2256H158.127V13.3677H153.689V28.1113C153.689 29.0635 153.887 29.7812 154.282 30.2646C154.678 30.7334 155.352 30.9678 156.304 30.9678C156.772 30.9678 157.417 30.8799 158.237 30.7041V34C157.168 34.293 156.128 34.4395 155.117 34.4395C153.301 34.4395 151.931 33.8901 151.008 32.7915C150.085 31.6929 149.624 30.1328 149.624 28.1113V13.3677H145.295V10.2256H149.624V4.46875H153.689ZM188.735 31.6489C187.153 33.5093 184.832 34.4395 181.77 34.4395C179.236 34.4395 177.302 33.707 175.969 32.2422C174.651 30.7627 173.984 28.5801 173.97 25.6943V10.2256H178.035V25.5845C178.035 29.188 179.5 30.9897 182.429 30.9897C185.535 30.9897 187.6 29.8325 188.625 27.5181V10.2256H192.69V34H188.823L188.735 31.6489ZM203.303 34H199.238V0.25H203.303V34ZM224.507 34C224.272 33.5312 224.082 32.6963 223.936 31.4951C222.046 33.458 219.79 34.4395 217.168 34.4395C214.824 34.4395 212.898 33.7803 211.389 32.4619C209.895 31.1289 209.148 29.4443 209.148 27.4082C209.148 24.9326 210.085 23.0137 211.96 21.6514C213.85 20.2744 216.501 19.5859 219.915 19.5859H223.87V17.7183C223.87 16.2974 223.445 15.1694 222.595 14.3345C221.746 13.4849 220.493 13.0601 218.838 13.0601C217.388 13.0601 216.172 13.4263 215.19 14.1587C214.209 14.8911 213.718 15.7773 213.718 16.8174H209.631C209.631 15.6309 210.049 14.4883 210.884 13.3896C211.733 12.2764 212.876 11.3975 214.312 10.7529C215.762 10.1084 217.351 9.78613 219.08 9.78613C221.819 9.78613 223.965 10.4746 225.518 11.8516C227.07 13.2139 227.876 15.0962 227.935 17.4985V28.4409C227.935 30.6235 228.213 32.3594 228.77 33.6484V34H224.507ZM217.761 30.9019C219.036 30.9019 220.244 30.5723 221.387 29.9131C222.529 29.2539 223.357 28.397 223.87 27.3423V22.4644H220.684C215.703 22.4644 213.213 23.9219 213.213 26.8369C213.213 28.1113 213.638 29.1074 214.487 29.8252C215.337 30.543 216.428 30.9019 217.761 30.9019ZM238.152 10.2256L238.284 13.2139C240.1 10.9287 242.473 9.78613 245.403 9.78613C250.427 9.78613 252.961 12.6206 253.005 18.2896V34H248.94V18.2676C248.926 16.5537 248.53 15.2866 247.754 14.4663C246.992 13.646 245.798 13.2358 244.172 13.2358C242.854 13.2358 241.697 13.5874 240.701 14.2905C239.705 14.9937 238.928 15.9165 238.372 17.0591V34H234.307V10.2256H238.152ZM258.169 21.915C258.169 18.209 259.026 15.2646 260.74 13.082C262.454 10.8848 264.724 9.78613 267.551 9.78613C270.452 9.78613 272.715 10.8115 274.341 12.8623L274.539 10.2256H278.252V33.4287C278.252 36.5049 277.336 38.9292 275.505 40.7017C273.689 42.4741 271.243 43.3604 268.167 43.3604C266.453 43.3604 264.775 42.9941 263.135 42.2617C261.494 41.5293 260.242 40.5259 259.377 39.2515L261.487 36.8125C263.23 38.9658 265.361 40.0425 267.881 40.0425C269.858 40.0425 271.396 39.4858 272.495 38.3726C273.608 37.2593 274.165 35.6919 274.165 33.6704V31.627C272.539 33.502 270.32 34.4395 267.507 34.4395C264.724 34.4395 262.468 33.3188 260.74 31.0776C259.026 28.8364 258.169 25.7822 258.169 21.915ZM262.256 22.3765C262.256 25.0571 262.805 27.1665 263.904 28.7046C265.002 30.228 266.541 30.9897 268.518 30.9897C271.082 30.9897 272.964 29.8252 274.165 27.4961V16.6416C272.92 14.3711 271.052 13.2358 268.562 13.2358C266.584 13.2358 265.039 14.0049 263.926 15.543C262.812 17.0811 262.256 19.3589 262.256 22.3765ZM87.3535 57.4688V63.2256H91.792V66.3677H87.3535V81.1113C87.3535 82.0635 87.5513 82.7812 87.9468 83.2646C88.3423 83.7334 89.0161 83.9678 89.9683 83.9678C90.437 83.9678 91.0815 83.8799 91.9019 83.7041V87C90.8325 87.293 89.7925 87.4395 88.7817 87.4395C86.9653 87.4395 85.5957 86.8901 84.6729 85.7915C83.75 84.6929 83.2886 83.1328 83.2886 81.1113V66.3677H78.96V63.2256H83.2886V57.4688H87.3535ZM111.238 87C111.003 86.5312 110.813 85.6963 110.667 84.4951C108.777 86.458 106.521 87.4395 103.899 87.4395C101.555 87.4395 99.6289 86.7803 98.1201 85.4619C96.626 84.1289 95.8789 82.4443 95.8789 80.4082C95.8789 77.9326 96.8164 76.0137 98.6914 74.6514C100.581 73.2744 103.232 72.5859 106.646 72.5859H110.601V70.7183C110.601 69.2974 110.176 68.1694 109.326 67.3345C108.477 66.4849 107.224 66.0601 105.569 66.0601C104.119 66.0601 102.903 66.4263 101.921 67.1587C100.94 67.8911 100.449 68.7773 100.449 69.8174H96.3623C96.3623 68.6309 96.7798 67.4883 97.6147 66.3896C98.4644 65.2764 99.6069 64.3975 101.042 63.7529C102.493 63.1084 104.082 62.7861 105.811 62.7861C108.55 62.7861 110.696 63.4746 112.249 64.8516C113.801 66.2139 114.607 68.0962 114.666 70.4985V81.4409C114.666 83.6235 114.944 85.3594 115.5 86.6484V87H111.238ZM104.492 83.9019C105.767 83.9019 106.975 83.5723 108.118 82.9131C109.26 82.2539 110.088 81.397 110.601 80.3423V75.4644H107.415C102.434 75.4644 99.9438 76.9219 99.9438 79.8369C99.9438 81.1113 100.369 82.1074 101.218 82.8252C102.068 83.543 103.159 83.9019 104.492 83.9019ZM125.103 66.104C126.904 63.8921 129.248 62.7861 132.134 62.7861C137.158 62.7861 139.692 65.6206 139.736 71.2896V87H135.671V71.2676C135.657 69.5537 135.261 68.2866 134.485 67.4663C133.723 66.646 132.529 66.2358 130.903 66.2358C129.585 66.2358 128.428 66.5874 127.432 67.2905C126.436 67.9937 125.659 68.9165 125.103 70.0591V87H121.038V53.25H125.103V66.104ZM160.5 84.6489C158.918 86.5093 156.597 87.4395 153.535 87.4395C151.001 87.4395 149.067 86.707 147.734 85.2422C146.416 83.7627 145.75 81.5801 145.735 78.6943V63.2256H149.8V78.5845C149.8 82.188 151.265 83.9897 154.194 83.9897C157.3 83.9897 159.365 82.8325 160.391 80.5181V63.2256H164.456V87H160.588L160.5 84.6489ZM174.497 63.2256L174.629 66.2139C176.445 63.9287 178.818 62.7861 181.748 62.7861C186.772 62.7861 189.307 65.6206 189.351 71.2896V87H185.286V71.2676C185.271 69.5537 184.875 68.2866 184.099 67.4663C183.337 66.646 182.144 66.2358 180.518 66.2358C179.199 66.2358 178.042 66.5874 177.046 67.2905C176.05 67.9937 175.273 68.9165 174.717 70.0591V87H170.652V63.2256H174.497ZM195.349 93.3721L193.042 91.79C194.419 89.8711 195.137 87.8936 195.195 85.8574V82.188H199.172V85.374C199.172 86.8535 198.806 88.333 198.074 89.8125C197.356 91.292 196.448 92.4785 195.349 93.3721ZM85.2222 133.694C85.2222 132.595 84.8047 131.746 83.9697 131.145C83.1494 130.53 81.7065 130.002 79.6411 129.563C77.5903 129.124 75.957 128.596 74.7412 127.981C73.54 127.366 72.6465 126.633 72.0605 125.784C71.4893 124.934 71.2036 123.923 71.2036 122.751C71.2036 120.803 72.0239 119.155 73.6646 117.808C75.3198 116.46 77.4292 115.786 79.9927 115.786C82.688 115.786 84.8706 116.482 86.5405 117.874C88.2251 119.265 89.0674 121.045 89.0674 123.213H84.9805C84.9805 122.1 84.5044 121.14 83.5522 120.334C82.6147 119.529 81.4282 119.126 79.9927 119.126C78.5132 119.126 77.356 119.448 76.521 120.093C75.686 120.737 75.2686 121.58 75.2686 122.62C75.2686 123.601 75.6567 124.341 76.4331 124.839C77.2095 125.337 78.6084 125.813 80.6299 126.267C82.666 126.721 84.314 127.263 85.5737 127.893C86.8335 128.523 87.7637 129.285 88.3643 130.178C88.9795 131.057 89.2871 132.134 89.2871 133.408C89.2871 135.532 88.4375 137.239 86.7383 138.528C85.0391 139.802 82.8345 140.439 80.1245 140.439C78.2202 140.439 76.5356 140.103 75.0708 139.429C73.606 138.755 72.4561 137.817 71.6211 136.616C70.8008 135.4 70.3906 134.089 70.3906 132.683H74.4556C74.5288 134.045 75.0708 135.129 76.0815 135.935C77.1069 136.726 78.4546 137.122 80.1245 137.122C81.6626 137.122 82.8931 136.814 83.8159 136.199C84.7534 135.569 85.2222 134.734 85.2222 133.694ZM106.074 119.873C105.459 119.771 104.792 119.719 104.075 119.719C101.409 119.719 99.5996 120.854 98.6475 123.125V140H94.5825V116.226H98.5376L98.6035 118.972C99.9365 116.848 101.826 115.786 104.272 115.786C105.063 115.786 105.664 115.889 106.074 116.094V119.873ZM123.63 140C123.396 139.531 123.206 138.696 123.059 137.495C121.169 139.458 118.914 140.439 116.292 140.439C113.948 140.439 112.021 139.78 110.513 138.462C109.019 137.129 108.271 135.444 108.271 133.408C108.271 130.933 109.209 129.014 111.084 127.651C112.974 126.274 115.625 125.586 119.038 125.586H122.993V123.718C122.993 122.297 122.568 121.169 121.719 120.334C120.869 119.485 119.617 119.06 117.961 119.06C116.511 119.06 115.295 119.426 114.314 120.159C113.333 120.891 112.842 121.777 112.842 122.817H108.755C108.755 121.631 109.172 120.488 110.007 119.39C110.857 118.276 112 117.397 113.435 116.753C114.885 116.108 116.475 115.786 118.203 115.786C120.942 115.786 123.088 116.475 124.641 117.852C126.194 119.214 127 121.096 127.058 123.499V134.441C127.058 136.624 127.336 138.359 127.893 139.648V140H123.63ZM116.885 136.902C118.159 136.902 119.368 136.572 120.51 135.913C121.653 135.254 122.48 134.397 122.993 133.342V128.464H119.807C114.827 128.464 112.336 129.922 112.336 132.837C112.336 134.111 112.761 135.107 113.611 135.825C114.46 136.543 115.552 136.902 116.885 136.902ZM140.923 134.485L146.812 116.226H150.964L142.439 140H139.341L130.728 116.226H134.88L140.923 134.485ZM169.202 140C168.967 139.531 168.777 138.696 168.63 137.495C166.741 139.458 164.485 140.439 161.863 140.439C159.519 140.439 157.593 139.78 156.084 138.462C154.59 137.129 153.843 135.444 153.843 133.408C153.843 130.933 154.78 129.014 156.655 127.651C158.545 126.274 161.196 125.586 164.609 125.586H168.564V123.718C168.564 122.297 168.14 121.169 167.29 120.334C166.44 119.485 165.188 119.06 163.533 119.06C162.083 119.06 160.867 119.426 159.885 120.159C158.904 120.891 158.413 121.777 158.413 122.817H154.326C154.326 121.631 154.744 120.488 155.579 119.39C156.428 118.276 157.571 117.397 159.006 116.753C160.457 116.108 162.046 115.786 163.774 115.786C166.514 115.786 168.66 116.475 170.212 117.852C171.765 119.214 172.571 121.096 172.629 123.499V134.441C172.629 136.624 172.908 138.359 173.464 139.648V140H169.202ZM162.456 136.902C163.73 136.902 164.939 136.572 166.082 135.913C167.224 135.254 168.052 134.397 168.564 133.342V128.464H165.378C160.398 128.464 157.908 129.922 157.908 132.837C157.908 134.111 158.333 135.107 159.182 135.825C160.032 136.543 161.123 136.902 162.456 136.902ZM182.847 116.226L182.979 119.214C184.795 116.929 187.168 115.786 190.098 115.786C195.122 115.786 197.656 118.621 197.7 124.29V140H193.635V124.268C193.621 122.554 193.225 121.287 192.449 120.466C191.687 119.646 190.493 119.236 188.867 119.236C187.549 119.236 186.392 119.587 185.396 120.291C184.399 120.994 183.623 121.917 183.066 123.059V140H179.001V116.226H182.847ZM208.247 140H204.182V116.226H208.247V140ZM203.853 109.919C203.853 109.26 204.05 108.704 204.446 108.25C204.856 107.795 205.457 107.568 206.248 107.568C207.039 107.568 207.639 107.795 208.049 108.25C208.459 108.704 208.665 109.26 208.665 109.919C208.665 110.579 208.459 111.128 208.049 111.567C207.639 112.007 207.039 112.227 206.248 112.227C205.457 112.227 204.856 112.007 204.446 111.567C204.05 111.128 203.853 110.579 203.853 109.919Z" fill="black"/>
</svg>
