<svg width="254" height="141" viewBox="0 0 254 141" fill="none" xmlns="http://www.w3.org/2000/svg">
<path d="M99.9077 22.3765C99.9077 26.0093 99.0728 28.9316 97.4028 31.1436C95.7329 33.3408 93.4917 34.4395 90.6792 34.4395C87.6763 34.4395 85.3545 33.3774 83.7139 31.2534L83.5161 34H79.7808V0.25H83.8457V12.8403C85.4863 10.8042 87.7495 9.78613 90.6353 9.78613C93.521 9.78613 95.7842 10.8774 97.4248 13.0601C99.0801 15.2427 99.9077 18.231 99.9077 22.0249V22.3765ZM95.8428 21.915C95.8428 19.1465 95.3081 17.0078 94.2388 15.499C93.1694 13.9902 91.6313 13.2358 89.6245 13.2358C86.9438 13.2358 85.0176 14.481 83.8457 16.9712V27.2544C85.0908 29.7446 87.0317 30.9897 89.6685 30.9897C91.6167 30.9897 93.1328 30.2354 94.2168 28.7266C95.3008 27.2178 95.8428 24.9473 95.8428 21.915ZM119.727 31.6489C118.145 33.5093 115.823 34.4395 112.762 34.4395C110.228 34.4395 108.294 33.707 106.961 32.2422C105.643 30.7627 104.976 28.5801 104.961 25.6943V10.2256H109.026V25.5845C109.026 29.188 110.491 30.9897 113.421 30.9897C116.526 30.9897 118.592 29.8325 119.617 27.5181V10.2256H123.682V34H119.815L119.727 31.6489ZM128.802 21.8931C128.802 19.564 129.256 17.4692 130.164 15.6089C131.087 13.7485 132.361 12.313 133.987 11.3022C135.628 10.2915 137.496 9.78613 139.59 9.78613C142.828 9.78613 145.442 10.9067 147.435 13.1479C149.441 15.3892 150.445 18.3701 150.445 22.0908V22.3765C150.445 24.6909 149.998 26.771 149.104 28.6167C148.226 30.4478 146.958 31.876 145.303 32.9014C143.663 33.9268 141.773 34.4395 139.634 34.4395C136.412 34.4395 133.797 33.3188 131.79 31.0776C129.798 28.8364 128.802 25.8701 128.802 22.1787V21.8931ZM132.889 22.3765C132.889 25.0132 133.497 27.1299 134.712 28.7266C135.943 30.3232 137.583 31.1216 139.634 31.1216C141.7 31.1216 143.34 30.3159 144.556 28.7046C145.772 27.0786 146.38 24.8081 146.38 21.8931C146.38 19.2856 145.757 17.1763 144.512 15.5649C143.282 13.939 141.641 13.126 139.59 13.126C137.583 13.126 135.965 13.9243 134.734 15.521C133.504 17.1177 132.889 19.4028 132.889 22.3765ZM159.388 10.2256L159.52 13.2139C161.336 10.9287 163.709 9.78613 166.639 9.78613C171.663 9.78613 174.197 12.6206 174.241 18.2896V34H170.176V18.2676C170.162 16.5537 169.766 15.2866 168.99 14.4663C168.228 13.646 167.034 13.2358 165.408 13.2358C164.09 13.2358 162.933 13.5874 161.937 14.2905C160.94 14.9937 160.164 15.9165 159.607 17.0591V34H155.542V10.2256H159.388ZM10.9185 84.1216C12.3687 84.1216 13.6357 83.6821 14.7197 82.8032C15.8037 81.9243 16.4043 80.8257 16.5215 79.5073H20.3667C20.2935 80.8696 19.8247 82.166 18.9604 83.3965C18.0962 84.627 16.939 85.6084 15.4888 86.3408C14.0532 87.0732 12.5298 87.4395 10.9185 87.4395C7.68115 87.4395 5.10303 86.3628 3.18408 84.2095C1.27979 82.0415 0.327637 79.0825 0.327637 75.3325V74.6514C0.327637 72.3369 0.752441 70.2788 1.60205 68.4771C2.45166 66.6753 3.66748 65.2764 5.24951 64.2803C6.84619 63.2842 8.72852 62.7861 10.8965 62.7861C13.5625 62.7861 15.7744 63.5845 17.5322 65.1812C19.3047 66.7778 20.2495 68.8506 20.3667 71.3994H16.5215C16.4043 69.8613 15.8184 68.6016 14.7637 67.6201C13.7236 66.624 12.4346 66.126 10.8965 66.126C8.83105 66.126 7.22705 66.873 6.08447 68.3672C4.95654 69.8467 4.39258 71.9927 4.39258 74.8052V75.5742C4.39258 78.3135 4.95654 80.4229 6.08447 81.9023C7.2124 83.3818 8.82373 84.1216 10.9185 84.1216ZM23.8604 74.8931C23.8604 72.564 24.3145 70.4692 25.2227 68.6089C26.1455 66.7485 27.4199 65.313 29.0459 64.3022C30.6865 63.2915 32.5542 62.7861 34.6489 62.7861C37.8862 62.7861 40.501 63.9067 42.4932 66.1479C44.5 68.3892 45.5034 71.3701 45.5034 75.0908V75.3765C45.5034 77.6909 45.0566 79.771 44.1631 81.6167C43.2842 83.4478 42.0171 84.876 40.3618 85.9014C38.7212 86.9268 36.8315 87.4395 34.6929 87.4395C31.4702 87.4395 28.8555 86.3188 26.8486 84.0776C24.8564 81.8364 23.8604 78.8701 23.8604 75.1787V74.8931ZM27.9473 75.3765C27.9473 78.0132 28.5552 80.1299 29.771 81.7266C31.0015 83.3232 32.6421 84.1216 34.6929 84.1216C36.7583 84.1216 38.3989 83.3159 39.6147 81.7046C40.8306 80.0786 41.4385 77.8081 41.4385 74.8931C41.4385 72.2856 40.8159 70.1763 39.5708 68.5649C38.3403 66.939 36.6997 66.126 34.6489 66.126C32.6421 66.126 31.0234 66.9243 29.793 68.521C28.5625 70.1177 27.9473 72.4028 27.9473 75.3765ZM54.4243 63.2256L54.5342 65.8623C56.2773 63.8115 58.6284 62.7861 61.5874 62.7861C64.9126 62.7861 67.1758 64.0605 68.377 66.6094C69.168 65.4668 70.1934 64.5439 71.4531 63.8408C72.7275 63.1377 74.229 62.7861 75.9575 62.7861C81.1724 62.7861 83.8237 65.5474 83.9116 71.0698V87H79.8467V71.3115C79.8467 69.6123 79.4585 68.3452 78.6821 67.5103C77.9058 66.6606 76.6021 66.2358 74.771 66.2358C73.2622 66.2358 72.0098 66.6899 71.0137 67.5981C70.0176 68.4917 69.439 69.7002 69.2778 71.2236V87H65.1909V71.4214C65.1909 67.9644 63.499 66.2358 60.1152 66.2358C57.4492 66.2358 55.6255 67.3711 54.644 69.6416V87H50.5791V63.2256H54.4243ZM110.147 75.3765C110.147 78.9946 109.319 81.9097 107.664 84.1216C106.009 86.3335 103.768 87.4395 100.94 87.4395C98.0547 87.4395 95.7842 86.5239 94.1289 84.6929V96.1406H90.064V63.2256H93.7773L93.9751 65.8623C95.6304 63.8115 97.9302 62.7861 100.875 62.7861C103.731 62.7861 105.987 63.8628 107.642 66.0161C109.312 68.1694 110.147 71.165 110.147 75.0029V75.3765ZM106.082 74.915C106.082 72.2344 105.511 70.1177 104.368 68.5649C103.226 67.0122 101.658 66.2358 99.666 66.2358C97.2051 66.2358 95.3594 67.3271 94.1289 69.5098V80.8696C95.3447 83.0376 97.2051 84.1216 99.71 84.1216C101.658 84.1216 103.204 83.3525 104.346 81.8145C105.503 80.2617 106.082 77.9619 106.082 74.915ZM119.749 87H115.684V53.25H119.749V87ZM136.141 87.4395C132.918 87.4395 130.296 86.3848 128.274 84.2754C126.253 82.1514 125.242 79.3169 125.242 75.772V75.0249C125.242 72.6665 125.689 70.5645 126.583 68.7188C127.491 66.8584 128.75 65.4082 130.362 64.3682C131.988 63.3135 133.746 62.7861 135.635 62.7861C138.726 62.7861 141.128 63.8042 142.842 65.8403C144.556 67.8765 145.413 70.7915 145.413 74.5854V76.2773H129.307C129.366 78.6211 130.047 80.5181 131.351 81.9683C132.669 83.4038 134.339 84.1216 136.36 84.1216C137.796 84.1216 139.012 83.8286 140.008 83.2427C141.004 82.6567 141.875 81.8804 142.623 80.9136L145.105 82.8472C143.113 85.9087 140.125 87.4395 136.141 87.4395ZM135.635 66.126C133.995 66.126 132.618 66.7266 131.504 67.9277C130.391 69.1143 129.703 70.7842 129.439 72.9375H141.348V72.6299C141.231 70.5645 140.674 68.9678 139.678 67.8398C138.682 66.6973 137.334 66.126 135.635 66.126ZM164.815 87C164.581 86.5312 164.39 85.6963 164.244 84.4951C162.354 86.458 160.098 87.4395 157.476 87.4395C155.132 87.4395 153.206 86.7803 151.697 85.4619C150.203 84.1289 149.456 82.4443 149.456 80.4082C149.456 77.9326 150.394 76.0137 152.269 74.6514C154.158 73.2744 156.81 72.5859 160.223 72.5859H164.178V70.7183C164.178 69.2974 163.753 68.1694 162.903 67.3345C162.054 66.4849 160.801 66.0601 159.146 66.0601C157.696 66.0601 156.48 66.4263 155.499 67.1587C154.517 67.8911 154.026 68.7773 154.026 69.8174H149.939C149.939 68.6309 150.357 67.4883 151.192 66.3896C152.042 65.2764 153.184 64.3975 154.62 63.7529C156.07 63.1084 157.659 62.7861 159.388 62.7861C162.127 62.7861 164.273 63.4746 165.826 64.8516C167.378 66.2139 168.184 68.0962 168.243 70.4985V81.4409C168.243 83.6235 168.521 85.3594 169.078 86.6484V87H164.815ZM158.069 83.9019C159.344 83.9019 160.552 83.5723 161.695 82.9131C162.837 82.2539 163.665 81.397 164.178 80.3423V75.4644H160.992C156.011 75.4644 153.521 76.9219 153.521 79.8369C153.521 81.1113 153.946 82.1074 154.795 82.8252C155.645 83.543 156.736 83.9019 158.069 83.9019ZM178.46 63.2256L178.592 66.2139C180.408 63.9287 182.781 62.7861 185.711 62.7861C190.735 62.7861 193.27 65.6206 193.313 71.2896V87H189.249V71.2676C189.234 69.5537 188.838 68.2866 188.062 67.4663C187.3 66.646 186.106 66.2358 184.48 66.2358C183.162 66.2358 182.005 66.5874 181.009 67.2905C180.013 67.9937 179.236 68.9165 178.68 70.0591V87H174.615V63.2256H178.46ZM203.289 63.2256L203.421 66.2139C205.237 63.9287 207.61 62.7861 210.54 62.7861C215.564 62.7861 218.099 65.6206 218.143 71.2896V87H214.078V71.2676C214.063 69.5537 213.667 68.2866 212.891 67.4663C212.129 66.646 210.936 66.2358 209.31 66.2358C207.991 66.2358 206.834 66.5874 205.838 67.2905C204.842 67.9937 204.065 68.9165 203.509 70.0591V87H199.444V63.2256H203.289ZM223.196 74.8931C223.196 72.564 223.65 70.4692 224.559 68.6089C225.481 66.7485 226.756 65.313 228.382 64.3022C230.022 63.2915 231.89 62.7861 233.985 62.7861C237.222 62.7861 239.837 63.9067 241.829 66.1479C243.836 68.3892 244.839 71.3701 244.839 75.0908V75.3765C244.839 77.6909 244.393 79.771 243.499 81.6167C242.62 83.4478 241.353 84.876 239.698 85.9014C238.057 86.9268 236.167 87.4395 234.029 87.4395C230.806 87.4395 228.191 86.3188 226.185 84.0776C224.192 81.8364 223.196 78.8701 223.196 75.1787V74.8931ZM227.283 75.3765C227.283 78.0132 227.891 80.1299 229.107 81.7266C230.337 83.3232 231.978 84.1216 234.029 84.1216C236.094 84.1216 237.735 83.3159 238.951 81.7046C240.167 80.0786 240.774 77.8081 240.774 74.8931C240.774 72.2856 240.152 70.1763 238.907 68.5649C237.676 66.939 236.036 66.126 233.985 66.126C231.978 66.126 230.359 66.9243 229.129 68.521C227.898 70.1177 227.283 72.4028 227.283 75.3765ZM249.805 93.3721L247.498 91.79C248.875 89.8711 249.593 87.8936 249.651 85.8574V82.188H253.628V85.374C253.628 86.8535 253.262 88.333 252.53 89.8125C251.812 91.292 250.904 92.4785 249.805 93.3721ZM72.2222 133.694C72.2222 132.595 71.8047 131.746 70.9697 131.145C70.1494 130.53 68.7065 130.002 66.6411 129.563C64.5903 129.124 62.957 128.596 61.7412 127.981C60.54 127.366 59.6465 126.633 59.0605 125.784C58.4893 124.934 58.2036 123.923 58.2036 122.751C58.2036 120.803 59.0239 119.155 60.6646 117.808C62.3198 116.46 64.4292 115.786 66.9927 115.786C69.688 115.786 71.8706 116.482 73.5405 117.874C75.2251 119.265 76.0674 121.045 76.0674 123.213H71.9805C71.9805 122.1 71.5044 121.14 70.5522 120.334C69.6147 119.529 68.4282 119.126 66.9927 119.126C65.5132 119.126 64.356 119.448 63.521 120.093C62.686 120.737 62.2686 121.58 62.2686 122.62C62.2686 123.601 62.6567 124.341 63.4331 124.839C64.2095 125.337 65.6084 125.813 67.6299 126.267C69.666 126.721 71.314 127.263 72.5737 127.893C73.8335 128.523 74.7637 129.285 75.3643 130.178C75.9795 131.057 76.2871 132.134 76.2871 133.408C76.2871 135.532 75.4375 137.239 73.7383 138.528C72.0391 139.802 69.8345 140.439 67.1245 140.439C65.2202 140.439 63.5356 140.103 62.0708 139.429C60.606 138.755 59.4561 137.817 58.6211 136.616C57.8008 135.4 57.3906 134.089 57.3906 132.683H61.4556C61.5288 134.045 62.0708 135.129 63.0815 135.935C64.1069 136.726 65.4546 137.122 67.1245 137.122C68.6626 137.122 69.8931 136.814 70.8159 136.199C71.7534 135.569 72.2222 134.734 72.2222 133.694ZM93.0742 119.873C92.459 119.771 91.7925 119.719 91.0747 119.719C88.4087 119.719 86.5996 120.854 85.6475 123.125V140H81.5825V116.226H85.5376L85.6035 118.972C86.9365 116.848 88.8262 115.786 91.2725 115.786C92.0635 115.786 92.6641 115.889 93.0742 116.094V119.873ZM110.63 140C110.396 139.531 110.206 138.696 110.059 137.495C108.169 139.458 105.914 140.439 103.292 140.439C100.948 140.439 99.0215 139.78 97.5127 138.462C96.0186 137.129 95.2715 135.444 95.2715 133.408C95.2715 130.933 96.209 129.014 98.084 127.651C99.9736 126.274 102.625 125.586 106.038 125.586H109.993V123.718C109.993 122.297 109.568 121.169 108.719 120.334C107.869 119.485 106.617 119.06 104.961 119.06C103.511 119.06 102.295 119.426 101.314 120.159C100.333 120.891 99.8418 121.777 99.8418 122.817H95.7549C95.7549 121.631 96.1724 120.488 97.0073 119.39C97.8569 118.276 98.9995 117.397 100.435 116.753C101.885 116.108 103.475 115.786 105.203 115.786C107.942 115.786 110.088 116.475 111.641 117.852C113.194 119.214 114 121.096 114.058 123.499V134.441C114.058 136.624 114.336 138.359 114.893 139.648V140H110.63ZM103.885 136.902C105.159 136.902 106.368 136.572 107.51 135.913C108.653 135.254 109.48 134.397 109.993 133.342V128.464H106.807C101.827 128.464 99.3364 129.922 99.3364 132.837C99.3364 134.111 99.7612 135.107 100.611 135.825C101.46 136.543 102.552 136.902 103.885 136.902ZM127.923 134.485L133.812 116.226H137.964L129.439 140H126.341L117.728 116.226H121.88L127.923 134.485ZM156.202 140C155.967 139.531 155.777 138.696 155.63 137.495C153.741 139.458 151.485 140.439 148.863 140.439C146.519 140.439 144.593 139.78 143.084 138.462C141.59 137.129 140.843 135.444 140.843 133.408C140.843 130.933 141.78 129.014 143.655 127.651C145.545 126.274 148.196 125.586 151.609 125.586H155.564V123.718C155.564 122.297 155.14 121.169 154.29 120.334C153.44 119.485 152.188 119.06 150.533 119.06C149.083 119.06 147.867 119.426 146.885 120.159C145.904 120.891 145.413 121.777 145.413 122.817H141.326C141.326 121.631 141.744 120.488 142.579 119.39C143.428 118.276 144.571 117.397 146.006 116.753C147.457 116.108 149.046 115.786 150.774 115.786C153.514 115.786 155.66 116.475 157.212 117.852C158.765 119.214 159.571 121.096 159.629 123.499V134.441C159.629 136.624 159.908 138.359 160.464 139.648V140H156.202ZM149.456 136.902C150.73 136.902 151.939 136.572 153.082 135.913C154.224 135.254 155.052 134.397 155.564 133.342V128.464H152.378C147.398 128.464 144.908 129.922 144.908 132.837C144.908 134.111 145.333 135.107 146.182 135.825C147.032 136.543 148.123 136.902 149.456 136.902ZM169.847 116.226L169.979 119.214C171.795 116.929 174.168 115.786 177.098 115.786C182.122 115.786 184.656 118.621 184.7 124.29V140H180.635V124.268C180.621 122.554 180.225 121.287 179.449 120.466C178.687 119.646 177.493 119.236 175.867 119.236C174.549 119.236 173.392 119.587 172.396 120.291C171.399 120.994 170.623 121.917 170.066 123.059V140H166.001V116.226H169.847ZM195.247 140H191.182V116.226H195.247V140ZM190.853 109.919C190.853 109.26 191.05 108.704 191.446 108.25C191.856 107.795 192.457 107.568 193.248 107.568C194.039 107.568 194.639 107.795 195.049 108.25C195.459 108.704 195.665 109.26 195.665 109.919C195.665 110.579 195.459 111.128 195.049 111.567C194.639 112.007 194.039 112.227 193.248 112.227C192.457 112.227 191.856 112.007 191.446 111.567C191.05 111.128 190.853 110.579 190.853 109.919Z" fill="black"/>
</svg>
