<svg width="261" height="148" viewBox="0 0 261 148" fill="none" xmlns="http://www.w3.org/2000/svg">
<path d="M91.79 30.665H88.505V11.675H85.67V30.665H83.24V33.455H100.52V30.665H94.67V18.92H100.07V16.13H94.67V5.195C96.695 4.61 98.585 3.98 100.16 3.305L97.685 0.964999C94.49 2.54 88.64 3.935 83.555 4.835C83.96 5.51 84.365 6.59 84.545 7.265C86.885 6.905 89.36 6.455 91.79 5.915V30.665ZM71.99 1.91H61.415V4.61H71.99V1.91ZM73.16 7.805H59.39V10.55H73.16V7.805ZM72.08 13.88H61.235V16.535H72.08V13.88ZM61.235 22.52H72.08V19.82H61.235V22.52ZM69.38 36.11H63.755V28.595H69.38V36.11ZM82.25 15.86L81.71 15.995H78.155C79.775 11.63 81.395 6.905 82.43 3.485L80.36 2.99L79.865 3.17H73.385V6.095H78.65C77.3 10.145 75.275 15.815 73.565 20.135L76.355 20.675L77.12 18.695H80.99C80.54 23.06 79.685 26.84 78.47 29.945C77.57 28.1 76.805 25.76 76.265 22.835L73.745 23.645C74.555 27.695 75.635 30.8 76.985 33.14C75.635 35.57 74.015 37.46 72.125 38.81V25.85H61.1V40.925H63.755V38.81H72.125L71.855 38.99C72.53 39.575 73.43 40.79 73.79 41.51C75.77 40.07 77.435 38.18 78.875 35.795C81.845 39.125 85.85 40.115 91.115 40.115H99.98C100.115 39.26 100.61 37.82 101.06 37.01C99.485 37.1 92.465 37.1 91.295 37.1C86.66 37.1 83.015 36.2 80.315 32.96C82.205 28.685 83.42 23.24 83.96 16.31L82.25 15.86ZM126.8 36.785V25.355H141.245V22.115H126.8V12.305H142.91V9.02H126.8V0.379999H123.38V9.02H114.245C115.235 6.725 116.045 4.295 116.765 1.82L113.39 1.1C111.635 7.49 108.755 13.7 105.065 17.66C105.965 18.11 107.45 19.1 108.125 19.64C109.79 17.615 111.365 15.14 112.805 12.305H123.38V22.115H110.015V25.355H123.38V36.785H105.155V40.025H145.025V36.785H126.8ZM158.975 34.715V22.16H181.295V34.715H158.975ZM181.295 6.725V18.875H158.975V6.725H181.295ZM155.6 3.44V40.925H158.975V38H181.295V40.745H184.805V3.44H155.6ZM26.5785 55.045H22.5735C22.7085 55.81 22.7985 57.34 22.7985 58.24C22.7985 59.05 22.7535 61.03 22.7535 63.37C21.4935 63.46 20.3235 63.505 19.2885 63.505C17.6235 63.505 16.0035 63.46 13.5285 63.145L13.6185 66.565C15.1485 66.745 16.8135 66.79 19.3785 66.79C20.3235 66.79 21.4485 66.745 22.7085 66.655C22.6635 68.635 22.6635 70.75 22.6635 72.55C22.6635 73.36 22.6635 74.26 22.6635 75.115C17.4885 77.32 12.8085 81.235 12.8085 84.97C12.8085 88.975 18.6585 92.44 22.1685 92.44C24.5985 92.44 26.1285 91.09 26.1285 86.905C26.1285 84.97 26.0385 80.965 25.9485 77.14C29.1885 76.015 32.3835 75.385 35.7585 75.385C40.0335 75.385 43.4985 77.455 43.4985 81.28C43.4985 85.42 39.8985 87.535 35.9385 88.3C34.2735 88.66 32.3385 88.66 30.6735 88.615L31.9335 92.26C33.5085 92.17 35.4885 92.08 37.5135 91.63C43.6785 90.145 47.0985 86.68 47.0985 81.235C47.0985 75.835 42.3735 72.28 35.8035 72.28C32.8335 72.28 29.3235 72.865 25.9035 73.945C25.9035 73.405 25.9035 72.865 25.9035 72.37C25.9035 70.57 25.9485 68.41 25.9935 66.295C29.2785 65.935 32.7885 65.35 35.4435 64.72L35.3535 61.21C32.7885 61.975 29.3685 62.605 26.0835 63.01C26.1285 60.985 26.2185 59.23 26.2635 58.15C26.3085 57.115 26.4435 55.855 26.5785 55.045ZM40.5285 60.04L38.9085 62.74C41.7885 64.27 46.7835 67.375 48.9885 69.49L50.8335 66.61C48.6285 64.81 43.7235 61.75 40.5285 60.04ZM16.3185 84.79C16.3185 82.765 19.0635 80.155 22.7535 78.445C22.7985 81.73 22.8885 84.79 22.8885 86.41C22.8885 87.895 22.2585 88.615 21.2235 88.615C19.4685 88.615 16.3185 86.86 16.3185 84.79ZM83.1885 56.17L79.3185 55.81C79.3185 56.845 79.1835 58.33 79.0485 59.23C78.8685 60.31 78.5985 61.39 78.3285 62.515C74.4135 62.56 70.5885 63.46 66.7635 65.71C66.3585 64.45 65.9535 63.235 65.6835 62.2C65.3685 60.94 65.0085 59.455 64.7835 58.195L61.0485 59.41C61.5885 60.58 62.1285 62.065 62.5335 63.46C62.9385 64.81 63.3885 66.205 63.8835 67.6C59.7885 70.93 56.9535 76.375 56.9535 81.55C56.9535 86.815 59.7885 89.65 63.2085 89.65C66.5835 89.65 69.3285 87.4 72.1185 84.025C72.7935 84.97 73.5135 85.825 74.2335 86.635L77.0685 84.295C76.1235 83.395 75.1785 82.315 74.2785 81.145C76.8435 77.455 79.1385 71.56 80.8485 65.845C86.6535 66.835 90.2985 71.245 90.2985 77.095C90.2985 84.025 85.0785 88.975 75.6735 89.785L77.7885 92.98C87.4185 91.63 93.8535 86.185 93.8535 77.23C93.8535 69.49 88.9035 63.955 81.7035 62.785C81.9735 61.705 82.1985 60.67 82.4235 59.68C82.6035 58.825 82.8735 57.295 83.1885 56.17ZM60.1935 81.28C60.1935 77.77 62.0835 73.63 65.0535 70.84C66.3585 74.26 67.7985 77.455 69.1035 79.48C69.4635 80.065 69.7785 80.65 70.1385 81.19C68.1585 83.845 65.7735 86.095 63.5685 86.095C61.5435 86.095 60.1935 84.25 60.1935 81.28ZM71.3085 76.645C70.2285 74.845 68.9235 71.83 67.7985 68.725C70.7685 66.88 73.9635 65.8 77.4735 65.62C76.0785 70.255 74.1435 74.935 72.2085 78.13C71.8935 77.635 71.5785 77.14 71.3085 76.645ZM101.638 61.39L102.043 65.305C106.903 64.27 118.378 63.19 123.193 62.65C119.053 65.125 114.778 70.84 114.778 77.86C114.778 87.895 124.273 92.35 132.598 92.665L133.903 88.93C126.568 88.66 118.378 85.87 118.378 77.095C118.378 71.74 122.293 64.9 128.683 62.83C130.978 62.155 134.938 62.11 137.503 62.11V58.51C134.488 58.645 130.258 58.915 125.353 59.32C117.073 59.995 108.568 60.85 105.643 61.165C104.788 61.255 103.348 61.345 101.638 61.39ZM131.023 67.645L128.728 68.635C130.078 70.48 131.383 72.82 132.418 74.98L134.713 73.9C133.768 71.92 132.058 69.13 131.023 67.645ZM135.928 65.755L133.723 66.79C135.118 68.68 136.423 70.885 137.503 73.09L139.843 71.965C138.808 69.985 137.008 67.24 135.928 65.755ZM156.943 55.99L153.388 57.475C155.458 62.38 157.843 67.645 159.913 71.335C155.098 74.71 152.128 78.355 152.128 82.99C152.128 89.74 158.248 92.26 166.708 92.26C172.333 92.26 177.508 91.72 180.928 91.135V87.13C177.418 88.03 171.433 88.66 166.528 88.66C159.418 88.66 155.863 86.32 155.863 82.585C155.863 79.165 158.383 76.195 162.568 73.495C166.978 70.57 173.188 67.6 176.248 66.025C177.553 65.35 178.678 64.765 179.713 64.135L177.733 60.94C176.788 61.705 175.843 62.29 174.538 63.055C172.063 64.405 167.203 66.79 162.973 69.355C160.993 65.8 158.743 60.94 156.943 55.99ZM220.483 76.015C220.483 84.07 212.788 88.39 201.853 89.74L203.878 93.16C215.533 91.405 224.308 85.915 224.308 76.15C224.308 69.715 219.538 66.16 213.148 66.16C207.973 66.16 202.843 67.6 199.693 68.32C198.343 68.635 196.813 68.905 195.553 68.995L196.723 73.18C197.803 72.73 199.108 72.235 200.503 71.785C203.158 71.02 207.568 69.535 212.788 69.535C217.423 69.535 220.483 72.235 220.483 76.015ZM201.583 55.765L200.998 59.185C206.083 60.085 215.173 60.985 220.168 61.3L220.708 57.835C216.298 57.79 206.533 56.89 201.583 55.765ZM236.028 97.3721L233.721 95.79C235.098 93.8711 235.815 91.8936 235.874 89.8574V86.188H239.851V89.374C239.851 90.8535 239.485 92.333 238.752 93.8125C238.035 95.292 237.126 96.4785 236.028 97.3721ZM9.12606 109.44L7.10106 112.455C9.75606 113.985 14.6161 117.225 16.7761 118.845L18.8911 115.785C16.9561 114.345 11.7811 110.925 9.12606 109.44ZM2.37606 141.615L4.44606 145.26C8.63106 144.405 14.8411 142.29 19.3861 139.68C26.5411 135.45 32.7961 129.645 36.6661 123.57L34.5061 119.88C30.8611 126.225 24.9211 132.075 17.4511 136.35C12.9061 138.96 7.32606 140.76 2.37606 141.615ZM2.33105 119.565L0.351055 122.625C3.05106 124.02 7.95605 127.17 10.1611 128.79L12.2311 125.64C10.2511 124.2 4.98605 121.005 2.33105 119.565ZM73.7461 122.58L71.0011 121.275C70.5961 121.455 69.4711 121.59 68.7511 121.59H55.0711C53.9461 121.59 52.5961 121.455 51.5161 121.32V125.1C52.6411 125.055 53.8111 124.965 55.1161 124.965H69.4261C69.2911 127.53 67.9861 136.305 67.3111 140.085H51.0211C49.6711 140.085 48.3661 139.995 47.2861 139.905V143.64C48.5911 143.55 49.6261 143.505 51.0211 143.505H75.6811C76.6261 143.505 78.2911 143.55 79.1011 143.595V139.95C78.1561 140.04 76.5361 140.085 75.5461 140.085H71.1361C71.7661 135.945 73.0711 127.035 73.4311 123.975C73.4761 123.615 73.6111 123.03 73.7461 122.58ZM95.9761 110.475V114.21C97.1911 114.12 98.6311 114.075 100.026 114.075H117.666C119.196 114.075 120.726 114.12 121.806 114.21V110.475C120.726 110.655 119.151 110.7 117.711 110.7H100.026C98.5861 110.7 97.1461 110.655 95.9761 110.475ZM125.091 122.355L122.526 120.735C122.031 121.005 121.086 121.095 120.051 121.095H96.3361C95.1211 121.095 93.5911 121.005 91.9261 120.825V124.605C93.5461 124.515 95.2561 124.47 96.3361 124.47H120.231C119.421 127.71 117.621 131.535 114.876 134.415C111.051 138.465 105.426 141.345 99.0361 142.65L101.826 145.845C107.586 144.27 113.211 141.615 117.936 136.44C121.266 132.795 123.291 128.115 124.506 123.66C124.596 123.345 124.866 122.76 125.091 122.355ZM164.106 107.28L161.721 108.315C162.936 109.98 164.466 112.725 165.366 114.525L167.796 113.445C166.896 111.6 165.231 108.9 164.106 107.28ZM169.371 105.885L166.986 106.92C168.246 108.585 169.731 111.15 170.721 113.085L173.151 112.005C172.296 110.34 170.541 107.55 169.371 105.885ZM153.936 108.495H149.616C149.841 109.89 149.886 110.925 149.886 111.87V116.055H139.896C138.321 116.055 137.016 116.01 135.711 115.875C135.846 116.865 135.891 118.395 135.891 119.34V127.215C135.891 128.115 135.801 129.33 135.711 130.095H139.626C139.536 129.42 139.491 128.25 139.491 127.44V119.385H164.601C164.196 123.255 162.801 128.7 160.326 132.48C157.581 136.755 152.676 140.13 148.131 141.57C146.691 142.11 144.981 142.56 143.496 142.83L146.421 146.16C154.656 143.955 160.821 139.365 164.196 133.425C166.716 129.15 168.021 123.525 168.606 119.925C168.786 119.07 169.056 117.855 169.281 117.225L166.851 115.695C166.266 115.875 165.456 116.055 163.746 116.055H153.666V111.87C153.666 110.925 153.756 109.89 153.936 108.495ZM214.506 121.275L212.481 119.385C211.896 119.52 210.681 119.61 210.006 119.61H187.776C186.426 119.61 184.806 119.475 183.546 119.295V123.03C184.941 122.94 186.426 122.85 187.776 122.85C189.531 122.85 206.766 122.895 209.286 122.895C207.981 125.1 204.741 129.06 201.546 130.995L204.471 133.02C208.521 130.23 212.301 124.605 213.606 122.49C213.831 122.13 214.236 121.59 214.506 121.275ZM199.386 125.91H195.471C195.606 126.81 195.741 127.71 195.741 128.565C195.741 134.46 194.886 139.41 188.811 143.505C187.776 144.225 186.696 144.675 185.706 145.035L188.901 147.555C198.396 142.29 199.296 135.495 199.386 125.91ZM228.591 114.705V118.755C229.986 118.71 231.471 118.62 233.046 118.62H252.306C253.791 118.62 255.501 118.665 256.761 118.755V114.705C255.501 114.84 253.926 114.885 252.306 114.885H233.046C231.561 114.885 230.031 114.795 228.591 114.705ZM224.721 136.98V141.3C226.251 141.21 227.826 141.075 229.446 141.075H256.401C257.616 141.075 259.146 141.165 260.496 141.3V136.98C259.191 137.115 257.751 137.205 256.401 137.205H229.446C227.826 137.205 226.251 137.07 224.721 136.98Z" fill="black"/>
</svg>
