<svg width="293" height="141" viewBox="0 0 293 141" fill="none" xmlns="http://www.w3.org/2000/svg">
<path d="M25.4912 29.8032C24.4072 31.356 22.8911 32.5205 20.9429 33.2969C19.0093 34.0586 16.7534 34.4395 14.1753 34.4395C11.5679 34.4395 9.25342 33.8315 7.23193 32.6157C5.21045 31.3853 3.64307 29.6421 2.52979 27.3862C1.43115 25.1304 0.867188 22.5156 0.837891 19.542V16.7515C0.837891 11.9321 1.9585 8.19678 4.19971 5.54541C6.45557 2.89404 9.61963 1.56836 13.6919 1.56836C17.0317 1.56836 19.7197 2.42529 21.7559 4.13916C23.792 5.83838 25.0371 8.25537 25.4912 11.3901H21.2725C20.4814 7.15674 17.9619 5.04004 13.7139 5.04004C10.8867 5.04004 8.74072 6.03613 7.27588 8.02832C5.82568 10.0059 5.09326 12.877 5.07861 16.6416V19.2563C5.07861 22.8452 5.89893 25.7017 7.53955 27.8257C9.18018 29.9351 11.3994 30.9897 14.1973 30.9897C15.7793 30.9897 17.1636 30.814 18.3501 30.4624C19.5366 30.1108 20.5181 29.5176 21.2944 28.6826V21.4976H13.8896V18.0698H25.4912V29.8032ZM43.3989 13.873C42.7837 13.7705 42.1172 13.7192 41.3994 13.7192C38.7334 13.7192 36.9243 14.8545 35.9722 17.125V34H31.9072V10.2256H35.8623L35.9282 12.9722C37.2612 10.8481 39.1509 9.78613 41.5972 9.78613C42.3882 9.78613 42.9888 9.88867 43.3989 10.0938V13.873ZM60.9551 34C60.7207 33.5312 60.5303 32.6963 60.3838 31.4951C58.4941 33.458 56.2383 34.4395 53.6162 34.4395C51.2725 34.4395 49.3462 33.7803 47.8374 32.4619C46.3433 31.1289 45.5962 29.4443 45.5962 27.4082C45.5962 24.9326 46.5337 23.0137 48.4087 21.6514C50.2983 20.2744 52.9497 19.5859 56.3628 19.5859H60.3179V17.7183C60.3179 16.2974 59.8931 15.1694 59.0435 14.3345C58.1938 13.4849 56.9414 13.0601 55.2861 13.0601C53.8359 13.0601 52.6201 13.4263 51.6387 14.1587C50.6572 14.8911 50.1665 15.7773 50.1665 16.8174H46.0796C46.0796 15.6309 46.4971 14.4883 47.332 13.3896C48.1816 12.2764 49.3242 11.3975 50.7598 10.7529C52.21 10.1084 53.7993 9.78613 55.5278 9.78613C58.2671 9.78613 60.4131 10.4746 61.9658 11.8516C63.5186 13.2139 64.3242 15.0962 64.3828 17.4985V28.4409C64.3828 30.6235 64.6611 32.3594 65.2178 33.6484V34H60.9551ZM54.2095 30.9019C55.4839 30.9019 56.6924 30.5723 57.835 29.9131C58.9775 29.2539 59.8052 28.397 60.3179 27.3423V22.4644H57.1318C52.1514 22.4644 49.6611 23.9219 49.6611 26.8369C49.6611 28.1113 50.0859 29.1074 50.9355 29.8252C51.7852 30.543 52.8765 30.9019 54.2095 30.9019ZM76.27 4.46875V10.2256H80.7085V13.3677H76.27V28.1113C76.27 29.0635 76.4678 29.7812 76.8633 30.2646C77.2588 30.7334 77.9326 30.9678 78.8848 30.9678C79.3535 30.9678 79.998 30.8799 80.8184 30.7041V34C79.749 34.293 78.709 34.4395 77.6982 34.4395C75.8818 34.4395 74.5122 33.8901 73.5894 32.7915C72.6665 31.6929 72.2051 30.1328 72.2051 28.1113V13.3677H67.8765V10.2256H72.2051V4.46875H76.27ZM100.154 31.6489C98.5723 33.5093 96.2505 34.4395 93.189 34.4395C90.6548 34.4395 88.7212 33.707 87.3882 32.2422C86.0698 30.7627 85.4033 28.5801 85.3887 25.6943V10.2256H89.4536V25.5845C89.4536 29.188 90.9185 30.9897 93.8481 30.9897C96.9536 30.9897 99.019 29.8325 100.044 27.5181V10.2256H104.109V34H100.242L100.154 31.6489ZM114.722 34H110.657V0.25H114.722V34ZM131.114 34.4395C127.891 34.4395 125.269 33.3848 123.248 31.2754C121.226 29.1514 120.215 26.3169 120.215 22.772V22.0249C120.215 19.6665 120.662 17.5645 121.556 15.7188C122.464 13.8584 123.724 12.4082 125.335 11.3682C126.961 10.3135 128.719 9.78613 130.608 9.78613C133.699 9.78613 136.102 10.8042 137.815 12.8403C139.529 14.8765 140.386 17.7915 140.386 21.5854V23.2773H124.28C124.339 25.6211 125.02 27.5181 126.324 28.9683C127.642 30.4038 129.312 31.1216 131.333 31.1216C132.769 31.1216 133.985 30.8286 134.981 30.2427C135.977 29.6567 136.849 28.8804 137.596 27.9136L140.079 29.8472C138.086 32.9087 135.098 34.4395 131.114 34.4395ZM130.608 13.126C128.968 13.126 127.591 13.7266 126.478 14.9277C125.364 16.1143 124.676 17.7842 124.412 19.9375H136.321V19.6299C136.204 17.5645 135.647 15.9678 134.651 14.8398C133.655 13.6973 132.308 13.126 130.608 13.126ZM156.602 13.873C155.987 13.7705 155.32 13.7192 154.603 13.7192C151.937 13.7192 150.127 14.8545 149.175 17.125V34H145.11V10.2256H149.065L149.131 12.9722C150.464 10.8481 152.354 9.78613 154.8 9.78613C155.591 9.78613 156.192 9.88867 156.602 10.0938V13.873ZM169.786 34.4395C166.563 34.4395 163.941 33.3848 161.919 31.2754C159.898 29.1514 158.887 26.3169 158.887 22.772V22.0249C158.887 19.6665 159.334 17.5645 160.228 15.7188C161.136 13.8584 162.396 12.4082 164.007 11.3682C165.633 10.3135 167.391 9.78613 169.28 9.78613C172.371 9.78613 174.773 10.8042 176.487 12.8403C178.201 14.8765 179.058 17.7915 179.058 21.5854V23.2773H162.952C163.011 25.6211 163.692 27.5181 164.996 28.9683C166.314 30.4038 167.984 31.1216 170.005 31.1216C171.441 31.1216 172.657 30.8286 173.653 30.2427C174.649 29.6567 175.521 28.8804 176.268 27.9136L178.75 29.8472C176.758 32.9087 173.77 34.4395 169.786 34.4395ZM169.28 13.126C167.64 13.126 166.263 13.7266 165.149 14.9277C164.036 16.1143 163.348 17.7842 163.084 19.9375H174.993V19.6299C174.876 17.5645 174.319 15.9678 173.323 14.8398C172.327 13.6973 170.979 13.126 169.28 13.126ZM195.274 13.873C194.659 13.7705 193.992 13.7192 193.274 13.7192C190.608 13.7192 188.799 14.8545 187.847 17.125V34H183.782V10.2256H187.737L187.803 12.9722C189.136 10.8481 191.026 9.78613 193.472 9.78613C194.263 9.78613 194.864 9.88867 195.274 10.0938V13.873ZM214.017 10.2256L214.126 12.8623C215.87 10.8115 218.221 9.78613 221.18 9.78613C224.505 9.78613 226.768 11.0605 227.969 13.6094C228.76 12.4668 229.786 11.5439 231.045 10.8408C232.32 10.1377 233.821 9.78613 235.55 9.78613C240.765 9.78613 243.416 12.5474 243.504 18.0698V34H239.439V18.3115C239.439 16.6123 239.051 15.3452 238.274 14.5103C237.498 13.6606 236.194 13.2358 234.363 13.2358C232.854 13.2358 231.602 13.6899 230.606 14.5981C229.61 15.4917 229.031 16.7002 228.87 18.2236V34H224.783V18.4214C224.783 14.9644 223.091 13.2358 219.708 13.2358C217.042 13.2358 215.218 14.3711 214.236 16.6416V34H210.171V10.2256H214.017ZM259.522 34.4395C256.299 34.4395 253.677 33.3848 251.656 31.2754C249.634 29.1514 248.624 26.3169 248.624 22.772V22.0249C248.624 19.6665 249.07 17.5645 249.964 15.7188C250.872 13.8584 252.132 12.4082 253.743 11.3682C255.369 10.3135 257.127 9.78613 259.017 9.78613C262.107 9.78613 264.51 10.8042 266.224 12.8403C267.938 14.8765 268.794 17.7915 268.794 21.5854V23.2773H252.688C252.747 25.6211 253.428 27.5181 254.732 28.9683C256.05 30.4038 257.72 31.1216 259.742 31.1216C261.177 31.1216 262.393 30.8286 263.389 30.2427C264.385 29.6567 265.257 28.8804 266.004 27.9136L268.487 29.8472C266.495 32.9087 263.506 34.4395 259.522 34.4395ZM259.017 13.126C257.376 13.126 255.999 13.7266 254.886 14.9277C253.772 16.1143 253.084 17.7842 252.82 19.9375H264.729V19.6299C264.612 17.5645 264.056 15.9678 263.06 14.8398C262.063 13.6973 260.716 13.126 259.017 13.126ZM272.53 21.915C272.53 18.2676 273.394 15.3379 275.123 13.126C276.851 10.8994 279.114 9.78613 281.912 9.78613C284.695 9.78613 286.9 10.7383 288.526 12.6426V0.25H292.591V34H288.855L288.658 31.4512C287.032 33.4434 284.769 34.4395 281.868 34.4395C279.114 34.4395 276.866 33.3115 275.123 31.0557C273.394 28.7998 272.53 25.8555 272.53 22.2227V21.915ZM276.595 22.3765C276.595 25.0718 277.151 27.1812 278.265 28.7046C279.378 30.228 280.916 30.9897 282.879 30.9897C285.457 30.9897 287.339 29.8325 288.526 27.5181V16.5977C287.31 14.3564 285.442 13.2358 282.923 13.2358C280.931 13.2358 279.378 14.0049 278.265 15.543C277.151 17.0811 276.595 19.3589 276.595 22.3765ZM82.752 74.915C82.752 71.2676 83.6162 68.3379 85.3447 66.126C87.0732 63.8994 89.3364 62.7861 92.1343 62.7861C94.9175 62.7861 97.1221 63.7383 98.748 65.6426V53.25H102.813V87H99.0776L98.8799 84.4512C97.2539 86.4434 94.9907 87.4395 92.0903 87.4395C89.3364 87.4395 87.0879 86.3115 85.3447 84.0557C83.6162 81.7998 82.752 78.8555 82.752 75.2227V74.915ZM86.8169 75.3765C86.8169 78.0718 87.3735 80.1812 88.4868 81.7046C89.6001 83.228 91.1382 83.9897 93.1011 83.9897C95.6792 83.9897 97.5615 82.8325 98.748 80.5181V69.5977C97.5322 67.3564 95.6646 66.2358 93.145 66.2358C91.1528 66.2358 89.6001 67.0049 88.4868 68.543C87.3735 70.0811 86.8169 72.3589 86.8169 75.3765ZM123.819 87C123.584 86.5312 123.394 85.6963 123.248 84.4951C121.358 86.458 119.102 87.4395 116.48 87.4395C114.136 87.4395 112.21 86.7803 110.701 85.4619C109.207 84.1289 108.46 82.4443 108.46 80.4082C108.46 77.9326 109.397 76.0137 111.272 74.6514C113.162 73.2744 115.813 72.5859 119.227 72.5859H123.182V70.7183C123.182 69.2974 122.757 68.1694 121.907 67.3345C121.058 66.4849 119.805 66.0601 118.15 66.0601C116.7 66.0601 115.484 66.4263 114.502 67.1587C113.521 67.8911 113.03 68.7773 113.03 69.8174H108.943C108.943 68.6309 109.361 67.4883 110.196 66.3896C111.045 65.2764 112.188 64.3975 113.624 63.7529C115.074 63.1084 116.663 62.7861 118.392 62.7861C121.131 62.7861 123.277 63.4746 124.83 64.8516C126.382 66.2139 127.188 68.0962 127.247 70.4985V81.4409C127.247 83.6235 127.525 85.3594 128.082 86.6484V87H123.819ZM117.073 83.9019C118.348 83.9019 119.556 83.5723 120.699 82.9131C121.841 82.2539 122.669 81.397 123.182 80.3423V75.4644H119.996C115.015 75.4644 112.525 76.9219 112.525 79.8369C112.525 81.1113 112.95 82.1074 113.799 82.8252C114.649 83.543 115.74 83.9019 117.073 83.9019ZM132.652 74.915C132.652 71.209 133.509 68.2646 135.223 66.082C136.937 63.8848 139.207 62.7861 142.034 62.7861C144.935 62.7861 147.198 63.8115 148.824 65.8623L149.021 63.2256H152.735V86.4287C152.735 89.5049 151.819 91.9292 149.988 93.7017C148.172 95.4741 145.726 96.3604 142.649 96.3604C140.936 96.3604 139.258 95.9941 137.618 95.2617C135.977 94.5293 134.725 93.5259 133.86 92.2515L135.97 89.8125C137.713 91.9658 139.844 93.0425 142.364 93.0425C144.341 93.0425 145.879 92.4858 146.978 91.3726C148.091 90.2593 148.648 88.6919 148.648 86.6704V84.627C147.022 86.502 144.803 87.4395 141.99 87.4395C139.207 87.4395 136.951 86.3188 135.223 84.0776C133.509 81.8364 132.652 78.7822 132.652 74.915ZM136.739 75.3765C136.739 78.0571 137.288 80.1665 138.387 81.7046C139.485 83.228 141.023 83.9897 143.001 83.9897C145.564 83.9897 147.447 82.8252 148.648 80.4961V69.6416C147.403 67.3711 145.535 66.2358 143.045 66.2358C141.067 66.2358 139.522 67.0049 138.409 68.543C137.295 70.0811 136.739 72.3589 136.739 75.3765ZM168.753 87.4395C165.53 87.4395 162.908 86.3848 160.887 84.2754C158.865 82.1514 157.854 79.3169 157.854 75.772V75.0249C157.854 72.6665 158.301 70.5645 159.195 68.7188C160.103 66.8584 161.363 65.4082 162.974 64.3682C164.6 63.3135 166.358 62.7861 168.248 62.7861C171.338 62.7861 173.741 63.8042 175.455 65.8403C177.168 67.8765 178.025 70.7915 178.025 74.5854V76.2773H161.919C161.978 78.6211 162.659 80.5181 163.963 81.9683C165.281 83.4038 166.951 84.1216 168.973 84.1216C170.408 84.1216 171.624 83.8286 172.62 83.2427C173.616 82.6567 174.488 81.8804 175.235 80.9136L177.718 82.8472C175.726 85.9087 172.737 87.4395 168.753 87.4395ZM168.248 66.126C166.607 66.126 165.23 66.7266 164.117 67.9277C163.003 69.1143 162.315 70.7842 162.051 72.9375H173.96V72.6299C173.843 70.5645 173.287 68.9678 172.291 67.8398C171.294 66.6973 169.947 66.126 168.248 66.126ZM186.595 63.2256L186.727 66.2139C188.543 63.9287 190.916 62.7861 193.846 62.7861C198.87 62.7861 201.404 65.6206 201.448 71.2896V87H197.383V71.2676C197.369 69.5537 196.973 68.2866 196.197 67.4663C195.435 66.646 194.241 66.2358 192.615 66.2358C191.297 66.2358 190.14 66.5874 189.144 67.2905C188.147 67.9937 187.371 68.9165 186.814 70.0591V87H182.75V63.2256H186.595ZM207.447 93.3721L205.14 91.79C206.517 89.8711 207.234 87.8936 207.293 85.8574V82.188H211.27V85.374C211.27 86.8535 210.904 88.333 210.171 89.8125C209.454 91.292 208.545 92.4785 207.447 93.3721ZM92.2222 133.694C92.2222 132.595 91.8047 131.746 90.9697 131.145C90.1494 130.53 88.7065 130.002 86.6411 129.563C84.5903 129.124 82.957 128.596 81.7412 127.981C80.54 127.366 79.6465 126.633 79.0605 125.784C78.4893 124.934 78.2036 123.923 78.2036 122.751C78.2036 120.803 79.0239 119.155 80.6646 117.808C82.3198 116.46 84.4292 115.786 86.9927 115.786C89.688 115.786 91.8706 116.482 93.5405 117.874C95.2251 119.265 96.0674 121.045 96.0674 123.213H91.9805C91.9805 122.1 91.5044 121.14 90.5522 120.334C89.6147 119.529 88.4282 119.126 86.9927 119.126C85.5132 119.126 84.356 119.448 83.521 120.093C82.686 120.737 82.2686 121.58 82.2686 122.62C82.2686 123.601 82.6567 124.341 83.4331 124.839C84.2095 125.337 85.6084 125.813 87.6299 126.267C89.666 126.721 91.314 127.263 92.5737 127.893C93.8335 128.523 94.7637 129.285 95.3643 130.178C95.9795 131.057 96.2871 132.134 96.2871 133.408C96.2871 135.532 95.4375 137.239 93.7383 138.528C92.0391 139.802 89.8345 140.439 87.1245 140.439C85.2202 140.439 83.5356 140.103 82.0708 139.429C80.606 138.755 79.4561 137.817 78.6211 136.616C77.8008 135.4 77.3906 134.089 77.3906 132.683H81.4556C81.5288 134.045 82.0708 135.129 83.0815 135.935C84.1069 136.726 85.4546 137.122 87.1245 137.122C88.6626 137.122 89.8931 136.814 90.8159 136.199C91.7534 135.569 92.2222 134.734 92.2222 133.694ZM113.074 119.873C112.459 119.771 111.792 119.719 111.075 119.719C108.409 119.719 106.6 120.854 105.647 123.125V140H101.583V116.226H105.538L105.604 118.972C106.937 116.848 108.826 115.786 111.272 115.786C112.063 115.786 112.664 115.889 113.074 116.094V119.873ZM130.63 140C130.396 139.531 130.206 138.696 130.059 137.495C128.169 139.458 125.914 140.439 123.292 140.439C120.948 140.439 119.021 139.78 117.513 138.462C116.019 137.129 115.271 135.444 115.271 133.408C115.271 130.933 116.209 129.014 118.084 127.651C119.974 126.274 122.625 125.586 126.038 125.586H129.993V123.718C129.993 122.297 129.568 121.169 128.719 120.334C127.869 119.485 126.617 119.06 124.961 119.06C123.511 119.06 122.295 119.426 121.314 120.159C120.333 120.891 119.842 121.777 119.842 122.817H115.755C115.755 121.631 116.172 120.488 117.007 119.39C117.857 118.276 119 117.397 120.435 116.753C121.885 116.108 123.475 115.786 125.203 115.786C127.942 115.786 130.088 116.475 131.641 117.852C133.194 119.214 134 121.096 134.058 123.499V134.441C134.058 136.624 134.336 138.359 134.893 139.648V140H130.63ZM123.885 136.902C125.159 136.902 126.368 136.572 127.51 135.913C128.653 135.254 129.48 134.397 129.993 133.342V128.464H126.807C121.827 128.464 119.336 129.922 119.336 132.837C119.336 134.111 119.761 135.107 120.611 135.825C121.46 136.543 122.552 136.902 123.885 136.902ZM147.923 134.485L153.812 116.226H157.964L149.439 140H146.341L137.728 116.226H141.88L147.923 134.485ZM176.202 140C175.967 139.531 175.777 138.696 175.63 137.495C173.741 139.458 171.485 140.439 168.863 140.439C166.519 140.439 164.593 139.78 163.084 138.462C161.59 137.129 160.843 135.444 160.843 133.408C160.843 130.933 161.78 129.014 163.655 127.651C165.545 126.274 168.196 125.586 171.609 125.586H175.564V123.718C175.564 122.297 175.14 121.169 174.29 120.334C173.44 119.485 172.188 119.06 170.533 119.06C169.083 119.06 167.867 119.426 166.885 120.159C165.904 120.891 165.413 121.777 165.413 122.817H161.326C161.326 121.631 161.744 120.488 162.579 119.39C163.428 118.276 164.571 117.397 166.006 116.753C167.457 116.108 169.046 115.786 170.774 115.786C173.514 115.786 175.66 116.475 177.212 117.852C178.765 119.214 179.571 121.096 179.629 123.499V134.441C179.629 136.624 179.908 138.359 180.464 139.648V140H176.202ZM169.456 136.902C170.73 136.902 171.939 136.572 173.082 135.913C174.224 135.254 175.052 134.397 175.564 133.342V128.464H172.378C167.398 128.464 164.908 129.922 164.908 132.837C164.908 134.111 165.333 135.107 166.182 135.825C167.032 136.543 168.123 136.902 169.456 136.902ZM189.847 116.226L189.979 119.214C191.795 116.929 194.168 115.786 197.098 115.786C202.122 115.786 204.656 118.621 204.7 124.29V140H200.635V124.268C200.621 122.554 200.225 121.287 199.449 120.466C198.687 119.646 197.493 119.236 195.867 119.236C194.549 119.236 193.392 119.587 192.396 120.291C191.399 120.994 190.623 121.917 190.066 123.059V140H186.001V116.226H189.847ZM215.247 140H211.182V116.226H215.247V140ZM210.853 109.919C210.853 109.26 211.05 108.704 211.446 108.25C211.856 107.795 212.457 107.568 213.248 107.568C214.039 107.568 214.639 107.795 215.049 108.25C215.459 108.704 215.665 109.26 215.665 109.919C215.665 110.579 215.459 111.128 215.049 111.567C214.639 112.007 214.039 112.227 213.248 112.227C212.457 112.227 211.856 112.007 211.446 111.567C211.05 111.128 210.853 110.579 210.853 109.919Z" fill="black"/>
</svg>
