<svg width="246" height="141" viewBox="0 0 246 141" fill="none" xmlns="http://www.w3.org/2000/svg">
<path d="M23.5518 28.397L28.1221 10.2256H32.187L25.2656 34H21.9697L16.1909 15.9824L10.5659 34H7.27002L0.370605 10.2256H4.41357L9.09375 28.0234L14.6309 10.2256H17.9048L23.5518 28.397ZM50.1826 27.6938C50.1826 26.5952 49.7651 25.7456 48.9302 25.145C48.1099 24.5298 46.667 24.0024 44.6016 23.563C42.5508 23.1235 40.9175 22.5962 39.7017 21.981C38.5005 21.3657 37.6069 20.6333 37.021 19.7837C36.4497 18.9341 36.1641 17.9233 36.1641 16.7515C36.1641 14.8032 36.9844 13.1553 38.625 11.8076C40.2803 10.46 42.3896 9.78613 44.9531 9.78613C47.6484 9.78613 49.8311 10.4819 51.501 11.8735C53.1855 13.2651 54.0278 15.0449 54.0278 17.2129H49.9409C49.9409 16.0996 49.4648 15.1401 48.5127 14.3345C47.5752 13.5288 46.3887 13.126 44.9531 13.126C43.4736 13.126 42.3164 13.4482 41.4814 14.0928C40.6465 14.7373 40.229 15.5796 40.229 16.6196C40.229 17.6011 40.6172 18.3408 41.3936 18.8389C42.1699 19.3369 43.5688 19.813 45.5903 20.2671C47.6265 20.7212 49.2744 21.2632 50.5342 21.8931C51.7939 22.5229 52.7241 23.2847 53.3247 24.1782C53.9399 25.0571 54.2476 26.1338 54.2476 27.4082C54.2476 29.5322 53.3979 31.2388 51.6987 32.5278C49.9995 33.8022 47.7949 34.4395 45.085 34.4395C43.1807 34.4395 41.4961 34.1025 40.0312 33.4287C38.5664 32.7549 37.4165 31.8174 36.5815 30.6162C35.7612 29.4004 35.3511 28.0894 35.3511 26.6831H39.416C39.4893 28.0454 40.0312 29.1294 41.042 29.9351C42.0674 30.7261 43.415 31.1216 45.085 31.1216C46.623 31.1216 47.8535 30.814 48.7764 30.1987C49.7139 29.5688 50.1826 28.7339 50.1826 27.6938ZM63.3662 30.6821H77.2749V34H58.4004V31.0117L71.5181 13.5874H58.5981V10.2256H76.6157V13.104L63.3662 30.6821ZM89.6455 28.0454L95.1826 10.2256H99.5332L89.9751 37.6694C88.4956 41.6245 86.1445 43.6021 82.9219 43.6021L82.1528 43.5361L80.6367 43.2505V39.9546L81.7354 40.0425C83.1123 40.0425 84.1816 39.7642 84.9434 39.2075C85.7197 38.6509 86.3569 37.6328 86.855 36.1533L87.7559 33.7363L79.2744 10.2256H83.7129L89.6455 28.0454ZM117.023 27.6938C117.023 26.5952 116.606 25.7456 115.771 25.145C114.951 24.5298 113.508 24.0024 111.442 23.563C109.392 23.1235 107.758 22.5962 106.542 21.981C105.341 21.3657 104.448 20.6333 103.862 19.7837C103.291 18.9341 103.005 17.9233 103.005 16.7515C103.005 14.8032 103.825 13.1553 105.466 11.8076C107.121 10.46 109.23 9.78613 111.794 9.78613C114.489 9.78613 116.672 10.4819 118.342 11.8735C120.026 13.2651 120.869 15.0449 120.869 17.2129H116.782C116.782 16.0996 116.306 15.1401 115.354 14.3345C114.416 13.5288 113.229 13.126 111.794 13.126C110.314 13.126 109.157 13.4482 108.322 14.0928C107.487 14.7373 107.07 15.5796 107.07 16.6196C107.07 17.6011 107.458 18.3408 108.234 18.8389C109.011 19.3369 110.41 19.813 112.431 20.2671C114.467 20.7212 116.115 21.2632 117.375 21.8931C118.635 22.5229 119.565 23.2847 120.166 24.1782C120.781 25.0571 121.088 26.1338 121.088 27.4082C121.088 29.5322 120.239 31.2388 118.54 32.5278C116.84 33.8022 114.636 34.4395 111.926 34.4395C110.021 34.4395 108.337 34.1025 106.872 33.4287C105.407 32.7549 104.257 31.8174 103.422 30.6162C102.602 29.4004 102.192 28.0894 102.192 26.6831H106.257C106.33 28.0454 106.872 29.1294 107.883 29.9351C108.908 30.7261 110.256 31.1216 111.926 31.1216C113.464 31.1216 114.694 30.814 115.617 30.1987C116.555 29.5688 117.023 28.7339 117.023 27.6938ZM131.899 4.46875V10.2256H136.337V13.3677H131.899V28.1113C131.899 29.0635 132.097 29.7812 132.492 30.2646C132.888 30.7334 133.562 30.9678 134.514 30.9678C134.982 30.9678 135.627 30.8799 136.447 30.7041V34C135.378 34.293 134.338 34.4395 133.327 34.4395C131.511 34.4395 130.141 33.8901 129.218 32.7915C128.295 31.6929 127.834 30.1328 127.834 28.1113V13.3677H123.505V10.2256H127.834V4.46875H131.899ZM147.741 22.9917L145.192 25.6504V34H141.127V0.25H145.192V20.6626L147.368 18.0479L154.772 10.2256H159.716L150.466 20.1572L160.793 34H156.025L147.741 22.9917ZM168.33 34H164.265V10.2256H168.33V34ZM163.935 3.91943C163.935 3.26025 164.133 2.70361 164.528 2.24951C164.938 1.79541 165.539 1.56836 166.33 1.56836C167.121 1.56836 167.722 1.79541 168.132 2.24951C168.542 2.70361 168.747 3.26025 168.747 3.91943C168.747 4.57861 168.542 5.12793 168.132 5.56738C167.722 6.00684 167.121 6.22656 166.33 6.22656C165.539 6.22656 164.938 6.00684 164.528 5.56738C164.133 5.12793 163.935 4.57861 163.935 3.91943ZM184.721 34.4395C181.499 34.4395 178.876 33.3848 176.855 31.2754C174.833 29.1514 173.823 26.3169 173.823 22.772V22.0249C173.823 19.6665 174.27 17.5645 175.163 15.7188C176.071 13.8584 177.331 12.4082 178.942 11.3682C180.568 10.3135 182.326 9.78613 184.216 9.78613C187.307 9.78613 189.709 10.8042 191.423 12.8403C193.137 14.8765 193.994 17.7915 193.994 21.5854V23.2773H177.888C177.946 25.6211 178.627 27.5181 179.931 28.9683C181.25 30.4038 182.919 31.1216 184.941 31.1216C186.376 31.1216 187.592 30.8286 188.588 30.2427C189.584 29.6567 190.456 28.8804 191.203 27.9136L193.686 29.8472C191.694 32.9087 188.706 34.4395 184.721 34.4395ZM184.216 13.126C182.575 13.126 181.198 13.7266 180.085 14.9277C178.972 16.1143 178.283 17.7842 178.02 19.9375H189.929V19.6299C189.812 17.5645 189.255 15.9678 188.259 14.8398C187.263 13.6973 185.915 13.126 184.216 13.126ZM197.751 21.915C197.751 18.209 198.608 15.2646 200.322 13.082C202.036 10.8848 204.306 9.78613 207.133 9.78613C210.034 9.78613 212.297 10.8115 213.923 12.8623L214.121 10.2256H217.834V33.4287C217.834 36.5049 216.918 38.9292 215.087 40.7017C213.271 42.4741 210.825 43.3604 207.749 43.3604C206.035 43.3604 204.357 42.9941 202.717 42.2617C201.076 41.5293 199.824 40.5259 198.959 39.2515L201.069 36.8125C202.812 38.9658 204.943 40.0425 207.463 40.0425C209.44 40.0425 210.979 39.4858 212.077 38.3726C213.19 37.2593 213.747 35.6919 213.747 33.6704V31.627C212.121 33.502 209.902 34.4395 207.089 34.4395C204.306 34.4395 202.05 33.3188 200.322 31.0776C198.608 28.8364 197.751 25.7822 197.751 21.915ZM201.838 22.3765C201.838 25.0571 202.387 27.1665 203.486 28.7046C204.584 30.228 206.123 30.9897 208.1 30.9897C210.664 30.9897 212.546 29.8252 213.747 27.4961V16.6416C212.502 14.3711 210.634 13.2358 208.144 13.2358C206.167 13.2358 204.621 14.0049 203.508 15.543C202.395 17.0811 201.838 19.3589 201.838 22.3765ZM222.91 21.8931C222.91 19.564 223.364 17.4692 224.272 15.6089C225.195 13.7485 226.469 12.313 228.095 11.3022C229.736 10.2915 231.604 9.78613 233.698 9.78613C236.936 9.78613 239.55 10.9067 241.542 13.1479C243.549 15.3892 244.553 18.3701 244.553 22.0908V22.3765C244.553 24.6909 244.106 26.771 243.212 28.6167C242.333 30.4478 241.066 31.876 239.411 32.9014C237.771 33.9268 235.881 34.4395 233.742 34.4395C230.52 34.4395 227.905 33.3188 225.898 31.0776C223.906 28.8364 222.91 25.8701 222.91 22.1787V21.8931ZM226.997 22.3765C226.997 25.0132 227.604 27.1299 228.82 28.7266C230.051 30.3232 231.691 31.1216 233.742 31.1216C235.808 31.1216 237.448 30.3159 238.664 28.7046C239.88 27.0786 240.488 24.8081 240.488 21.8931C240.488 19.2856 239.865 17.1763 238.62 15.5649C237.39 13.939 235.749 13.126 233.698 13.126C231.691 13.126 230.073 13.9243 228.842 15.521C227.612 17.1177 226.997 19.4028 226.997 22.3765ZM5.44629 63.2256L5.57812 66.2139C7.39453 63.9287 9.76758 62.7861 12.6973 62.7861C17.7217 62.7861 20.2559 65.6206 20.2998 71.2896V87H16.2349V71.2676C16.2202 69.5537 15.8247 68.2866 15.0483 67.4663C14.2866 66.646 13.0928 66.2358 11.4668 66.2358C10.1484 66.2358 8.99121 66.5874 7.99512 67.2905C6.99902 67.9937 6.22266 68.9165 5.66602 70.0591V87H1.60107V63.2256H5.44629ZM41.1079 87C40.8735 86.5312 40.6831 85.6963 40.5366 84.4951C38.647 86.458 36.3911 87.4395 33.769 87.4395C31.4253 87.4395 29.499 86.7803 27.9902 85.4619C26.4961 84.1289 25.749 82.4443 25.749 80.4082C25.749 77.9326 26.6865 76.0137 28.5615 74.6514C30.4512 73.2744 33.1025 72.5859 36.5156 72.5859H40.4707V70.7183C40.4707 69.2974 40.0459 68.1694 39.1963 67.3345C38.3467 66.4849 37.0942 66.0601 35.439 66.0601C33.9888 66.0601 32.7729 66.4263 31.7915 67.1587C30.8101 67.8911 30.3193 68.7773 30.3193 69.8174H26.2324C26.2324 68.6309 26.6499 67.4883 27.4849 66.3896C28.3345 65.2764 29.4771 64.3975 30.9126 63.7529C32.3628 63.1084 33.9521 62.7861 35.6807 62.7861C38.4199 62.7861 40.5659 63.4746 42.1187 64.8516C43.6714 66.2139 44.4771 68.0962 44.5356 70.4985V81.4409C44.5356 83.6235 44.814 85.3594 45.3706 86.6484V87H41.1079ZM34.3623 83.9019C35.6367 83.9019 36.8452 83.5723 37.9878 82.9131C39.1304 82.2539 39.958 81.397 40.4707 80.3423V75.4644H37.2847C32.3042 75.4644 29.814 76.9219 29.814 79.8369C29.814 81.1113 30.2388 82.1074 31.0884 82.8252C31.938 83.543 33.0293 83.9019 34.3623 83.9019ZM55.1045 63.2256V89.7466C55.1045 94.3169 53.0317 96.6021 48.8862 96.6021C47.9927 96.6021 47.165 96.4702 46.4033 96.2065V92.9546C46.8721 93.0718 47.4873 93.1304 48.249 93.1304C49.1572 93.1304 49.8457 92.8813 50.3145 92.3833C50.7979 91.8999 51.0396 91.0503 51.0396 89.8345V63.2256H55.1045ZM50.6221 56.9194C50.6221 56.2749 50.8198 55.7256 51.2153 55.2715C51.6255 54.8027 52.2188 54.5684 52.9951 54.5684C53.7861 54.5684 54.3867 54.7954 54.7969 55.2495C55.207 55.7036 55.4121 56.2603 55.4121 56.9194C55.4121 57.5786 55.207 58.1279 54.7969 58.5674C54.3867 59.0068 53.7861 59.2266 52.9951 59.2266C52.2041 59.2266 51.6108 59.0068 51.2153 58.5674C50.8198 58.1279 50.6221 57.5786 50.6221 56.9194ZM66.0908 87H62.0259V53.25H66.0908V87ZM82.4824 87.4395C79.2598 87.4395 76.6377 86.3848 74.6162 84.2754C72.5947 82.1514 71.584 79.3169 71.584 75.772V75.0249C71.584 72.6665 72.0308 70.5645 72.9243 68.7188C73.8325 66.8584 75.0923 65.4082 76.7036 64.3682C78.3296 63.3135 80.0874 62.7861 81.9771 62.7861C85.0679 62.7861 87.4702 63.8042 89.1841 65.8403C90.8979 67.8765 91.7549 70.7915 91.7549 74.5854V76.2773H75.6489C75.7075 78.6211 76.3887 80.5181 77.6924 81.9683C79.0107 83.4038 80.6807 84.1216 82.7021 84.1216C84.1377 84.1216 85.3535 83.8286 86.3496 83.2427C87.3457 82.6567 88.2173 81.8804 88.9644 80.9136L91.4473 82.8472C89.4551 85.9087 86.4668 87.4395 82.4824 87.4395ZM81.9771 66.126C80.3364 66.126 78.9595 66.7266 77.8462 67.9277C76.7329 69.1143 76.0444 70.7842 75.7808 72.9375H87.6899V72.6299C87.5728 70.5645 87.0161 68.9678 86.02 67.8398C85.0239 66.6973 83.6763 66.126 81.9771 66.126ZM116.562 75.3765C116.562 78.9946 115.734 81.9097 114.079 84.1216C112.424 86.3335 110.183 87.4395 107.355 87.4395C104.47 87.4395 102.199 86.5239 100.544 84.6929V96.1406H96.479V63.2256H100.192L100.39 65.8623C102.045 63.8115 104.345 62.7861 107.29 62.7861C110.146 62.7861 112.402 63.8628 114.057 66.0161C115.727 68.1694 116.562 71.165 116.562 75.0029V75.3765ZM112.497 74.915C112.497 72.2344 111.926 70.1177 110.783 68.5649C109.641 67.0122 108.073 66.2358 106.081 66.2358C103.62 66.2358 101.774 67.3271 100.544 69.5098V80.8696C101.76 83.0376 103.62 84.1216 106.125 84.1216C108.073 84.1216 109.619 83.3525 110.761 81.8145C111.918 80.2617 112.497 77.9619 112.497 74.915ZM135.59 80.6938C135.59 79.5952 135.173 78.7456 134.338 78.145C133.518 77.5298 132.075 77.0024 130.009 76.563C127.958 76.1235 126.325 75.5962 125.109 74.981C123.908 74.3657 123.015 73.6333 122.429 72.7837C121.857 71.9341 121.572 70.9233 121.572 69.7515C121.572 67.8032 122.392 66.1553 124.033 64.8076C125.688 63.46 127.797 62.7861 130.361 62.7861C133.056 62.7861 135.239 63.4819 136.909 64.8735C138.593 66.2651 139.436 68.0449 139.436 70.2129H135.349C135.349 69.0996 134.873 68.1401 133.92 67.3345C132.983 66.5288 131.796 66.126 130.361 66.126C128.881 66.126 127.724 66.4482 126.889 67.0928C126.054 67.7373 125.637 68.5796 125.637 69.6196C125.637 70.6011 126.025 71.3408 126.801 71.8389C127.578 72.3369 128.977 72.813 130.998 73.2671C133.034 73.7212 134.682 74.2632 135.942 74.8931C137.202 75.5229 138.132 76.2847 138.732 77.1782C139.348 78.0571 139.655 79.1338 139.655 80.4082C139.655 82.5322 138.806 84.2388 137.106 85.5278C135.407 86.8022 133.203 87.4395 130.493 87.4395C128.588 87.4395 126.904 87.1025 125.439 86.4287C123.974 85.7549 122.824 84.8174 121.989 83.6162C121.169 82.4004 120.759 81.0894 120.759 79.6831H124.824C124.897 81.0454 125.439 82.1294 126.45 82.9351C127.475 83.7261 128.823 84.1216 130.493 84.1216C132.031 84.1216 133.261 83.814 134.184 83.1987C135.122 82.5688 135.59 81.7339 135.59 80.6938ZM148.774 83.6821H162.683V87H143.808V84.0117L156.926 66.5874H144.006V63.2256H162.023V66.104L148.774 83.6821ZM176.789 87.4395C173.566 87.4395 170.944 86.3848 168.923 84.2754C166.901 82.1514 165.891 79.3169 165.891 75.772V75.0249C165.891 72.6665 166.337 70.5645 167.231 68.7188C168.139 66.8584 169.399 65.4082 171.01 64.3682C172.636 63.3135 174.394 62.7861 176.284 62.7861C179.375 62.7861 181.777 63.8042 183.491 65.8403C185.205 67.8765 186.062 70.7915 186.062 74.5854V76.2773H169.956C170.014 78.6211 170.695 80.5181 171.999 81.9683C173.317 83.4038 174.987 84.1216 177.009 84.1216C178.444 84.1216 179.66 83.8286 180.656 83.2427C181.652 82.6567 182.524 81.8804 183.271 80.9136L185.754 82.8472C183.762 85.9087 180.773 87.4395 176.789 87.4395ZM176.284 66.126C174.643 66.126 173.266 66.7266 172.153 67.9277C171.04 69.1143 170.351 70.7842 170.087 72.9375H181.997V72.6299C181.879 70.5645 181.323 68.9678 180.327 67.8398C179.331 66.6973 177.983 66.126 176.284 66.126ZM189.819 74.915C189.819 71.209 190.676 68.2646 192.39 66.082C194.104 63.8848 196.374 62.7861 199.201 62.7861C202.102 62.7861 204.365 63.8115 205.991 65.8623L206.188 63.2256H209.902V86.4287C209.902 89.5049 208.986 91.9292 207.155 93.7017C205.339 95.4741 202.893 96.3604 199.816 96.3604C198.103 96.3604 196.425 95.9941 194.785 95.2617C193.144 94.5293 191.892 93.5259 191.027 92.2515L193.137 89.8125C194.88 91.9658 197.011 93.0425 199.531 93.0425C201.508 93.0425 203.046 92.4858 204.145 91.3726C205.258 90.2593 205.815 88.6919 205.815 86.6704V84.627C204.189 86.502 201.97 87.4395 199.157 87.4395C196.374 87.4395 194.118 86.3188 192.39 84.0776C190.676 81.8364 189.819 78.7822 189.819 74.915ZM193.906 75.3765C193.906 78.0571 194.455 80.1665 195.554 81.7046C196.652 83.228 198.19 83.9897 200.168 83.9897C202.731 83.9897 204.614 82.8252 205.815 80.4961V69.6416C204.57 67.3711 202.702 66.2358 200.212 66.2358C198.234 66.2358 196.689 67.0049 195.576 68.543C194.462 70.0811 193.906 72.3589 193.906 75.3765ZM214.978 74.8931C214.978 72.564 215.432 70.4692 216.34 68.6089C217.263 66.7485 218.537 65.313 220.163 64.3022C221.804 63.2915 223.671 62.7861 225.766 62.7861C229.003 62.7861 231.618 63.9067 233.61 66.1479C235.617 68.3892 236.621 71.3701 236.621 75.0908V75.3765C236.621 77.6909 236.174 79.771 235.28 81.6167C234.401 83.4478 233.134 84.876 231.479 85.9014C229.838 86.9268 227.949 87.4395 225.81 87.4395C222.587 87.4395 219.973 86.3188 217.966 84.0776C215.974 81.8364 214.978 78.8701 214.978 75.1787V74.8931ZM219.064 75.3765C219.064 78.0132 219.672 80.1299 220.888 81.7266C222.119 83.3232 223.759 84.1216 225.81 84.1216C227.875 84.1216 229.516 83.3159 230.732 81.7046C231.948 80.0786 232.556 77.8081 232.556 74.8931C232.556 72.2856 231.933 70.1763 230.688 68.5649C229.458 66.939 227.817 66.126 225.766 66.126C223.759 66.126 222.141 66.9243 220.91 68.521C219.68 70.1177 219.064 72.4028 219.064 75.3765ZM241.586 93.3721L239.279 91.79C240.656 89.8711 241.374 87.8936 241.433 85.8574V82.188H245.41V85.374C245.41 86.8535 245.043 88.333 244.311 89.8125C243.593 91.292 242.685 92.4785 241.586 93.3721ZM68.2222 133.694C68.2222 132.595 67.8047 131.746 66.9697 131.145C66.1494 130.53 64.7065 130.002 62.6411 129.563C60.5903 129.124 58.957 128.596 57.7412 127.981C56.54 127.366 55.6465 126.633 55.0605 125.784C54.4893 124.934 54.2036 123.923 54.2036 122.751C54.2036 120.803 55.0239 119.155 56.6646 117.808C58.3198 116.46 60.4292 115.786 62.9927 115.786C65.688 115.786 67.8706 116.482 69.5405 117.874C71.2251 119.265 72.0674 121.045 72.0674 123.213H67.9805C67.9805 122.1 67.5044 121.14 66.5522 120.334C65.6147 119.529 64.4282 119.126 62.9927 119.126C61.5132 119.126 60.356 119.448 59.521 120.093C58.686 120.737 58.2686 121.58 58.2686 122.62C58.2686 123.601 58.6567 124.341 59.4331 124.839C60.2095 125.337 61.6084 125.813 63.6299 126.267C65.666 126.721 67.314 127.263 68.5737 127.893C69.8335 128.523 70.7637 129.285 71.3643 130.178C71.9795 131.057 72.2871 132.134 72.2871 133.408C72.2871 135.532 71.4375 137.239 69.7383 138.528C68.0391 139.802 65.8345 140.439 63.1245 140.439C61.2202 140.439 59.5356 140.103 58.0708 139.429C56.606 138.755 55.4561 137.817 54.6211 136.616C53.8008 135.4 53.3906 134.089 53.3906 132.683H57.4556C57.5288 134.045 58.0708 135.129 59.0815 135.935C60.1069 136.726 61.4546 137.122 63.1245 137.122C64.6626 137.122 65.8931 136.814 66.8159 136.199C67.7534 135.569 68.2222 134.734 68.2222 133.694ZM89.0742 119.873C88.459 119.771 87.7925 119.719 87.0747 119.719C84.4087 119.719 82.5996 120.854 81.6475 123.125V140H77.5825V116.226H81.5376L81.6035 118.972C82.9365 116.848 84.8262 115.786 87.2725 115.786C88.0635 115.786 88.6641 115.889 89.0742 116.094V119.873ZM106.63 140C106.396 139.531 106.206 138.696 106.059 137.495C104.169 139.458 101.914 140.439 99.2915 140.439C96.9478 140.439 95.0215 139.78 93.5127 138.462C92.0186 137.129 91.2715 135.444 91.2715 133.408C91.2715 130.933 92.209 129.014 94.084 127.651C95.9736 126.274 98.625 125.586 102.038 125.586H105.993V123.718C105.993 122.297 105.568 121.169 104.719 120.334C103.869 119.485 102.617 119.06 100.961 119.06C99.5112 119.06 98.2954 119.426 97.314 120.159C96.3325 120.891 95.8418 121.777 95.8418 122.817H91.7549C91.7549 121.631 92.1724 120.488 93.0073 119.39C93.8569 118.276 94.9995 117.397 96.4351 116.753C97.8853 116.108 99.4746 115.786 101.203 115.786C103.942 115.786 106.088 116.475 107.641 117.852C109.194 119.214 110 121.096 110.058 123.499V134.441C110.058 136.624 110.336 138.359 110.893 139.648V140H106.63ZM99.8848 136.902C101.159 136.902 102.368 136.572 103.51 135.913C104.653 135.254 105.48 134.397 105.993 133.342V128.464H102.807C97.8267 128.464 95.3364 129.922 95.3364 132.837C95.3364 134.111 95.7612 135.107 96.6108 135.825C97.4604 136.543 98.5518 136.902 99.8848 136.902ZM123.923 134.485L129.812 116.226H133.964L125.439 140H122.341L113.728 116.226H117.88L123.923 134.485ZM152.202 140C151.967 139.531 151.777 138.696 151.63 137.495C149.741 139.458 147.485 140.439 144.863 140.439C142.519 140.439 140.593 139.78 139.084 138.462C137.59 137.129 136.843 135.444 136.843 133.408C136.843 130.933 137.78 129.014 139.655 127.651C141.545 126.274 144.196 125.586 147.609 125.586H151.564V123.718C151.564 122.297 151.14 121.169 150.29 120.334C149.44 119.485 148.188 119.06 146.533 119.06C145.083 119.06 143.867 119.426 142.885 120.159C141.904 120.891 141.413 121.777 141.413 122.817H137.326C137.326 121.631 137.744 120.488 138.579 119.39C139.428 118.276 140.571 117.397 142.006 116.753C143.457 116.108 145.046 115.786 146.774 115.786C149.514 115.786 151.66 116.475 153.212 117.852C154.765 119.214 155.571 121.096 155.629 123.499V134.441C155.629 136.624 155.908 138.359 156.464 139.648V140H152.202ZM145.456 136.902C146.73 136.902 147.939 136.572 149.082 135.913C150.224 135.254 151.052 134.397 151.564 133.342V128.464H148.378C143.398 128.464 140.908 129.922 140.908 132.837C140.908 134.111 141.333 135.107 142.182 135.825C143.032 136.543 144.123 136.902 145.456 136.902ZM165.847 116.226L165.979 119.214C167.795 116.929 170.168 115.786 173.098 115.786C178.122 115.786 180.656 118.621 180.7 124.29V140H176.635V124.268C176.621 122.554 176.225 121.287 175.449 120.466C174.687 119.646 173.493 119.236 171.867 119.236C170.549 119.236 169.392 119.587 168.396 120.291C167.399 120.994 166.623 121.917 166.066 123.059V140H162.001V116.226H165.847ZM191.247 140H187.182V116.226H191.247V140ZM186.853 109.919C186.853 109.26 187.05 108.704 187.446 108.25C187.856 107.795 188.457 107.568 189.248 107.568C190.039 107.568 190.639 107.795 191.049 108.25C191.459 108.704 191.665 109.26 191.665 109.919C191.665 110.579 191.459 111.128 191.049 111.567C190.639 112.007 190.039 112.227 189.248 112.227C188.457 112.227 187.856 112.007 187.446 111.567C187.05 111.128 186.853 110.579 186.853 109.919Z" fill="black"/>
</svg>
