<svg width="217" height="142" viewBox="0 0 217 142" fill="none" xmlns="http://www.w3.org/2000/svg">
<path d="M71.4814 35V14.3677H67.7241V11.2256H71.4814V8.78662C71.4814 6.23779 72.1626 4.26758 73.5249 2.87598C74.8872 1.48438 76.8135 0.788574 79.3037 0.788574C80.2412 0.788574 81.1714 0.913086 82.0942 1.16211L81.8745 4.45801C81.186 4.32617 80.4536 4.26025 79.6772 4.26025C78.3589 4.26025 77.3408 4.64844 76.623 5.4248C75.9053 6.18652 75.5464 7.28516 75.5464 8.7207V11.2256H80.6221V14.3677H75.5464V35H71.4814ZM94.4648 35.4395C91.2422 35.4395 88.6201 34.3848 86.5986 32.2754C84.5771 30.1514 83.5664 27.3169 83.5664 23.772V23.0249C83.5664 20.6665 84.0132 18.5645 84.9067 16.7188C85.8149 14.8584 87.0747 13.4082 88.686 12.3682C90.312 11.3135 92.0698 10.7861 93.9595 10.7861C97.0503 10.7861 99.4526 11.8042 101.167 13.8403C102.88 15.8765 103.737 18.7915 103.737 22.5854V24.2773H87.6313C87.6899 26.6211 88.3711 28.5181 89.6748 29.9683C90.9932 31.4038 92.6631 32.1216 94.6846 32.1216C96.1201 32.1216 97.3359 31.8286 98.332 31.2427C99.3281 30.6567 100.2 29.8804 100.947 28.9136L103.43 30.8472C101.438 33.9087 98.4492 35.4395 94.4648 35.4395ZM93.9595 14.126C92.3188 14.126 90.9419 14.7266 89.8286 15.9277C88.7153 17.1143 88.0269 18.7842 87.7632 20.9375H99.6724V20.6299C99.5552 18.5645 98.9985 16.9678 98.0024 15.8398C97.0063 14.6973 95.6587 14.126 93.9595 14.126ZM112.878 35H108.813V1.25H112.878V35ZM123.82 35H119.755V11.2256H123.82V35ZM119.426 4.91943C119.426 4.26025 119.624 3.70361 120.019 3.24951C120.429 2.79541 121.03 2.56836 121.821 2.56836C122.612 2.56836 123.212 2.79541 123.623 3.24951C124.033 3.70361 124.238 4.26025 124.238 4.91943C124.238 5.57861 124.033 6.12793 123.623 6.56738C123.212 7.00684 122.612 7.22656 121.821 7.22656C121.03 7.22656 120.429 7.00684 120.019 6.56738C119.624 6.12793 119.426 5.57861 119.426 4.91943ZM134.169 31.6821H148.078V35H129.204V32.0117L142.321 14.5874H129.401V11.2256H147.419V14.104L134.169 31.6821ZM15.561 88C15.3267 87.5312 15.1362 86.6963 14.9897 85.4951C13.1001 87.458 10.8442 88.4395 8.22217 88.4395C5.87842 88.4395 3.95215 87.7803 2.44336 86.4619C0.949219 85.1289 0.202148 83.4443 0.202148 81.4082C0.202148 78.9326 1.13965 77.0137 3.01465 75.6514C4.9043 74.2744 7.55566 73.5859 10.9688 73.5859H14.9238V71.7183C14.9238 70.2974 14.499 69.1694 13.6494 68.3345C12.7998 67.4849 11.5474 67.0601 9.89209 67.0601C8.44189 67.0601 7.22607 67.4263 6.24463 68.1587C5.26318 68.8911 4.77246 69.7773 4.77246 70.8174H0.685547C0.685547 69.6309 1.10303 68.4883 1.93799 67.3896C2.7876 66.2764 3.93018 65.3975 5.36572 64.7529C6.81592 64.1084 8.40527 63.7861 10.1338 63.7861C12.873 63.7861 15.019 64.4746 16.5718 65.8516C18.1245 67.2139 18.9302 69.0962 18.9888 71.4985V82.4409C18.9888 84.6235 19.2671 86.3594 19.8237 87.6484V88H15.561ZM8.81543 84.9019C10.0898 84.9019 11.2983 84.5723 12.4409 83.9131C13.5835 83.2539 14.4111 82.397 14.9238 81.3423V76.4644H11.7378C6.75732 76.4644 4.26709 77.9219 4.26709 80.8369C4.26709 82.1113 4.69189 83.1074 5.5415 83.8252C6.39111 84.543 7.48242 84.9019 8.81543 84.9019ZM29.2061 64.2256L29.3379 67.2139C31.1543 64.9287 33.5273 63.7861 36.457 63.7861C41.4814 63.7861 44.0156 66.6206 44.0596 72.2896V88H39.9946V72.2676C39.98 70.5537 39.5845 69.2866 38.8081 68.4663C38.0464 67.646 36.8525 67.2358 35.2266 67.2358C33.9082 67.2358 32.751 67.5874 31.7549 68.2905C30.7588 68.9937 29.9824 69.9165 29.4258 71.0591V88H25.3608V64.2256H29.2061ZM54.6064 88H50.5415V64.2256H54.6064V88ZM50.2119 57.9194C50.2119 57.2603 50.4097 56.7036 50.8052 56.2495C51.2153 55.7954 51.8159 55.5684 52.6069 55.5684C53.3979 55.5684 53.9985 55.7954 54.4087 56.2495C54.8188 56.7036 55.0239 57.2603 55.0239 57.9194C55.0239 58.5786 54.8188 59.1279 54.4087 59.5674C53.9985 60.0068 53.3979 60.2266 52.6069 60.2266C51.8159 60.2266 51.2153 60.0068 50.8052 59.5674C50.4097 59.1279 50.2119 58.5786 50.2119 57.9194ZM68.9766 82.4849L74.8652 64.2256H79.0181L70.4927 88H67.3945L58.7812 64.2256H62.9341L68.9766 82.4849ZM92.4873 88.4395C89.2646 88.4395 86.6426 87.3848 84.6211 85.2754C82.5996 83.1514 81.5889 80.3169 81.5889 76.772V76.0249C81.5889 73.6665 82.0356 71.5645 82.9292 69.7188C83.8374 67.8584 85.0972 66.4082 86.7085 65.3682C88.3345 64.3135 90.0923 63.7861 91.9819 63.7861C95.0728 63.7861 97.4751 64.8042 99.189 66.8403C100.903 68.8765 101.76 71.7915 101.76 75.5854V77.2773H85.6538C85.7124 79.6211 86.3936 81.5181 87.6973 82.9683C89.0156 84.4038 90.6855 85.1216 92.707 85.1216C94.1426 85.1216 95.3584 84.8286 96.3545 84.2427C97.3506 83.6567 98.2222 82.8804 98.9692 81.9136L101.452 83.8472C99.46 86.9087 96.4717 88.4395 92.4873 88.4395ZM91.9819 67.126C90.3413 67.126 88.9644 67.7266 87.8511 68.9277C86.7378 70.1143 86.0493 71.7842 85.7856 73.9375H97.6948V73.6299C97.5776 71.5645 97.021 69.9678 96.0249 68.8398C95.0288 67.6973 93.6812 67.126 91.9819 67.126ZM117.976 67.873C117.36 67.7705 116.694 67.7192 115.976 67.7192C113.31 67.7192 111.501 68.8545 110.549 71.125V88H106.484V64.2256H110.439L110.505 66.9722C111.838 64.8481 113.728 63.7861 116.174 63.7861C116.965 63.7861 117.565 63.8887 117.976 64.0938V67.873ZM135.576 81.6938C135.576 80.5952 135.158 79.7456 134.323 79.145C133.503 78.5298 132.06 78.0024 129.995 77.563C127.944 77.1235 126.311 76.5962 125.095 75.981C123.894 75.3657 123 74.6333 122.414 73.7837C121.843 72.9341 121.557 71.9233 121.557 70.7515C121.557 68.8032 122.377 67.1553 124.018 65.8076C125.673 64.46 127.783 63.7861 130.346 63.7861C133.042 63.7861 135.224 64.4819 136.894 65.8735C138.579 67.2651 139.421 69.0449 139.421 71.2129H135.334C135.334 70.0996 134.858 69.1401 133.906 68.3345C132.968 67.5288 131.782 67.126 130.346 67.126C128.867 67.126 127.709 67.4482 126.875 68.0928C126.04 68.7373 125.622 69.5796 125.622 70.6196C125.622 71.6011 126.01 72.3408 126.787 72.8389C127.563 73.3369 128.962 73.813 130.983 74.2671C133.02 74.7212 134.667 75.2632 135.927 75.8931C137.187 76.5229 138.117 77.2847 138.718 78.1782C139.333 79.0571 139.641 80.1338 139.641 81.4082C139.641 83.5322 138.791 85.2388 137.092 86.5278C135.393 87.8022 133.188 88.4395 130.478 88.4395C128.574 88.4395 126.889 88.1025 125.424 87.4287C123.959 86.7549 122.81 85.8174 121.975 84.6162C121.154 83.4004 120.744 82.0894 120.744 80.6831H124.809C124.882 82.0454 125.424 83.1294 126.435 83.9351C127.46 84.7261 128.808 85.1216 130.478 85.1216C132.016 85.1216 133.247 84.814 134.169 84.1987C135.107 83.5688 135.576 82.7339 135.576 81.6938ZM159.614 88C159.379 87.5312 159.189 86.6963 159.042 85.4951C157.153 87.458 154.897 88.4395 152.275 88.4395C149.931 88.4395 148.005 87.7803 146.496 86.4619C145.002 85.1289 144.255 83.4443 144.255 81.4082C144.255 78.9326 145.192 77.0137 147.067 75.6514C148.957 74.2744 151.608 73.5859 155.021 73.5859H158.977V71.7183C158.977 70.2974 158.552 69.1694 157.702 68.3345C156.853 67.4849 155.6 67.0601 153.945 67.0601C152.495 67.0601 151.279 67.4263 150.297 68.1587C149.316 68.8911 148.825 69.7773 148.825 70.8174H144.738C144.738 69.6309 145.156 68.4883 145.991 67.3896C146.84 66.2764 147.983 65.3975 149.418 64.7529C150.869 64.1084 152.458 63.7861 154.187 63.7861C156.926 63.7861 159.072 64.4746 160.625 65.8516C162.177 67.2139 162.983 69.0962 163.042 71.4985V82.4409C163.042 84.6235 163.32 86.3594 163.876 87.6484V88H159.614ZM152.868 84.9019C154.143 84.9019 155.351 84.5723 156.494 83.9131C157.636 83.2539 158.464 82.397 158.977 81.3423V76.4644H155.791C150.81 76.4644 148.32 77.9219 148.32 80.8369C148.32 82.1113 148.745 83.1074 149.594 83.8252C150.444 84.543 151.535 84.9019 152.868 84.9019ZM180.905 67.873C180.29 67.7705 179.624 67.7192 178.906 67.7192C176.24 67.7192 174.431 68.8545 173.479 71.125V88H169.414V64.2256H173.369L173.435 66.9722C174.768 64.8481 176.657 63.7861 179.104 63.7861C179.895 63.7861 180.495 63.8887 180.905 64.0938V67.873ZM189.079 88H185.014V64.2256H189.079V88ZM184.685 57.9194C184.685 57.2603 184.882 56.7036 185.278 56.2495C185.688 55.7954 186.289 55.5684 187.08 55.5684C187.871 55.5684 188.471 55.7954 188.881 56.2495C189.292 56.7036 189.497 57.2603 189.497 57.9194C189.497 58.5786 189.292 59.1279 188.881 59.5674C188.471 60.0068 187.871 60.2266 187.08 60.2266C186.289 60.2266 185.688 60.0068 185.278 59.5674C184.882 59.1279 184.685 58.5786 184.685 57.9194ZM194.528 75.8931C194.528 73.564 194.982 71.4692 195.891 69.6089C196.813 67.7485 198.088 66.313 199.714 65.3022C201.354 64.2915 203.222 63.7861 205.317 63.7861C208.554 63.7861 211.169 64.9067 213.161 67.1479C215.168 69.3892 216.171 72.3701 216.171 76.0908V76.3765C216.171 78.6909 215.725 80.771 214.831 82.6167C213.952 84.4478 212.685 85.876 211.03 86.9014C209.389 87.9268 207.5 88.4395 205.361 88.4395C202.138 88.4395 199.523 87.3188 197.517 85.0776C195.524 82.8364 194.528 79.8701 194.528 76.1787V75.8931ZM198.615 76.3765C198.615 79.0132 199.223 81.1299 200.439 82.7266C201.669 84.3232 203.31 85.1216 205.361 85.1216C207.426 85.1216 209.067 84.3159 210.283 82.7046C211.499 81.0786 212.106 78.8081 212.106 75.8931C212.106 73.2856 211.484 71.1763 210.239 69.5649C209.008 67.939 207.368 67.126 205.317 67.126C203.31 67.126 201.691 67.9243 200.461 69.521C199.23 71.1177 198.615 73.4028 198.615 76.3765ZM53.2222 134.694C53.2222 133.595 52.8047 132.746 51.9697 132.145C51.1494 131.53 49.7065 131.002 47.6411 130.563C45.5903 130.124 43.957 129.596 42.7412 128.981C41.54 128.366 40.6465 127.633 40.0605 126.784C39.4893 125.934 39.2036 124.923 39.2036 123.751C39.2036 121.803 40.0239 120.155 41.6646 118.808C43.3198 117.46 45.4292 116.786 47.9927 116.786C50.688 116.786 52.8706 117.482 54.5405 118.874C56.2251 120.265 57.0674 122.045 57.0674 124.213H52.9805C52.9805 123.1 52.5044 122.14 51.5522 121.334C50.6147 120.529 49.4282 120.126 47.9927 120.126C46.5132 120.126 45.356 120.448 44.521 121.093C43.686 121.737 43.2686 122.58 43.2686 123.62C43.2686 124.601 43.6567 125.341 44.4331 125.839C45.2095 126.337 46.6084 126.813 48.6299 127.267C50.666 127.721 52.314 128.263 53.5737 128.893C54.8335 129.523 55.7637 130.285 56.3643 131.178C56.9795 132.057 57.2871 133.134 57.2871 134.408C57.2871 136.532 56.4375 138.239 54.7383 139.528C53.0391 140.802 50.8345 141.439 48.1245 141.439C46.2202 141.439 44.5356 141.103 43.0708 140.429C41.606 139.755 40.4561 138.817 39.6211 137.616C38.8008 136.4 38.3906 135.089 38.3906 133.683H42.4556C42.5288 135.045 43.0708 136.129 44.0815 136.935C45.1069 137.726 46.4546 138.122 48.1245 138.122C49.6626 138.122 50.8931 137.814 51.8159 137.199C52.7534 136.569 53.2222 135.734 53.2222 134.694ZM74.0742 120.873C73.459 120.771 72.7925 120.719 72.0747 120.719C69.4087 120.719 67.5996 121.854 66.6475 124.125V141H62.5825V117.226H66.5376L66.6035 119.972C67.9365 117.848 69.8262 116.786 72.2725 116.786C73.0635 116.786 73.6641 116.889 74.0742 117.094V120.873ZM91.6304 141C91.396 140.531 91.2056 139.696 91.0591 138.495C89.1694 140.458 86.9136 141.439 84.2915 141.439C81.9478 141.439 80.0215 140.78 78.5127 139.462C77.0186 138.129 76.2715 136.444 76.2715 134.408C76.2715 131.933 77.209 130.014 79.084 128.651C80.9736 127.274 83.625 126.586 87.0381 126.586H90.9932V124.718C90.9932 123.297 90.5684 122.169 89.7188 121.334C88.8691 120.485 87.6167 120.06 85.9614 120.06C84.5112 120.06 83.2954 120.426 82.314 121.159C81.3325 121.891 80.8418 122.777 80.8418 123.817H76.7549C76.7549 122.631 77.1724 121.488 78.0073 120.39C78.8569 119.276 79.9995 118.397 81.4351 117.753C82.8853 117.108 84.4746 116.786 86.2031 116.786C88.9424 116.786 91.0884 117.475 92.6411 118.852C94.1938 120.214 94.9995 122.096 95.0581 124.499V135.441C95.0581 137.624 95.3364 139.359 95.8931 140.648V141H91.6304ZM84.8848 137.902C86.1592 137.902 87.3677 137.572 88.5103 136.913C89.6528 136.254 90.4805 135.397 90.9932 134.342V129.464H87.8071C82.8267 129.464 80.3364 130.922 80.3364 133.837C80.3364 135.111 80.7612 136.107 81.6108 136.825C82.4604 137.543 83.5518 137.902 84.8848 137.902ZM108.923 135.485L114.812 117.226H118.964L110.439 141H107.341L98.7275 117.226H102.88L108.923 135.485ZM137.202 141C136.967 140.531 136.777 139.696 136.63 138.495C134.741 140.458 132.485 141.439 129.863 141.439C127.519 141.439 125.593 140.78 124.084 139.462C122.59 138.129 121.843 136.444 121.843 134.408C121.843 131.933 122.78 130.014 124.655 128.651C126.545 127.274 129.196 126.586 132.609 126.586H136.564V124.718C136.564 123.297 136.14 122.169 135.29 121.334C134.44 120.485 133.188 120.06 131.533 120.06C130.083 120.06 128.867 120.426 127.885 121.159C126.904 121.891 126.413 122.777 126.413 123.817H122.326C122.326 122.631 122.744 121.488 123.579 120.39C124.428 119.276 125.571 118.397 127.006 117.753C128.457 117.108 130.046 116.786 131.774 116.786C134.514 116.786 136.66 117.475 138.212 118.852C139.765 120.214 140.571 122.096 140.629 124.499V135.441C140.629 137.624 140.908 139.359 141.464 140.648V141H137.202ZM130.456 137.902C131.73 137.902 132.939 137.572 134.082 136.913C135.224 136.254 136.052 135.397 136.564 134.342V129.464H133.378C128.398 129.464 125.908 130.922 125.908 133.837C125.908 135.111 126.333 136.107 127.182 136.825C128.032 137.543 129.123 137.902 130.456 137.902ZM150.847 117.226L150.979 120.214C152.795 117.929 155.168 116.786 158.098 116.786C163.122 116.786 165.656 119.621 165.7 125.29V141H161.635V125.268C161.621 123.554 161.225 122.287 160.449 121.466C159.687 120.646 158.493 120.236 156.867 120.236C155.549 120.236 154.392 120.587 153.396 121.291C152.399 121.994 151.623 122.917 151.066 124.059V141H147.001V117.226H150.847ZM176.247 141H172.182V117.226H176.247V141ZM171.853 110.919C171.853 110.26 172.05 109.704 172.446 109.25C172.856 108.795 173.457 108.568 174.248 108.568C175.039 108.568 175.639 108.795 176.049 109.25C176.459 109.704 176.665 110.26 176.665 110.919C176.665 111.579 176.459 112.128 176.049 112.567C175.639 113.007 175.039 113.227 174.248 113.227C173.457 113.227 172.856 113.007 172.446 112.567C172.05 112.128 171.853 111.579 171.853 110.919Z" fill="black"/>
</svg>
