<svg width="142" height="141" viewBox="0 0 142 141" fill="none" xmlns="http://www.w3.org/2000/svg">
<path d="M4.75244 34H0.6875V0.25H4.75244V34ZM25.9561 34C25.7217 33.5312 25.5312 32.6963 25.3848 31.4951C23.4951 33.458 21.2393 34.4395 18.6172 34.4395C16.2734 34.4395 14.3472 33.7803 12.8384 32.4619C11.3442 31.1289 10.5972 29.4443 10.5972 27.4082C10.5972 24.9326 11.5347 23.0137 13.4097 21.6514C15.2993 20.2744 17.9507 19.5859 21.3638 19.5859H25.3188V17.7183C25.3188 16.2974 24.894 15.1694 24.0444 14.3345C23.1948 13.4849 21.9424 13.0601 20.2871 13.0601C18.8369 13.0601 17.6211 13.4263 16.6396 14.1587C15.6582 14.8911 15.1675 15.7773 15.1675 16.8174H11.0806C11.0806 15.6309 11.498 14.4883 12.333 13.3896C13.1826 12.2764 14.3252 11.3975 15.7607 10.7529C17.2109 10.1084 18.8003 9.78613 20.5288 9.78613C23.2681 9.78613 25.4141 10.4746 26.9668 11.8516C28.5195 13.2139 29.3252 15.0962 29.3838 17.4985V28.4409C29.3838 30.6235 29.6621 32.3594 30.2188 33.6484V34H25.9561ZM19.2104 30.9019C20.4849 30.9019 21.6934 30.5723 22.8359 29.9131C23.9785 29.2539 24.8062 28.397 25.3188 27.3423V22.4644H22.1328C17.1523 22.4644 14.6621 23.9219 14.6621 26.8369C14.6621 28.1113 15.0869 29.1074 15.9365 29.8252C16.7861 30.543 17.8774 30.9019 19.2104 30.9019ZM50.7412 10.2256L50.8511 12.8623C52.5942 10.8115 54.9453 9.78613 57.9043 9.78613C61.2295 9.78613 63.4927 11.0605 64.6938 13.6094C65.4849 12.4668 66.5103 11.5439 67.77 10.8408C69.0444 10.1377 70.5459 9.78613 72.2744 9.78613C77.4893 9.78613 80.1406 12.5474 80.2285 18.0698V34H76.1636V18.3115C76.1636 16.6123 75.7754 15.3452 74.999 14.5103C74.2227 13.6606 72.9189 13.2358 71.0879 13.2358C69.5791 13.2358 68.3267 13.6899 67.3306 14.5981C66.3345 15.4917 65.7559 16.7002 65.5947 18.2236V34H61.5078V18.4214C61.5078 14.9644 59.8159 13.2358 56.4321 13.2358C53.7661 13.2358 51.9424 14.3711 50.9609 16.6416V34H46.896V10.2256H50.7412ZM101.059 31.6489C99.4766 33.5093 97.1548 34.4395 94.0933 34.4395C91.5591 34.4395 89.6255 33.707 88.2925 32.2422C86.9741 30.7627 86.3076 28.5801 86.293 25.6943V10.2256H90.3579V25.5845C90.3579 29.188 91.8228 30.9897 94.7524 30.9897C97.8579 30.9897 99.9233 29.8325 100.949 27.5181V10.2256H105.014V34H101.146L101.059 31.6489ZM115.626 34H111.562V0.25H115.626V34ZM127.667 4.46875V10.2256H132.106V13.3677H127.667V28.1113C127.667 29.0635 127.865 29.7812 128.261 30.2646C128.656 30.7334 129.33 30.9678 130.282 30.9678C130.751 30.9678 131.396 30.8799 132.216 30.7041V34C131.146 34.293 130.106 34.4395 129.096 34.4395C127.279 34.4395 125.91 33.8901 124.987 32.7915C124.064 31.6929 123.603 30.1328 123.603 28.1113V13.3677H119.274V10.2256H123.603V4.46875H127.667ZM141.291 34H137.226V10.2256H141.291V34ZM136.896 3.91943C136.896 3.26025 137.094 2.70361 137.489 2.24951C137.899 1.79541 138.5 1.56836 139.291 1.56836C140.082 1.56836 140.683 1.79541 141.093 2.24951C141.503 2.70361 141.708 3.26025 141.708 3.91943C141.708 4.57861 141.503 5.12793 141.093 5.56738C140.683 6.00684 140.082 6.22656 139.291 6.22656C138.5 6.22656 137.899 6.00684 137.489 5.56738C137.094 5.12793 136.896 4.57861 136.896 3.91943ZM54.2129 87C53.9785 86.5312 53.7881 85.6963 53.6416 84.4951C51.752 86.458 49.4961 87.4395 46.874 87.4395C44.5303 87.4395 42.604 86.7803 41.0952 85.4619C39.6011 84.1289 38.854 82.4443 38.854 80.4082C38.854 77.9326 39.7915 76.0137 41.6665 74.6514C43.5562 73.2744 46.2075 72.5859 49.6206 72.5859H53.5757V70.7183C53.5757 69.2974 53.1509 68.1694 52.3013 67.3345C51.4517 66.4849 50.1992 66.0601 48.5439 66.0601C47.0938 66.0601 45.8779 66.4263 44.8965 67.1587C43.915 67.8911 43.4243 68.7773 43.4243 69.8174H39.3374C39.3374 68.6309 39.7549 67.4883 40.5898 66.3896C41.4395 65.2764 42.582 64.3975 44.0176 63.7529C45.4678 63.1084 47.0571 62.7861 48.7856 62.7861C51.5249 62.7861 53.6709 63.4746 55.2236 64.8516C56.7764 66.2139 57.582 68.0962 57.6406 70.4985V81.4409C57.6406 83.6235 57.9189 85.3594 58.4756 86.6484V87H54.2129ZM47.4673 83.9019C48.7417 83.9019 49.9502 83.5723 51.0928 82.9131C52.2354 82.2539 53.063 81.397 53.5757 80.3423V75.4644H50.3896C45.4092 75.4644 42.9189 76.9219 42.9189 79.8369C42.9189 81.1113 43.3438 82.1074 44.1934 82.8252C45.043 83.543 46.1343 83.9019 47.4673 83.9019ZM67.8579 63.2256L67.9897 66.2139C69.8062 63.9287 72.1792 62.7861 75.1089 62.7861C80.1333 62.7861 82.6675 65.6206 82.7114 71.2896V87H78.6465V71.2676C78.6318 69.5537 78.2363 68.2866 77.46 67.4663C76.6982 66.646 75.5044 66.2358 73.8784 66.2358C72.5601 66.2358 71.4028 66.5874 70.4067 67.2905C69.4106 67.9937 68.6343 68.9165 68.0776 70.0591V87H64.0127V63.2256H67.8579ZM93.2583 87H89.1934V63.2256H93.2583V87ZM88.8638 56.9194C88.8638 56.2603 89.0615 55.7036 89.457 55.2495C89.8672 54.7954 90.4678 54.5684 91.2588 54.5684C92.0498 54.5684 92.6504 54.7954 93.0605 55.2495C93.4707 55.7036 93.6758 56.2603 93.6758 56.9194C93.6758 57.5786 93.4707 58.1279 93.0605 58.5674C92.6504 59.0068 92.0498 59.2266 91.2588 59.2266C90.4678 59.2266 89.8672 59.0068 89.457 58.5674C89.0615 58.1279 88.8638 57.5786 88.8638 56.9194ZM99.6523 93.3721L97.3452 91.79C98.7222 89.8711 99.4399 87.8936 99.4985 85.8574V82.188H103.476V85.374C103.476 86.8535 103.109 88.333 102.377 89.8125C101.659 91.292 100.751 92.4785 99.6523 93.3721ZM16.2222 133.694C16.2222 132.595 15.8047 131.746 14.9697 131.145C14.1494 130.53 12.7065 130.002 10.6411 129.563C8.59033 129.124 6.95703 128.596 5.74121 127.981C4.54004 127.366 3.64648 126.633 3.06055 125.784C2.48926 124.934 2.20361 123.923 2.20361 122.751C2.20361 120.803 3.02393 119.155 4.66455 117.808C6.31982 116.46 8.4292 115.786 10.9927 115.786C13.688 115.786 15.8706 116.482 17.5405 117.874C19.2251 119.265 20.0674 121.045 20.0674 123.213H15.9805C15.9805 122.1 15.5044 121.14 14.5522 120.334C13.6147 119.529 12.4282 119.126 10.9927 119.126C9.51318 119.126 8.35596 119.448 7.521 120.093C6.68604 120.737 6.26855 121.58 6.26855 122.62C6.26855 123.601 6.65674 124.341 7.43311 124.839C8.20947 125.337 9.6084 125.813 11.6299 126.267C13.666 126.721 15.314 127.263 16.5737 127.893C17.8335 128.523 18.7637 129.285 19.3643 130.178C19.9795 131.057 20.2871 132.134 20.2871 133.408C20.2871 135.532 19.4375 137.239 17.7383 138.528C16.0391 139.802 13.8345 140.439 11.1245 140.439C9.22021 140.439 7.53564 140.103 6.0708 139.429C4.60596 138.755 3.45605 137.817 2.62109 136.616C1.80078 135.4 1.39062 134.089 1.39062 132.683H5.45557C5.52881 134.045 6.0708 135.129 7.08154 135.935C8.10693 136.726 9.45459 137.122 11.1245 137.122C12.6626 137.122 13.8931 136.814 14.8159 136.199C15.7534 135.569 16.2222 134.734 16.2222 133.694ZM37.0742 119.873C36.459 119.771 35.7925 119.719 35.0747 119.719C32.4087 119.719 30.5996 120.854 29.6475 123.125V140H25.5825V116.226H29.5376L29.6035 118.972C30.9365 116.848 32.8262 115.786 35.2725 115.786C36.0635 115.786 36.6641 115.889 37.0742 116.094V119.873ZM54.6304 140C54.396 139.531 54.2056 138.696 54.0591 137.495C52.1694 139.458 49.9136 140.439 47.2915 140.439C44.9478 140.439 43.0215 139.78 41.5127 138.462C40.0186 137.129 39.2715 135.444 39.2715 133.408C39.2715 130.933 40.209 129.014 42.084 127.651C43.9736 126.274 46.625 125.586 50.0381 125.586H53.9932V123.718C53.9932 122.297 53.5684 121.169 52.7188 120.334C51.8691 119.485 50.6167 119.06 48.9614 119.06C47.5112 119.06 46.2954 119.426 45.314 120.159C44.3325 120.891 43.8418 121.777 43.8418 122.817H39.7549C39.7549 121.631 40.1724 120.488 41.0073 119.39C41.8569 118.276 42.9995 117.397 44.4351 116.753C45.8853 116.108 47.4746 115.786 49.2031 115.786C51.9424 115.786 54.0884 116.475 55.6411 117.852C57.1938 119.214 57.9995 121.096 58.0581 123.499V134.441C58.0581 136.624 58.3364 138.359 58.8931 139.648V140H54.6304ZM47.8848 136.902C49.1592 136.902 50.3677 136.572 51.5103 135.913C52.6528 135.254 53.4805 134.397 53.9932 133.342V128.464H50.8071C45.8267 128.464 43.3364 129.922 43.3364 132.837C43.3364 134.111 43.7612 135.107 44.6108 135.825C45.4604 136.543 46.5518 136.902 47.8848 136.902ZM71.9229 134.485L77.8115 116.226H81.9644L73.439 140H70.3408L61.7275 116.226H65.8804L71.9229 134.485ZM100.202 140C99.9673 139.531 99.7769 138.696 99.6304 137.495C97.7407 139.458 95.4849 140.439 92.8628 140.439C90.519 140.439 88.5928 139.78 87.084 138.462C85.5898 137.129 84.8428 135.444 84.8428 133.408C84.8428 130.933 85.7803 129.014 87.6553 127.651C89.5449 126.274 92.1963 125.586 95.6094 125.586H99.5645V123.718C99.5645 122.297 99.1396 121.169 98.29 120.334C97.4404 119.485 96.188 119.06 94.5327 119.06C93.0825 119.06 91.8667 119.426 90.8853 120.159C89.9038 120.891 89.4131 121.777 89.4131 122.817H85.3262C85.3262 121.631 85.7437 120.488 86.5786 119.39C87.4282 118.276 88.5708 117.397 90.0063 116.753C91.4565 116.108 93.0459 115.786 94.7744 115.786C97.5137 115.786 99.6597 116.475 101.212 117.852C102.765 119.214 103.571 121.096 103.629 123.499V134.441C103.629 136.624 103.908 138.359 104.464 139.648V140H100.202ZM93.4561 136.902C94.7305 136.902 95.939 136.572 97.0815 135.913C98.2241 135.254 99.0518 134.397 99.5645 133.342V128.464H96.3784C91.3979 128.464 88.9077 129.922 88.9077 132.837C88.9077 134.111 89.3325 135.107 90.1821 135.825C91.0317 136.543 92.123 136.902 93.4561 136.902ZM113.847 116.226L113.979 119.214C115.795 116.929 118.168 115.786 121.098 115.786C126.122 115.786 128.656 118.621 128.7 124.29V140H124.635V124.268C124.621 122.554 124.225 121.287 123.449 120.466C122.687 119.646 121.493 119.236 119.867 119.236C118.549 119.236 117.392 119.587 116.396 120.291C115.399 120.994 114.623 121.917 114.066 123.059V140H110.001V116.226H113.847ZM139.247 140H135.182V116.226H139.247V140ZM134.853 109.919C134.853 109.26 135.05 108.704 135.446 108.25C135.856 107.795 136.457 107.568 137.248 107.568C138.039 107.568 138.639 107.795 139.049 108.25C139.459 108.704 139.665 109.26 139.665 109.919C139.665 110.579 139.459 111.128 139.049 111.567C138.639 112.007 138.039 112.227 137.248 112.227C136.457 112.227 135.856 112.007 135.446 111.567C135.05 111.128 134.853 110.579 134.853 109.919Z" fill="black"/>
</svg>
