<svg width="217" height="141" viewBox="0 0 217 141" fill="none" xmlns="http://www.w3.org/2000/svg">
<path d="M48.0586 22.1216C49.5088 22.1216 50.7759 21.6821 51.8599 20.8032C52.9438 19.9243 53.5444 18.8257 53.6616 17.5073H57.5068C57.4336 18.8696 56.9648 20.166 56.1006 21.3965C55.2363 22.627 54.0791 23.6084 52.6289 24.3408C51.1934 25.0732 49.6699 25.4395 48.0586 25.4395C44.8213 25.4395 42.2432 24.3628 40.3242 22.2095C38.4199 20.0415 37.4678 17.0825 37.4678 13.3325V12.6514C37.4678 10.3369 37.8926 8.27881 38.7422 6.47705C39.5918 4.67529 40.8076 3.27637 42.3896 2.28027C43.9863 1.28418 45.8687 0.786133 48.0366 0.786133C50.7026 0.786133 52.9146 1.58447 54.6724 3.18115C56.4448 4.77783 57.3896 6.85059 57.5068 9.39941H53.6616C53.5444 7.86133 52.9585 6.60156 51.9038 5.62012C50.8638 4.62402 49.5747 4.12598 48.0366 4.12598C45.9712 4.12598 44.3672 4.87305 43.2246 6.36719C42.0967 7.84668 41.5327 9.99268 41.5327 12.8052V13.5742C41.5327 16.3135 42.0967 18.4229 43.2246 19.9023C44.3525 21.3818 45.9639 22.1216 48.0586 22.1216ZM73.0415 21.6821L74.4478 19.9463C76.0298 17.8955 76.9307 14.8193 77.1504 10.7178L77.5239 1.22559H92.8389V21.6821H95.8931V31.9873H91.8281V25H75.2388V31.9873H71.1738L71.1958 21.6821H73.0415ZM77.8535 21.6821H88.7739V4.98291H81.457L81.2153 10.6519C80.9663 15.3833 79.8457 19.0601 77.8535 21.6821ZM119.821 25H115.756V14.8486H104.836V25H100.749V1.22559H104.836V11.5308H115.756V1.22559H119.821V25ZM136.235 25.4395C133.012 25.4395 130.39 24.3848 128.369 22.2754C126.347 20.1514 125.336 17.3169 125.336 13.772V13.0249C125.336 10.6665 125.783 8.56445 126.677 6.71875C127.585 4.8584 128.845 3.4082 130.456 2.36816C132.082 1.31348 133.84 0.786133 135.729 0.786133C138.82 0.786133 141.223 1.8042 142.937 3.84033C144.65 5.87646 145.507 8.7915 145.507 12.5854V14.2773H129.401C129.46 16.6211 130.141 18.5181 131.445 19.9683C132.763 21.4038 134.433 22.1216 136.455 22.1216C137.89 22.1216 139.106 21.8286 140.102 21.2427C141.098 20.6567 141.97 19.8804 142.717 18.9136L145.2 20.8472C143.208 23.9087 140.219 25.4395 136.235 25.4395ZM135.729 4.12598C134.089 4.12598 132.712 4.72656 131.599 5.92773C130.485 7.11426 129.797 8.78418 129.533 10.9375H141.442V10.6299C141.325 8.56445 140.769 6.96777 139.772 5.83984C138.776 4.69727 137.429 4.12598 135.729 4.12598ZM163.92 19.6167L172.006 1.22559H177.082V25H173.017V7.70752L165.327 25H162.514L154.67 7.33398V25H150.605V1.22559H155.878L163.92 19.6167ZM20.4609 66.3765C20.4609 69.9946 19.6333 72.9097 17.978 75.1216C16.3228 77.3335 14.0815 78.4395 11.2544 78.4395C8.36865 78.4395 6.09814 77.5239 4.44287 75.6929V87.1406H0.37793V54.2256H4.09131L4.28906 56.8623C5.94434 54.8115 8.24414 53.7861 11.1885 53.7861C14.0449 53.7861 16.3008 54.8628 17.9561 57.0161C19.626 59.1694 20.4609 62.165 20.4609 66.0029V66.3765ZM16.396 65.915C16.396 63.2344 15.8247 61.1177 14.6821 59.5649C13.5396 58.0122 11.9722 57.2358 9.97998 57.2358C7.51904 57.2358 5.67334 58.3271 4.44287 60.5098V71.8696C5.65869 74.0376 7.51904 75.1216 10.0239 75.1216C11.9722 75.1216 13.5176 74.3525 14.6602 72.8145C15.8174 71.2617 16.396 68.9619 16.396 65.915ZM24.5698 65.8931C24.5698 63.564 25.0239 61.4692 25.9321 59.6089C26.855 57.7485 28.1294 56.313 29.7554 55.3022C31.396 54.2915 33.2637 53.7861 35.3584 53.7861C38.5957 53.7861 41.2104 54.9067 43.2026 57.1479C45.2095 59.3892 46.2129 62.3701 46.2129 66.0908V66.3765C46.2129 68.6909 45.7661 70.771 44.8726 72.6167C43.9937 74.4478 42.7266 75.876 41.0713 76.9014C39.4307 77.9268 37.541 78.4395 35.4023 78.4395C32.1797 78.4395 29.5649 77.3188 27.5581 75.0776C25.5659 72.8364 24.5698 69.8701 24.5698 66.1787V65.8931ZM28.6567 66.3765C28.6567 69.0132 29.2646 71.1299 30.4805 72.7266C31.7109 74.3232 33.3516 75.1216 35.4023 75.1216C37.4678 75.1216 39.1084 74.3159 40.3242 72.7046C41.54 71.0786 42.1479 68.8081 42.1479 65.8931C42.1479 63.2856 41.5254 61.1763 40.2803 59.5649C39.0498 57.939 37.4092 57.126 35.3584 57.126C33.3516 57.126 31.7329 57.9243 30.5024 59.521C29.272 61.1177 28.6567 63.4028 28.6567 66.3765ZM69.7896 67.6729H66.9331V78H62.8682V67.6729H60.0117L53.354 78H48.2124L56.7158 65.6953L49.0254 54.2256H53.9473L60.0776 64.0693H62.8682V54.2256H66.9331V64.0693H69.7017L75.876 54.2256H80.7979L73.0854 65.7173L81.5889 78H76.4473L69.7896 67.6729ZM85.0825 74.6821L86.4888 72.9463C88.0708 70.8955 88.9717 67.8193 89.1914 63.7178L89.5649 54.2256H104.88V74.6821H107.934V84.9873H103.869V78H87.2798V84.9873H83.2148L83.2368 74.6821H85.0825ZM89.8945 74.6821H100.815V57.9829H93.498L93.2563 63.6519C93.0073 68.3833 91.8867 72.0601 89.8945 74.6821ZM122.304 78.4395C119.082 78.4395 116.459 77.3848 114.438 75.2754C112.417 73.1514 111.406 70.3169 111.406 66.772V66.0249C111.406 63.6665 111.853 61.5645 112.746 59.7188C113.654 57.8584 114.914 56.4082 116.525 55.3682C118.151 54.3135 119.909 53.7861 121.799 53.7861C124.89 53.7861 127.292 54.8042 129.006 56.8403C130.72 58.8765 131.577 61.7915 131.577 65.5854V67.2773H115.471C115.529 69.6211 116.21 71.5181 117.514 72.9683C118.833 74.4038 120.502 75.1216 122.524 75.1216C123.959 75.1216 125.175 74.8286 126.171 74.2427C127.167 73.6567 128.039 72.8804 128.786 71.9136L131.269 73.8472C129.277 76.9087 126.289 78.4395 122.304 78.4395ZM121.799 57.126C120.158 57.126 118.781 57.7266 117.668 58.9277C116.555 60.1143 115.866 61.7842 115.603 63.9375H127.512V63.6299C127.395 61.5645 126.838 59.9678 125.842 58.8398C124.846 57.6973 123.498 57.126 121.799 57.126ZM155.725 78H151.66V67.8486H140.739V78H136.652V54.2256H140.739V64.5308H151.66V54.2256H155.725V78ZM177.653 54.2256H181.718V78H177.653V60.6636L166.689 78H162.624V54.2256H166.689V71.584L177.653 54.2256ZM206.416 54.2256V78H202.329V68.7495H196.198L190.595 78H186.201L192.177 68.1343C190.654 67.5776 189.482 66.7207 188.662 65.5635C187.856 64.3916 187.453 63.0293 187.453 61.4766C187.453 59.3086 188.266 57.5654 189.892 56.2471C191.518 54.9141 193.693 54.2402 196.418 54.2256H206.416ZM191.54 61.5205C191.54 62.6777 191.936 63.6152 192.727 64.333C193.518 65.0361 194.565 65.395 195.869 65.4097H202.329V57.5215H196.484C194.975 57.5215 193.774 57.895 192.88 58.6421C191.987 59.3745 191.54 60.334 191.54 61.5205ZM212.81 84.3721L210.502 82.79C211.879 80.8711 212.597 78.8936 212.656 76.8574V73.188H216.633V76.374C216.633 77.8535 216.267 79.333 215.534 80.8125C214.816 82.292 213.908 83.4785 212.81 84.3721ZM21.3838 107.226V127.682H30.085V107.226H34.1499V127.682H42.8291V107.226H46.916V131H17.2969V107.226H21.3838ZM73.415 119.376C73.415 122.995 72.5874 125.91 70.9321 128.122C69.2769 130.333 67.0356 131.439 64.2085 131.439C61.3228 131.439 59.0522 130.524 57.397 128.693V140.141H53.332V107.226H57.0454L57.2432 109.862C58.8984 107.812 61.1982 106.786 64.1426 106.786C66.999 106.786 69.2549 107.863 70.9102 110.016C72.5801 112.169 73.415 115.165 73.415 119.003V119.376ZM69.3501 118.915C69.3501 116.234 68.7788 114.118 67.6362 112.565C66.4937 111.012 64.9263 110.236 62.9341 110.236C60.4731 110.236 58.6274 111.327 57.397 113.51V124.87C58.6128 127.038 60.4731 128.122 62.978 128.122C64.9263 128.122 66.4717 127.353 67.6143 125.814C68.7715 124.262 69.3501 121.962 69.3501 118.915ZM93.2783 131C93.0439 130.531 92.8535 129.696 92.707 128.495C90.8174 130.458 88.5615 131.439 85.9395 131.439C83.5957 131.439 81.6694 130.78 80.1606 129.462C78.6665 128.129 77.9194 126.444 77.9194 124.408C77.9194 121.933 78.8569 120.014 80.7319 118.651C82.6216 117.274 85.2729 116.586 88.686 116.586H92.6411V114.718C92.6411 113.297 92.2163 112.169 91.3667 111.334C90.5171 110.485 89.2646 110.06 87.6094 110.06C86.1592 110.06 84.9434 110.426 83.9619 111.159C82.9805 111.891 82.4897 112.777 82.4897 113.817H78.4028C78.4028 112.631 78.8203 111.488 79.6553 110.39C80.5049 109.276 81.6475 108.397 83.083 107.753C84.5332 107.108 86.1226 106.786 87.8511 106.786C90.5903 106.786 92.7363 107.475 94.2891 108.852C95.8418 110.214 96.6475 112.096 96.7061 114.499V125.441C96.7061 127.624 96.9844 129.359 97.541 130.648V131H93.2783ZM86.5327 127.902C87.8071 127.902 89.0156 127.572 90.1582 126.913C91.3008 126.254 92.1284 125.397 92.6411 124.342V119.464H89.4551C84.4746 119.464 81.9844 120.922 81.9844 123.837C81.9844 125.111 82.4092 126.107 83.2588 126.825C84.1084 127.543 85.1997 127.902 86.5327 127.902ZM103.452 131V107.226H112.724C115.888 107.226 118.312 107.782 119.997 108.896C121.696 109.994 122.546 111.613 122.546 113.751C122.546 114.85 122.216 115.846 121.557 116.74C120.898 117.619 119.924 118.292 118.635 118.761C120.07 119.098 121.22 119.757 122.084 120.739C122.963 121.72 123.403 122.892 123.403 124.254C123.403 126.437 122.597 128.107 120.986 129.264C119.389 130.421 117.126 131 114.196 131H103.452ZM107.517 120.563V127.726H114.24C115.939 127.726 117.207 127.411 118.042 126.781C118.891 126.151 119.316 125.265 119.316 124.123C119.316 121.75 117.573 120.563 114.086 120.563H107.517ZM107.517 117.311H112.768C116.577 117.311 118.481 116.198 118.481 113.971C118.481 111.745 116.679 110.595 113.076 110.521H107.517V117.311ZM143.464 131C143.229 130.531 143.039 129.696 142.893 128.495C141.003 130.458 138.747 131.439 136.125 131.439C133.781 131.439 131.855 130.78 130.346 129.462C128.852 128.129 128.105 126.444 128.105 124.408C128.105 121.933 129.042 120.014 130.917 118.651C132.807 117.274 135.458 116.586 138.872 116.586H142.827V114.718C142.827 113.297 142.402 112.169 141.552 111.334C140.703 110.485 139.45 110.06 137.795 110.06C136.345 110.06 135.129 110.426 134.147 111.159C133.166 111.891 132.675 112.777 132.675 113.817H128.588C128.588 112.631 129.006 111.488 129.841 110.39C130.69 109.276 131.833 108.397 133.269 107.753C134.719 107.108 136.308 106.786 138.037 106.786C140.776 106.786 142.922 107.475 144.475 108.852C146.027 110.214 146.833 112.096 146.892 114.499V125.441C146.892 127.624 147.17 129.359 147.727 130.648V131H143.464ZM136.718 127.902C137.993 127.902 139.201 127.572 140.344 126.913C141.486 126.254 142.314 125.397 142.827 124.342V119.464H139.641C134.66 119.464 132.17 120.922 132.17 123.837C132.17 125.111 132.595 126.107 133.444 126.825C134.294 127.543 135.385 127.902 136.718 127.902ZM172.688 131H168.623V120.849H157.702V131H153.615V107.226H157.702V117.531H168.623V107.226H172.688V131ZM194.616 107.226H198.681V131H194.616V113.664L183.652 131H179.587V107.226H183.652V124.584L194.616 107.226Z" fill="black"/>
</svg>
