<svg width="252" height="142" viewBox="0 0 252 142" fill="none" xmlns="http://www.w3.org/2000/svg">
<path d="M89.4814 35V14.3677H85.7241V11.2256H89.4814V8.78662C89.4814 6.23779 90.1626 4.26758 91.5249 2.87598C92.8872 1.48438 94.8135 0.788574 97.3037 0.788574C98.2412 0.788574 99.1714 0.913086 100.094 1.16211L99.8745 4.45801C99.186 4.32617 98.4536 4.26025 97.6772 4.26025C96.3589 4.26025 95.3408 4.64844 94.623 5.4248C93.9053 6.18652 93.5464 7.28516 93.5464 8.7207V11.2256H98.6221V14.3677H93.5464V35H89.4814ZM112.465 35.4395C109.242 35.4395 106.62 34.3848 104.599 32.2754C102.577 30.1514 101.566 27.3169 101.566 23.772V23.0249C101.566 20.6665 102.013 18.5645 102.907 16.7188C103.815 14.8584 105.075 13.4082 106.686 12.3682C108.312 11.3135 110.07 10.7861 111.959 10.7861C115.05 10.7861 117.453 11.8042 119.167 13.8403C120.88 15.8765 121.737 18.7915 121.737 22.5854V24.2773H105.631C105.69 26.6211 106.371 28.5181 107.675 29.9683C108.993 31.4038 110.663 32.1216 112.685 32.1216C114.12 32.1216 115.336 31.8286 116.332 31.2427C117.328 30.6567 118.2 29.8804 118.947 28.9136L121.43 30.8472C119.438 33.9087 116.449 35.4395 112.465 35.4395ZM111.959 14.126C110.319 14.126 108.942 14.7266 107.829 15.9277C106.715 17.1143 106.027 18.7842 105.763 20.9375H117.672V20.6299C117.555 18.5645 116.999 16.9678 116.002 15.8398C115.006 14.6973 113.659 14.126 111.959 14.126ZM130.878 35H126.813V1.25H130.878V35ZM141.82 35H137.755V11.2256H141.82V35ZM137.426 4.91943C137.426 4.26025 137.624 3.70361 138.019 3.24951C138.429 2.79541 139.03 2.56836 139.821 2.56836C140.612 2.56836 141.212 2.79541 141.623 3.24951C142.033 3.70361 142.238 4.26025 142.238 4.91943C142.238 5.57861 142.033 6.12793 141.623 6.56738C141.212 7.00684 140.612 7.22656 139.821 7.22656C139.03 7.22656 138.429 7.00684 138.019 6.56738C137.624 6.12793 137.426 5.57861 137.426 4.91943ZM152.169 31.6821H166.078V35H147.204V32.0117L160.321 14.5874H147.401V11.2256H165.419V14.104L152.169 31.6821ZM11.1489 85.1216C12.5991 85.1216 13.8662 84.6821 14.9502 83.8032C16.0342 82.9243 16.6348 81.8257 16.752 80.5073H20.5972C20.5239 81.8696 20.0552 83.166 19.1909 84.3965C18.3267 85.627 17.1694 86.6084 15.7192 87.3408C14.2837 88.0732 12.7603 88.4395 11.1489 88.4395C7.91162 88.4395 5.3335 87.3628 3.41455 85.2095C1.51025 83.0415 0.558105 80.0825 0.558105 76.3325V75.6514C0.558105 73.3369 0.98291 71.2788 1.83252 69.4771C2.68213 67.6753 3.89795 66.2764 5.47998 65.2803C7.07666 64.2842 8.95898 63.7861 11.127 63.7861C13.793 63.7861 16.0049 64.5845 17.7627 66.1812C19.5352 67.7778 20.48 69.8506 20.5972 72.3994H16.752C16.6348 70.8613 16.0488 69.6016 14.9941 68.6201C13.9541 67.624 12.665 67.126 11.127 67.126C9.06152 67.126 7.45752 67.873 6.31494 69.3672C5.18701 70.8467 4.62305 72.9927 4.62305 75.8052V76.5742C4.62305 79.3135 5.18701 81.4229 6.31494 82.9023C7.44287 84.3818 9.0542 85.1216 11.1489 85.1216ZM39.8452 85.6489C38.2632 87.5093 35.9414 88.4395 32.8799 88.4395C30.3457 88.4395 28.4121 87.707 27.0791 86.2422C25.7607 84.7627 25.0942 82.5801 25.0796 79.6943V64.2256H29.1445V79.5845C29.1445 83.188 30.6094 84.9897 33.5391 84.9897C36.6445 84.9897 38.71 83.8325 39.7354 81.5181V64.2256H43.8003V88H39.9331L39.8452 85.6489ZM53.8198 64.2256L53.9297 66.8623C55.6729 64.8115 58.0239 63.7861 60.9829 63.7861C64.3081 63.7861 66.5713 65.0605 67.7725 67.6094C68.5635 66.4668 69.5889 65.5439 70.8486 64.8408C72.123 64.1377 73.6245 63.7861 75.353 63.7861C80.5679 63.7861 83.2192 66.5474 83.3071 72.0698V88H79.2422V72.3115C79.2422 70.6123 78.854 69.3452 78.0776 68.5103C77.3013 67.6606 75.9976 67.2358 74.1665 67.2358C72.6577 67.2358 71.4053 67.6899 70.4092 68.5981C69.4131 69.4917 68.8345 70.7002 68.6733 72.2236V88H64.5864V72.4214C64.5864 68.9644 62.8945 67.2358 59.5107 67.2358C56.8447 67.2358 55.021 68.3711 54.0396 70.6416V88H49.9746V64.2256H53.8198ZM109.542 76.3765C109.542 79.9946 108.715 82.9097 107.06 85.1216C105.404 87.3335 103.163 88.4395 100.336 88.4395C97.4502 88.4395 95.1797 87.5239 93.5244 85.6929V97.1406H89.4595V64.2256H93.1729L93.3706 66.8623C95.0259 64.8115 97.3257 63.7861 100.27 63.7861C103.126 63.7861 105.382 64.8628 107.038 67.0161C108.708 69.1694 109.542 72.165 109.542 76.0029V76.3765ZM105.478 75.915C105.478 73.2344 104.906 71.1177 103.764 69.5649C102.621 68.0122 101.054 67.2358 99.0615 67.2358C96.6006 67.2358 94.7549 68.3271 93.5244 70.5098V81.8696C94.7402 84.0376 96.6006 85.1216 99.1055 85.1216C101.054 85.1216 102.599 84.3525 103.742 82.8145C104.899 81.2617 105.478 78.9619 105.478 75.915ZM119.145 88H115.08V54.25H119.145V88ZM135.536 88.4395C132.313 88.4395 129.691 87.3848 127.67 85.2754C125.648 83.1514 124.638 80.3169 124.638 76.772V76.0249C124.638 73.6665 125.084 71.5645 125.978 69.7188C126.886 67.8584 128.146 66.4082 129.757 65.3682C131.383 64.3135 133.141 63.7861 135.031 63.7861C138.122 63.7861 140.524 64.8042 142.238 66.8403C143.952 68.8765 144.809 71.7915 144.809 75.5854V77.2773H128.703C128.761 79.6211 129.442 81.5181 130.746 82.9683C132.064 84.4038 133.734 85.1216 135.756 85.1216C137.191 85.1216 138.407 84.8286 139.403 84.2427C140.399 83.6567 141.271 82.8804 142.018 81.9136L144.501 83.8472C142.509 86.9087 139.521 88.4395 135.536 88.4395ZM135.031 67.126C133.39 67.126 132.013 67.7266 130.9 68.9277C129.787 70.1143 129.098 71.7842 128.834 73.9375H140.744V73.6299C140.626 71.5645 140.07 69.9678 139.074 68.8398C138.078 67.6973 136.73 67.126 135.031 67.126ZM164.21 88C163.976 87.5312 163.786 86.6963 163.639 85.4951C161.75 87.458 159.494 88.4395 156.872 88.4395C154.528 88.4395 152.602 87.7803 151.093 86.4619C149.599 85.1289 148.852 83.4443 148.852 81.4082C148.852 78.9326 149.789 77.0137 151.664 75.6514C153.554 74.2744 156.205 73.5859 159.618 73.5859H163.573V71.7183C163.573 70.2974 163.148 69.1694 162.299 68.3345C161.449 67.4849 160.197 67.0601 158.542 67.0601C157.091 67.0601 155.875 67.4263 154.894 68.1587C153.913 68.8911 153.422 69.7773 153.422 70.8174H149.335C149.335 69.6309 149.752 68.4883 150.587 67.3896C151.437 66.2764 152.58 65.3975 154.015 64.7529C155.465 64.1084 157.055 63.7861 158.783 63.7861C161.522 63.7861 163.668 64.4746 165.221 65.8516C166.774 67.2139 167.58 69.0962 167.638 71.4985V82.4409C167.638 84.6235 167.917 86.3594 168.473 87.6484V88H164.21ZM157.465 84.9019C158.739 84.9019 159.948 84.5723 161.09 83.9131C162.233 83.2539 163.061 82.397 163.573 81.3423V76.4644H160.387C155.407 76.4644 152.917 77.9219 152.917 80.8369C152.917 82.1113 153.341 83.1074 154.191 83.8252C155.041 84.543 156.132 84.9019 157.465 84.9019ZM177.855 64.2256L177.987 67.2139C179.804 64.9287 182.177 63.7861 185.106 63.7861C190.131 63.7861 192.665 66.6206 192.709 72.2896V88H188.644V72.2676C188.629 70.5537 188.234 69.2866 187.458 68.4663C186.696 67.646 185.502 67.2358 183.876 67.2358C182.558 67.2358 181.4 67.5874 180.404 68.2905C179.408 68.9937 178.632 69.9165 178.075 71.0591V88H174.01V64.2256H177.855ZM191.303 54.9531C191.303 56.5352 190.849 57.8169 189.94 58.7983C189.047 59.7798 187.926 60.2705 186.579 60.2705C185.978 60.2705 185.458 60.1973 185.019 60.0508C184.579 59.9043 184 59.604 183.283 59.1499C182.58 58.6958 182.067 58.4248 181.745 58.3369C181.437 58.2344 181.078 58.1831 180.668 58.1831C180.067 58.1831 179.555 58.4175 179.13 58.8862C178.705 59.3403 178.493 59.9263 178.493 60.644L175.768 60.4902C175.768 58.9229 176.208 57.6265 177.086 56.6011C177.98 55.5757 179.108 55.063 180.47 55.063C180.983 55.063 181.444 55.1362 181.854 55.2827C182.265 55.4292 182.821 55.7148 183.524 56.1396C184.228 56.5645 184.762 56.8428 185.128 56.9746C185.509 57.1064 185.927 57.1724 186.381 57.1724C187.011 57.1724 187.531 56.9233 187.941 56.4253C188.366 55.9272 188.578 55.3486 188.578 54.6895L191.303 54.9531ZM197.763 75.8931C197.763 73.564 198.217 71.4692 199.125 69.6089C200.048 67.7485 201.322 66.313 202.948 65.3022C204.589 64.2915 206.457 63.7861 208.551 63.7861C211.789 63.7861 214.403 64.9067 216.396 67.1479C218.402 69.3892 219.406 72.3701 219.406 76.0908V76.3765C219.406 78.6909 218.959 80.771 218.065 82.6167C217.187 84.4478 215.919 85.876 214.264 86.9014C212.624 87.9268 210.734 88.4395 208.595 88.4395C205.373 88.4395 202.758 87.3188 200.751 85.0776C198.759 82.8364 197.763 79.8701 197.763 76.1787V75.8931ZM201.85 76.3765C201.85 79.0132 202.458 81.1299 203.673 82.7266C204.904 84.3232 206.544 85.1216 208.595 85.1216C210.661 85.1216 212.301 84.3159 213.517 82.7046C214.733 81.0786 215.341 78.8081 215.341 75.8931C215.341 73.2856 214.718 71.1763 213.473 69.5649C212.243 67.939 210.602 67.126 208.551 67.126C206.544 67.126 204.926 67.9243 203.695 69.521C202.465 71.1177 201.85 73.4028 201.85 76.3765ZM238.346 81.6938C238.346 80.5952 237.929 79.7456 237.094 79.145C236.273 78.5298 234.831 78.0024 232.765 77.563C230.714 77.1235 229.081 76.5962 227.865 75.981C226.664 75.3657 225.771 74.6333 225.185 73.7837C224.613 72.9341 224.328 71.9233 224.328 70.7515C224.328 68.8032 225.148 67.1553 226.789 65.8076C228.444 64.46 230.553 63.7861 233.117 63.7861C235.812 63.7861 237.995 64.4819 239.665 65.8735C241.349 67.2651 242.191 69.0449 242.191 71.2129H238.104C238.104 70.0996 237.628 69.1401 236.676 68.3345C235.739 67.5288 234.552 67.126 233.117 67.126C231.637 67.126 230.48 67.4482 229.645 68.0928C228.81 68.7373 228.393 69.5796 228.393 70.6196C228.393 71.6011 228.781 72.3408 229.557 72.8389C230.333 73.3369 231.732 73.813 233.754 74.2671C235.79 74.7212 237.438 75.2632 238.698 75.8931C239.958 76.5229 240.888 77.2847 241.488 78.1782C242.104 79.0571 242.411 80.1338 242.411 81.4082C242.411 83.5322 241.562 85.2388 239.862 86.5278C238.163 87.8022 235.958 88.4395 233.249 88.4395C231.344 88.4395 229.66 88.1025 228.195 87.4287C226.73 86.7549 225.58 85.8174 224.745 84.6162C223.925 83.4004 223.515 82.0894 223.515 80.6831H227.58C227.653 82.0454 228.195 83.1294 229.206 83.9351C230.231 84.7261 231.579 85.1216 233.249 85.1216C234.787 85.1216 236.017 84.814 236.94 84.1987C237.877 83.5688 238.346 82.7339 238.346 81.6938ZM247.575 94.3721L245.268 92.79C246.645 90.8711 247.362 88.8936 247.421 86.8574V83.188H251.398V86.374C251.398 87.8535 251.032 89.333 250.299 90.8125C249.582 92.292 248.673 93.4785 247.575 94.3721ZM71.2222 134.694C71.2222 133.595 70.8047 132.746 69.9697 132.145C69.1494 131.53 67.7065 131.002 65.6411 130.563C63.5903 130.124 61.957 129.596 60.7412 128.981C59.54 128.366 58.6465 127.633 58.0605 126.784C57.4893 125.934 57.2036 124.923 57.2036 123.751C57.2036 121.803 58.0239 120.155 59.6646 118.808C61.3198 117.46 63.4292 116.786 65.9927 116.786C68.688 116.786 70.8706 117.482 72.5405 118.874C74.2251 120.265 75.0674 122.045 75.0674 124.213H70.9805C70.9805 123.1 70.5044 122.14 69.5522 121.334C68.6147 120.529 67.4282 120.126 65.9927 120.126C64.5132 120.126 63.356 120.448 62.521 121.093C61.686 121.737 61.2686 122.58 61.2686 123.62C61.2686 124.601 61.6567 125.341 62.4331 125.839C63.2095 126.337 64.6084 126.813 66.6299 127.267C68.666 127.721 70.314 128.263 71.5737 128.893C72.8335 129.523 73.7637 130.285 74.3643 131.178C74.9795 132.057 75.2871 133.134 75.2871 134.408C75.2871 136.532 74.4375 138.239 72.7383 139.528C71.0391 140.802 68.8345 141.439 66.1245 141.439C64.2202 141.439 62.5356 141.103 61.0708 140.429C59.606 139.755 58.4561 138.817 57.6211 137.616C56.8008 136.4 56.3906 135.089 56.3906 133.683H60.4556C60.5288 135.045 61.0708 136.129 62.0815 136.935C63.1069 137.726 64.4546 138.122 66.1245 138.122C67.6626 138.122 68.8931 137.814 69.8159 137.199C70.7534 136.569 71.2222 135.734 71.2222 134.694ZM92.0742 120.873C91.459 120.771 90.7925 120.719 90.0747 120.719C87.4087 120.719 85.5996 121.854 84.6475 124.125V141H80.5825V117.226H84.5376L84.6035 119.972C85.9365 117.848 87.8262 116.786 90.2725 116.786C91.0635 116.786 91.6641 116.889 92.0742 117.094V120.873ZM109.63 141C109.396 140.531 109.206 139.696 109.059 138.495C107.169 140.458 104.914 141.439 102.292 141.439C99.9478 141.439 98.0215 140.78 96.5127 139.462C95.0186 138.129 94.2715 136.444 94.2715 134.408C94.2715 131.933 95.209 130.014 97.084 128.651C98.9736 127.274 101.625 126.586 105.038 126.586H108.993V124.718C108.993 123.297 108.568 122.169 107.719 121.334C106.869 120.485 105.617 120.06 103.961 120.06C102.511 120.06 101.295 120.426 100.314 121.159C99.3325 121.891 98.8418 122.777 98.8418 123.817H94.7549C94.7549 122.631 95.1724 121.488 96.0073 120.39C96.8569 119.276 97.9995 118.397 99.4351 117.753C100.885 117.108 102.475 116.786 104.203 116.786C106.942 116.786 109.088 117.475 110.641 118.852C112.194 120.214 113 122.096 113.058 124.499V135.441C113.058 137.624 113.336 139.359 113.893 140.648V141H109.63ZM102.885 137.902C104.159 137.902 105.368 137.572 106.51 136.913C107.653 136.254 108.48 135.397 108.993 134.342V129.464H105.807C100.827 129.464 98.3364 130.922 98.3364 133.837C98.3364 135.111 98.7612 136.107 99.6108 136.825C100.46 137.543 101.552 137.902 102.885 137.902ZM126.923 135.485L132.812 117.226H136.964L128.439 141H125.341L116.728 117.226H120.88L126.923 135.485ZM155.202 141C154.967 140.531 154.777 139.696 154.63 138.495C152.741 140.458 150.485 141.439 147.863 141.439C145.519 141.439 143.593 140.78 142.084 139.462C140.59 138.129 139.843 136.444 139.843 134.408C139.843 131.933 140.78 130.014 142.655 128.651C144.545 127.274 147.196 126.586 150.609 126.586H154.564V124.718C154.564 123.297 154.14 122.169 153.29 121.334C152.44 120.485 151.188 120.06 149.533 120.06C148.083 120.06 146.867 120.426 145.885 121.159C144.904 121.891 144.413 122.777 144.413 123.817H140.326C140.326 122.631 140.744 121.488 141.579 120.39C142.428 119.276 143.571 118.397 145.006 117.753C146.457 117.108 148.046 116.786 149.774 116.786C152.514 116.786 154.66 117.475 156.212 118.852C157.765 120.214 158.571 122.096 158.629 124.499V135.441C158.629 137.624 158.908 139.359 159.464 140.648V141H155.202ZM148.456 137.902C149.73 137.902 150.939 137.572 152.082 136.913C153.224 136.254 154.052 135.397 154.564 134.342V129.464H151.378C146.398 129.464 143.908 130.922 143.908 133.837C143.908 135.111 144.333 136.107 145.182 136.825C146.032 137.543 147.123 137.902 148.456 137.902ZM168.847 117.226L168.979 120.214C170.795 117.929 173.168 116.786 176.098 116.786C181.122 116.786 183.656 119.621 183.7 125.29V141H179.635V125.268C179.621 123.554 179.225 122.287 178.449 121.466C177.687 120.646 176.493 120.236 174.867 120.236C173.549 120.236 172.392 120.587 171.396 121.291C170.399 121.994 169.623 122.917 169.066 124.059V141H165.001V117.226H168.847ZM194.247 141H190.182V117.226H194.247V141ZM189.853 110.919C189.853 110.26 190.05 109.704 190.446 109.25C190.856 108.795 191.457 108.568 192.248 108.568C193.039 108.568 193.639 108.795 194.049 109.25C194.459 109.704 194.665 110.26 194.665 110.919C194.665 111.579 194.459 112.128 194.049 112.567C193.639 113.007 193.039 113.227 192.248 113.227C191.457 113.227 190.856 113.007 190.446 112.567C190.05 112.128 189.853 111.579 189.853 110.919Z" fill="black"/>
</svg>
