<svg width="138" height="138" viewBox="0 0 138 138" fill="none" xmlns="http://www.w3.org/2000/svg">
<path d="M69.0235 93.3278C69.0235 94.7026 68.2295 95.9517 66.9871 96.5347C66.5067 96.762 65.9919 96.8719 65.4805 96.8719C64.6707 96.8719 63.8684 96.5934 63.2203 96.0557L43.8557 80H33.5421C31.5862 80.0017 30 78.4138 30 76.4567V62.3363C30 60.3784 31.5862 58.7913 33.5421 58.7913H43.8565L63.2211 42.7356C64.2792 41.8582 65.7463 41.6711 66.9879 42.2583C68.2295 42.8413 69.0243 44.0912 69.0243 45.4652L69.0235 93.3278ZM82.636 87.7896C82.5497 87.7955 82.4667 87.7989 82.3812 87.7989C81.4456 87.7989 80.5435 87.4289 79.877 86.7612L79.4033 86.2856C78.1608 85.0449 78.015 83.0795 79.0612 81.6685C81.7138 78.09 83.1139 73.8479 83.1139 69.3978C83.1139 64.6112 81.5244 60.1217 78.5163 56.414C77.3711 55.0047 77.4767 52.9579 78.7603 51.6744L79.2331 51.2005C79.9407 50.4925 80.8889 50.1066 81.915 50.1678C82.9144 50.2182 83.8475 50.6888 84.4813 51.4639C88.6538 56.5725 90.8579 62.775 90.8579 69.3986C90.8579 75.5675 88.9087 81.4395 85.2199 86.377C84.6037 87.1999 83.6614 87.7167 82.636 87.7896ZM97.2806 98.7426C96.6401 99.5 95.7137 99.9547 94.7219 99.9966C94.6733 99.9983 94.6239 100 94.5736 100C93.6354 100 92.735 99.6292 92.0685 98.9623L91.6032 98.4968C90.3029 97.1965 90.2149 95.117 91.397 93.7094C97.1096 86.9114 100.257 78.2779 100.257 69.3978C100.257 60.1611 96.8874 51.2693 90.7716 44.3605C89.5316 42.9579 89.5945 40.8348 90.9141 39.5094L91.3785 39.0438C92.0677 38.3509 92.963 37.9692 93.99 38.0019C94.9651 38.0296 95.8873 38.4608 96.5353 39.1906C103.928 47.5187 108 58.2477 108 69.3978C108.002 80.1259 104.195 90.5478 97.2806 98.7426Z" fill="#FF73D7"/>
<circle cx="69" cy="69" r="67" stroke="#FF73D7" stroke-width="4"/>
</svg>
