<svg width="273" height="141" viewBox="0 0 273 141" fill="none" xmlns="http://www.w3.org/2000/svg">
<path d="M0.901367 21.915C0.901367 18.2676 1.76562 15.3379 3.49414 13.126C5.22266 10.8994 7.48584 9.78613 10.2837 9.78613C13.0669 9.78613 15.2715 10.7383 16.8975 12.6426V0.25H20.9624V34H17.2271L17.0293 31.4512C15.4033 33.4434 13.1401 34.4395 10.2397 34.4395C7.48584 34.4395 5.2373 33.3115 3.49414 31.0557C1.76562 28.7998 0.901367 25.8555 0.901367 22.2227V21.915ZM4.96631 22.3765C4.96631 25.0718 5.52295 27.1812 6.63623 28.7046C7.74951 30.228 9.2876 30.9897 11.2505 30.9897C13.8286 30.9897 15.7109 29.8325 16.8975 27.5181V16.5977C15.6816 14.3564 13.814 13.2358 11.2944 13.2358C9.30225 13.2358 7.74951 14.0049 6.63623 15.543C5.52295 17.0811 4.96631 19.3589 4.96631 22.3765ZM26.2139 21.8931C26.2139 19.564 26.668 17.4692 27.5762 15.6089C28.499 13.7485 29.7734 12.313 31.3994 11.3022C33.04 10.2915 34.9077 9.78613 37.0024 9.78613C40.2397 9.78613 42.8545 10.9067 44.8467 13.1479C46.8535 15.3892 47.8569 18.3701 47.8569 22.0908V22.3765C47.8569 24.6909 47.4102 26.771 46.5166 28.6167C45.6377 30.4478 44.3706 31.876 42.7153 32.9014C41.0747 33.9268 39.1851 34.4395 37.0464 34.4395C33.8237 34.4395 31.209 33.3188 29.2021 31.0776C27.21 28.8364 26.2139 25.8701 26.2139 22.1787V21.8931ZM30.3008 22.3765C30.3008 25.0132 30.9087 27.1299 32.1245 28.7266C33.355 30.3232 34.9956 31.1216 37.0464 31.1216C39.1118 31.1216 40.7524 30.3159 41.9683 28.7046C43.1841 27.0786 43.792 24.8081 43.792 21.8931C43.792 19.2856 43.1694 17.1763 41.9243 15.5649C40.6938 13.939 39.0532 13.126 37.0024 13.126C34.9956 13.126 33.377 13.9243 32.1465 15.521C30.916 17.1177 30.3008 19.4028 30.3008 22.3765ZM51.9878 21.915C51.9878 18.209 52.8447 15.2646 54.5586 13.082C56.2725 10.8848 58.543 9.78613 61.3701 9.78613C64.2705 9.78613 66.5337 10.8115 68.1597 12.8623L68.3574 10.2256H72.0708V33.4287C72.0708 36.5049 71.1553 38.9292 69.3242 40.7017C67.5078 42.4741 65.0615 43.3604 61.9854 43.3604C60.2715 43.3604 58.5942 42.9941 56.9536 42.2617C55.313 41.5293 54.0605 40.5259 53.1963 39.2515L55.3057 36.8125C57.0488 38.9658 59.1802 40.0425 61.6997 40.0425C63.6772 40.0425 65.2153 39.4858 66.314 38.3726C67.4272 37.2593 67.9839 35.6919 67.9839 33.6704V31.627C66.3579 33.502 64.1387 34.4395 61.3262 34.4395C58.543 34.4395 56.2871 33.3188 54.5586 31.0776C52.8447 28.8364 51.9878 25.7822 51.9878 21.915ZM56.0747 22.3765C56.0747 25.0571 56.624 27.1665 57.7227 28.7046C58.8213 30.228 60.3594 30.9897 62.3369 30.9897C64.9004 30.9897 66.7827 29.8252 67.9839 27.4961V16.6416C66.7388 14.3711 64.8711 13.2358 62.3809 13.2358C60.4033 13.2358 58.8579 14.0049 57.7446 15.543C56.6313 17.0811 56.0747 19.3589 56.0747 22.3765ZM68.687 1.12891C68.687 2.90137 68.0791 4.32959 66.8633 5.41357C65.6621 6.48291 64.0801 7.01758 62.1172 7.01758C60.1543 7.01758 58.5649 6.47559 57.3491 5.3916C56.1333 4.30762 55.5254 2.88672 55.5254 1.12891H58.8433C58.8433 2.1543 59.1216 2.95996 59.6782 3.5459C60.2349 4.11719 61.0479 4.40283 62.1172 4.40283C63.1426 4.40283 63.9409 4.11719 64.5122 3.5459C65.0981 2.97461 65.3911 2.16895 65.3911 1.12891H68.687ZM92.9009 31.6489C91.3188 33.5093 88.9971 34.4395 85.9355 34.4395C83.4014 34.4395 81.4678 33.707 80.1348 32.2422C78.8164 30.7627 78.1499 28.5801 78.1353 25.6943V10.2256H82.2002V25.5845C82.2002 29.188 83.665 30.9897 86.5947 30.9897C89.7002 30.9897 91.7656 29.8325 92.791 27.5181V10.2256H96.856V34H92.9888L92.9009 31.6489ZM106.875 10.2256L106.985 12.8623C108.729 10.8115 111.08 9.78613 114.039 9.78613C117.364 9.78613 119.627 11.0605 120.828 13.6094C121.619 12.4668 122.645 11.5439 123.904 10.8408C125.179 10.1377 126.68 9.78613 128.409 9.78613C133.624 9.78613 136.275 12.5474 136.363 18.0698V34H132.298V18.3115C132.298 16.6123 131.91 15.3452 131.133 14.5103C130.357 13.6606 129.053 13.2358 127.222 13.2358C125.713 13.2358 124.461 13.6899 123.465 14.5981C122.469 15.4917 121.89 16.7002 121.729 18.2236V34H117.642V18.4214C117.642 14.9644 115.95 13.2358 112.566 13.2358C109.9 13.2358 108.077 14.3711 107.095 16.6416V34H103.03V10.2256H106.875ZM152.71 21.915C152.71 18.209 153.567 15.2646 155.281 13.082C156.995 10.8848 159.266 9.78613 162.093 9.78613C164.993 9.78613 167.256 10.8115 168.882 12.8623L169.08 10.2256H172.793V33.4287C172.793 36.5049 171.878 38.9292 170.047 40.7017C168.23 42.4741 165.784 43.3604 162.708 43.3604C160.994 43.3604 159.317 42.9941 157.676 42.2617C156.036 41.5293 154.783 40.5259 153.919 39.2515L156.028 36.8125C157.771 38.9658 159.903 40.0425 162.422 40.0425C164.4 40.0425 165.938 39.4858 167.037 38.3726C168.15 37.2593 168.707 35.6919 168.707 33.6704V31.627C167.081 33.502 164.861 34.4395 162.049 34.4395C159.266 34.4395 157.01 33.3188 155.281 31.0776C153.567 28.8364 152.71 25.7822 152.71 21.915ZM156.797 22.3765C156.797 25.0571 157.347 27.1665 158.445 28.7046C159.544 30.228 161.082 30.9897 163.06 30.9897C165.623 30.9897 167.505 29.8252 168.707 27.4961V16.6416C167.461 14.3711 165.594 13.2358 163.104 13.2358C161.126 13.2358 159.581 14.0049 158.467 15.543C157.354 17.0811 156.797 19.3589 156.797 22.3765ZM193.624 31.6489C192.042 33.5093 189.72 34.4395 186.658 34.4395C184.124 34.4395 182.19 33.707 180.857 32.2422C179.539 30.7627 178.873 28.5801 178.858 25.6943V10.2256H182.923V25.5845C182.923 29.188 184.388 30.9897 187.317 30.9897C190.423 30.9897 192.488 29.8325 193.514 27.5181V10.2256H197.579V34H193.711L193.624 31.6489ZM181.253 3.87549C181.253 3.21631 181.451 2.66699 181.846 2.22754C182.256 1.77344 182.857 1.54639 183.648 1.54639C184.439 1.54639 185.04 1.77344 185.45 2.22754C185.86 2.66699 186.065 3.21631 186.065 3.87549C186.065 4.53467 185.86 5.08398 185.45 5.52344C185.04 5.96289 184.439 6.18262 183.648 6.18262C182.857 6.18262 182.256 5.96289 181.846 5.52344C181.451 5.08398 181.253 4.53467 181.253 3.87549ZM190.701 3.91943C190.701 3.26025 190.899 2.70361 191.294 2.24951C191.705 1.79541 192.305 1.56836 193.096 1.56836C193.887 1.56836 194.488 1.79541 194.898 2.24951C195.308 2.70361 195.513 3.26025 195.513 3.91943C195.513 4.57861 195.308 5.12793 194.898 5.56738C194.488 6.00684 193.887 6.22656 193.096 6.22656C192.305 6.22656 191.705 6.00684 191.294 5.56738C190.899 5.12793 190.701 4.57861 190.701 3.91943ZM207.62 10.2256L207.752 13.2139C209.568 10.9287 211.941 9.78613 214.871 9.78613C219.896 9.78613 222.43 12.6206 222.474 18.2896V34H218.409V18.2676C218.394 16.5537 217.999 15.2866 217.222 14.4663C216.46 13.646 215.267 13.2358 213.641 13.2358C212.322 13.2358 211.165 13.5874 210.169 14.2905C209.173 14.9937 208.396 15.9165 207.84 17.0591V34H203.775V10.2256H207.62ZM243.282 31.6489C241.7 33.5093 239.378 34.4395 236.316 34.4395C233.782 34.4395 231.849 33.707 230.516 32.2422C229.197 30.7627 228.531 28.5801 228.516 25.6943V10.2256H232.581V25.5845C232.581 29.188 234.046 30.9897 236.976 30.9897C240.081 30.9897 242.146 29.8325 243.172 27.5181V10.2256H247.237V34H243.37L243.282 31.6489ZM230.911 3.87549C230.911 3.21631 231.109 2.66699 231.504 2.22754C231.915 1.77344 232.515 1.54639 233.306 1.54639C234.097 1.54639 234.698 1.77344 235.108 2.22754C235.518 2.66699 235.723 3.21631 235.723 3.87549C235.723 4.53467 235.518 5.08398 235.108 5.52344C234.698 5.96289 234.097 6.18262 233.306 6.18262C232.515 6.18262 231.915 5.96289 231.504 5.52344C231.109 5.08398 230.911 4.53467 230.911 3.87549ZM240.359 3.91943C240.359 3.26025 240.557 2.70361 240.953 2.24951C241.363 1.79541 241.963 1.56836 242.754 1.56836C243.545 1.56836 244.146 1.79541 244.556 2.24951C244.966 2.70361 245.171 3.26025 245.171 3.91943C245.171 4.57861 244.966 5.12793 244.556 5.56738C244.146 6.00684 243.545 6.22656 242.754 6.22656C241.963 6.22656 241.363 6.00684 240.953 5.56738C240.557 5.12793 240.359 4.57861 240.359 3.91943ZM257.278 10.2256L257.41 13.2139C259.227 10.9287 261.6 9.78613 264.529 9.78613C269.554 9.78613 272.088 12.6206 272.132 18.2896V34H268.067V18.2676C268.052 16.5537 267.657 15.2866 266.88 14.4663C266.119 13.646 264.925 13.2358 263.299 13.2358C261.98 13.2358 260.823 13.5874 259.827 14.2905C258.831 14.9937 258.055 15.9165 257.498 17.0591V34H253.433V10.2256H257.278ZM32.9155 75.9917L30.3667 78.6504V87H26.3018V53.25H30.3667V73.6626L32.542 71.0479L39.9468 63.2256H44.8906L35.6401 73.1572L45.9673 87H41.1992L32.9155 75.9917ZM63.7651 84.6489C62.1831 86.5093 59.8613 87.4395 56.7998 87.4395C54.2656 87.4395 52.332 86.707 50.999 85.2422C49.6807 83.7627 49.0142 81.5801 48.9995 78.6943V63.2256H53.0645V78.5845C53.0645 82.188 54.5293 83.9897 57.459 83.9897C60.5645 83.9897 62.6299 82.8325 63.6553 80.5181V63.2256H67.7202V87H63.853L63.7651 84.6489ZM79.4316 57.4688V63.2256H83.8701V66.3677H79.4316V81.1113C79.4316 82.0635 79.6294 82.7812 80.0249 83.2646C80.4204 83.7334 81.0942 83.9678 82.0464 83.9678C82.5151 83.9678 83.1597 83.8799 83.98 83.7041V87C82.9106 87.293 81.8706 87.4395 80.8599 87.4395C79.0435 87.4395 77.6738 86.8901 76.751 85.7915C75.8281 84.6929 75.3667 83.1328 75.3667 81.1113V66.3677H71.0381V63.2256H75.3667V57.4688H79.4316ZM93.0547 87H88.9897V53.25H93.0547V87ZM114.258 84.6489C112.676 86.5093 110.354 87.4395 107.293 87.4395C104.759 87.4395 102.825 86.707 101.492 85.2422C100.174 83.7627 99.5073 81.5801 99.4927 78.6943V63.2256H103.558V78.5845C103.558 82.188 105.022 83.9897 107.952 83.9897C111.058 83.9897 113.123 82.8325 114.148 80.5181V63.2256H118.213V87H114.346L114.258 84.6489ZM134.495 74.8931C134.495 72.564 134.949 70.4692 135.857 68.6089C136.78 66.7485 138.055 65.313 139.681 64.3022C141.321 63.2915 143.189 62.7861 145.284 62.7861C148.521 62.7861 151.136 63.9067 153.128 66.1479C155.135 68.3892 156.138 71.3701 156.138 75.0908V75.3765C156.138 77.6909 155.691 79.771 154.798 81.6167C153.919 83.4478 152.652 84.876 150.997 85.9014C149.356 86.9268 147.466 87.4395 145.328 87.4395C142.105 87.4395 139.49 86.3188 137.483 84.0776C135.491 81.8364 134.495 78.8701 134.495 75.1787V74.8931ZM138.582 75.3765C138.582 78.0132 139.19 80.1299 140.406 81.7266C141.636 83.3232 143.277 84.1216 145.328 84.1216C147.393 84.1216 149.034 83.3159 150.25 81.7046C151.465 80.0786 152.073 77.8081 152.073 74.8931C152.073 72.2856 151.451 70.1763 150.206 68.5649C148.975 66.939 147.334 66.126 145.284 66.126C143.277 66.126 141.658 66.9243 140.428 68.521C139.197 70.1177 138.582 72.4028 138.582 75.3765ZM165.652 87H161.587V53.25H165.652V87ZM186.021 80.6938C186.021 79.5952 185.604 78.7456 184.769 78.145C183.948 77.5298 182.505 77.0024 180.44 76.563C178.389 76.1235 176.756 75.5962 175.54 74.981C174.339 74.3657 173.445 73.6333 172.859 72.7837C172.288 71.9341 172.002 70.9233 172.002 69.7515C172.002 67.8032 172.823 66.1553 174.463 64.8076C176.119 63.46 178.228 62.7861 180.792 62.7861C183.487 62.7861 185.669 63.4819 187.339 64.8735C189.024 66.2651 189.866 68.0449 189.866 70.2129H185.779C185.779 69.0996 185.303 68.1401 184.351 67.3345C183.414 66.5288 182.227 66.126 180.792 66.126C179.312 66.126 178.155 66.4482 177.32 67.0928C176.485 67.7373 176.067 68.5796 176.067 69.6196C176.067 70.6011 176.456 71.3408 177.232 71.8389C178.008 72.3369 179.407 72.813 181.429 73.2671C183.465 73.7212 185.113 74.2632 186.373 74.8931C187.632 75.5229 188.562 76.2847 189.163 77.1782C189.778 78.0571 190.086 79.1338 190.086 80.4082C190.086 82.5322 189.236 84.2388 187.537 85.5278C185.838 86.8022 183.633 87.4395 180.923 87.4395C179.019 87.4395 177.334 87.1025 175.87 86.4287C174.405 85.7549 173.255 84.8174 172.42 83.6162C171.6 82.4004 171.189 81.0894 171.189 79.6831H175.254C175.328 81.0454 175.87 82.1294 176.88 82.9351C177.906 83.7261 179.253 84.1216 180.923 84.1216C182.461 84.1216 183.692 83.814 184.615 83.1987C185.552 82.5688 186.021 81.7339 186.021 80.6938ZM210.059 84.6489C208.477 86.5093 206.155 87.4395 203.094 87.4395C200.56 87.4395 198.626 86.707 197.293 85.2422C195.975 83.7627 195.308 81.5801 195.293 78.6943V63.2256H199.358V78.5845C199.358 82.188 200.823 83.9897 203.753 83.9897C206.858 83.9897 208.924 82.8325 209.949 80.5181V63.2256H214.014V87H210.147L210.059 84.6489ZM224.056 63.2256L224.188 66.2139C226.004 63.9287 228.377 62.7861 231.307 62.7861C236.331 62.7861 238.865 65.6206 238.909 71.2896V87H234.844V71.2676C234.83 69.5537 234.434 68.2866 233.658 67.4663C232.896 66.646 231.702 66.2358 230.076 66.2358C228.758 66.2358 227.601 66.5874 226.604 67.2905C225.608 67.9937 224.832 68.9165 224.275 70.0591V87H220.21V63.2256H224.056ZM244.908 93.3721L242.601 91.79C243.978 89.8711 244.695 87.8936 244.754 85.8574V82.188H248.731V85.374C248.731 86.8535 248.365 88.333 247.632 89.8125C246.915 91.292 246.006 92.4785 244.908 93.3721ZM82.2222 133.694C82.2222 132.595 81.8047 131.746 80.9697 131.145C80.1494 130.53 78.7065 130.002 76.6411 129.563C74.5903 129.124 72.957 128.596 71.7412 127.981C70.54 127.366 69.6465 126.633 69.0605 125.784C68.4893 124.934 68.2036 123.923 68.2036 122.751C68.2036 120.803 69.0239 119.155 70.6646 117.808C72.3198 116.46 74.4292 115.786 76.9927 115.786C79.688 115.786 81.8706 116.482 83.5405 117.874C85.2251 119.265 86.0674 121.045 86.0674 123.213H81.9805C81.9805 122.1 81.5044 121.14 80.5522 120.334C79.6147 119.529 78.4282 119.126 76.9927 119.126C75.5132 119.126 74.356 119.448 73.521 120.093C72.686 120.737 72.2686 121.58 72.2686 122.62C72.2686 123.601 72.6567 124.341 73.4331 124.839C74.2095 125.337 75.6084 125.813 77.6299 126.267C79.666 126.721 81.314 127.263 82.5737 127.893C83.8335 128.523 84.7637 129.285 85.3643 130.178C85.9795 131.057 86.2871 132.134 86.2871 133.408C86.2871 135.532 85.4375 137.239 83.7383 138.528C82.0391 139.802 79.8345 140.439 77.1245 140.439C75.2202 140.439 73.5356 140.103 72.0708 139.429C70.606 138.755 69.4561 137.817 68.6211 136.616C67.8008 135.4 67.3906 134.089 67.3906 132.683H71.4556C71.5288 134.045 72.0708 135.129 73.0815 135.935C74.1069 136.726 75.4546 137.122 77.1245 137.122C78.6626 137.122 79.8931 136.814 80.8159 136.199C81.7534 135.569 82.2222 134.734 82.2222 133.694ZM103.074 119.873C102.459 119.771 101.792 119.719 101.075 119.719C98.4087 119.719 96.5996 120.854 95.6475 123.125V140H91.5825V116.226H95.5376L95.6035 118.972C96.9365 116.848 98.8262 115.786 101.272 115.786C102.063 115.786 102.664 115.889 103.074 116.094V119.873ZM120.63 140C120.396 139.531 120.206 138.696 120.059 137.495C118.169 139.458 115.914 140.439 113.292 140.439C110.948 140.439 109.021 139.78 107.513 138.462C106.019 137.129 105.271 135.444 105.271 133.408C105.271 130.933 106.209 129.014 108.084 127.651C109.974 126.274 112.625 125.586 116.038 125.586H119.993V123.718C119.993 122.297 119.568 121.169 118.719 120.334C117.869 119.485 116.617 119.06 114.961 119.06C113.511 119.06 112.295 119.426 111.314 120.159C110.333 120.891 109.842 121.777 109.842 122.817H105.755C105.755 121.631 106.172 120.488 107.007 119.39C107.857 118.276 109 117.397 110.435 116.753C111.885 116.108 113.475 115.786 115.203 115.786C117.942 115.786 120.088 116.475 121.641 117.852C123.194 119.214 124 121.096 124.058 123.499V134.441C124.058 136.624 124.336 138.359 124.893 139.648V140H120.63ZM113.885 136.902C115.159 136.902 116.368 136.572 117.51 135.913C118.653 135.254 119.48 134.397 119.993 133.342V128.464H116.807C111.827 128.464 109.336 129.922 109.336 132.837C109.336 134.111 109.761 135.107 110.611 135.825C111.46 136.543 112.552 136.902 113.885 136.902ZM137.923 134.485L143.812 116.226H147.964L139.439 140H136.341L127.728 116.226H131.88L137.923 134.485ZM166.202 140C165.967 139.531 165.777 138.696 165.63 137.495C163.741 139.458 161.485 140.439 158.863 140.439C156.519 140.439 154.593 139.78 153.084 138.462C151.59 137.129 150.843 135.444 150.843 133.408C150.843 130.933 151.78 129.014 153.655 127.651C155.545 126.274 158.196 125.586 161.609 125.586H165.564V123.718C165.564 122.297 165.14 121.169 164.29 120.334C163.44 119.485 162.188 119.06 160.533 119.06C159.083 119.06 157.867 119.426 156.885 120.159C155.904 120.891 155.413 121.777 155.413 122.817H151.326C151.326 121.631 151.744 120.488 152.579 119.39C153.428 118.276 154.571 117.397 156.006 116.753C157.457 116.108 159.046 115.786 160.774 115.786C163.514 115.786 165.66 116.475 167.212 117.852C168.765 119.214 169.571 121.096 169.629 123.499V134.441C169.629 136.624 169.908 138.359 170.464 139.648V140H166.202ZM159.456 136.902C160.73 136.902 161.939 136.572 163.082 135.913C164.224 135.254 165.052 134.397 165.564 133.342V128.464H162.378C157.398 128.464 154.908 129.922 154.908 132.837C154.908 134.111 155.333 135.107 156.182 135.825C157.032 136.543 158.123 136.902 159.456 136.902ZM179.847 116.226L179.979 119.214C181.795 116.929 184.168 115.786 187.098 115.786C192.122 115.786 194.656 118.621 194.7 124.29V140H190.635V124.268C190.621 122.554 190.225 121.287 189.449 120.466C188.687 119.646 187.493 119.236 185.867 119.236C184.549 119.236 183.392 119.587 182.396 120.291C181.399 120.994 180.623 121.917 180.066 123.059V140H176.001V116.226H179.847ZM205.247 140H201.182V116.226H205.247V140ZM200.853 109.919C200.853 109.26 201.05 108.704 201.446 108.25C201.856 107.795 202.457 107.568 203.248 107.568C204.039 107.568 204.639 107.795 205.049 108.25C205.459 108.704 205.665 109.26 205.665 109.919C205.665 110.579 205.459 111.128 205.049 111.567C204.639 112.007 204.039 112.227 203.248 112.227C202.457 112.227 201.856 112.007 201.446 111.567C201.05 111.128 200.853 110.579 200.853 109.919Z" fill="black"/>
</svg>
