<svg width="266" height="141" viewBox="0 0 266 141" fill="none" xmlns="http://www.w3.org/2000/svg">
<path d="M75.9478 7.72949C75.9478 6.61621 75.5229 5.7373 74.6733 5.09277C73.8237 4.43359 72.6592 4.104 71.1797 4.104C69.7441 4.104 68.543 4.47754 67.5762 5.22461C66.624 5.97168 66.1479 6.85059 66.1479 7.86133H62.105C62.105 5.7959 62.9692 4.104 64.6978 2.78564C66.4263 1.46729 68.5869 0.808105 71.1797 0.808105C73.9629 0.808105 76.1309 1.40869 77.6836 2.60986C79.2363 3.79639 80.0127 5.49561 80.0127 7.70752C80.0127 8.77686 79.6904 9.7583 79.0459 10.6519C78.4014 11.5454 77.4858 12.2559 76.2993 12.7832C79.0679 13.7207 80.4521 15.5664 80.4521 18.3203C80.4521 20.5029 79.6099 22.2314 77.9253 23.5059C76.2407 24.7803 73.9922 25.4175 71.1797 25.4175C68.4404 25.4175 66.1772 24.751 64.3901 23.418C62.6177 22.0703 61.7314 20.2539 61.7314 17.9688H65.7744C65.7744 19.126 66.2871 20.1221 67.3125 20.957C68.3525 21.7773 69.6416 22.1875 71.1797 22.1875C72.7324 22.1875 73.9849 21.8286 74.937 21.1108C75.8892 20.3931 76.3652 19.4629 76.3652 18.3203C76.3652 16.9873 75.9624 16.0352 75.1567 15.4639C74.3657 14.8779 73.1279 14.585 71.4434 14.585H67.3784V11.1572H71.7949C74.5635 11.084 75.9478 9.94141 75.9478 7.72949ZM96.6899 21.6821L98.0962 19.9463C99.6782 17.8955 100.579 14.8193 100.799 10.7178L101.172 1.22559H116.487V21.6821H119.542V31.9873H115.477V25H98.8872V31.9873H94.8223L94.8442 21.6821H96.6899ZM101.502 21.6821H112.422V4.98291H105.105L104.864 10.6519C104.615 15.3833 103.494 19.0601 101.502 21.6821ZM143.47 25H139.405V14.8486H128.484V25H124.397V1.22559H128.484V11.5308H139.405V1.22559H143.47V25ZM159.883 25.4395C156.661 25.4395 154.039 24.3848 152.017 22.2754C149.996 20.1514 148.985 17.3169 148.985 13.772V13.0249C148.985 10.6665 149.432 8.56445 150.325 6.71875C151.233 4.8584 152.493 3.4082 154.104 2.36816C155.73 1.31348 157.488 0.786133 159.378 0.786133C162.469 0.786133 164.871 1.8042 166.585 3.84033C168.299 5.87646 169.156 8.7915 169.156 12.5854V14.2773H153.05C153.108 16.6211 153.79 18.5181 155.093 19.9683C156.412 21.4038 158.082 22.1216 160.103 22.1216C161.539 22.1216 162.754 21.8286 163.75 21.2427C164.747 20.6567 165.618 19.8804 166.365 18.9136L168.848 20.8472C166.856 23.9087 163.868 25.4395 159.883 25.4395ZM159.378 4.12598C157.737 4.12598 156.36 4.72656 155.247 5.92773C154.134 7.11426 153.445 8.78418 153.182 10.9375H165.091V10.6299C164.974 8.56445 164.417 6.96777 163.421 5.83984C162.425 4.69727 161.077 4.12598 159.378 4.12598ZM187.569 19.6167L195.655 1.22559H200.73V25H196.666V7.70752L188.975 25H186.163L178.318 7.33398V25H174.253V1.22559H179.527L187.569 19.6167ZM19.3462 78H15.2812V67.8486H4.36084V78H0.273926V54.2256H4.36084V64.5308H15.2812V54.2256H19.3462V78ZM40.5718 78C40.3374 77.5312 40.147 76.6963 40.0005 75.4951C38.1108 77.458 35.855 78.4395 33.2329 78.4395C30.8892 78.4395 28.9629 77.7803 27.4541 76.4619C25.96 75.1289 25.2129 73.4443 25.2129 71.4082C25.2129 68.9326 26.1504 67.0137 28.0254 65.6514C29.915 64.2744 32.5664 63.5859 35.9795 63.5859H39.9346V61.7183C39.9346 60.2974 39.5098 59.1694 38.6602 58.3345C37.8105 57.4849 36.5581 57.0601 34.9028 57.0601C33.4526 57.0601 32.2368 57.4263 31.2554 58.1587C30.2739 58.8911 29.7832 59.7773 29.7832 60.8174H25.6963C25.6963 59.6309 26.1138 58.4883 26.9487 57.3896C27.7983 56.2764 28.9409 55.3975 30.3765 54.7529C31.8267 54.1084 33.416 53.7861 35.1445 53.7861C37.8838 53.7861 40.0298 54.4746 41.5825 55.8516C43.1353 57.2139 43.9409 59.0962 43.9995 61.4985V72.4409C43.9995 74.6235 44.2778 76.3594 44.8345 77.6484V78H40.5718ZM33.8262 74.9019C35.1006 74.9019 36.3091 74.5723 37.4517 73.9131C38.5942 73.2539 39.4219 72.397 39.9346 71.3423V66.4644H36.7485C31.7681 66.4644 29.2778 67.9219 29.2778 70.8369C29.2778 72.1113 29.7026 73.1074 30.5522 73.8252C31.4019 74.543 32.4932 74.9019 33.8262 74.9019ZM70.4546 66.3765C70.4546 69.9946 69.627 72.9097 67.9717 75.1216C66.3164 77.3335 64.0752 78.4395 61.248 78.4395C58.3623 78.4395 56.0918 77.5239 54.4365 75.6929V87.1406H50.3716V54.2256H54.085L54.2827 56.8623C55.938 54.8115 58.2378 53.7861 61.1821 53.7861C64.0386 53.7861 66.2944 54.8628 67.9497 57.0161C69.6196 59.1694 70.4546 62.165 70.4546 66.0029V66.3765ZM66.3896 65.915C66.3896 63.2344 65.8184 61.1177 64.6758 59.5649C63.5332 58.0122 61.9658 57.2358 59.9736 57.2358C57.5127 57.2358 55.667 58.3271 54.4365 60.5098V71.8696C55.6523 74.0376 57.5127 75.1216 60.0176 75.1216C61.9658 75.1216 63.5112 74.3525 64.6538 72.8145C65.811 71.2617 66.3896 68.9619 66.3896 65.915ZM74.5635 65.8931C74.5635 63.564 75.0176 61.4692 75.9258 59.6089C76.8486 57.7485 78.123 56.313 79.749 55.3022C81.3896 54.2915 83.2573 53.7861 85.3521 53.7861C88.5894 53.7861 91.2041 54.9067 93.1963 57.1479C95.2031 59.3892 96.2065 62.3701 96.2065 66.0908V66.3765C96.2065 68.6909 95.7598 70.771 94.8662 72.6167C93.9873 74.4478 92.7202 75.876 91.0649 76.9014C89.4243 77.9268 87.5347 78.4395 85.396 78.4395C82.1733 78.4395 79.5586 77.3188 77.5518 75.0776C75.5596 72.8364 74.5635 69.8701 74.5635 66.1787V65.8931ZM78.6504 66.3765C78.6504 69.0132 79.2583 71.1299 80.4741 72.7266C81.7046 74.3232 83.3452 75.1216 85.396 75.1216C87.4614 75.1216 89.1021 74.3159 90.3179 72.7046C91.5337 71.0786 92.1416 68.8081 92.1416 65.8931C92.1416 63.2856 91.519 61.1763 90.2739 59.5649C89.0435 57.939 87.4028 57.126 85.3521 57.126C83.3452 57.126 81.7266 57.9243 80.4961 59.521C79.2656 61.1177 78.6504 63.4028 78.6504 66.3765ZM99.5244 74.6821L100.931 72.9463C102.513 70.8955 103.414 67.8193 103.633 63.7178L104.007 54.2256H119.322V74.6821H122.376V84.9873H118.311V78H101.722V84.9873H97.6567L97.6787 74.6821H99.5244ZM104.336 74.6821H115.257V57.9829H107.94L107.698 63.6519C107.449 68.3833 106.329 72.0601 104.336 74.6821ZM145.843 67.6729H142.986V78H138.921V67.6729H136.065L129.407 78H124.266L132.769 65.6953L125.079 54.2256H130L136.131 64.0693H138.921V54.2256H142.986V64.0693H145.755L151.929 54.2256H156.851L149.139 65.7173L157.642 78H152.5L145.843 67.6729ZM170.76 78.4395C167.537 78.4395 164.915 77.3848 162.894 75.2754C160.872 73.1514 159.861 70.3169 159.861 66.772V66.0249C159.861 63.6665 160.308 61.5645 161.202 59.7188C162.11 57.8584 163.37 56.4082 164.981 55.3682C166.607 54.3135 168.365 53.7861 170.254 53.7861C173.345 53.7861 175.748 54.8042 177.461 56.8403C179.175 58.8765 180.032 61.7915 180.032 65.5854V67.2773H163.926C163.985 69.6211 164.666 71.5181 165.97 72.9683C167.288 74.4038 168.958 75.1216 170.979 75.1216C172.415 75.1216 173.631 74.8286 174.627 74.2427C175.623 73.6567 176.495 72.8804 177.242 71.9136L179.725 73.8472C177.732 76.9087 174.744 78.4395 170.76 78.4395ZM170.254 57.126C168.614 57.126 167.237 57.7266 166.124 58.9277C165.01 60.1143 164.322 61.7842 164.058 63.9375H175.967V63.6299C175.85 61.5645 175.293 59.9678 174.297 58.8398C173.301 57.6973 171.954 57.126 170.254 57.126ZM204.18 78H200.115V67.8486H189.195V78H185.108V54.2256H189.195V64.5308H200.115V54.2256H204.18V78ZM230.152 78H226.087V67.8486H215.167V78H211.08V54.2256H215.167V64.5308H226.087V54.2256H230.152V78ZM254.871 54.2256V78H250.784V68.7495H244.654L239.051 78H234.656L240.633 68.1343C239.109 67.5776 237.938 66.7207 237.117 65.5635C236.312 64.3916 235.909 63.0293 235.909 61.4766C235.909 59.3086 236.722 57.5654 238.348 56.2471C239.974 54.9141 242.149 54.2402 244.874 54.2256H254.871ZM239.996 61.5205C239.996 62.6777 240.391 63.6152 241.182 64.333C241.973 65.0361 243.021 65.395 244.324 65.4097H250.784V57.5215H244.939C243.431 57.5215 242.229 57.895 241.336 58.6421C240.442 59.3745 239.996 60.334 239.996 61.5205ZM261.265 84.3721L258.958 82.79C260.335 80.8711 261.053 78.8936 261.111 76.8574V73.188H265.088V76.374C265.088 77.8535 264.722 79.333 263.99 80.8125C263.272 82.292 262.364 83.4785 261.265 84.3721ZM64.4121 128.122C65.8623 128.122 67.1294 127.682 68.2134 126.803C69.2974 125.924 69.8979 124.826 70.0151 123.507H73.8604C73.7871 124.87 73.3184 126.166 72.4541 127.396C71.5898 128.627 70.4326 129.608 68.9824 130.341C67.5469 131.073 66.0234 131.439 64.4121 131.439C61.1748 131.439 58.5967 130.363 56.6777 128.209C54.7734 126.042 53.8213 123.083 53.8213 119.333V118.651C53.8213 116.337 54.2461 114.279 55.0957 112.477C55.9453 110.675 57.1611 109.276 58.7432 108.28C60.3398 107.284 62.2222 106.786 64.3901 106.786C67.0562 106.786 69.2681 107.584 71.0259 109.181C72.7983 110.778 73.7432 112.851 73.8604 115.399H70.0151C69.8979 113.861 69.312 112.602 68.2573 111.62C67.2173 110.624 65.9282 110.126 64.3901 110.126C62.3247 110.126 60.7207 110.873 59.5781 112.367C58.4502 113.847 57.8862 115.993 57.8862 118.805V119.574C57.8862 122.313 58.4502 124.423 59.5781 125.902C60.7061 127.382 62.3174 128.122 64.4121 128.122ZM98.5137 119.376C98.5137 122.995 97.686 125.91 96.0308 128.122C94.3755 130.333 92.1343 131.439 89.3071 131.439C86.4214 131.439 84.1509 130.524 82.4956 128.693V140.141H78.4307V107.226H82.144L82.3418 109.862C83.9971 107.812 86.2969 106.786 89.2412 106.786C92.0977 106.786 94.3535 107.863 96.0088 110.016C97.6787 112.169 98.5137 115.165 98.5137 119.003V119.376ZM94.4487 118.915C94.4487 116.234 93.8774 114.118 92.7349 112.565C91.5923 111.012 90.0249 110.236 88.0327 110.236C85.5718 110.236 83.7261 111.327 82.4956 113.51V124.87C83.7114 127.038 85.5718 128.122 88.0767 128.122C90.0249 128.122 91.5703 127.353 92.7129 125.814C93.8701 124.262 94.4487 121.962 94.4487 118.915ZM118.377 131C118.143 130.531 117.952 129.696 117.806 128.495C115.916 130.458 113.66 131.439 111.038 131.439C108.694 131.439 106.768 130.78 105.259 129.462C103.765 128.129 103.018 126.444 103.018 124.408C103.018 121.933 103.956 120.014 105.831 118.651C107.72 117.274 110.372 116.586 113.785 116.586H117.74V114.718C117.74 113.297 117.315 112.169 116.465 111.334C115.616 110.485 114.363 110.06 112.708 110.06C111.258 110.06 110.042 110.426 109.061 111.159C108.079 111.891 107.588 112.777 107.588 113.817H103.501C103.501 112.631 103.919 111.488 104.754 110.39C105.604 109.276 106.746 108.397 108.182 107.753C109.632 107.108 111.221 106.786 112.95 106.786C115.689 106.786 117.835 107.475 119.388 108.852C120.94 110.214 121.746 112.096 121.805 114.499V125.441C121.805 127.624 122.083 129.359 122.64 130.648V131H118.377ZM111.631 127.902C112.906 127.902 114.114 127.572 115.257 126.913C116.399 126.254 117.227 125.397 117.74 124.342V119.464H114.554C109.573 119.464 107.083 120.922 107.083 123.837C107.083 125.111 107.508 126.107 108.357 126.825C109.207 127.543 110.298 127.902 111.631 127.902ZM128.55 131V107.226H137.823C140.987 107.226 143.411 107.782 145.096 108.896C146.795 109.994 147.645 111.613 147.645 113.751C147.645 114.85 147.315 115.846 146.656 116.74C145.997 117.619 145.022 118.292 143.733 118.761C145.169 119.098 146.319 119.757 147.183 120.739C148.062 121.72 148.501 122.892 148.501 124.254C148.501 126.437 147.696 128.107 146.084 129.264C144.488 130.421 142.225 131 139.295 131H128.55ZM132.615 120.563V127.726H139.339C141.038 127.726 142.305 127.411 143.14 126.781C143.99 126.151 144.415 125.265 144.415 124.123C144.415 121.75 142.671 120.563 139.185 120.563H132.615ZM132.615 117.311H137.867C141.675 117.311 143.58 116.198 143.58 113.971C143.58 111.745 141.778 110.595 138.174 110.521H132.615V117.311ZM168.562 131C168.328 130.531 168.138 129.696 167.991 128.495C166.102 130.458 163.846 131.439 161.224 131.439C158.88 131.439 156.954 130.78 155.445 129.462C153.951 128.129 153.204 126.444 153.204 124.408C153.204 121.933 154.141 120.014 156.016 118.651C157.906 117.274 160.557 116.586 163.97 116.586H167.925V114.718C167.925 113.297 167.5 112.169 166.651 111.334C165.801 110.485 164.549 110.06 162.894 110.06C161.443 110.06 160.228 110.426 159.246 111.159C158.265 111.891 157.774 112.777 157.774 113.817H153.687C153.687 112.631 154.104 111.488 154.939 110.39C155.789 109.276 156.932 108.397 158.367 107.753C159.817 107.108 161.407 106.786 163.135 106.786C165.875 106.786 168.021 107.475 169.573 108.852C171.126 110.214 171.932 112.096 171.99 114.499V125.441C171.99 127.624 172.269 129.359 172.825 130.648V131H168.562ZM161.817 127.902C163.091 127.902 164.3 127.572 165.442 126.913C166.585 126.254 167.413 125.397 167.925 124.342V119.464H164.739C159.759 119.464 157.269 120.922 157.269 123.837C157.269 125.111 157.693 126.107 158.543 126.825C159.393 127.543 160.484 127.902 161.817 127.902ZM197.786 131H193.721V120.849H182.801V131H178.714V107.226H182.801V117.531H193.721V107.226H197.786V131ZM208.75 131H204.686V107.226H208.75V131ZM204.356 100.919C204.356 100.26 204.554 99.7036 204.949 99.2495C205.359 98.7954 205.96 98.5684 206.751 98.5684C207.542 98.5684 208.143 98.7954 208.553 99.2495C208.963 99.7036 209.168 100.26 209.168 100.919C209.168 101.579 208.963 102.128 208.553 102.567C208.143 103.007 207.542 103.227 206.751 103.227C205.96 103.227 205.359 103.007 204.949 102.567C204.554 102.128 204.356 101.579 204.356 100.919Z" fill="black"/>
</svg>
