<svg width="221" height="141" viewBox="0 0 221 141" fill="none" xmlns="http://www.w3.org/2000/svg">
<path d="M10.9585 31.1216C12.4087 31.1216 13.6758 30.6821 14.7598 29.8032C15.8438 28.9243 16.4443 27.8257 16.5615 26.5073H20.4067C20.3335 27.8696 19.8647 29.166 19.0005 30.3965C18.1362 31.627 16.979 32.6084 15.5288 33.3408C14.0933 34.0732 12.5698 34.4395 10.9585 34.4395C7.72119 34.4395 5.14307 33.3628 3.22412 31.2095C1.31982 29.0415 0.367676 26.0825 0.367676 22.3325V21.6514C0.367676 19.3369 0.79248 17.2788 1.64209 15.4771C2.4917 13.6753 3.70752 12.2764 5.28955 11.2803C6.88623 10.2842 8.76855 9.78613 10.9365 9.78613C13.6025 9.78613 15.8145 10.5845 17.5723 12.1812C19.3447 13.7778 20.2896 15.8506 20.4067 18.3994H16.5615C16.4443 16.8613 15.8584 15.6016 14.8037 14.6201C13.7637 13.624 12.4746 13.126 10.9365 13.126C8.87109 13.126 7.26709 13.873 6.12451 15.3672C4.99658 16.8467 4.43262 18.9927 4.43262 21.8052V22.5742C4.43262 25.3135 4.99658 27.4229 6.12451 28.9023C7.25244 30.3818 8.86377 31.1216 10.9585 31.1216ZM29.042 13.104C30.8438 10.8921 33.1875 9.78613 36.0732 9.78613C41.0977 9.78613 43.6318 12.6206 43.6758 18.2896V34H39.6108V18.2676C39.5962 16.5537 39.2007 15.2866 38.4243 14.4663C37.6626 13.646 36.4688 13.2358 34.8428 13.2358C33.5244 13.2358 32.3672 13.5874 31.3711 14.2905C30.375 14.9937 29.5986 15.9165 29.042 17.0591V34H24.9771V0.25H29.042V13.104ZM64.4399 31.6489C62.8579 33.5093 60.5361 34.4395 57.4746 34.4395C54.9404 34.4395 53.0068 33.707 51.6738 32.2422C50.3555 30.7627 49.689 28.5801 49.6743 25.6943V10.2256H53.7393V25.5845C53.7393 29.188 55.2041 30.9897 58.1338 30.9897C61.2393 30.9897 63.3047 29.8325 64.3301 27.5181V10.2256H68.395V34H64.5278L64.4399 31.6489ZM61.144 0.25H66.0659L60.1772 6.70996H56.9033L61.144 0.25ZM84.1274 31.1216C85.5776 31.1216 86.8447 30.6821 87.9287 29.8032C89.0127 28.9243 89.6133 27.8257 89.7305 26.5073H93.5757C93.5024 27.8696 93.0337 29.166 92.1694 30.3965C91.3052 31.627 90.1479 32.6084 88.6978 33.3408C87.2622 34.0732 85.7388 34.4395 84.1274 34.4395C80.8901 34.4395 78.312 33.3628 76.3931 31.2095C74.4888 29.0415 73.5366 26.0825 73.5366 22.3325V21.6514C73.5366 19.3369 73.9614 17.2788 74.811 15.4771C75.6606 13.6753 76.8765 12.2764 78.4585 11.2803C80.0552 10.2842 81.9375 9.78613 84.1055 9.78613C86.7715 9.78613 88.9834 10.5845 90.7412 12.1812C92.5137 13.7778 93.4585 15.8506 93.5757 18.3994H89.7305C89.6133 16.8613 89.0273 15.6016 87.9727 14.6201C86.9326 13.624 85.6436 13.126 84.1055 13.126C82.04 13.126 80.436 13.873 79.2935 15.3672C78.1655 16.8467 77.6016 18.9927 77.6016 21.8052V22.5742C77.6016 25.3135 78.1655 27.4229 79.2935 28.9023C80.4214 30.3818 82.0327 31.1216 84.1274 31.1216ZM113.131 10.2256L113.241 12.8623C114.984 10.8115 117.335 9.78613 120.294 9.78613C123.62 9.78613 125.883 11.0605 127.084 13.6094C127.875 12.4668 128.9 11.5439 130.16 10.8408C131.435 10.1377 132.936 9.78613 134.665 9.78613C139.879 9.78613 142.531 12.5474 142.619 18.0698V34H138.554V18.3115C138.554 16.6123 138.166 15.3452 137.389 14.5103C136.613 13.6606 135.309 13.2358 133.478 13.2358C131.969 13.2358 130.717 13.6899 129.721 14.5981C128.725 15.4917 128.146 16.7002 127.985 18.2236V34H123.898V18.4214C123.898 14.9644 122.206 13.2358 118.822 13.2358C116.156 13.2358 114.333 14.3711 113.351 16.6416V34H109.286V10.2256H113.131ZM174.149 8.33594C174.149 10.9727 173.607 12.833 172.523 13.917C171.454 14.9863 169.748 15.5503 167.404 15.6089V34H163.537L163.449 31.6489C161.867 33.5093 159.545 34.4395 156.483 34.4395C153.949 34.4395 152.016 33.707 150.683 32.2422C149.364 30.7627 148.698 28.5801 148.683 25.6943V10.2256H152.748V25.5845C152.748 29.188 154.213 30.9897 157.143 30.9897C160.248 30.9897 162.313 29.8325 163.339 27.5181V10.2256H167.404V13.104C168.4 13.0747 169.147 12.9355 169.645 12.6865C170.143 12.4229 170.495 12.0273 170.7 11.5C170.919 10.9727 171.029 9.91797 171.029 8.33594H174.149ZM160.768 7.14941H157.274L151.605 0.689453H156.505L160.768 7.14941ZM180.478 10.2256L180.609 13.2139C182.426 10.9287 184.799 9.78613 187.729 9.78613C192.753 9.78613 195.287 12.6206 195.331 18.2896V34H191.266V18.2676C191.251 16.5537 190.856 15.2866 190.08 14.4663C189.318 13.646 188.124 13.2358 186.498 13.2358C185.18 13.2358 184.022 13.5874 183.026 14.2905C182.03 14.9937 181.254 15.9165 180.697 17.0591V34H176.632V10.2256H180.478ZM200.495 21.915C200.495 18.209 201.352 15.2646 203.065 13.082C204.779 10.8848 207.05 9.78613 209.877 9.78613C212.777 9.78613 215.041 10.8115 216.667 12.8623L216.864 10.2256H220.578V33.4287C220.578 36.5049 219.662 38.9292 217.831 40.7017C216.015 42.4741 213.568 43.3604 210.492 43.3604C208.778 43.3604 207.101 42.9941 205.46 42.2617C203.82 41.5293 202.567 40.5259 201.703 39.2515L203.812 36.8125C205.556 38.9658 207.687 40.0425 210.207 40.0425C212.184 40.0425 213.722 39.4858 214.821 38.3726C215.934 37.2593 216.491 35.6919 216.491 33.6704V31.627C214.865 33.502 212.646 34.4395 209.833 34.4395C207.05 34.4395 204.794 33.3188 203.065 31.0776C201.352 28.8364 200.495 25.7822 200.495 21.915ZM204.582 22.3765C204.582 25.0571 205.131 27.1665 206.229 28.7046C207.328 30.228 208.866 30.9897 210.844 30.9897C213.407 30.9897 215.29 29.8252 216.491 27.4961V16.6416C215.246 14.3711 213.378 13.2358 210.888 13.2358C208.91 13.2358 207.365 14.0049 206.251 15.543C205.138 17.0811 204.582 19.3589 204.582 22.3765ZM31.6348 80.6938C31.6348 79.5952 31.2173 78.7456 30.3823 78.145C29.562 77.5298 28.1191 77.0024 26.0537 76.563C24.0029 76.1235 22.3696 75.5962 21.1538 74.981C19.9526 74.3657 19.0591 73.6333 18.4731 72.7837C17.9019 71.9341 17.6162 70.9233 17.6162 69.7515C17.6162 67.8032 18.4365 66.1553 20.0771 64.8076C21.7324 63.46 23.8418 62.7861 26.4053 62.7861C29.1006 62.7861 31.2832 63.4819 32.9531 64.8735C34.6377 66.2651 35.48 68.0449 35.48 70.2129H31.3931C31.3931 69.0996 30.917 68.1401 29.9648 67.3345C29.0273 66.5288 27.8408 66.126 26.4053 66.126C24.9258 66.126 23.7686 66.4482 22.9336 67.0928C22.0986 67.7373 21.6812 68.5796 21.6812 69.6196C21.6812 70.6011 22.0693 71.3408 22.8457 71.8389C23.6221 72.3369 25.021 72.813 27.0425 73.2671C29.0786 73.7212 30.7266 74.2632 31.9863 74.8931C33.2461 75.5229 34.1763 76.2847 34.7769 77.1782C35.3921 78.0571 35.6997 79.1338 35.6997 80.4082C35.6997 82.5322 34.8501 84.2388 33.1509 85.5278C31.4517 86.8022 29.2471 87.4395 26.5371 87.4395C24.6328 87.4395 22.9482 87.1025 21.4834 86.4287C20.0186 85.7549 18.8687 84.8174 18.0337 83.6162C17.2134 82.4004 16.8032 81.0894 16.8032 79.6831H20.8682C20.9414 81.0454 21.4834 82.1294 22.4941 82.9351C23.5195 83.7261 24.8672 84.1216 26.5371 84.1216C28.0752 84.1216 29.3057 83.814 30.2285 83.1987C31.166 82.5688 31.6348 81.7339 31.6348 80.6938ZM45.4116 87H41.3467V63.2256H45.4116V87ZM41.0171 56.9194C41.0171 56.2603 41.2148 55.7036 41.6104 55.2495C42.0205 54.7954 42.6211 54.5684 43.4121 54.5684C44.2031 54.5684 44.8037 54.7954 45.2139 55.2495C45.624 55.7036 45.8291 56.2603 45.8291 56.9194C45.8291 57.5786 45.624 58.1279 45.2139 58.5674C44.8037 59.0068 44.2031 59.2266 43.4121 59.2266C42.6211 59.2266 42.0205 59.0068 41.6104 58.5674C41.2148 58.1279 41.0171 57.5786 41.0171 56.9194ZM55.7827 63.2256L55.9146 66.2139C57.731 63.9287 60.104 62.7861 63.0337 62.7861C68.0581 62.7861 70.5923 65.6206 70.6362 71.2896V87H66.5713V71.2676C66.5566 69.5537 66.1611 68.2866 65.3848 67.4663C64.623 66.646 63.4292 66.2358 61.8032 66.2358C60.4849 66.2358 59.3276 66.5874 58.3315 67.2905C57.3354 67.9937 56.5591 68.9165 56.0024 70.0591V87H51.9375V63.2256H55.7827ZM80.8315 66.104C82.6333 63.8921 84.9771 62.7861 87.8628 62.7861C92.8872 62.7861 95.4214 65.6206 95.4653 71.2896V87H91.4004V71.2676C91.3857 69.5537 90.9902 68.2866 90.2139 67.4663C89.4521 66.646 88.2583 66.2358 86.6323 66.2358C85.314 66.2358 84.1567 66.5874 83.1606 67.2905C82.1646 67.9937 81.3882 68.9165 80.8315 70.0591V87H76.7666V53.25H80.8315V66.104ZM116.559 63.2256L116.691 66.2139C118.507 63.9287 120.88 62.7861 123.81 62.7861C128.834 62.7861 131.369 65.6206 131.413 71.2896V87H127.348V71.2676C127.333 69.5537 126.938 68.2866 126.161 67.4663C125.399 66.646 124.206 66.2358 122.58 66.2358C121.261 66.2358 120.104 66.5874 119.108 67.2905C118.112 67.9937 117.335 68.9165 116.779 70.0591V87H112.714V63.2256H116.559ZM141.608 66.104C143.41 63.8921 145.753 62.7861 148.639 62.7861C153.664 62.7861 156.198 65.6206 156.242 71.2896V87H152.177V71.2676C152.162 69.5537 151.767 68.2866 150.99 67.4663C150.229 66.646 149.035 66.2358 147.409 66.2358C146.09 66.2358 144.933 66.5874 143.937 67.2905C142.941 67.9937 142.165 68.9165 141.608 70.0591V87H137.543V53.25H141.608V66.104ZM177.006 87C176.771 86.5312 176.581 85.6963 176.435 84.4951C174.545 86.458 172.289 87.4395 169.667 87.4395C167.323 87.4395 165.397 86.7803 163.888 85.4619C162.394 84.1289 161.647 82.4443 161.647 80.4082C161.647 77.9326 162.584 76.0137 164.459 74.6514C166.349 73.2744 169 72.5859 172.414 72.5859H176.369V70.7183C176.369 69.2974 175.944 68.1694 175.094 67.3345C174.245 66.4849 172.992 66.0601 171.337 66.0601C169.887 66.0601 168.671 66.4263 167.689 67.1587C166.708 67.8911 166.217 68.7773 166.217 69.8174H162.13C162.13 68.6309 162.548 67.4883 163.383 66.3896C164.232 65.2764 165.375 64.3975 166.811 63.7529C168.261 63.1084 169.85 62.7861 171.579 62.7861C174.318 62.7861 176.464 63.4746 178.017 64.8516C179.569 66.2139 180.375 68.0962 180.434 70.4985V81.4409C180.434 83.6235 180.712 85.3594 181.269 86.6484V87H177.006ZM170.26 83.9019C171.535 83.9019 172.743 83.5723 173.886 82.9131C175.028 82.2539 175.856 81.397 176.369 80.3423V75.4644H173.183C168.202 75.4644 165.712 76.9219 165.712 79.8369C165.712 81.1113 166.137 82.1074 166.986 82.8252C167.836 83.543 168.927 83.9019 170.26 83.9019ZM178.676 59.2705V59.4902H175.314L172.018 55.7549L168.744 59.4902H165.382V59.2266L170.788 53.25H173.249L178.676 59.2705ZM167.733 92.3833C167.733 91.7241 167.931 91.1675 168.327 90.7134C168.737 90.2593 169.337 90.0322 170.128 90.0322C170.919 90.0322 171.52 90.2593 171.93 90.7134C172.34 91.1675 172.545 91.7241 172.545 92.3833C172.545 93.0425 172.34 93.5918 171.93 94.0312C171.52 94.4707 170.919 94.6904 170.128 94.6904C169.337 94.6904 168.737 94.4707 168.327 94.0312C167.931 93.5918 167.733 93.0425 167.733 92.3833ZM192.321 57.4688V63.2256H196.759V66.3677H192.321V81.1113C192.321 82.0635 192.519 82.7812 192.914 83.2646C193.31 83.7334 193.983 83.9678 194.936 83.9678C195.404 83.9678 196.049 83.8799 196.869 83.7041V87C195.8 87.293 194.76 87.4395 193.749 87.4395C191.933 87.4395 190.563 86.8901 189.64 85.7915C188.717 84.6929 188.256 83.1328 188.256 81.1113V66.3677H183.927V63.2256H188.256V57.4688H192.321ZM201.396 93.3721L199.088 91.79C200.465 89.8711 201.183 87.8936 201.242 85.8574V82.188H205.219V85.374C205.219 86.8535 204.853 88.333 204.12 89.8125C203.402 91.292 202.494 92.4785 201.396 93.3721ZM56.2222 133.694C56.2222 132.595 55.8047 131.746 54.9697 131.145C54.1494 130.53 52.7065 130.002 50.6411 129.563C48.5903 129.124 46.957 128.596 45.7412 127.981C44.54 127.366 43.6465 126.633 43.0605 125.784C42.4893 124.934 42.2036 123.923 42.2036 122.751C42.2036 120.803 43.0239 119.155 44.6646 117.808C46.3198 116.46 48.4292 115.786 50.9927 115.786C53.688 115.786 55.8706 116.482 57.5405 117.874C59.2251 119.265 60.0674 121.045 60.0674 123.213H55.9805C55.9805 122.1 55.5044 121.14 54.5522 120.334C53.6147 119.529 52.4282 119.126 50.9927 119.126C49.5132 119.126 48.356 119.448 47.521 120.093C46.686 120.737 46.2686 121.58 46.2686 122.62C46.2686 123.601 46.6567 124.341 47.4331 124.839C48.2095 125.337 49.6084 125.813 51.6299 126.267C53.666 126.721 55.314 127.263 56.5737 127.893C57.8335 128.523 58.7637 129.285 59.3643 130.178C59.9795 131.057 60.2871 132.134 60.2871 133.408C60.2871 135.532 59.4375 137.239 57.7383 138.528C56.0391 139.802 53.8345 140.439 51.1245 140.439C49.2202 140.439 47.5356 140.103 46.0708 139.429C44.606 138.755 43.4561 137.817 42.6211 136.616C41.8008 135.4 41.3906 134.089 41.3906 132.683H45.4556C45.5288 134.045 46.0708 135.129 47.0815 135.935C48.1069 136.726 49.4546 137.122 51.1245 137.122C52.6626 137.122 53.8931 136.814 54.8159 136.199C55.7534 135.569 56.2222 134.734 56.2222 133.694ZM77.0742 119.873C76.459 119.771 75.7925 119.719 75.0747 119.719C72.4087 119.719 70.5996 120.854 69.6475 123.125V140H65.5825V116.226H69.5376L69.6035 118.972C70.9365 116.848 72.8262 115.786 75.2725 115.786C76.0635 115.786 76.6641 115.889 77.0742 116.094V119.873ZM94.6304 140C94.396 139.531 94.2056 138.696 94.0591 137.495C92.1694 139.458 89.9136 140.439 87.2915 140.439C84.9478 140.439 83.0215 139.78 81.5127 138.462C80.0186 137.129 79.2715 135.444 79.2715 133.408C79.2715 130.933 80.209 129.014 82.084 127.651C83.9736 126.274 86.625 125.586 90.0381 125.586H93.9932V123.718C93.9932 122.297 93.5684 121.169 92.7188 120.334C91.8691 119.485 90.6167 119.06 88.9614 119.06C87.5112 119.06 86.2954 119.426 85.314 120.159C84.3325 120.891 83.8418 121.777 83.8418 122.817H79.7549C79.7549 121.631 80.1724 120.488 81.0073 119.39C81.8569 118.276 82.9995 117.397 84.4351 116.753C85.8853 116.108 87.4746 115.786 89.2031 115.786C91.9424 115.786 94.0884 116.475 95.6411 117.852C97.1938 119.214 97.9995 121.096 98.0581 123.499V134.441C98.0581 136.624 98.3364 138.359 98.8931 139.648V140H94.6304ZM87.8848 136.902C89.1592 136.902 90.3677 136.572 91.5103 135.913C92.6528 135.254 93.4805 134.397 93.9932 133.342V128.464H90.8071C85.8267 128.464 83.3364 129.922 83.3364 132.837C83.3364 134.111 83.7612 135.107 84.6108 135.825C85.4604 136.543 86.5518 136.902 87.8848 136.902ZM111.923 134.485L117.812 116.226H121.964L113.439 140H110.341L101.728 116.226H105.88L111.923 134.485ZM140.202 140C139.967 139.531 139.777 138.696 139.63 137.495C137.741 139.458 135.485 140.439 132.863 140.439C130.519 140.439 128.593 139.78 127.084 138.462C125.59 137.129 124.843 135.444 124.843 133.408C124.843 130.933 125.78 129.014 127.655 127.651C129.545 126.274 132.196 125.586 135.609 125.586H139.564V123.718C139.564 122.297 139.14 121.169 138.29 120.334C137.44 119.485 136.188 119.06 134.533 119.06C133.083 119.06 131.867 119.426 130.885 120.159C129.904 120.891 129.413 121.777 129.413 122.817H125.326C125.326 121.631 125.744 120.488 126.579 119.39C127.428 118.276 128.571 117.397 130.006 116.753C131.457 116.108 133.046 115.786 134.774 115.786C137.514 115.786 139.66 116.475 141.212 117.852C142.765 119.214 143.571 121.096 143.629 123.499V134.441C143.629 136.624 143.908 138.359 144.464 139.648V140H140.202ZM133.456 136.902C134.73 136.902 135.939 136.572 137.082 135.913C138.224 135.254 139.052 134.397 139.564 133.342V128.464H136.378C131.398 128.464 128.908 129.922 128.908 132.837C128.908 134.111 129.333 135.107 130.182 135.825C131.032 136.543 132.123 136.902 133.456 136.902ZM153.847 116.226L153.979 119.214C155.795 116.929 158.168 115.786 161.098 115.786C166.122 115.786 168.656 118.621 168.7 124.29V140H164.635V124.268C164.621 122.554 164.225 121.287 163.449 120.466C162.687 119.646 161.493 119.236 159.867 119.236C158.549 119.236 157.392 119.587 156.396 120.291C155.399 120.994 154.623 121.917 154.066 123.059V140H150.001V116.226H153.847ZM179.247 140H175.182V116.226H179.247V140ZM174.853 109.919C174.853 109.26 175.05 108.704 175.446 108.25C175.856 107.795 176.457 107.568 177.248 107.568C178.039 107.568 178.639 107.795 179.049 108.25C179.459 108.704 179.665 109.26 179.665 109.919C179.665 110.579 179.459 111.128 179.049 111.567C178.639 112.007 178.039 112.227 177.248 112.227C176.457 112.227 175.856 112.007 175.446 111.567C175.05 111.128 174.853 110.579 174.853 109.919Z" fill="black"/>
</svg>
